<?xml version="1.0" encoding="UTF-8" standalone="no"?><svg xmlns="http://www.w3.org/2000/svg" xmlns:xlink="http://www.w3.org/1999/xlink" contentScriptType="application/ecmascript" contentStyleType="text/css" height="265px" preserveAspectRatio="none" style="width:370px;height:265px;background:#FFFFFF;" version="1.1" viewBox="0 0 370 265" width="370px" zoomAndPan="magnify"><defs><filter height="300%" id="f1fmqowf27s6lf" width="300%" x="-1" y="-1"><feGaussianBlur result="blurOut" stdDeviation="2.0"/><feColorMatrix in="blurOut" result="blurOut2" type="matrix" values="0 0 0 0 0 0 0 0 0 0 0 0 0 0 0 0 0 0 .4 0"/><feOffset dx="4.0" dy="4.0" in="blurOut2" result="blurOut3"/><feBlend in="SourceGraphic" in2="blurOut3" mode="normal"/></filter></defs><g><!--MD5=[99d76ae55653304f3b9779bd599d8ac5]
cluster nz.ac.wgtn.swen225.lc.persistency.exceptions--><polygon fill="#FFFFFF" filter="url(#f1fmqowf27s6lf)" points="16,129,343,129,350,151.4883,353,151.4883,353,240.96,16,240.96,16,129" style="stroke:#000000;stroke-width:1.5;"/><line style="stroke:#000000;stroke-width:1.5;" x1="16" x2="350" y1="151.4883" y2="151.4883"/><text fill="#000000" font-family="sans-serif" font-size="14" font-weight="bold" lengthAdjust="spacing" textLength="321" x="20" y="144.5352">nz.ac.wgtn.swen225.lc.persistency.exceptions</text><!--MD5=[aa8f7b917213fcc1c2766e2d59b49067]
cluster java.lang--><polygon fill="#FFFFFF" filter="url(#f1fmqowf27s6lf)" points="124,6,193,6,200,28.4883,244,28.4883,244,105,124,105,124,6" style="stroke:#000000;stroke-width:1.5;"/><line style="stroke:#000000;stroke-width:1.5;" x1="124" x2="200" y1="28.4883" y2="28.4883"/><text fill="#000000" font-family="sans-serif" font-size="14" font-weight="bold" lengthAdjust="spacing" textLength="63" x="128" y="21.5352">java.lang</text><!--MD5=[dc37b589c998063edd5a01d8584bec39]
class nz.ac.wgtn.swen225.lc.persistency.exceptions.TileTypeNotFoundException--><a href="TileTypeNotFoundException.html" target="_top" title="TileTypeNotFoundException.html" xlink:actuate="onRequest" xlink:href="TileTypeNotFoundException.html" xlink:show="new" xlink:title="TileTypeNotFoundException.html" xlink:type="simple"><rect codeLine="3" fill="#FEFECE" filter="url(#f1fmqowf27s6lf)" height="60.9551" id="nz.ac.wgtn.swen225.lc.persistency.exceptions.TileTypeNotFoundException" style="stroke:#A80036;stroke-width:1.5;" width="217" x="75.5" y="164"/><ellipse cx="101.3" cy="180" fill="#ADD1B2" rx="11" ry="11" style="stroke:#A80036;stroke-width:1.0;"/><path d="M103.7731,186.1431 Q103.1921,186.4419 102.5529,186.5913 Q101.9138,186.7407 101.2082,186.7407 Q98.7014,186.7407 97.3815,185.0889 Q96.0617,183.437 96.0617,180.3159 Q96.0617,177.1865 97.3815,175.5347 Q98.7014,173.8828 101.2082,173.8828 Q101.9138,173.8828 102.5612,174.0322 Q103.2087,174.1816 103.7731,174.4805 L103.7731,177.2031 Q103.1423,176.6221 102.5488,176.3523 Q101.9553,176.0825 101.3244,176.0825 Q99.9797,176.0825 99.2949,177.1492 Q98.6101,178.2158 98.6101,180.3159 Q98.6101,182.4077 99.2949,183.4744 Q99.9797,184.541 101.3244,184.541 Q101.9553,184.541 102.5488,184.2712 Q103.1423,184.0015 103.7731,183.4204 Z " fill="#000000"/><text fill="#000000" font-family="sans-serif" font-size="12" lengthAdjust="spacing" textLength="161" x="117.7" y="184.5352">TileTypeNotFoundException</text><line style="stroke:#A80036;stroke-width:1.5;" x1="76.5" x2="291.5" y1="196" y2="196"/><line style="stroke:#A80036;stroke-width:1.5;" x1="76.5" x2="291.5" y1="204" y2="204"/><ellipse cx="86.5" cy="215" fill="#84BE84" rx="3" ry="3" style="stroke:#038048;stroke-width:1.0;"/><text fill="#000000" font-family="sans-serif" font-size="11" lengthAdjust="spacing" textLength="191" x="95.5" y="218.6348">TileTypeNotFoundException(String)</text></a><!--MD5=[46c05dfe24a0851e179497c4631d3ff2]
class java.lang.Exception--><rect codeLine="11" fill="#FEFECE" filter="url(#f1fmqowf27s6lf)" height="48" id="java.lang.Exception" style="stroke:#A80036;stroke-width:1.5;" width="88" x="140" y="41"/><ellipse cx="155" cy="57" fill="#ADD1B2" rx="11" ry="11" style="stroke:#A80036;stroke-width:1.0;"/><path d="M157.4731,63.1431 Q156.8921,63.4419 156.2529,63.5913 Q155.6138,63.7407 154.9082,63.7407 Q152.4014,63.7407 151.0815,62.0889 Q149.7617,60.437 149.7617,57.3159 Q149.7617,54.1865 151.0815,52.5347 Q152.4014,50.8828 154.9082,50.8828 Q155.6138,50.8828 156.2612,51.0322 Q156.9087,51.1816 157.4731,51.4805 L157.4731,54.2031 Q156.8423,53.6221 156.2488,53.3523 Q155.6553,53.0825 155.0244,53.0825 Q153.6797,53.0825 152.9949,54.1492 Q152.3101,55.2158 152.3101,57.3159 Q152.3101,59.4077 152.9949,60.4744 Q153.6797,61.541 155.0244,61.541 Q155.6553,61.541 156.2488,61.2712 Q156.8423,61.0015 157.4731,60.4204 Z " fill="#000000"/><text fill="#000000" font-family="sans-serif" font-size="12" lengthAdjust="spacing" textLength="56" x="169" y="61.5352">Exception</text><line style="stroke:#A80036;stroke-width:1.5;" x1="141" x2="227" y1="73" y2="73"/><line style="stroke:#A80036;stroke-width:1.5;" x1="141" x2="227" y1="81" y2="81"/><!--MD5=[18272cb3b7cce186a17fb2270073bcdc]
reverse link java.lang.Exception to nz.ac.wgtn.swen225.lc.persistency.exceptions.TileTypeNotFoundException--><path codeLine="7" d="M184,110.82 C184,128.45 184,148.19 184,163.97 " fill="none" id="java.lang.Exception-backto-nz.ac.wgtn.swen225.lc.persistency.exceptions.TileTypeNotFoundException" style="stroke:#A80036;stroke-width:1.0;"/><polygon fill="none" points="177,110.9,184,90.9,191,110.9,177,110.9" style="stroke:#A80036;stroke-width:1.0;"/><text fill="#888888" font-family="sans-serif" font-size="10" lengthAdjust="spacing" textLength="182" x="87.5" y="256.628">UMLDoclet 2.0.14, PlantUML 1.2021.9</text><!--MD5=[c7b979b596089ba7f624fbfb2f40d574]
@startuml
    namespace nz.ac.wgtn.swen225.lc.persistency.exceptions {

        class TileTypeNotFoundException [[TileTypeNotFoundException.html]] {
            +TileTypeNotFoundException(String)
        }

        java.lang.Exception <|- - TileTypeNotFoundException
    }

    namespace java.lang {
        class Exception {
        }
    }

    center footer UMLDoclet 2.0.14, PlantUML 1.2021.9
@enduml

PlantUML version 1.2021.9(Sun Jul 25 22:13:56 NZST 2021)
(APACHE source distribution)
Java Runtime: OpenJDK Runtime Environment
JVM: OpenJDK 64-Bit Server VM
Default Encoding: UTF-8
Language: en
Country: NZ
--></g></svg>