<?xml version="1.0" encoding="UTF-8" standalone="no"?><svg xmlns="http://www.w3.org/2000/svg" xmlns:xlink="http://www.w3.org/1999/xlink" contentScriptType="application/ecmascript" contentStyleType="text/css" height="195px" preserveAspectRatio="none" style="width:277px;height:195px;background:#FFFFFF;" version="1.1" viewBox="0 0 277 195" width="277px" zoomAndPan="magnify"><defs><filter height="300%" id="f1ec06gzkjmt73" width="300%" x="-1" y="-1"><feGaussianBlur result="blurOut" stdDeviation="2.0"/><feColorMatrix in="blurOut" result="blurOut2" type="matrix" values="0 0 0 0 0 0 0 0 0 0 0 0 0 0 0 0 0 0 .4 0"/><feOffset dx="4.0" dy="4.0" in="blurOut2" result="blurOut3"/><feBlend in="SourceGraphic" in2="blurOut3" mode="normal"/></filter></defs><g><!--MD5=[dc37b589c998063edd5a01d8584bec39]
class nz.ac.wgtn.swen225.lc.persistency.exceptions.TileTypeNotFoundException--><a href="TileTypeNotFoundException.html" target="_top" title="TileTypeNotFoundException.html" xlink:actuate="onRequest" xlink:href="TileTypeNotFoundException.html" xlink:show="new" xlink:title="TileTypeNotFoundException.html" xlink:type="simple"><rect codeLine="5" fill="#FEFECE" filter="url(#f1ec06gzkjmt73)" height="59.2207" id="nz.ac.wgtn.swen225.lc.persistency.exceptions.TileTypeNotFoundException" style="stroke:#A80036;stroke-width:1.5;" width="256" x="7" y="105.27"/><ellipse cx="22" cy="124.4028" fill="#ADD1B2" rx="11" ry="11" style="stroke:#A80036;stroke-width:1.0;"/><path d="M24.4731,130.5459 Q23.8921,130.8447 23.2529,130.9941 Q22.6138,131.1435 21.9082,131.1435 Q19.4014,131.1435 18.0815,129.4917 Q16.7617,127.8398 16.7617,124.7187 Q16.7617,121.5893 18.0815,119.9375 Q19.4014,118.2856 21.9082,118.2856 Q22.6138,118.2856 23.2612,118.435 Q23.9087,118.5845 24.4731,118.8833 L24.4731,121.6059 Q23.8423,121.0249 23.2488,120.7551 Q22.6553,120.4853 22.0244,120.4853 Q20.6797,120.4853 19.9949,121.552 Q19.3101,122.6186 19.3101,124.7187 Q19.3101,126.8105 19.9949,127.8772 Q20.6797,128.9438 22.0244,128.9438 Q22.6553,128.9438 23.2488,128.6741 Q23.8423,128.4043 24.4731,127.8232 Z " fill="#000000"/><text fill="#000000" font-family="sans-serif" font-size="14" lengthAdjust="spacing" textLength="194" x="51" y="123.8052">TileTypeNotFoundException</text><text fill="#000000" font-family="sans-serif" font-size="10" lengthAdjust="spacing" textLength="224" x="36" y="136.4263">nz.ac.wgtn.swen225.lc.persistency.exceptions</text><line style="stroke:#A80036;stroke-width:1.5;" x1="8" x2="262" y1="143.5356" y2="143.5356"/><ellipse cx="18" cy="154.5356" fill="#84BE84" rx="3" ry="3" style="stroke:#038048;stroke-width:1.0;"/><text fill="#000000" font-family="sans-serif" font-size="11" lengthAdjust="spacing" textLength="191" x="27" y="158.1704">TileTypeNotFoundException(String)</text></a><!--MD5=[46c05dfe24a0851e179497c4631d3ff2]
class java.lang.Exception--><rect codeLine="9" fill="#FEFECE" filter="url(#f1ec06gzkjmt73)" height="38.2656" id="java.lang.Exception" style="stroke:#A80036;stroke-width:1.5;" width="100" x="85" y="7"/><ellipse cx="100" cy="26.1328" fill="#ADD1B2" rx="11" ry="11" style="stroke:#A80036;stroke-width:1.0;"/><path d="M102.4731,32.2759 Q101.8921,32.5747 101.2529,32.7241 Q100.6138,32.8735 99.9082,32.8735 Q97.4014,32.8735 96.0815,31.2217 Q94.7617,29.5698 94.7617,26.4487 Q94.7617,23.3193 96.0815,21.6675 Q97.4014,20.0156 99.9082,20.0156 Q100.6138,20.0156 101.2612,20.165 Q101.9087,20.3145 102.4731,20.6133 L102.4731,23.3359 Q101.8423,22.7549 101.2488,22.4851 Q100.6553,22.2153 100.0244,22.2153 Q98.6797,22.2153 97.9949,23.282 Q97.3101,24.3486 97.3101,26.4487 Q97.3101,28.5405 97.9949,29.6072 Q98.6797,30.6738 100.0244,30.6738 Q100.6553,30.6738 101.2488,30.4041 Q101.8423,30.1343 102.4731,29.5532 Z " fill="#000000"/><text fill="#000000" font-family="sans-serif" font-size="14" lengthAdjust="spacing" textLength="68" x="114" y="25.5352">Exception</text><text fill="#000000" font-family="sans-serif" font-size="10" lengthAdjust="spacing" textLength="44" x="126" y="38.1563">java.lang</text><!--MD5=[18272cb3b7cce186a17fb2270073bcdc]
reverse link java.lang.Exception to nz.ac.wgtn.swen225.lc.persistency.exceptions.TileTypeNotFoundException--><path codeLine="11" d="M135,67.2 C135,79.78 135,93.41 135,105.05 " fill="none" id="java.lang.Exception-backto-nz.ac.wgtn.swen225.lc.persistency.exceptions.TileTypeNotFoundException" style="stroke:#A80036;stroke-width:1.0;"/><polygon fill="none" points="128,67.24,135,47.24,142,67.24,128,67.24" style="stroke:#A80036;stroke-width:1.0;"/><text fill="#888888" font-family="sans-serif" font-size="10" lengthAdjust="spacing" textLength="182" x="41" y="187.1587">UMLDoclet 2.0.14, PlantUML 1.2021.9</text><!--MD5=[91baf784b0dd5174bffabb263122c181]
@startuml
    set namespaceSeparator none
    hide empty fields
    hide empty methods

    class "<size:14>TileTypeNotFoundException\n<size:10>nz.ac.wgtn.swen225.lc.persistency.exceptions" as nz.ac.wgtn.swen225.lc.persistency.exceptions.TileTypeNotFoundException [[TileTypeNotFoundException.html]] {
        +TileTypeNotFoundException(String)
    }

    class "<size:14>Exception\n<size:10>java.lang" as java.lang.Exception

    java.lang.Exception <|- - nz.ac.wgtn.swen225.lc.persistency.exceptions.TileTypeNotFoundException

    center footer UMLDoclet 2.0.14, PlantUML 1.2021.9
@enduml

PlantUML version 1.2021.9(Sun Jul 25 22:13:56 NZST 2021)
(APACHE source distribution)
Java Runtime: OpenJDK Runtime Environment
JVM: OpenJDK 64-Bit Server VM
Default Encoding: UTF-8
Language: en
Country: NZ
--></g></svg>