<?xml version="1.0" standalone="no"?>
<!DOCTYPE svg PUBLIC "-//W3C//DTD SVG 20010904//EN"
 "http://www.w3.org/TR/2001/REC-SVG-20010904/DTD/svg10.dtd">
<svg version="1.0" xmlns="http://www.w3.org/2000/svg"
 width="440.000000pt" height="115.000000pt" viewBox="0 0 440.000000 115.000000"
 preserveAspectRatio="xMidYMid meet">

<g transform="translate(0.000000,115.000000) scale(0.100000,-0.100000)"
fill="#000000" stroke="none">
<path d="M345 1127 c-171 -45 -267 -146 -316 -334 -27 -102 -30 -325 -5 -426
32 -135 108 -242 206 -292 89 -45 156 -59 290 -58 108 0 136 4 207 27 134 44
124 15 121 336 l-3 275 -192 3 -193 2 0 -100 0 -100 75 0 76 0 -3 -112 -3
-113 -102 0 c-96 0 -103 1 -145 30 -104 72 -146 291 -92 483 39 137 167 199
359 171 147 -21 135 -27 161 73 25 100 26 98 -56 123 -73 23 -314 30 -385 12z"/>
<path d="M1932 568 l3 -533 110 0 110 0 3 227 2 228 175 0 175 0 2 -227 3
-228 115 0 115 0 0 530 0 530 -115 0 -115 0 -3 -197 -2 -198 -175 0 -175 0 0
200 0 200 -115 0 -115 0 2 -532z"/>
<path d="M3682 568 l3 -533 78 -3 c63 -2 78 0 82 13 16 50 13 48 42 27 72 -51
240 -73 327 -43 125 43 184 187 174 425 -7 162 -49 250 -141 298 -63 32 -183
37 -264 9 -34 -12 -65 -21 -68 -21 -3 0 -5 81 -5 180 l0 180 -115 0 -115 0 2
-532z m403 18 c55 -24 70 -63 70 -191 -1 -124 -16 -168 -63 -186 -31 -12 -114
-7 -154 9 l-28 12 0 169 0 170 48 15 c61 19 85 19 127 2z"/>
<path d="M1044 1066 c-50 -22 -74 -61 -74 -118 0 -43 5 -55 33 -83 44 -44 93
-53 143 -29 51 26 77 63 77 113 0 91 -96 154 -179 117z"/>
<path d="M1410 862 l0 -108 -60 -12 -60 -13 0 -79 0 -80 60 0 60 0 0 -176 c0
-201 9 -247 56 -303 54 -62 172 -89 300 -67 l41 7 7 75 c4 41 4 79 1 84 -3 6
-29 10 -56 10 -60 0 -104 21 -113 52 -3 13 -6 89 -6 171 l0 147 85 0 85 0 0
95 0 95 -85 0 -85 0 0 105 0 105 -115 0 -115 0 0 -108z"/>
<path d="M980 401 c0 -318 2 -360 16 -365 33 -13 201 -7 213 8 8 9 11 113 9
362 l-3 349 -117 3 -118 3 0 -360z"/>
<path d="M2870 472 l0 -288 28 -55 c23 -47 35 -58 87 -84 54 -27 69 -30 155
-29 93 0 117 6 235 60 6 2 15 -6 20 -18 9 -21 17 -23 85 -23 l75 0 0 360 0
360 -115 0 -115 0 -3 -261 -2 -262 -40 -16 c-45 -18 -112 -21 -140 -6 -34 18
-40 65 -40 311 l0 239 -115 0 -115 0 0 -288z"/>
</g>
</svg>
