<?xml version="1.0" encoding="UTF-8" standalone="no"?><svg xmlns="http://www.w3.org/2000/svg" xmlns:xlink="http://www.w3.org/1999/xlink" contentScriptType="application/ecmascript" contentStyleType="text/css" height="278px" preserveAspectRatio="none" style="width:450px;height:278px;background:#FFFFFF;" version="1.1" viewBox="0 0 450 278" width="450px" zoomAndPan="magnify"><defs><filter height="300%" id="f6js5dwj0gf25" width="300%" x="-1" y="-1"><feGaussianBlur result="blurOut" stdDeviation="2.0"/><feColorMatrix in="blurOut" result="blurOut2" type="matrix" values="0 0 0 0 0 0 0 0 0 0 0 0 0 0 0 0 0 0 .4 0"/><feOffset dx="4.0" dy="4.0" in="blurOut2" result="blurOut3"/><feBlend in="SourceGraphic" in2="blurOut3" mode="normal"/></filter></defs><g><!--MD5=[12e30a399eac85f9ac53a31c05d3e1d9]
cluster nz.ac.wgtn.swen225.lc.app.views.panels--><polygon fill="#FFFFFF" filter="url(#f6js5dwj0gf25)" points="16,129,301,129,308,151.4883,433,151.4883,433,253.91,16,253.91,16,129" style="stroke:#000000;stroke-width:1.5;"/><line style="stroke:#000000;stroke-width:1.5;" x1="16" x2="308" y1="151.4883" y2="151.4883"/><text fill="#000000" font-family="sans-serif" font-size="14" font-weight="bold" lengthAdjust="spacing" textLength="279" x="20" y="144.5352">nz.ac.wgtn.swen225.lc.app.views.panels</text><!--MD5=[535aab4de90d4dfa371a9b40d5438fc3]
cluster javax.swing--><polygon fill="#FFFFFF" filter="url(#f6js5dwj0gf25)" points="169,6,258,6,265,28.4883,269,28.4883,269,105,169,105,169,6" style="stroke:#000000;stroke-width:1.5;"/><line style="stroke:#000000;stroke-width:1.5;" x1="169" x2="265" y1="28.4883" y2="28.4883"/><text fill="#000000" font-family="sans-serif" font-size="14" font-weight="bold" lengthAdjust="spacing" textLength="83" x="173" y="21.5352">javax.swing</text><!--MD5=[d4ea6aefb1729ccc9920141398f9e463]
class nz.ac.wgtn.swen225.lc.app.views.panels.KeysPanel--><a href="KeysPanel.html" target="_top" title="KeysPanel.html" xlink:actuate="onRequest" xlink:href="KeysPanel.html" xlink:show="new" xlink:title="KeysPanel.html" xlink:type="simple"><rect codeLine="3" fill="#FEFECE" filter="url(#f6js5dwj0gf25)" height="60.9551" id="nz.ac.wgtn.swen225.lc.app.views.panels.KeysPanel" style="stroke:#A80036;stroke-width:1.5;" width="187" x="230.5" y="170.48"/><ellipse cx="290.75" cy="186.48" fill="#ADD1B2" rx="11" ry="11" style="stroke:#A80036;stroke-width:1.0;"/><path d="M293.2231,192.6231 Q292.6421,192.9219 292.0029,193.0713 Q291.3638,193.2207 290.6582,193.2207 Q288.1514,193.2207 286.8315,191.5689 Q285.5117,189.917 285.5117,186.7959 Q285.5117,183.6665 286.8315,182.0147 Q288.1514,180.3628 290.6582,180.3628 Q291.3638,180.3628 292.0112,180.5122 Q292.6587,180.6616 293.2231,180.9605 L293.2231,183.6831 Q292.5923,183.1021 291.9988,182.8323 Q291.4053,182.5625 290.7744,182.5625 Q289.4297,182.5625 288.7449,183.6292 Q288.0601,184.6958 288.0601,186.7959 Q288.0601,188.8877 288.7449,189.9544 Q289.4297,191.021 290.7744,191.021 Q291.4053,191.021 291.9988,190.7512 Q292.5923,190.4815 293.2231,189.9004 Z " fill="#000000"/><text fill="#000000" font-family="sans-serif" font-size="12" lengthAdjust="spacing" textLength="58" x="311.25" y="191.0152">KeysPanel</text><line style="stroke:#A80036;stroke-width:1.5;" x1="231.5" x2="416.5" y1="202.48" y2="202.48"/><line style="stroke:#A80036;stroke-width:1.5;" x1="231.5" x2="416.5" y1="210.48" y2="210.48"/><ellipse cx="241.5" cy="221.48" fill="#84BE84" rx="3" ry="3" style="stroke:#038048;stroke-width:1.0;"/><text fill="#000000" font-family="sans-serif" font-size="11" lengthAdjust="spacing" textLength="161" x="250.5" y="225.1148">KeysPanel(String, GameModel)</text></a><!--MD5=[1052bebd3d0a5f589dadb86c1369ab99]
class nz.ac.wgtn.swen225.lc.app.views.panels.OtherPanel--><a href="OtherPanel.html" target="_top" title="OtherPanel.html" xlink:actuate="onRequest" xlink:href="OtherPanel.html" xlink:show="new" xlink:title="OtherPanel.html" xlink:type="simple"><rect codeLine="7" fill="#FEFECE" filter="url(#f6js5dwj0gf25)" height="73.9102" id="nz.ac.wgtn.swen225.lc.app.views.panels.OtherPanel" style="stroke:#A80036;stroke-width:1.5;" width="163" x="32.5" y="164"/><ellipse cx="78.25" cy="180" fill="#ADD1B2" rx="11" ry="11" style="stroke:#A80036;stroke-width:1.0;"/><path d="M80.7231,186.1431 Q80.1421,186.4419 79.5029,186.5913 Q78.8638,186.7407 78.1582,186.7407 Q75.6514,186.7407 74.3315,185.0889 Q73.0117,183.437 73.0117,180.3159 Q73.0117,177.1865 74.3315,175.5347 Q75.6514,173.8828 78.1582,173.8828 Q78.8638,173.8828 79.5112,174.0322 Q80.1587,174.1816 80.7231,174.4805 L80.7231,177.2031 Q80.0923,176.6221 79.4988,176.3523 Q78.9053,176.0825 78.2744,176.0825 Q76.9297,176.0825 76.2449,177.1492 Q75.5601,178.2158 75.5601,180.3159 Q75.5601,182.4077 76.2449,183.4744 Q76.9297,184.541 78.2744,184.541 Q78.9053,184.541 79.4988,184.2712 Q80.0923,184.0015 80.7231,183.4204 Z " fill="#000000"/><text fill="#000000" font-family="sans-serif" font-size="12" lengthAdjust="spacing" textLength="63" x="98.75" y="184.5352">OtherPanel</text><line style="stroke:#A80036;stroke-width:1.5;" x1="33.5" x2="194.5" y1="196" y2="196"/><line style="stroke:#A80036;stroke-width:1.5;" x1="33.5" x2="194.5" y1="204" y2="204"/><ellipse cx="43.5" cy="215" fill="#84BE84" rx="3" ry="3" style="stroke:#038048;stroke-width:1.0;"/><text fill="#000000" font-family="sans-serif" font-size="11" lengthAdjust="spacing" textLength="137" x="52.5" y="218.6348">OtherPanel(String, String)</text><ellipse cx="43.5" cy="227.9551" fill="#84BE84" rx="3" ry="3" style="stroke:#038048;stroke-width:1.0;"/><text fill="#000000" font-family="sans-serif" font-size="11" lengthAdjust="spacing" textLength="135" x="52.5" y="231.5898">changeFontSize(int): void</text></a><!--MD5=[56a185cb33bdc7c23303e5865f20a19b]
class javax.swing.JPanel--><rect codeLine="17" fill="#FEFECE" filter="url(#f6js5dwj0gf25)" height="48" id="javax.swing.JPanel" style="stroke:#A80036;stroke-width:1.5;" width="67" x="185.5" y="41"/><ellipse cx="200.5" cy="57" fill="#ADD1B2" rx="11" ry="11" style="stroke:#A80036;stroke-width:1.0;"/><path d="M202.9731,63.1431 Q202.3921,63.4419 201.7529,63.5913 Q201.1138,63.7407 200.4082,63.7407 Q197.9014,63.7407 196.5815,62.0889 Q195.2617,60.437 195.2617,57.3159 Q195.2617,54.1865 196.5815,52.5347 Q197.9014,50.8828 200.4082,50.8828 Q201.1138,50.8828 201.7612,51.0322 Q202.4087,51.1816 202.9731,51.4805 L202.9731,54.2031 Q202.3423,53.6221 201.7488,53.3523 Q201.1553,53.0825 200.5244,53.0825 Q199.1797,53.0825 198.4949,54.1492 Q197.8101,55.2158 197.8101,57.3159 Q197.8101,59.4077 198.4949,60.4744 Q199.1797,61.541 200.5244,61.541 Q201.1553,61.541 201.7488,61.2712 Q202.3423,61.0015 202.9731,60.4204 Z " fill="#000000"/><text fill="#000000" font-family="sans-serif" font-size="12" lengthAdjust="spacing" textLength="35" x="214.5" y="61.5352">JPanel</text><line style="stroke:#A80036;stroke-width:1.5;" x1="186.5" x2="251.5" y1="73" y2="73"/><line style="stroke:#A80036;stroke-width:1.5;" x1="186.5" x2="251.5" y1="81" y2="81"/><!--MD5=[7d1c31acd22b71b269e0fd3fbf854d0f]
reverse link javax.swing.JPanel to nz.ac.wgtn.swen225.lc.app.views.panels.KeysPanel--><path codeLine="12" d="M250.48,106.16 C266.64,126.78 285.99,151.46 300.78,170.33 " fill="none" id="javax.swing.JPanel-backto-nz.ac.wgtn.swen225.lc.app.views.panels.KeysPanel" style="stroke:#A80036;stroke-width:1.0;"/><polygon fill="none" points="245.05,110.58,238.22,90.52,256.07,101.95,245.05,110.58" style="stroke:#A80036;stroke-width:1.0;"/><!--MD5=[b70fb6d0bbd88ebe248c7e1ac47015e5]
reverse link javax.swing.JPanel to nz.ac.wgtn.swen225.lc.app.views.panels.OtherPanel--><path codeLine="13" d="M187.46,106.23 C173.19,124.44 156.45,145.8 142.56,163.52 " fill="none" id="javax.swing.JPanel-backto-nz.ac.wgtn.swen225.lc.app.views.panels.OtherPanel" style="stroke:#A80036;stroke-width:1.0;"/><polygon fill="none" points="181.93,101.95,199.78,90.52,192.95,110.58,181.93,101.95" style="stroke:#A80036;stroke-width:1.0;"/><text fill="#888888" font-family="sans-serif" font-size="10" lengthAdjust="spacing" textLength="182" x="127.5" y="269.578">UMLDoclet 2.0.14, PlantUML 1.2021.9</text><!--MD5=[9f92c92b860669865fb4f4ae139150ae]
@startuml
    namespace nz.ac.wgtn.swen225.lc.app.views.panels {

        class KeysPanel [[KeysPanel.html]] {
            +KeysPanel(String, GameModel)
        }

        class OtherPanel [[OtherPanel.html]] {
            +OtherPanel(String, String)
            +changeFontSize(int): void
        }

        javax.swing.JPanel <|- - KeysPanel
        javax.swing.JPanel <|- - OtherPanel
    }

    namespace javax.swing {
        class JPanel {
        }
    }

    center footer UMLDoclet 2.0.14, PlantUML 1.2021.9
@enduml

PlantUML version 1.2021.9(Sun Jul 25 22:13:56 NZST 2021)
(APACHE source distribution)
Java Runtime: OpenJDK Runtime Environment
JVM: OpenJDK 64-Bit Server VM
Default Encoding: UTF-8
Language: en
Country: NZ
--></g></svg>