<?xml version="1.0" encoding="UTF-8" standalone="no"?><svg xmlns="http://www.w3.org/2000/svg" xmlns:xlink="http://www.w3.org/1999/xlink" contentScriptType="application/ecmascript" contentStyleType="text/css" height="435px" preserveAspectRatio="none" style="width:443px;height:435px;background:#FFFFFF;" version="1.1" viewBox="0 0 443 435" width="443px" zoomAndPan="magnify"><defs><filter height="300%" id="f10907krpfshsf" width="300%" x="-1" y="-1"><feGaussianBlur result="blurOut" stdDeviation="2.0"/><feColorMatrix in="blurOut" result="blurOut2" type="matrix" values="0 0 0 0 0 0 0 0 0 0 0 0 0 0 0 0 0 0 .4 0"/><feOffset dx="4.0" dy="4.0" in="blurOut2" result="blurOut3"/><feBlend in="SourceGraphic" in2="blurOut3" mode="normal"/></filter></defs><g><!--MD5=[d6500af338b181a78df20297bf8dfe51]
cluster nz.ac.wgtn.swen225.lc.domain.engine--><polygon fill="#FFFFFF" filter="url(#f10907krpfshsf)" points="16,6,286,6,293,28.4883,296,28.4883,296,411.37,16,411.37,16,6" style="stroke:#000000;stroke-width:1.5;"/><line style="stroke:#000000;stroke-width:1.5;" x1="16" x2="293" y1="28.4883" y2="28.4883"/><text fill="#000000" font-family="sans-serif" font-size="14" font-weight="bold" lengthAdjust="spacing" textLength="264" x="20" y="21.5352">nz.ac.wgtn.swen225.lc.domain.engine</text><!--MD5=[aa8f7b917213fcc1c2766e2d59b49067]
cluster java.lang--><polygon fill="#FFFFFF" filter="url(#f10907krpfshsf)" points="320,31.91,389,31.91,396,54.3983,426,54.3983,426,130.91,320,130.91,320,31.91" style="stroke:#000000;stroke-width:1.5;"/><line style="stroke:#000000;stroke-width:1.5;" x1="320" x2="396" y1="54.3983" y2="54.3983"/><text fill="#000000" font-family="sans-serif" font-size="14" font-weight="bold" lengthAdjust="spacing" textLength="63" x="324" y="47.4452">java.lang</text><!--MD5=[85bb302581103cdc09a577dce1211832]
class nz.ac.wgtn.swen225.lc.domain.engine.Position--><a href="Position.html" target="_top" title="Position.html" xlink:actuate="onRequest" xlink:href="Position.html" xlink:show="new" xlink:title="Position.html" xlink:type="simple"><rect codeLine="3" fill="#FEFECE" filter="url(#f10907krpfshsf)" height="177.5508" id="nz.ac.wgtn.swen225.lc.domain.engine.Position" style="stroke:#A80036;stroke-width:1.5;" width="171" x="108.5" y="217.82"/><ellipse cx="167.75" cy="233.82" fill="#ADD1B2" rx="11" ry="11" style="stroke:#A80036;stroke-width:1.0;"/><path d="M170.2231,239.9631 Q169.6421,240.2619 169.0029,240.4113 Q168.3638,240.5607 167.6582,240.5607 Q165.1514,240.5607 163.8315,238.9089 Q162.5117,237.257 162.5117,234.1359 Q162.5117,231.0065 163.8315,229.3547 Q165.1514,227.7028 167.6582,227.7028 Q168.3638,227.7028 169.0112,227.8522 Q169.6587,228.0016 170.2231,228.3005 L170.2231,231.0231 Q169.5923,230.4421 168.9988,230.1723 Q168.4053,229.9025 167.7744,229.9025 Q166.4297,229.9025 165.7449,230.9692 Q165.0601,232.0358 165.0601,234.1359 Q165.0601,236.2277 165.7449,237.2944 Q166.4297,238.361 167.7744,238.361 Q168.4053,238.361 168.9988,238.0912 Q169.5923,237.8215 170.2231,237.2404 Z " fill="#000000"/><text fill="#000000" font-family="sans-serif" font-size="12" lengthAdjust="spacing" textLength="44" x="188.25" y="238.3552">Position</text><line style="stroke:#A80036;stroke-width:1.5;" x1="109.5" x2="278.5" y1="249.82" y2="249.82"/><line style="stroke:#A80036;stroke-width:1.5;" x1="109.5" x2="278.5" y1="257.82" y2="257.82"/><ellipse cx="119.5" cy="268.82" fill="#84BE84" rx="3" ry="3" style="stroke:#038048;stroke-width:1.0;"/><text fill="#000000" font-family="sans-serif" font-size="11" lengthAdjust="spacing" textLength="85" x="128.5" y="272.4548">Position(int, int)</text><ellipse cx="119.5" cy="281.7751" fill="#84BE84" rx="3" ry="3" style="stroke:#038048;stroke-width:1.0;"/><text fill="#000000" font-family="sans-serif" font-size="11" lengthAdjust="spacing" textLength="120" x="128.5" y="285.4098">add(Position): Position</text><ellipse cx="119.5" cy="294.7302" fill="#84BE84" rx="3" ry="3" style="stroke:#038048;stroke-width:1.0;"/><text fill="#000000" font-family="sans-serif" font-size="11" lengthAdjust="spacing" textLength="145" x="128.5" y="298.3649">subtract(Position): Position</text><ellipse cx="119.5" cy="307.6852" fill="#84BE84" rx="3" ry="3" style="stroke:#038048;stroke-width:1.0;"/><text fill="#000000" font-family="sans-serif" font-size="11" lengthAdjust="spacing" textLength="139" x="128.5" y="311.32">distance(Position): double</text><ellipse cx="119.5" cy="320.6403" fill="#84BE84" rx="3" ry="3" style="stroke:#038048;stroke-width:1.0;"/><text fill="#000000" font-family="sans-serif" font-size="11" lengthAdjust="spacing" textLength="138" x="128.5" y="324.2751">gtOrEq(Position): boolean</text><ellipse cx="119.5" cy="333.5954" fill="#84BE84" rx="3" ry="3" style="stroke:#038048;stroke-width:1.0;"/><text fill="#000000" font-family="sans-serif" font-size="11" lengthAdjust="spacing" textLength="134" x="128.5" y="337.2302">ltOrEq(Position): boolean</text><ellipse cx="119.5" cy="346.5505" fill="#84BE84" rx="3" ry="3" style="stroke:#038048;stroke-width:1.0;"/><text fill="#000000" font-family="sans-serif" font-size="11" lengthAdjust="spacing" textLength="111" x="128.5" y="350.1852">gt(Position): boolean</text><ellipse cx="119.5" cy="359.5055" fill="#84BE84" rx="3" ry="3" style="stroke:#038048;stroke-width:1.0;"/><text fill="#000000" font-family="sans-serif" font-size="11" lengthAdjust="spacing" textLength="107" x="128.5" y="363.1403">lt(Position): boolean</text><ellipse cx="119.5" cy="372.4606" fill="#84BE84" rx="3" ry="3" style="stroke:#038048;stroke-width:1.0;"/><text fill="#000000" font-family="sans-serif" font-size="11" lengthAdjust="spacing" textLength="35" x="128.5" y="376.0954">x(): int</text><ellipse cx="119.5" cy="385.4157" fill="#84BE84" rx="3" ry="3" style="stroke:#038048;stroke-width:1.0;"/><text fill="#000000" font-family="sans-serif" font-size="11" lengthAdjust="spacing" textLength="34" x="128.5" y="389.0505">y(): int</text></a><!--MD5=[fce3194467220dbd42387b2a61679836]
class nz.ac.wgtn.swen225.lc.domain.engine.Direction--><a href="Direction.html" target="_top" title="Direction.html" xlink:actuate="onRequest" xlink:href="Direction.html" xlink:show="new" xlink:title="Direction.html" xlink:type="simple"><rect codeLine="16" fill="#FEFECE" filter="url(#f10907krpfshsf)" height="99.8203" id="nz.ac.wgtn.swen225.lc.domain.engine.Direction" style="stroke:#A80036;stroke-width:1.5;" width="83" x="152.5" y="41"/><ellipse cx="167.5" cy="57" fill="#EB937F" rx="11" ry="11" style="stroke:#A80036;stroke-width:1.0;"/><path d="M171.1143,63.5 L163.3945,63.5 L163.3945,51.1069 L171.1143,51.1069 L171.1143,53.2651 L165.8433,53.2651 L165.8433,55.938 L170.6162,55.938 L170.6162,58.0962 L165.8433,58.0962 L165.8433,61.3418 L171.1143,61.3418 Z " fill="#000000"/><text fill="#000000" font-family="sans-serif" font-size="12" lengthAdjust="spacing" textLength="51" x="181.5" y="61.5352">Direction</text><line style="stroke:#A80036;stroke-width:1.5;" x1="153.5" x2="234.5" y1="73" y2="73"/><ellipse cx="163.5" cy="84" rx="3" ry="3" style="stroke:#038048;stroke-width:1.0;fill:none;"/><text fill="#000000" font-family="sans-serif" font-size="11" lengthAdjust="spacing" text-decoration="underline" textLength="25" x="172.5" y="87.6348">LEFT</text><ellipse cx="163.5" cy="96.9551" rx="3" ry="3" style="stroke:#038048;stroke-width:1.0;fill:none;"/><text fill="#000000" font-family="sans-serif" font-size="11" lengthAdjust="spacing" text-decoration="underline" textLength="14" x="172.5" y="100.5898">UP</text><ellipse cx="163.5" cy="109.9102" rx="3" ry="3" style="stroke:#038048;stroke-width:1.0;fill:none;"/><text fill="#000000" font-family="sans-serif" font-size="11" lengthAdjust="spacing" text-decoration="underline" textLength="34" x="172.5" y="113.5449">DOWN</text><ellipse cx="163.5" cy="122.8652" rx="3" ry="3" style="stroke:#038048;stroke-width:1.0;fill:none;"/><text fill="#000000" font-family="sans-serif" font-size="11" lengthAdjust="spacing" text-decoration="underline" textLength="33" x="172.5" y="126.5">RIGHT</text><line style="stroke:#A80036;stroke-width:1.5;" x1="153.5" x2="234.5" y1="132.8203" y2="132.8203"/></a><!--MD5=[aeced6b90a5f9cea7e9b0d4e8b5a9b7c]
class java.lang.Record--><rect codeLine="28" fill="#FEFECE" filter="url(#f10907krpfshsf)" height="48" id="java.lang.Record" style="stroke:#A80036;stroke-width:1.5;" width="73" x="336.5" y="66.91"/><ellipse cx="351.5" cy="82.91" fill="#A9DCDF" rx="11" ry="11" style="stroke:#A80036;stroke-width:1.0;"/><path d="M351.3633,78.2581 L350.2095,83.3299 L352.5254,83.3299 Z M349.8691,76.0169 L352.8657,76.0169 L356.2109,88.41 L353.7622,88.41 L352.9985,85.347 L349.7197,85.347 L348.9727,88.41 L346.5239,88.41 Z " fill="#000000"/><text fill="#000000" font-family="sans-serif" font-size="12" font-style="italic" lengthAdjust="spacing" textLength="41" x="365.5" y="87.4452">Record</text><line style="stroke:#A80036;stroke-width:1.5;" x1="337.5" x2="408.5" y1="98.91" y2="98.91"/><line style="stroke:#A80036;stroke-width:1.5;" x1="337.5" x2="408.5" y1="106.91" y2="106.91"/><!--MD5=[79dd66e23a25cf1facc03aaf2375cf3b]
reverse link java.lang.Record to nz.ac.wgtn.swen225.lc.domain.engine.Position--><path codeLine="23" d="M339.71,131.65 C319.45,155.84 292.73,187.73 267.71,217.6 " fill="none" id="java.lang.Record-backto-nz.ac.wgtn.swen225.lc.domain.engine.Position" style="stroke:#A80036;stroke-width:1.0;"/><polygon fill="none" points="334.32,127.18,352.53,116.34,345.05,136.17,334.32,127.18" style="stroke:#A80036;stroke-width:1.0;"/><!--MD5=[c8a811f525d01ecd1fbe7389b8a3da5f]
link nz.ac.wgtn.swen225.lc.domain.engine.Direction to nz.ac.wgtn.swen225.lc.domain.engine.Position--><path codeLine="24" d="M194,141.2 C194,162.02 194,186.99 194,211.12 " fill="none" id="nz.ac.wgtn.swen225.lc.domain.engine.Direction-to-nz.ac.wgtn.swen225.lc.domain.engine.Position" style="stroke:#A80036;stroke-width:1.0;"/><polygon fill="#A80036" points="194,216.04,198,207.04,194,211.04,190,207.04,194,216.04" style="stroke:#A80036;stroke-width:1.0;"/><text fill="#000000" font-family="sans-serif" font-size="13" lengthAdjust="spacing" textLength="68" x="195" y="184.3884">translation</text><text fill="#888888" font-family="sans-serif" font-size="10" lengthAdjust="spacing" textLength="182" x="124" y="427.038">UMLDoclet 2.0.14, PlantUML 1.2021.9</text><!--MD5=[602810127aa69b9fe530042590769e2f]
@startuml
    namespace nz.ac.wgtn.swen225.lc.domain.engine {

        class Position [[Position.html]] {
            +Position(int, int)
            +add(Position): Position
            +subtract(Position): Position
            +distance(Position): double
            +gtOrEq(Position): boolean
            +ltOrEq(Position): boolean
            +gt(Position): boolean
            +lt(Position): boolean
            +x(): int
            +y(): int
        }

        enum Direction [[Direction.html]] {
            {static} +LEFT
            {static} +UP
            {static} +DOWN
            {static} +RIGHT
        }

        java.lang.Record <|- - Position
        Direction - -> Position: translation
    }

    namespace java.lang {
        abstract class Record
    }

    center footer UMLDoclet 2.0.14, PlantUML 1.2021.9
@enduml

PlantUML version 1.2021.9(Sun Jul 25 22:13:56 NZST 2021)
(APACHE source distribution)
Java Runtime: OpenJDK Runtime Environment
JVM: OpenJDK 64-Bit Server VM
Default Encoding: UTF-8
Language: en
Country: NZ
--></g></svg>