<?xml version="1.0" encoding="UTF-8" standalone="no"?><svg xmlns="http://www.w3.org/2000/svg" xmlns:xlink="http://www.w3.org/1999/xlink" contentScriptType="application/ecmascript" contentStyleType="text/css" height="312px" preserveAspectRatio="none" style="width:238px;height:312px;background:#FFFFFF;" version="1.1" viewBox="0 0 238 312" width="238px" zoomAndPan="magnify"><defs><filter height="300%" id="f1viza7a0fb3pw" width="300%" x="-1" y="-1"><feGaussianBlur result="blurOut" stdDeviation="2.0"/><feColorMatrix in="blurOut" result="blurOut2" type="matrix" values="0 0 0 0 0 0 0 0 0 0 0 0 0 0 0 0 0 0 .4 0"/><feOffset dx="4.0" dy="4.0" in="blurOut2" result="blurOut3"/><feBlend in="SourceGraphic" in2="blurOut3" mode="normal"/></filter></defs><g><!--MD5=[85bb302581103cdc09a577dce1211832]
class nz.ac.wgtn.swen225.lc.domain.engine.Position--><a href="Position.html" target="_top" title="Position.html" xlink:actuate="onRequest" xlink:href="Position.html" xlink:show="new" xlink:title="Position.html" xlink:type="simple"><rect codeLine="5" fill="#FEFECE" filter="url(#f1viza7a0fb3pw)" height="175.8164" id="nz.ac.wgtn.swen225.lc.domain.engine.Position" style="stroke:#A80036;stroke-width:1.5;" width="217" x="7" y="105.26"/><ellipse cx="22" cy="124.3928" fill="#ADD1B2" rx="11" ry="11" style="stroke:#A80036;stroke-width:1.0;"/><path d="M24.4731,130.5359 Q23.8921,130.8347 23.2529,130.9841 Q22.6138,131.1335 21.9082,131.1335 Q19.4014,131.1335 18.0815,129.4817 Q16.7617,127.8298 16.7617,124.7087 Q16.7617,121.5793 18.0815,119.9275 Q19.4014,118.2756 21.9082,118.2756 Q22.6138,118.2756 23.2612,118.425 Q23.9087,118.5745 24.4731,118.8733 L24.4731,121.5959 Q23.8423,121.0149 23.2488,120.7451 Q22.6553,120.4753 22.0244,120.4753 Q20.6797,120.4753 19.9949,121.542 Q19.3101,122.6086 19.3101,124.7087 Q19.3101,126.8005 19.9949,127.8672 Q20.6797,128.9338 22.0244,128.9338 Q22.6553,128.9338 23.2488,128.6641 Q23.8423,128.3943 24.4731,127.8132 Z " fill="#000000"/><text fill="#000000" font-family="sans-serif" font-size="14" lengthAdjust="spacing" textLength="55" x="101" y="123.7952">Position</text><text fill="#000000" font-family="sans-serif" font-size="10" lengthAdjust="spacing" textLength="185" x="36" y="136.4163">nz.ac.wgtn.swen225.lc.domain.engine</text><line style="stroke:#A80036;stroke-width:1.5;" x1="8" x2="223" y1="143.5256" y2="143.5256"/><ellipse cx="18" cy="154.5256" fill="#84BE84" rx="3" ry="3" style="stroke:#038048;stroke-width:1.0;"/><text fill="#000000" font-family="sans-serif" font-size="11" lengthAdjust="spacing" textLength="85" x="27" y="158.1604">Position(int, int)</text><ellipse cx="18" cy="167.4807" fill="#84BE84" rx="3" ry="3" style="stroke:#038048;stroke-width:1.0;"/><text fill="#000000" font-family="sans-serif" font-size="11" lengthAdjust="spacing" textLength="120" x="27" y="171.1155">add(Position): Position</text><ellipse cx="18" cy="180.4358" fill="#84BE84" rx="3" ry="3" style="stroke:#038048;stroke-width:1.0;"/><text fill="#000000" font-family="sans-serif" font-size="11" lengthAdjust="spacing" textLength="145" x="27" y="184.0705">subtract(Position): Position</text><ellipse cx="18" cy="193.3909" fill="#84BE84" rx="3" ry="3" style="stroke:#038048;stroke-width:1.0;"/><text fill="#000000" font-family="sans-serif" font-size="11" lengthAdjust="spacing" textLength="139" x="27" y="197.0256">distance(Position): double</text><ellipse cx="18" cy="206.3459" fill="#84BE84" rx="3" ry="3" style="stroke:#038048;stroke-width:1.0;"/><text fill="#000000" font-family="sans-serif" font-size="11" lengthAdjust="spacing" textLength="138" x="27" y="209.9807">gtOrEq(Position): boolean</text><ellipse cx="18" cy="219.301" fill="#84BE84" rx="3" ry="3" style="stroke:#038048;stroke-width:1.0;"/><text fill="#000000" font-family="sans-serif" font-size="11" lengthAdjust="spacing" textLength="134" x="27" y="222.9358">ltOrEq(Position): boolean</text><ellipse cx="18" cy="232.2561" fill="#84BE84" rx="3" ry="3" style="stroke:#038048;stroke-width:1.0;"/><text fill="#000000" font-family="sans-serif" font-size="11" lengthAdjust="spacing" textLength="111" x="27" y="235.8909">gt(Position): boolean</text><ellipse cx="18" cy="245.2112" fill="#84BE84" rx="3" ry="3" style="stroke:#038048;stroke-width:1.0;"/><text fill="#000000" font-family="sans-serif" font-size="11" lengthAdjust="spacing" textLength="107" x="27" y="248.8459">lt(Position): boolean</text><ellipse cx="18" cy="258.1663" fill="#84BE84" rx="3" ry="3" style="stroke:#038048;stroke-width:1.0;"/><text fill="#000000" font-family="sans-serif" font-size="11" lengthAdjust="spacing" textLength="35" x="27" y="261.801">x(): int</text><ellipse cx="18" cy="271.1213" fill="#84BE84" rx="3" ry="3" style="stroke:#038048;stroke-width:1.0;"/><text fill="#000000" font-family="sans-serif" font-size="11" lengthAdjust="spacing" textLength="34" x="27" y="274.7561">y(): int</text></a><!--MD5=[aeced6b90a5f9cea7e9b0d4e8b5a9b7c]
class java.lang.Record--><rect codeLine="18" fill="#FEFECE" filter="url(#f1viza7a0fb3pw)" height="38.2656" id="java.lang.Record" style="stroke:#A80036;stroke-width:1.5;" width="80" x="75.5" y="7"/><ellipse cx="90.5" cy="26.1328" fill="#A9DCDF" rx="11" ry="11" style="stroke:#A80036;stroke-width:1.0;"/><path d="M90.3633,21.481 L89.2095,26.5527 L91.5254,26.5527 Z M88.8691,19.2397 L91.8657,19.2397 L95.2109,31.6328 L92.7622,31.6328 L91.9985,28.5698 L88.7197,28.5698 L87.9727,31.6328 L85.5239,31.6328 Z " fill="#000000"/><text fill="#000000" font-family="sans-serif" font-size="14" font-style="italic" lengthAdjust="spacing" textLength="48" x="104.5" y="25.5352">Record</text><text fill="#000000" font-family="sans-serif" font-size="10" font-style="italic" lengthAdjust="spacing" textLength="44" x="106.5" y="38.1563">java.lang</text><!--MD5=[79dd66e23a25cf1facc03aaf2375cf3b]
reverse link java.lang.Record to nz.ac.wgtn.swen225.lc.domain.engine.Position--><path codeLine="20" d="M115.5,66.9 C115.5,78.48 115.5,91.62 115.5,104.92 " fill="none" id="java.lang.Record-backto-nz.ac.wgtn.swen225.lc.domain.engine.Position" style="stroke:#A80036;stroke-width:1.0;"/><polygon fill="none" points="108.5,67.26,115.5,47.26,122.5,67.26,108.5,67.26" style="stroke:#A80036;stroke-width:1.0;"/><text fill="#888888" font-family="sans-serif" font-size="10" lengthAdjust="spacing" textLength="182" x="21.5" y="303.7444">UMLDoclet 2.0.14, PlantUML 1.2021.9</text><!--MD5=[f89193ff8e9d79ce5a743f797c3e59e3]
@startuml
    set namespaceSeparator none
    hide empty fields
    hide empty methods

    class "<size:14>Position\n<size:10>nz.ac.wgtn.swen225.lc.domain.engine" as nz.ac.wgtn.swen225.lc.domain.engine.Position [[Position.html]] {
        +Position(int, int)
        +add(Position): Position
        +subtract(Position): Position
        +distance(Position): double
        +gtOrEq(Position): boolean
        +ltOrEq(Position): boolean
        +gt(Position): boolean
        +lt(Position): boolean
        +x(): int
        +y(): int
    }

    abstract class "<size:14>Record\n<size:10>java.lang" as java.lang.Record

    java.lang.Record <|- - nz.ac.wgtn.swen225.lc.domain.engine.Position

    center footer UMLDoclet 2.0.14, PlantUML 1.2021.9
@enduml

PlantUML version 1.2021.9(Sun Jul 25 22:13:56 NZST 2021)
(APACHE source distribution)
Java Runtime: OpenJDK Runtime Environment
JVM: OpenJDK 64-Bit Server VM
Default Encoding: UTF-8
Language: en
Country: NZ
--></g></svg>