<?xml version="1.0" encoding="UTF-8" standalone="no"?><svg xmlns="http://www.w3.org/2000/svg" xmlns:xlink="http://www.w3.org/1999/xlink" contentScriptType="application/ecmascript" contentStyleType="text/css" height="399px" preserveAspectRatio="none" style="width:334px;height:399px;background:#FFFFFF;" version="1.1" viewBox="0 0 334 399" width="334px" zoomAndPan="magnify"><defs><filter height="300%" id="f1s46a19fno7yv" width="300%" x="-1" y="-1"><feGaussianBlur result="blurOut" stdDeviation="2.0"/><feColorMatrix in="blurOut" result="blurOut2" type="matrix" values="0 0 0 0 0 0 0 0 0 0 0 0 0 0 0 0 0 0 .4 0"/><feOffset dx="4.0" dy="4.0" in="blurOut2" result="blurOut3"/><feBlend in="SourceGraphic" in2="blurOut3" mode="normal"/></filter></defs><g><!--MD5=[0b0b1e7b7efb187451c98f612430ec30]
cluster nz.ac.wgtn.swen225.lc.domain.world.abs--><polygon fill="#FFFFFF" filter="url(#f1s46a19fno7yv)" points="16,129,307,129,314,151.4883,317,151.4883,317,374.87,16,374.87,16,129" style="stroke:#000000;stroke-width:1.5;"/><line style="stroke:#000000;stroke-width:1.5;" x1="16" x2="314" y1="151.4883" y2="151.4883"/><text fill="#000000" font-family="sans-serif" font-size="14" font-weight="bold" lengthAdjust="spacing" textLength="285" x="20" y="144.5352">nz.ac.wgtn.swen225.lc.domain.world.abs</text><!--MD5=[aa8f7b917213fcc1c2766e2d59b49067]
cluster java.lang--><polygon fill="#FFFFFF" filter="url(#f1s46a19fno7yv)" points="106,6,175,6,182,28.4883,226,28.4883,226,105,106,105,106,6" style="stroke:#000000;stroke-width:1.5;"/><line style="stroke:#000000;stroke-width:1.5;" x1="106" x2="182" y1="28.4883" y2="28.4883"/><text fill="#000000" font-family="sans-serif" font-size="14" font-weight="bold" lengthAdjust="spacing" textLength="63" x="110" y="21.5352">java.lang</text><!--MD5=[f523b7390e7fb5790055f8057a46fac9]
class nz.ac.wgtn.swen225.lc.domain.world.abs.MovableTile--><a href="MovableTile.html" target="_top" title="MovableTile.html" xlink:actuate="onRequest" xlink:href="MovableTile.html" xlink:show="new" xlink:title="MovableTile.html" xlink:type="simple"><rect codeLine="3" fill="#FEFECE" filter="url(#f1s46a19fno7yv)" height="73.9102" id="nz.ac.wgtn.swen225.lc.domain.world.abs.MovableTile" style="stroke:#A80036;stroke-width:1.5;" width="230" x="51" y="284.96"/><ellipse cx="127.25" cy="300.96" fill="#A9DCDF" rx="11" ry="11" style="stroke:#A80036;stroke-width:1.0;"/><path d="M127.1133,296.3081 L125.9595,301.3799 L128.2754,301.3799 Z M125.6191,294.0669 L128.6157,294.0669 L131.9609,306.46 L129.5122,306.46 L128.7485,303.397 L125.4697,303.397 L124.7227,306.46 L122.2739,306.46 Z " fill="#000000"/><text fill="#000000" font-family="sans-serif" font-size="12" font-style="italic" lengthAdjust="spacing" textLength="69" x="147.75" y="305.4952">MovableTile</text><line style="stroke:#A80036;stroke-width:1.5;" x1="52" x2="280" y1="316.96" y2="316.96"/><line style="stroke:#A80036;stroke-width:1.5;" x1="52" x2="280" y1="324.96" y2="324.96"/><ellipse cx="62" cy="335.96" fill="#84BE84" rx="3" ry="3" style="stroke:#038048;stroke-width:1.0;"/><text fill="#000000" font-family="sans-serif" font-size="11" lengthAdjust="spacing" textLength="204" x="71" y="339.5948">onMoveInto(Position, Controller): void</text><ellipse cx="62" cy="348.9151" fill="#84BE84" rx="3" ry="3" style="stroke:#038048;stroke-width:1.0;"/><text fill="#000000" font-family="sans-serif" font-size="11" lengthAdjust="spacing" textLength="180" x="71" y="352.5498">canMoveInto(Controller): boolean</text></a><!--MD5=[9577de04549f7dbde57272e57436f547]
class nz.ac.wgtn.swen225.lc.domain.world.abs.Tile--><a href="Tile.html" target="_top" title="Tile.html" xlink:actuate="onRequest" xlink:href="Tile.html" xlink:show="new" xlink:title="Tile.html" xlink:type="simple"><rect codeLine="8" fill="#FEFECE" filter="url(#f1s46a19fno7yv)" height="60.9551" id="nz.ac.wgtn.swen225.lc.domain.world.abs.Tile" style="stroke:#A80036;stroke-width:1.5;" width="206" x="63" y="164"/><ellipse cx="151.25" cy="180" fill="#A9DCDF" rx="11" ry="11" style="stroke:#A80036;stroke-width:1.0;"/><path d="M151.1133,175.3481 L149.9595,180.4199 L152.2754,180.4199 Z M149.6191,173.1069 L152.6157,173.1069 L155.9609,185.5 L153.5122,185.5 L152.7485,182.437 L149.4697,182.437 L148.7227,185.5 L146.2739,185.5 Z " fill="#000000"/><text fill="#000000" font-family="sans-serif" font-size="12" font-style="italic" lengthAdjust="spacing" textLength="21" x="171.75" y="184.5352">Tile</text><line style="stroke:#A80036;stroke-width:1.5;" x1="64" x2="268" y1="196" y2="196"/><line style="stroke:#A80036;stroke-width:1.5;" x1="64" x2="268" y1="204" y2="204"/><ellipse cx="74" cy="215" fill="#84BE84" rx="3" ry="3" style="stroke:#038048;stroke-width:1.0;"/><text fill="#000000" font-family="sans-serif" font-size="11" lengthAdjust="spacing" textLength="180" x="83" y="218.6348">canMoveInto(Controller): boolean</text></a><!--MD5=[e928e726d300d3bec07862808e5ce117]
class java.lang.Cloneable--><rect codeLine="17" fill="#FEFECE" filter="url(#f1s46a19fno7yv)" height="48" id="java.lang.Cloneable" style="stroke:#A80036;stroke-width:1.5;" width="89" x="121.5" y="41"/><ellipse cx="136.5" cy="57" fill="#B4A7E5" rx="11" ry="11" style="stroke:#A80036;stroke-width:1.0;"/><path d="M132.9277,53.2651 L132.9277,51.1069 L140.3071,51.1069 L140.3071,53.2651 L137.8418,53.2651 L137.8418,61.3418 L140.3071,61.3418 L140.3071,63.5 L132.9277,63.5 L132.9277,61.3418 L135.3931,61.3418 L135.3931,53.2651 Z " fill="#000000"/><text fill="#000000" font-family="sans-serif" font-size="12" font-style="italic" lengthAdjust="spacing" textLength="57" x="150.5" y="61.5352">Cloneable</text><line style="stroke:#A80036;stroke-width:1.5;" x1="122.5" x2="209.5" y1="73" y2="73"/><line style="stroke:#A80036;stroke-width:1.5;" x1="122.5" x2="209.5" y1="81" y2="81"/><!--MD5=[74991224ed7fcbd91cc73db15ba01753]
reverse link nz.ac.wgtn.swen225.lc.domain.world.abs.Tile to nz.ac.wgtn.swen225.lc.domain.world.abs.MovableTile--><path codeLine="12" d="M166,246.41 C166,259.24 166,272.75 166,284.69 " fill="none" id="nz.ac.wgtn.swen225.lc.domain.world.abs.Tile-backto-nz.ac.wgtn.swen225.lc.domain.world.abs.MovableTile" style="stroke:#A80036;stroke-width:1.0;"/><polygon fill="none" points="159,246.72,166,226.72,173,246.72,159,246.72" style="stroke:#A80036;stroke-width:1.0;"/><!--MD5=[e0e1f346add4e341dc36247410b2486f]
reverse link java.lang.Cloneable to nz.ac.wgtn.swen225.lc.domain.world.abs.Tile--><path codeLine="13" d="M166,110.82 C166,128.44 166,148.19 166,163.97 " fill="none" id="java.lang.Cloneable-backto-nz.ac.wgtn.swen225.lc.domain.world.abs.Tile" style="stroke:#A80036;stroke-width:1.0;stroke-dasharray:7.0,7.0;"/><polygon fill="none" points="159,110.9,166,90.9,173,110.9,159,110.9" style="stroke:#A80036;stroke-width:1.0;"/><text fill="#888888" font-family="sans-serif" font-size="10" lengthAdjust="spacing" textLength="182" x="69.5" y="390.538">UMLDoclet 2.0.14, PlantUML 1.2021.9</text><!--MD5=[b337c302007c53cc98ec5ae692637fc4]
@startuml
    namespace nz.ac.wgtn.swen225.lc.domain.world.abs {

        abstract class MovableTile [[MovableTile.html]] {
            +onMoveInto(Position, Controller): void
            +canMoveInto(Controller): boolean
        }

        abstract class Tile [[Tile.html]] {
            +canMoveInto(Controller): boolean
        }

        Tile <|- - MovableTile
        java.lang.Cloneable <|.. Tile
    }

    namespace java.lang {
        interface Cloneable
    }

    center footer UMLDoclet 2.0.14, PlantUML 1.2021.9
@enduml

PlantUML version 1.2021.9(Sun Jul 25 22:13:56 NZST 2021)
(APACHE source distribution)
Java Runtime: OpenJDK Runtime Environment
JVM: OpenJDK 64-Bit Server VM
Default Encoding: UTF-8
Language: en
Country: NZ
--></g></svg>