<?xml version="1.0" encoding="UTF-8" standalone="no"?><svg xmlns="http://www.w3.org/2000/svg" xmlns:xlink="http://www.w3.org/1999/xlink" contentScriptType="application/ecmascript" contentStyleType="text/css" height="291px" preserveAspectRatio="none" style="width:1093px;height:291px;background:#FFFFFF;" version="1.1" viewBox="0 0 1093 291" width="1093px" zoomAndPan="magnify"><defs><filter height="300%" id="fyqipg9co029k" width="300%" x="-1" y="-1"><feGaussianBlur result="blurOut" stdDeviation="2.0"/><feColorMatrix in="blurOut" result="blurOut2" type="matrix" values="0 0 0 0 0 0 0 0 0 0 0 0 0 0 0 0 0 0 .4 0"/><feOffset dx="4.0" dy="4.0" in="blurOut2" result="blurOut3"/><feBlend in="SourceGraphic" in2="blurOut3" mode="normal"/></filter></defs><g><!--MD5=[d8075de09b8c99da3c66de70fdad8a0a]
cluster nz.ac.wgtn.swen225.lc.app.views--><polygon fill="#FFFFFF" filter="url(#fyqipg9co029k)" points="16,129,251,129,258,151.4883,1076,151.4883,1076,266.87,16,266.87,16,129" style="stroke:#000000;stroke-width:1.5;"/><line style="stroke:#000000;stroke-width:1.5;" x1="16" x2="258" y1="151.4883" y2="151.4883"/><text fill="#000000" font-family="sans-serif" font-size="14" font-weight="bold" lengthAdjust="spacing" textLength="229" x="20" y="144.5352">nz.ac.wgtn.swen225.lc.app.views</text><!--MD5=[535aab4de90d4dfa371a9b40d5438fc3]
cluster javax.swing--><polygon fill="#FFFFFF" filter="url(#fyqipg9co029k)" points="510,6,599,6,606,28.4883,717,28.4883,717,105,510,105,510,6" style="stroke:#000000;stroke-width:1.5;"/><line style="stroke:#000000;stroke-width:1.5;" x1="510" x2="606" y1="28.4883" y2="28.4883"/><text fill="#000000" font-family="sans-serif" font-size="14" font-weight="bold" lengthAdjust="spacing" textLength="83" x="514" y="21.5352">javax.swing</text><!--MD5=[038d34acd61ced1894fc6a971e83fb7a]
class nz.ac.wgtn.swen225.lc.app.views.FailView--><a href="FailView.html" target="_top" title="FailView.html" xlink:actuate="onRequest" xlink:href="FailView.html" xlink:show="new" xlink:title="FailView.html" xlink:type="simple"><rect codeLine="3" fill="#FEFECE" filter="url(#fyqipg9co029k)" height="60.9551" id="nz.ac.wgtn.swen225.lc.app.views.FailView" style="stroke:#A80036;stroke-width:1.5;" width="90" x="579" y="176.96"/><ellipse cx="599.4" cy="192.96" fill="#ADD1B2" rx="11" ry="11" style="stroke:#A80036;stroke-width:1.0;"/><path d="M601.8731,199.1031 Q601.2921,199.4019 600.6529,199.5513 Q600.0138,199.7007 599.3082,199.7007 Q596.8014,199.7007 595.4815,198.0489 Q594.1617,196.397 594.1617,193.2759 Q594.1617,190.1465 595.4815,188.4947 Q596.8014,186.8428 599.3082,186.8428 Q600.0138,186.8428 600.6612,186.9922 Q601.3087,187.1416 601.8731,187.4405 L601.8731,190.1631 Q601.2423,189.5821 600.6488,189.3123 Q600.0553,189.0425 599.4244,189.0425 Q598.0797,189.0425 597.3949,190.1092 Q596.7101,191.1758 596.7101,193.2759 Q596.7101,195.3677 597.3949,196.4344 Q598.0797,197.501 599.4244,197.501 Q600.0553,197.501 600.6488,197.2312 Q601.2423,196.9615 601.8731,196.3804 Z " fill="#000000"/><text fill="#000000" font-family="sans-serif" font-size="12" lengthAdjust="spacing" textLength="46" x="614.6" y="197.4952">FailView</text><line style="stroke:#A80036;stroke-width:1.5;" x1="580" x2="668" y1="208.96" y2="208.96"/><line style="stroke:#A80036;stroke-width:1.5;" x1="580" x2="668" y1="216.96" y2="216.96"/><ellipse cx="590" cy="227.96" fill="#84BE84" rx="3" ry="3" style="stroke:#038048;stroke-width:1.0;"/><text fill="#000000" font-family="sans-serif" font-size="11" lengthAdjust="spacing" textLength="64" x="599" y="231.5948">FailView(int)</text></a><!--MD5=[786beec0a131fc30926a505add6d264a]
class nz.ac.wgtn.swen225.lc.app.views.RuleView--><a href="RuleView.html" target="_top" title="RuleView.html" xlink:actuate="onRequest" xlink:href="RuleView.html" xlink:show="new" xlink:title="RuleView.html" xlink:type="simple"><rect codeLine="7" fill="#FEFECE" filter="url(#fyqipg9co029k)" height="60.9551" id="nz.ac.wgtn.swen225.lc.app.views.RuleView" style="stroke:#A80036;stroke-width:1.5;" width="147" x="912.5" y="176.96"/><ellipse cx="955.85" cy="192.96" fill="#ADD1B2" rx="11" ry="11" style="stroke:#A80036;stroke-width:1.0;"/><path d="M958.3231,199.1031 Q957.7421,199.4019 957.1029,199.5513 Q956.4638,199.7007 955.7582,199.7007 Q953.2514,199.7007 951.9315,198.0489 Q950.6117,196.397 950.6117,193.2759 Q950.6117,190.1465 951.9315,188.4947 Q953.2514,186.8428 955.7582,186.8428 Q956.4638,186.8428 957.1112,186.9922 Q957.7587,187.1416 958.3231,187.4405 L958.3231,190.1631 Q957.6923,189.5821 957.0988,189.3123 Q956.5053,189.0425 955.8744,189.0425 Q954.5297,189.0425 953.8449,190.1092 Q953.1601,191.1758 953.1601,193.2759 Q953.1601,195.3677 953.8449,196.4344 Q954.5297,197.501 955.8744,197.501 Q956.5053,197.501 957.0988,197.2312 Q957.6923,196.9615 958.3231,196.3804 Z " fill="#000000"/><text fill="#000000" font-family="sans-serif" font-size="12" lengthAdjust="spacing" textLength="52" x="976.15" y="197.4952">RuleView</text><line style="stroke:#A80036;stroke-width:1.5;" x1="913.5" x2="1058.5" y1="208.96" y2="208.96"/><line style="stroke:#A80036;stroke-width:1.5;" x1="913.5" x2="1058.5" y1="216.96" y2="216.96"/><ellipse cx="923.5" cy="227.96" fill="#84BE84" rx="3" ry="3" style="stroke:#038048;stroke-width:1.0;"/><text fill="#000000" font-family="sans-serif" font-size="11" lengthAdjust="spacing" textLength="121" x="932.5" y="231.5948">RuleView(MainWindow)</text></a><!--MD5=[3dbc3f1ae5e0eb2f35c3e1ff0127a4fb]
class nz.ac.wgtn.swen225.lc.app.views.RecorderView--><a href="RecorderView.html" target="_top" title="RecorderView.html" xlink:actuate="onRequest" xlink:href="RecorderView.html" xlink:show="new" xlink:title="RecorderView.html" xlink:type="simple"><rect codeLine="11" fill="#FEFECE" filter="url(#fyqipg9co029k)" height="60.9551" id="nz.ac.wgtn.swen225.lc.app.views.RecorderView" style="stroke:#A80036;stroke-width:1.5;" width="173" x="704.5" y="176.96"/><ellipse cx="746.95" cy="192.96" fill="#ADD1B2" rx="11" ry="11" style="stroke:#A80036;stroke-width:1.0;"/><path d="M749.4231,199.1031 Q748.8421,199.4019 748.2029,199.5513 Q747.5638,199.7007 746.8582,199.7007 Q744.3514,199.7007 743.0315,198.0489 Q741.7117,196.397 741.7117,193.2759 Q741.7117,190.1465 743.0315,188.4947 Q744.3514,186.8428 746.8582,186.8428 Q747.5638,186.8428 748.2112,186.9922 Q748.8587,187.1416 749.4231,187.4405 L749.4231,190.1631 Q748.7923,189.5821 748.1988,189.3123 Q747.6053,189.0425 746.9744,189.0425 Q745.6297,189.0425 744.9449,190.1092 Q744.2601,191.1758 744.2601,193.2759 Q744.2601,195.3677 744.9449,196.4344 Q745.6297,197.501 746.9744,197.501 Q747.6053,197.501 748.1988,197.2312 Q748.7923,196.9615 749.4231,196.3804 Z " fill="#000000"/><text fill="#000000" font-family="sans-serif" font-size="12" lengthAdjust="spacing" textLength="80" x="767.05" y="197.4952">RecorderView</text><line style="stroke:#A80036;stroke-width:1.5;" x1="705.5" x2="876.5" y1="208.96" y2="208.96"/><line style="stroke:#A80036;stroke-width:1.5;" x1="705.5" x2="876.5" y1="216.96" y2="216.96"/><ellipse cx="715.5" cy="227.96" fill="#84BE84" rx="3" ry="3" style="stroke:#038048;stroke-width:1.0;"/><text fill="#000000" font-family="sans-serif" font-size="11" lengthAdjust="spacing" textLength="147" x="724.5" y="231.5948">RecorderView(MainWindow)</text></a><!--MD5=[afa98deb70de5cb531b0fc169f0fb68d]
class nz.ac.wgtn.swen225.lc.app.views.WinView--><a href="WinView.html" target="_top" title="WinView.html" xlink:actuate="onRequest" xlink:href="WinView.html" xlink:show="new" xlink:title="WinView.html" xlink:type="simple"><rect codeLine="15" fill="#FEFECE" filter="url(#fyqipg9co029k)" height="48" id="nz.ac.wgtn.swen225.lc.app.views.WinView" style="stroke:#A80036;stroke-width:1.5;" width="79" x="31.5" y="183.44"/><ellipse cx="46.5" cy="199.44" fill="#ADD1B2" rx="11" ry="11" style="stroke:#A80036;stroke-width:1.0;"/><path d="M48.9731,205.5831 Q48.3921,205.8819 47.7529,206.0313 Q47.1138,206.1807 46.4082,206.1807 Q43.9014,206.1807 42.5815,204.5289 Q41.2617,202.877 41.2617,199.7559 Q41.2617,196.6265 42.5815,194.9747 Q43.9014,193.3228 46.4082,193.3228 Q47.1138,193.3228 47.7612,193.4722 Q48.4087,193.6216 48.9731,193.9205 L48.9731,196.6431 Q48.3423,196.0621 47.7488,195.7923 Q47.1553,195.5225 46.5244,195.5225 Q45.1797,195.5225 44.4949,196.5892 Q43.8101,197.6558 43.8101,199.7559 Q43.8101,201.8477 44.4949,202.9144 Q45.1797,203.981 46.5244,203.981 Q47.1553,203.981 47.7488,203.7112 Q48.3423,203.4415 48.9731,202.8604 Z " fill="#000000"/><text fill="#000000" font-family="sans-serif" font-size="12" lengthAdjust="spacing" textLength="47" x="60.5" y="203.9752">WinView</text><line style="stroke:#A80036;stroke-width:1.5;" x1="32.5" x2="109.5" y1="215.44" y2="215.44"/><line style="stroke:#A80036;stroke-width:1.5;" x1="32.5" x2="109.5" y1="223.44" y2="223.44"/></a><!--MD5=[6e197bca57fc6a2b6a41747c5d70d192]
class nz.ac.wgtn.swen225.lc.app.views.PauseView--><a href="PauseView.html" target="_top" title="PauseView.html" xlink:actuate="onRequest" xlink:href="PauseView.html" xlink:show="new" xlink:title="PauseView.html" xlink:type="simple"><rect codeLine="17" fill="#FEFECE" filter="url(#fyqipg9co029k)" height="48" id="nz.ac.wgtn.swen225.lc.app.views.PauseView" style="stroke:#A80036;stroke-width:1.5;" width="93" x="450.5" y="183.44"/><ellipse cx="465.5" cy="199.44" fill="#ADD1B2" rx="11" ry="11" style="stroke:#A80036;stroke-width:1.0;"/><path d="M467.9731,205.5831 Q467.3921,205.8819 466.7529,206.0313 Q466.1138,206.1807 465.4082,206.1807 Q462.9014,206.1807 461.5815,204.5289 Q460.2617,202.877 460.2617,199.7559 Q460.2617,196.6265 461.5815,194.9747 Q462.9014,193.3228 465.4082,193.3228 Q466.1138,193.3228 466.7612,193.4722 Q467.4087,193.6216 467.9731,193.9205 L467.9731,196.6431 Q467.3423,196.0621 466.7488,195.7923 Q466.1553,195.5225 465.5244,195.5225 Q464.1797,195.5225 463.4949,196.5892 Q462.8101,197.6558 462.8101,199.7559 Q462.8101,201.8477 463.4949,202.9144 Q464.1797,203.981 465.5244,203.981 Q466.1553,203.981 466.7488,203.7112 Q467.3423,203.4415 467.9731,202.8604 Z " fill="#000000"/><text fill="#000000" font-family="sans-serif" font-size="12" lengthAdjust="spacing" textLength="61" x="479.5" y="203.9752">PauseView</text><line style="stroke:#A80036;stroke-width:1.5;" x1="451.5" x2="542.5" y1="215.44" y2="215.44"/><line style="stroke:#A80036;stroke-width:1.5;" x1="451.5" x2="542.5" y1="223.44" y2="223.44"/></a><!--MD5=[5d5dc71025ca219ece7898ae4985fae2]
class nz.ac.wgtn.swen225.lc.app.views.ApplicationWindow--><a href="ApplicationWindow.html" target="_top" title="ApplicationWindow.html" xlink:actuate="onRequest" xlink:href="ApplicationWindow.html" xlink:show="new" xlink:title="ApplicationWindow.html" xlink:type="simple"><rect codeLine="19" fill="#FEFECE" filter="url(#fyqipg9co029k)" height="86.8652" id="nz.ac.wgtn.swen225.lc.app.views.ApplicationWindow" style="stroke:#A80036;stroke-width:1.5;" width="270" x="145" y="164"/><ellipse cx="221.75" cy="180" fill="#ADD1B2" rx="11" ry="11" style="stroke:#A80036;stroke-width:1.0;"/><path d="M224.2231,186.1431 Q223.6421,186.4419 223.0029,186.5913 Q222.3638,186.7407 221.6582,186.7407 Q219.1514,186.7407 217.8315,185.0889 Q216.5117,183.437 216.5117,180.3159 Q216.5117,177.1865 217.8315,175.5347 Q219.1514,173.8828 221.6582,173.8828 Q222.3638,173.8828 223.0112,174.0322 Q223.6587,174.1816 224.2231,174.4805 L224.2231,177.2031 Q223.5923,176.6221 222.9988,176.3523 Q222.4053,176.0825 221.7744,176.0825 Q220.4297,176.0825 219.7449,177.1492 Q219.0601,178.2158 219.0601,180.3159 Q219.0601,182.4077 219.7449,183.4744 Q220.4297,184.541 221.7744,184.541 Q222.4053,184.541 222.9988,184.2712 Q223.5923,184.0015 224.2231,183.4204 Z " fill="#000000"/><text fill="#000000" font-family="sans-serif" font-size="12" lengthAdjust="spacing" textLength="108" x="242.25" y="184.5352">ApplicationWindow</text><line style="stroke:#A80036;stroke-width:1.5;" x1="146" x2="414" y1="196" y2="196"/><line style="stroke:#A80036;stroke-width:1.5;" x1="146" x2="414" y1="204" y2="204"/><ellipse cx="156" cy="215" fill="#84BE84" rx="3" ry="3" style="stroke:#038048;stroke-width:1.0;"/><text fill="#000000" font-family="sans-serif" font-size="11" lengthAdjust="spacing" textLength="244" x="165" y="218.6348">ApplicationWindow(GameModel, MainWindow)</text><ellipse cx="156" cy="227.9551" fill="#84BE84" rx="3" ry="3" style="stroke:#038048;stroke-width:1.0;"/><text fill="#000000" font-family="sans-serif" font-size="11" lengthAdjust="spacing" textLength="123" x="165" y="231.5898">setReplay(Replay): void</text><ellipse cx="156" cy="240.9102" fill="#84BE84" rx="3" ry="3" style="stroke:#038048;stroke-width:1.0;"/><text fill="#000000" font-family="sans-serif" font-size="11" lengthAdjust="spacing" textLength="123" x="165" y="244.5449">getTimer(): GameTimer</text></a><!--MD5=[56a185cb33bdc7c23303e5865f20a19b]
class javax.swing.JPanel--><rect codeLine="34" fill="#FEFECE" filter="url(#fyqipg9co029k)" height="48" id="javax.swing.JPanel" style="stroke:#A80036;stroke-width:1.5;" width="67" x="526.5" y="41"/><ellipse cx="541.5" cy="57" fill="#ADD1B2" rx="11" ry="11" style="stroke:#A80036;stroke-width:1.0;"/><path d="M543.9731,63.1431 Q543.3921,63.4419 542.7529,63.5913 Q542.1138,63.7407 541.4082,63.7407 Q538.9014,63.7407 537.5815,62.0889 Q536.2617,60.437 536.2617,57.3159 Q536.2617,54.1865 537.5815,52.5347 Q538.9014,50.8828 541.4082,50.8828 Q542.1138,50.8828 542.7612,51.0322 Q543.4087,51.1816 543.9731,51.4805 L543.9731,54.2031 Q543.3423,53.6221 542.7488,53.3523 Q542.1553,53.0825 541.5244,53.0825 Q540.1797,53.0825 539.4949,54.1492 Q538.8101,55.2158 538.8101,57.3159 Q538.8101,59.4077 539.4949,60.4744 Q540.1797,61.541 541.5244,61.541 Q542.1553,61.541 542.7488,61.2712 Q543.3423,61.0015 543.9731,60.4204 Z " fill="#000000"/><text fill="#000000" font-family="sans-serif" font-size="12" lengthAdjust="spacing" textLength="35" x="555.5" y="61.5352">JPanel</text><line style="stroke:#A80036;stroke-width:1.5;" x1="527.5" x2="592.5" y1="73" y2="73"/><line style="stroke:#A80036;stroke-width:1.5;" x1="527.5" x2="592.5" y1="81" y2="81"/><!--MD5=[18a7562403221f513ca44e0f82c4c17a]
class javax.swing.JFrame--><rect codeLine="36" fill="#FEFECE" filter="url(#fyqipg9co029k)" height="48" id="javax.swing.JFrame" style="stroke:#A80036;stroke-width:1.5;" width="72" x="629" y="41"/><ellipse cx="644" cy="57" fill="#ADD1B2" rx="11" ry="11" style="stroke:#A80036;stroke-width:1.0;"/><path d="M646.4731,63.1431 Q645.8921,63.4419 645.2529,63.5913 Q644.6138,63.7407 643.9082,63.7407 Q641.4014,63.7407 640.0815,62.0889 Q638.7617,60.437 638.7617,57.3159 Q638.7617,54.1865 640.0815,52.5347 Q641.4014,50.8828 643.9082,50.8828 Q644.6138,50.8828 645.2612,51.0322 Q645.9087,51.1816 646.4731,51.4805 L646.4731,54.2031 Q645.8423,53.6221 645.2488,53.3523 Q644.6553,53.0825 644.0244,53.0825 Q642.6797,53.0825 641.9949,54.1492 Q641.3101,55.2158 641.3101,57.3159 Q641.3101,59.4077 641.9949,60.4744 Q642.6797,61.541 644.0244,61.541 Q644.6553,61.541 645.2488,61.2712 Q645.8423,61.0015 646.4731,60.4204 Z " fill="#000000"/><text fill="#000000" font-family="sans-serif" font-size="12" lengthAdjust="spacing" textLength="40" x="658" y="61.5352">JFrame</text><line style="stroke:#A80036;stroke-width:1.5;" x1="630" x2="700" y1="73" y2="73"/><line style="stroke:#A80036;stroke-width:1.5;" x1="630" x2="700" y1="81" y2="81"/><!--MD5=[c1dd424f75a6a3f3b95877d34140ac85]
reverse link javax.swing.JPanel to nz.ac.wgtn.swen225.lc.app.views.FailView--><path codeLine="25" d="M579.41,108.59 C589.42,130.56 601.39,156.82 610.4,176.6 " fill="none" id="javax.swing.JPanel-backto-nz.ac.wgtn.swen225.lc.app.views.FailView" style="stroke:#A80036;stroke-width:1.0;"/><polygon fill="none" points="573.12,111.67,571.2,90.57,585.86,105.87,573.12,111.67" style="stroke:#A80036;stroke-width:1.0;"/><!--MD5=[0ebe616cb5b7a421d2d75ebdb540f2f7]
reverse link javax.swing.JFrame to nz.ac.wgtn.swen225.lc.app.views.RuleView--><path codeLine="26" d="M722.56,71.43 C770.94,77.89 840.71,91.75 895,121 C920.75,134.88 944.65,157.88 961.49,176.52 " fill="none" id="javax.swing.JFrame-backto-nz.ac.wgtn.swen225.lc.app.views.RuleView" style="stroke:#A80036;stroke-width:1.0;"/><polygon fill="none" points="721.85,78.4,702.82,69.07,723.51,64.5,721.85,78.4" style="stroke:#A80036;stroke-width:1.0;"/><!--MD5=[8ed75985734efe67d8d1b4de2b76ca7b]
reverse link javax.swing.JFrame to nz.ac.wgtn.swen225.lc.app.views.RecorderView--><path codeLine="27" d="M699.89,104.9 C720.23,127.56 745.48,155.7 764.23,176.6 " fill="none" id="javax.swing.JFrame-backto-nz.ac.wgtn.swen225.lc.app.views.RecorderView" style="stroke:#A80036;stroke-width:1.0;"/><polygon fill="none" points="694.96,109.88,686.82,90.32,705.38,100.53,694.96,109.88" style="stroke:#A80036;stroke-width:1.0;"/><!--MD5=[6e51b03b902bc5a94896eba50a9dc5ab]
reverse link javax.swing.JPanel to nz.ac.wgtn.swen225.lc.app.views.WinView--><path codeLine="28" d="M504.67,67.35 C402.46,70.74 188.85,82.36 127,121 C103.99,135.38 88.48,163.09 79.73,183.06 " fill="none" id="javax.swing.JPanel-backto-nz.ac.wgtn.swen225.lc.app.views.WinView" style="stroke:#A80036;stroke-width:1.0;"/><polygon fill="none" points="504.41,60.35,524.61,66.75,504.83,74.34,504.41,60.35" style="stroke:#A80036;stroke-width:1.0;"/><!--MD5=[33f89a2328b6359aebe70c9579193d7d]
reverse link javax.swing.JPanel to nz.ac.wgtn.swen225.lc.app.views.PauseView--><path codeLine="29" d="M540.89,108.59 C529.89,133.11 516.5,162.98 507.42,183.21 " fill="none" id="javax.swing.JPanel-backto-nz.ac.wgtn.swen225.lc.app.views.PauseView" style="stroke:#A80036;stroke-width:1.0;"/><polygon fill="none" points="534.4,105.96,548.98,90.58,547.18,111.69,534.4,105.96" style="stroke:#A80036;stroke-width:1.0;"/><!--MD5=[aa2f7422b6980fc9c4439b26020e9565]
reverse link javax.swing.JPanel to nz.ac.wgtn.swen225.lc.app.views.ApplicationWindow--><path codeLine="30" d="M506.47,87.78 C483.6,97.44 456.75,109.27 433,121 C406.54,134.08 378.17,149.51 353.13,163.64 " fill="none" id="javax.swing.JPanel-backto-nz.ac.wgtn.swen225.lc.app.views.ApplicationWindow" style="stroke:#A80036;stroke-width:1.0;"/><polygon fill="none" points="503.6,81.39,524.76,80.16,508.99,94.31,503.6,81.39" style="stroke:#A80036;stroke-width:1.0;"/><text fill="#888888" font-family="sans-serif" font-size="10" lengthAdjust="spacing" textLength="182" x="449" y="282.538">UMLDoclet 2.0.14, PlantUML 1.2021.9</text><!--MD5=[3d01f75120789c40e094cd83c42e2e49]
@startuml
    namespace nz.ac.wgtn.swen225.lc.app.views {

        class FailView [[FailView.html]] {
            +FailView(int)
        }

        class RuleView [[RuleView.html]] {
            +RuleView(MainWindow)
        }

        class RecorderView [[RecorderView.html]] {
            +RecorderView(MainWindow)
        }

        class WinView [[WinView.html]]

        class PauseView [[PauseView.html]]

        class ApplicationWindow [[ApplicationWindow.html]] {
            +ApplicationWindow(GameModel, MainWindow)
            +setReplay(Replay): void
            +getTimer(): GameTimer
        }

        javax.swing.JPanel <|- - FailView
        javax.swing.JFrame <|- - RuleView
        javax.swing.JFrame <|- - RecorderView
        javax.swing.JPanel <|- - WinView
        javax.swing.JPanel <|- - PauseView
        javax.swing.JPanel <|- - ApplicationWindow
    }

    namespace javax.swing {
        class JPanel {
        }
        class JFrame {
        }
    }

    center footer UMLDoclet 2.0.14, PlantUML 1.2021.9
@enduml

PlantUML version 1.2021.9(Sun Jul 25 22:13:56 NZST 2021)
(APACHE source distribution)
Java Runtime: OpenJDK Runtime Environment
JVM: OpenJDK 64-Bit Server VM
Default Encoding: UTF-8
Language: en
Country: NZ
--></g></svg>