<?xml version="1.0" encoding="UTF-8" standalone="no"?><svg xmlns="http://www.w3.org/2000/svg" xmlns:xlink="http://www.w3.org/1999/xlink" contentScriptType="application/ecmascript" contentStyleType="text/css" height="174px" preserveAspectRatio="none" style="width:214px;height:174px;background:#FFFFFF;" version="1.1" viewBox="0 0 214 174" width="214px" zoomAndPan="magnify"><defs><filter height="300%" id="f1nxv9nq5zbuc9" width="300%" x="-1" y="-1"><feGaussianBlur result="blurOut" stdDeviation="2.0"/><feColorMatrix in="blurOut" result="blurOut2" type="matrix" values="0 0 0 0 0 0 0 0 0 0 0 0 0 0 0 0 0 0 .4 0"/><feOffset dx="4.0" dy="4.0" in="blurOut2" result="blurOut3"/><feBlend in="SourceGraphic" in2="blurOut3" mode="normal"/></filter></defs><g><!--MD5=[6e197bca57fc6a2b6a41747c5d70d192]
class nz.ac.wgtn.swen225.lc.app.views.PauseView--><a href="PauseView.html" target="_top" title="PauseView.html" xlink:actuate="onRequest" xlink:href="PauseView.html" xlink:show="new" xlink:title="PauseView.html" xlink:type="simple"><rect codeLine="5" fill="#FEFECE" filter="url(#f1nxv9nq5zbuc9)" height="38.2656" id="nz.ac.wgtn.swen225.lc.app.views.PauseView" style="stroke:#A80036;stroke-width:1.5;" width="193" x="7" y="105.26"/><ellipse cx="22" cy="124.3928" fill="#ADD1B2" rx="11" ry="11" style="stroke:#A80036;stroke-width:1.0;"/><path d="M24.4731,130.5359 Q23.8921,130.8347 23.2529,130.9841 Q22.6138,131.1335 21.9082,131.1335 Q19.4014,131.1335 18.0815,129.4817 Q16.7617,127.8298 16.7617,124.7087 Q16.7617,121.5793 18.0815,119.9275 Q19.4014,118.2756 21.9082,118.2756 Q22.6138,118.2756 23.2612,118.425 Q23.9087,118.5745 24.4731,118.8733 L24.4731,121.5959 Q23.8423,121.0149 23.2488,120.7451 Q22.6553,120.4753 22.0244,120.4753 Q20.6797,120.4753 19.9949,121.542 Q19.3101,122.6086 19.3101,124.7087 Q19.3101,126.8005 19.9949,127.8672 Q20.6797,128.9338 22.0244,128.9338 Q22.6553,128.9338 23.2488,128.6641 Q23.8423,128.3943 24.4731,127.8132 Z " fill="#000000"/><text fill="#000000" font-family="sans-serif" font-size="14" lengthAdjust="spacing" textLength="72" x="80.5" y="123.7952">PauseView</text><text fill="#000000" font-family="sans-serif" font-size="10" lengthAdjust="spacing" textLength="161" x="36" y="136.4163">nz.ac.wgtn.swen225.lc.app.views</text></a><!--MD5=[56a185cb33bdc7c23303e5865f20a19b]
class javax.swing.JPanel--><rect codeLine="7" fill="#FEFECE" filter="url(#f1nxv9nq5zbuc9)" height="38.2656" id="javax.swing.JPanel" style="stroke:#A80036;stroke-width:1.5;" width="89" x="59" y="7"/><ellipse cx="74" cy="26.1328" fill="#ADD1B2" rx="11" ry="11" style="stroke:#A80036;stroke-width:1.0;"/><path d="M76.4731,32.2759 Q75.8921,32.5747 75.2529,32.7241 Q74.6138,32.8735 73.9082,32.8735 Q71.4014,32.8735 70.0815,31.2217 Q68.7617,29.5698 68.7617,26.4487 Q68.7617,23.3193 70.0815,21.6675 Q71.4014,20.0156 73.9082,20.0156 Q74.6138,20.0156 75.2612,20.165 Q75.9087,20.3145 76.4731,20.6133 L76.4731,23.3359 Q75.8423,22.7549 75.2488,22.4851 Q74.6553,22.2153 74.0244,22.2153 Q72.6797,22.2153 71.9949,23.282 Q71.3101,24.3486 71.3101,26.4487 Q71.3101,28.5405 71.9949,29.6072 Q72.6797,30.6738 74.0244,30.6738 Q74.6553,30.6738 75.2488,30.4041 Q75.8423,30.1343 76.4731,29.5532 Z " fill="#000000"/><text fill="#000000" font-family="sans-serif" font-size="14" lengthAdjust="spacing" textLength="41" x="96" y="25.5352">JPanel</text><text fill="#000000" font-family="sans-serif" font-size="10" lengthAdjust="spacing" textLength="57" x="88" y="38.1563">javax.swing</text><!--MD5=[33f89a2328b6359aebe70c9579193d7d]
reverse link javax.swing.JPanel to nz.ac.wgtn.swen225.lc.app.views.PauseView--><path codeLine="9" d="M103.5,66.94 C103.5,80.1 103.5,94.12 103.5,104.89 " fill="none" id="javax.swing.JPanel-backto-nz.ac.wgtn.swen225.lc.app.views.PauseView" style="stroke:#A80036;stroke-width:1.0;"/><polygon fill="none" points="96.5,67.21,103.5,47.21,110.5,67.21,96.5,67.21" style="stroke:#A80036;stroke-width:1.0;"/><text fill="#888888" font-family="sans-serif" font-size="10" lengthAdjust="spacing" textLength="182" x="9.5" y="166.1936">UMLDoclet 2.0.14, PlantUML 1.2021.9</text><!--MD5=[dd416e667e9a97e4e4cf5c916781e178]
@startuml
    set namespaceSeparator none
    hide empty fields
    hide empty methods

    class "<size:14>PauseView\n<size:10>nz.ac.wgtn.swen225.lc.app.views" as nz.ac.wgtn.swen225.lc.app.views.PauseView [[PauseView.html]]

    class "<size:14>JPanel\n<size:10>javax.swing" as javax.swing.JPanel

    javax.swing.JPanel <|- - nz.ac.wgtn.swen225.lc.app.views.PauseView

    center footer UMLDoclet 2.0.14, PlantUML 1.2021.9
@enduml

PlantUML version 1.2021.9(Sun Jul 25 22:13:56 NZST 2021)
(APACHE source distribution)
Java Runtime: OpenJDK Runtime Environment
JVM: OpenJDK 64-Bit Server VM
Default Encoding: UTF-8
Language: en
Country: NZ
--></g></svg>