<?xml version="1.0" encoding="UTF-8" standalone="no"?><svg xmlns="http://www.w3.org/2000/svg" xmlns:xlink="http://www.w3.org/1999/xlink" contentScriptType="application/ecmascript" contentStyleType="text/css" height="195px" preserveAspectRatio="none" style="width:214px;height:195px;background:#FFFFFF;" version="1.1" viewBox="0 0 214 195" width="214px" zoomAndPan="magnify"><defs><filter height="300%" id="fgr4w4hiwmoc6" width="300%" x="-1" y="-1"><feGaussianBlur result="blurOut" stdDeviation="2.0"/><feColorMatrix in="blurOut" result="blurOut2" type="matrix" values="0 0 0 0 0 0 0 0 0 0 0 0 0 0 0 0 0 0 .4 0"/><feOffset dx="4.0" dy="4.0" in="blurOut2" result="blurOut3"/><feBlend in="SourceGraphic" in2="blurOut3" mode="normal"/></filter></defs><g><!--MD5=[786beec0a131fc30926a505add6d264a]
class nz.ac.wgtn.swen225.lc.app.views.RuleView--><a href="RuleView.html" target="_top" title="RuleView.html" xlink:actuate="onRequest" xlink:href="RuleView.html" xlink:show="new" xlink:title="RuleView.html" xlink:type="simple"><rect codeLine="5" fill="#FEFECE" filter="url(#fgr4w4hiwmoc6)" height="59.2207" id="nz.ac.wgtn.swen225.lc.app.views.RuleView" style="stroke:#A80036;stroke-width:1.5;" width="193" x="7" y="105.27"/><ellipse cx="22" cy="124.4028" fill="#ADD1B2" rx="11" ry="11" style="stroke:#A80036;stroke-width:1.0;"/><path d="M24.4731,130.5459 Q23.8921,130.8447 23.2529,130.9941 Q22.6138,131.1435 21.9082,131.1435 Q19.4014,131.1435 18.0815,129.4917 Q16.7617,127.8398 16.7617,124.7187 Q16.7617,121.5893 18.0815,119.9375 Q19.4014,118.2856 21.9082,118.2856 Q22.6138,118.2856 23.2612,118.435 Q23.9087,118.5845 24.4731,118.8833 L24.4731,121.6059 Q23.8423,121.0249 23.2488,120.7551 Q22.6553,120.4853 22.0244,120.4853 Q20.6797,120.4853 19.9949,121.552 Q19.3101,122.6186 19.3101,124.7187 Q19.3101,126.8105 19.9949,127.8772 Q20.6797,128.9438 22.0244,128.9438 Q22.6553,128.9438 23.2488,128.6741 Q23.8423,128.4043 24.4731,127.8232 Z " fill="#000000"/><text fill="#000000" font-family="sans-serif" font-size="14" lengthAdjust="spacing" textLength="62" x="85.5" y="123.8052">RuleView</text><text fill="#000000" font-family="sans-serif" font-size="10" lengthAdjust="spacing" textLength="161" x="36" y="136.4263">nz.ac.wgtn.swen225.lc.app.views</text><line style="stroke:#A80036;stroke-width:1.5;" x1="8" x2="199" y1="143.5356" y2="143.5356"/><ellipse cx="18" cy="154.5356" fill="#84BE84" rx="3" ry="3" style="stroke:#038048;stroke-width:1.0;"/><text fill="#000000" font-family="sans-serif" font-size="11" lengthAdjust="spacing" textLength="121" x="27" y="158.1704">RuleView(MainWindow)</text></a><!--MD5=[18a7562403221f513ca44e0f82c4c17a]
class javax.swing.JFrame--><rect codeLine="9" fill="#FEFECE" filter="url(#fgr4w4hiwmoc6)" height="38.2656" id="javax.swing.JFrame" style="stroke:#A80036;stroke-width:1.5;" width="89" x="59" y="7"/><ellipse cx="74" cy="26.1328" fill="#ADD1B2" rx="11" ry="11" style="stroke:#A80036;stroke-width:1.0;"/><path d="M76.4731,32.2759 Q75.8921,32.5747 75.2529,32.7241 Q74.6138,32.8735 73.9082,32.8735 Q71.4014,32.8735 70.0815,31.2217 Q68.7617,29.5698 68.7617,26.4487 Q68.7617,23.3193 70.0815,21.6675 Q71.4014,20.0156 73.9082,20.0156 Q74.6138,20.0156 75.2612,20.165 Q75.9087,20.3145 76.4731,20.6133 L76.4731,23.3359 Q75.8423,22.7549 75.2488,22.4851 Q74.6553,22.2153 74.0244,22.2153 Q72.6797,22.2153 71.9949,23.282 Q71.3101,24.3486 71.3101,26.4487 Q71.3101,28.5405 71.9949,29.6072 Q72.6797,30.6738 74.0244,30.6738 Q74.6553,30.6738 75.2488,30.4041 Q75.8423,30.1343 76.4731,29.5532 Z " fill="#000000"/><text fill="#000000" font-family="sans-serif" font-size="14" lengthAdjust="spacing" textLength="47" x="93" y="25.5352">JFrame</text><text fill="#000000" font-family="sans-serif" font-size="10" lengthAdjust="spacing" textLength="57" x="88" y="38.1563">javax.swing</text><!--MD5=[0ebe616cb5b7a421d2d75ebdb540f2f7]
reverse link javax.swing.JFrame to nz.ac.wgtn.swen225.lc.app.views.RuleView--><path codeLine="11" d="M103.5,67.2 C103.5,79.78 103.5,93.41 103.5,105.05 " fill="none" id="javax.swing.JFrame-backto-nz.ac.wgtn.swen225.lc.app.views.RuleView" style="stroke:#A80036;stroke-width:1.0;"/><polygon fill="none" points="96.5,67.24,103.5,47.24,110.5,67.24,96.5,67.24" style="stroke:#A80036;stroke-width:1.0;"/><text fill="#888888" font-family="sans-serif" font-size="10" lengthAdjust="spacing" textLength="182" x="9.5" y="187.1587">UMLDoclet 2.0.14, PlantUML 1.2021.9</text><!--MD5=[7e15ba72adfa7139f650588d5b33e9ea]
@startuml
    set namespaceSeparator none
    hide empty fields
    hide empty methods

    class "<size:14>RuleView\n<size:10>nz.ac.wgtn.swen225.lc.app.views" as nz.ac.wgtn.swen225.lc.app.views.RuleView [[RuleView.html]] {
        +RuleView(MainWindow)
    }

    class "<size:14>JFrame\n<size:10>javax.swing" as javax.swing.JFrame

    javax.swing.JFrame <|- - nz.ac.wgtn.swen225.lc.app.views.RuleView

    center footer UMLDoclet 2.0.14, PlantUML 1.2021.9
@enduml

PlantUML version 1.2021.9(Sun Jul 25 22:13:56 NZST 2021)
(APACHE source distribution)
Java Runtime: OpenJDK Runtime Environment
JVM: OpenJDK 64-Bit Server VM
Default Encoding: UTF-8
Language: en
Country: NZ
--></g></svg>