<?xml version="1.0" encoding="UTF-8" standalone="no"?><svg xmlns="http://www.w3.org/2000/svg" xmlns:xlink="http://www.w3.org/1999/xlink" contentScriptType="application/ecmascript" contentStyleType="text/css" height="341px" preserveAspectRatio="none" style="width:450px;height:341px;background:#FFFFFF;" version="1.1" viewBox="0 0 450 341" width="450px" zoomAndPan="magnify"><defs><filter height="300%" id="fgkhq1k19m743" width="300%" x="-1" y="-1"><feGaussianBlur result="blurOut" stdDeviation="2.0"/><feColorMatrix in="blurOut" result="blurOut2" type="matrix" values="0 0 0 0 0 0 0 0 0 0 0 0 0 0 0 0 0 0 .4 0"/><feOffset dx="4.0" dy="4.0" in="blurOut2" result="blurOut3"/><feBlend in="SourceGraphic" in2="blurOut3" mode="normal"/></filter></defs><g><!--MD5=[c91fb21b793f1c859b4c43a1bbd9e258]
class nz.ac.wgtn.swen225.lc.app.input.GameKeyListener--><a href="GameKeyListener.html" target="_top" title="GameKeyListener.html" xlink:actuate="onRequest" xlink:href="GameKeyListener.html" xlink:show="new" xlink:title="GameKeyListener.html" xlink:type="simple"><rect codeLine="5" fill="#FEFECE" filter="url(#fgkhq1k19m743)" height="157.9063" id="nz.ac.wgtn.swen225.lc.app.input.GameKeyListener" style="stroke:#A80036;stroke-width:1.5;" width="429" x="7" y="152.13"/><ellipse cx="137.75" cy="171.2628" fill="#ADD1B2" rx="11" ry="11" style="stroke:#A80036;stroke-width:1.0;"/><path d="M140.2231,177.4059 Q139.6421,177.7047 139.0029,177.8541 Q138.3638,178.0035 137.6582,178.0035 Q135.1514,178.0035 133.8315,176.3517 Q132.5117,174.6998 132.5117,171.5787 Q132.5117,168.4493 133.8315,166.7975 Q135.1514,165.1456 137.6582,165.1456 Q138.3638,165.1456 139.0112,165.295 Q139.6587,165.4445 140.2231,165.7433 L140.2231,168.4659 Q139.5923,167.8849 138.9988,167.6151 Q138.4053,167.3453 137.7744,167.3453 Q136.4297,167.3453 135.7449,168.412 Q135.0601,169.4786 135.0601,171.5787 Q135.0601,173.6705 135.7449,174.7372 Q136.4297,175.8038 137.7744,175.8038 Q138.4053,175.8038 138.9988,175.5341 Q139.5923,175.2643 140.2231,174.6832 Z " fill="#000000"/><text fill="#000000" font-family="sans-serif" font-size="14" lengthAdjust="spacing" textLength="117" x="179.25" y="170.6652">GameKeyListener</text><text fill="#000000" font-family="sans-serif" font-size="10" lengthAdjust="spacing" textLength="159" x="158.25" y="183.2863">nz.ac.wgtn.swen225.lc.app.input</text><line style="stroke:#A80036;stroke-width:1.5;" x1="8" x2="435" y1="190.3956" y2="190.3956"/><ellipse cx="18" cy="201.3956" rx="3" ry="3" style="stroke:#038048;stroke-width:1.0;fill:none;"/><text fill="#000000" font-family="sans-serif" font-size="11" lengthAdjust="spacing" text-decoration="underline" textLength="71" x="27" y="205.0304">levels: Level[]</text><line style="stroke:#A80036;stroke-width:1.5;" x1="8" x2="435" y1="211.3507" y2="211.3507"/><ellipse cx="18" cy="222.3507" fill="#84BE84" rx="3" ry="3" style="stroke:#038048;stroke-width:1.0;"/><text fill="#000000" font-family="sans-serif" font-size="11" lengthAdjust="spacing" textLength="403" x="27" y="225.9855">GameKeyListener(GameModel, GameTimer, Controller, PersistenceManager)</text><ellipse cx="18" cy="235.3058" fill="#84BE84" rx="3" ry="3" style="stroke:#038048;stroke-width:1.0;"/><text fill="#000000" font-family="sans-serif" font-size="11" lengthAdjust="spacing" textLength="130" x="27" y="238.9405">loadReplay(Replay): void</text><ellipse cx="18" cy="248.2609" fill="#84BE84" rx="3" ry="3" style="stroke:#038048;stroke-width:1.0;"/><text fill="#000000" font-family="sans-serif" font-size="11" lengthAdjust="spacing" text-decoration="underline" textLength="163" x="27" y="251.8956">getMainWindow(): MainWindow</text><ellipse cx="18" cy="261.2159" fill="#84BE84" rx="3" ry="3" style="stroke:#038048;stroke-width:1.0;"/><text fill="#000000" font-family="sans-serif" font-size="11" lengthAdjust="spacing" textLength="136" x="27" y="264.8507">keyTyped(KeyEvent): void</text><ellipse cx="18" cy="274.171" fill="#84BE84" rx="3" ry="3" style="stroke:#038048;stroke-width:1.0;"/><text fill="#000000" font-family="sans-serif" font-size="11" lengthAdjust="spacing" textLength="145" x="27" y="277.8058">keyPressed(KeyEvent): void</text><ellipse cx="18" cy="287.1261" fill="#84BE84" rx="3" ry="3" style="stroke:#038048;stroke-width:1.0;"/><text fill="#000000" font-family="sans-serif" font-size="11" lengthAdjust="spacing" textLength="150" x="27" y="290.7609">keyReleased(KeyEvent): void</text><ellipse cx="18" cy="300.0812" fill="#84BE84" rx="3" ry="3" style="stroke:#038048;stroke-width:1.0;"/><text fill="#000000" font-family="sans-serif" font-size="11" lengthAdjust="spacing" textLength="162" x="27" y="303.7159">onKeyPress(int, boolean): void</text></a><!--MD5=[3eb55d915ce4c988cc6fe2a782a0fcdf]
class java.awt.event.KeyListener--><rect codeLine="16" fill="#FEFECE" filter="url(#fgkhq1k19m743)" height="85.1309" id="java.awt.event.KeyListener" style="stroke:#A80036;stroke-width:1.5;" width="176" x="133.5" y="7"/><ellipse cx="178.25" cy="26.1328" fill="#B4A7E5" rx="11" ry="11" style="stroke:#A80036;stroke-width:1.0;"/><path d="M174.6777,22.3979 L174.6777,20.2397 L182.0571,20.2397 L182.0571,22.3979 L179.5918,22.3979 L179.5918,30.4746 L182.0571,30.4746 L182.0571,32.6328 L174.6777,32.6328 L174.6777,30.4746 L177.1431,30.4746 L177.1431,22.3979 Z " fill="#000000"/><text fill="#000000" font-family="sans-serif" font-size="14" font-style="italic" lengthAdjust="spacing" textLength="78" x="198.75" y="25.5352">KeyListener</text><text fill="#000000" font-family="sans-serif" font-size="10" font-style="italic" lengthAdjust="spacing" textLength="71" x="202.25" y="38.1563">java.awt.event</text><line style="stroke:#A80036;stroke-width:1.5;" x1="134.5" x2="308.5" y1="45.2656" y2="45.2656"/><ellipse cx="144.5" cy="56.2656" fill="#84BE84" rx="3" ry="3" style="stroke:#038048;stroke-width:1.0;"/><text fill="#000000" font-family="sans-serif" font-size="11" font-style="italic" lengthAdjust="spacing" textLength="136" x="153.5" y="59.9004">keyTyped(KeyEvent): void</text><ellipse cx="144.5" cy="69.2207" fill="#84BE84" rx="3" ry="3" style="stroke:#038048;stroke-width:1.0;"/><text fill="#000000" font-family="sans-serif" font-size="11" font-style="italic" lengthAdjust="spacing" textLength="145" x="153.5" y="72.8555">keyPressed(KeyEvent): void</text><ellipse cx="144.5" cy="82.1758" fill="#84BE84" rx="3" ry="3" style="stroke:#038048;stroke-width:1.0;"/><text fill="#000000" font-family="sans-serif" font-size="11" font-style="italic" lengthAdjust="spacing" textLength="150" x="153.5" y="85.8105">keyReleased(KeyEvent): void</text><!--MD5=[fb85d0c11f1bde884fb84e0b7a03fedf]
reverse link java.awt.event.KeyListener to nz.ac.wgtn.swen225.lc.app.input.GameKeyListener--><path codeLine="22" d="M221.5,113.4 C221.5,125.75 221.5,138.85 221.5,151.64 " fill="none" id="java.awt.event.KeyListener-backto-nz.ac.wgtn.swen225.lc.app.input.GameKeyListener" style="stroke:#A80036;stroke-width:1.0;stroke-dasharray:7.0,7.0;"/><polygon fill="none" points="214.5,113.72,221.5,93.72,228.5,113.72,214.5,113.72" style="stroke:#A80036;stroke-width:1.0;"/><text fill="#888888" font-family="sans-serif" font-size="10" lengthAdjust="spacing" textLength="182" x="127.5" y="332.7042">UMLDoclet 2.0.14, PlantUML 1.2021.9</text><!--MD5=[22e393eaddcf05f903a2e393b8e1deb1]
@startuml
    set namespaceSeparator none
    hide empty fields
    hide empty methods

    class "<size:14>GameKeyListener\n<size:10>nz.ac.wgtn.swen225.lc.app.input" as nz.ac.wgtn.swen225.lc.app.input.GameKeyListener [[GameKeyListener.html]] {
        {static} +levels: Level[]
        +GameKeyListener(GameModel, GameTimer, Controller, PersistenceManager)
        +loadReplay(Replay): void
        {static} +getMainWindow(): MainWindow
        +keyTyped(KeyEvent): void
        +keyPressed(KeyEvent): void
        +keyReleased(KeyEvent): void
        +onKeyPress(int, boolean): void
    }

    interface "<size:14>KeyListener\n<size:10>java.awt.event" as java.awt.event.KeyListener {
        {abstract} +keyTyped(KeyEvent): void
        {abstract} +keyPressed(KeyEvent): void
        {abstract} +keyReleased(KeyEvent): void
    }

    java.awt.event.KeyListener <|.. nz.ac.wgtn.swen225.lc.app.input.GameKeyListener

    center footer UMLDoclet 2.0.14, PlantUML 1.2021.9
@enduml

PlantUML version 1.2021.9(Sun Jul 25 22:13:56 NZST 2021)
(APACHE source distribution)
Java Runtime: OpenJDK Runtime Environment
JVM: OpenJDK 64-Bit Server VM
Default Encoding: UTF-8
Language: en
Country: NZ
--></g></svg>