<?xml version="1.0" encoding="UTF-8" standalone="no"?><svg xmlns="http://www.w3.org/2000/svg" xmlns:xlink="http://www.w3.org/1999/xlink" contentScriptType="application/ecmascript" contentStyleType="text/css" height="394px" preserveAspectRatio="none" style="width:493px;height:394px;background:#FFFFFF;" version="1.1" viewBox="0 0 493 394" width="493px" zoomAndPan="magnify"><defs><filter height="300%" id="f1w69qev86o93r" width="300%" x="-1" y="-1"><feGaussianBlur result="blurOut" stdDeviation="2.0"/><feColorMatrix in="blurOut" result="blurOut2" type="matrix" values="0 0 0 0 0 0 0 0 0 0 0 0 0 0 0 0 0 0 .4 0"/><feOffset dx="4.0" dy="4.0" in="blurOut2" result="blurOut3"/><feBlend in="SourceGraphic" in2="blurOut3" mode="normal"/></filter></defs><g><!--MD5=[aed1d2a8604fe3741566071179cfd1e8]
cluster nz.ac.wgtn.swen225.lc.app.input--><polygon fill="#FFFFFF" filter="url(#f1w69qev86o93r)" points="16,167.87,248,167.87,255,190.3583,476,190.3583,476,370.51,16,370.51,16,167.87" style="stroke:#000000;stroke-width:1.5;"/><line style="stroke:#000000;stroke-width:1.5;" x1="16" x2="255" y1="190.3583" y2="190.3583"/><text fill="#000000" font-family="sans-serif" font-size="14" font-weight="bold" lengthAdjust="spacing" textLength="226" x="20" y="183.4052">nz.ac.wgtn.swen225.lc.app.input</text><!--MD5=[d63c23c2d4b14118d71bd46d55a646bd]
cluster java.awt.event--><polygon fill="#FFFFFF" filter="url(#f1w69qev86o93r)" points="142,6,248,6,255,28.4883,350,28.4883,350,143.87,142,143.87,142,6" style="stroke:#000000;stroke-width:1.5;"/><line style="stroke:#000000;stroke-width:1.5;" x1="142" x2="255" y1="28.4883" y2="28.4883"/><text fill="#000000" font-family="sans-serif" font-size="14" font-weight="bold" lengthAdjust="spacing" textLength="100" x="146" y="21.5352">java.awt.event</text><!--MD5=[c91fb21b793f1c859b4c43a1bbd9e258]
class nz.ac.wgtn.swen225.lc.app.input.GameKeyListener--><a href="GameKeyListener.html" target="_top" title="GameKeyListener.html" xlink:actuate="onRequest" xlink:href="GameKeyListener.html" xlink:show="new" xlink:title="GameKeyListener.html" xlink:type="simple"><rect codeLine="3" fill="#FEFECE" filter="url(#f1w69qev86o93r)" height="151.6406" id="nz.ac.wgtn.swen225.lc.app.input.GameKeyListener" style="stroke:#A80036;stroke-width:1.5;" width="429" x="31.5" y="202.87"/><ellipse cx="191.75" cy="218.87" fill="#ADD1B2" rx="11" ry="11" style="stroke:#A80036;stroke-width:1.0;"/><path d="M194.2231,225.0131 Q193.6421,225.3119 193.0029,225.4613 Q192.3638,225.6107 191.6582,225.6107 Q189.1514,225.6107 187.8315,223.9589 Q186.5117,222.307 186.5117,219.1859 Q186.5117,216.0565 187.8315,214.4047 Q189.1514,212.7528 191.6582,212.7528 Q192.3638,212.7528 193.0112,212.9022 Q193.6587,213.0516 194.2231,213.3505 L194.2231,216.0731 Q193.5923,215.4921 192.9988,215.2223 Q192.4053,214.9525 191.7744,214.9525 Q190.4297,214.9525 189.7449,216.0192 Q189.0601,217.0858 189.0601,219.1859 Q189.0601,221.2777 189.7449,222.3444 Q190.4297,223.411 191.7744,223.411 Q192.4053,223.411 192.9988,223.1412 Q193.5923,222.8715 194.2231,222.2904 Z " fill="#000000"/><text fill="#000000" font-family="sans-serif" font-size="12" lengthAdjust="spacing" textLength="100" x="212.25" y="223.4052">GameKeyListener</text><line style="stroke:#A80036;stroke-width:1.5;" x1="32.5" x2="459.5" y1="234.87" y2="234.87"/><ellipse cx="42.5" cy="245.87" rx="3" ry="3" style="stroke:#038048;stroke-width:1.0;fill:none;"/><text fill="#000000" font-family="sans-serif" font-size="11" lengthAdjust="spacing" text-decoration="underline" textLength="71" x="51.5" y="249.5048">levels: Level[]</text><line style="stroke:#A80036;stroke-width:1.5;" x1="32.5" x2="459.5" y1="255.8251" y2="255.8251"/><ellipse cx="42.5" cy="266.8251" fill="#84BE84" rx="3" ry="3" style="stroke:#038048;stroke-width:1.0;"/><text fill="#000000" font-family="sans-serif" font-size="11" lengthAdjust="spacing" textLength="403" x="51.5" y="270.4598">GameKeyListener(GameModel, GameTimer, Controller, PersistenceManager)</text><ellipse cx="42.5" cy="279.7802" fill="#84BE84" rx="3" ry="3" style="stroke:#038048;stroke-width:1.0;"/><text fill="#000000" font-family="sans-serif" font-size="11" lengthAdjust="spacing" textLength="130" x="51.5" y="283.4149">loadReplay(Replay): void</text><ellipse cx="42.5" cy="292.7352" fill="#84BE84" rx="3" ry="3" style="stroke:#038048;stroke-width:1.0;"/><text fill="#000000" font-family="sans-serif" font-size="11" lengthAdjust="spacing" text-decoration="underline" textLength="163" x="51.5" y="296.37">getMainWindow(): MainWindow</text><ellipse cx="42.5" cy="305.6903" fill="#84BE84" rx="3" ry="3" style="stroke:#038048;stroke-width:1.0;"/><text fill="#000000" font-family="sans-serif" font-size="11" lengthAdjust="spacing" textLength="136" x="51.5" y="309.3251">keyTyped(KeyEvent): void</text><ellipse cx="42.5" cy="318.6454" fill="#84BE84" rx="3" ry="3" style="stroke:#038048;stroke-width:1.0;"/><text fill="#000000" font-family="sans-serif" font-size="11" lengthAdjust="spacing" textLength="145" x="51.5" y="322.2802">keyPressed(KeyEvent): void</text><ellipse cx="42.5" cy="331.6005" fill="#84BE84" rx="3" ry="3" style="stroke:#038048;stroke-width:1.0;"/><text fill="#000000" font-family="sans-serif" font-size="11" lengthAdjust="spacing" textLength="150" x="51.5" y="335.2352">keyReleased(KeyEvent): void</text><ellipse cx="42.5" cy="344.5555" fill="#84BE84" rx="3" ry="3" style="stroke:#038048;stroke-width:1.0;"/><text fill="#000000" font-family="sans-serif" font-size="11" lengthAdjust="spacing" textLength="162" x="51.5" y="348.1903">onKeyPress(int, boolean): void</text></a><!--MD5=[3eb55d915ce4c988cc6fe2a782a0fcdf]
class java.awt.event.KeyListener--><rect codeLine="18" fill="#FEFECE" filter="url(#f1w69qev86o93r)" height="86.8652" id="java.awt.event.KeyListener" style="stroke:#A80036;stroke-width:1.5;" width="176" x="158" y="41"/><ellipse cx="208.75" cy="57" fill="#B4A7E5" rx="11" ry="11" style="stroke:#A80036;stroke-width:1.0;"/><path d="M205.1777,53.2651 L205.1777,51.1069 L212.5571,51.1069 L212.5571,53.2651 L210.0918,53.2651 L210.0918,61.3418 L212.5571,61.3418 L212.5571,63.5 L205.1777,63.5 L205.1777,61.3418 L207.6431,61.3418 L207.6431,53.2651 Z " fill="#000000"/><text fill="#000000" font-family="sans-serif" font-size="12" font-style="italic" lengthAdjust="spacing" textLength="66" x="229.25" y="61.5352">KeyListener</text><line style="stroke:#A80036;stroke-width:1.5;" x1="159" x2="333" y1="73" y2="73"/><line style="stroke:#A80036;stroke-width:1.5;" x1="159" x2="333" y1="81" y2="81"/><ellipse cx="169" cy="92" fill="#84BE84" rx="3" ry="3" style="stroke:#038048;stroke-width:1.0;"/><text fill="#000000" font-family="sans-serif" font-size="11" font-style="italic" lengthAdjust="spacing" textLength="136" x="178" y="95.6348">keyTyped(KeyEvent): void</text><ellipse cx="169" cy="104.9551" fill="#84BE84" rx="3" ry="3" style="stroke:#038048;stroke-width:1.0;"/><text fill="#000000" font-family="sans-serif" font-size="11" font-style="italic" lengthAdjust="spacing" textLength="145" x="178" y="108.5898">keyPressed(KeyEvent): void</text><ellipse cx="169" cy="117.9102" fill="#84BE84" rx="3" ry="3" style="stroke:#038048;stroke-width:1.0;"/><text fill="#000000" font-family="sans-serif" font-size="11" font-style="italic" lengthAdjust="spacing" textLength="150" x="178" y="121.5449">keyReleased(KeyEvent): void</text><!--MD5=[fb85d0c11f1bde884fb84e0b7a03fedf]
reverse link java.awt.event.KeyListener to nz.ac.wgtn.swen225.lc.app.input.GameKeyListener--><path codeLine="14" d="M246,149.43 C246,166.47 246,185.05 246,202.63 " fill="none" id="java.awt.event.KeyListener-backto-nz.ac.wgtn.swen225.lc.app.input.GameKeyListener" style="stroke:#A80036;stroke-width:1.0;stroke-dasharray:7.0,7.0;"/><polygon fill="none" points="239,149.62,246,129.62,253,149.62,239,149.62" style="stroke:#A80036;stroke-width:1.0;"/><text fill="#888888" font-family="sans-serif" font-size="10" lengthAdjust="spacing" textLength="182" x="149" y="386.178">UMLDoclet 2.0.14, PlantUML 1.2021.9</text><!--MD5=[440ecda01cde4b824b1ddec8bb496e5b]
@startuml
    namespace nz.ac.wgtn.swen225.lc.app.input {

        class GameKeyListener [[GameKeyListener.html]] {
            {static} +levels: Level[]
            +GameKeyListener(GameModel, GameTimer, Controller, PersistenceManager)
            +loadReplay(Replay): void
            {static} +getMainWindow(): MainWindow
            +keyTyped(KeyEvent): void
            +keyPressed(KeyEvent): void
            +keyReleased(KeyEvent): void
            +onKeyPress(int, boolean): void
        }

        java.awt.event.KeyListener <|.. GameKeyListener
    }

    namespace java.awt.event {
        interface KeyListener {
            {abstract} +keyTyped(KeyEvent): void
            {abstract} +keyPressed(KeyEvent): void
            {abstract} +keyReleased(KeyEvent): void
        }
    }

    center footer UMLDoclet 2.0.14, PlantUML 1.2021.9
@enduml

PlantUML version 1.2021.9(Sun Jul 25 22:13:56 NZST 2021)
(APACHE source distribution)
Java Runtime: OpenJDK Runtime Environment
JVM: OpenJDK 64-Bit Server VM
Default Encoding: UTF-8
Language: en
Country: NZ
--></g></svg>