<?xml version="1.0" encoding="UTF-8" standalone="no"?><svg xmlns="http://www.w3.org/2000/svg" xmlns:xlink="http://www.w3.org/1999/xlink" contentScriptType="application/ecmascript" contentStyleType="text/css" height="142px" preserveAspectRatio="none" style="width:272px;height:142px;background:#FFFFFF;" version="1.1" viewBox="0 0 272 142" width="272px" zoomAndPan="magnify"><defs><filter height="300%" id="fo2kjg1hitc94" width="300%" x="-1" y="-1"><feGaussianBlur result="blurOut" stdDeviation="2.0"/><feColorMatrix in="blurOut" result="blurOut2" type="matrix" values="0 0 0 0 0 0 0 0 0 0 0 0 0 0 0 0 0 0 .4 0"/><feOffset dx="4.0" dy="4.0" in="blurOut2" result="blurOut3"/><feBlend in="SourceGraphic" in2="blurOut3" mode="normal"/></filter></defs><g><!--MD5=[f92eae7a88b81e402c9af47c9748e5c7]
cluster nz.ac.wgtn.swen225.lc.app.Main--><polygon fill="#FFFFFF" filter="url(#fo2kjg1hitc94)" points="16,6,245,6,252,28.4883,255,28.4883,255,117.96,16,117.96,16,6" style="stroke:#000000;stroke-width:1.5;"/><line style="stroke:#000000;stroke-width:1.5;" x1="16" x2="252" y1="28.4883" y2="28.4883"/><text fill="#000000" font-family="sans-serif" font-size="14" font-weight="bold" lengthAdjust="spacing" textLength="223" x="20" y="21.5352">nz.ac.wgtn.swen225.lc.app.Main</text><!--MD5=[7fdae4467f38374cfb98ec711b45a826]
class nz.ac.wgtn.swen225.lc.app.Main.Main--><a href="Main.html" target="_top" title="Main.html" xlink:actuate="onRequest" xlink:href="Main.html" xlink:show="new" xlink:title="Main.html" xlink:type="simple"><rect codeLine="3" fill="#FEFECE" filter="url(#fo2kjg1hitc94)" height="60.9551" id="nz.ac.wgtn.swen225.lc.app.Main.Main" style="stroke:#A80036;stroke-width:1.5;" width="129" x="70.5" y="41"/><ellipse cx="117.25" cy="57" fill="#ADD1B2" rx="11" ry="11" style="stroke:#A80036;stroke-width:1.0;"/><path d="M119.7231,63.1431 Q119.1421,63.4419 118.5029,63.5913 Q117.8638,63.7407 117.1582,63.7407 Q114.6514,63.7407 113.3315,62.0889 Q112.0117,60.437 112.0117,57.3159 Q112.0117,54.1865 113.3315,52.5347 Q114.6514,50.8828 117.1582,50.8828 Q117.8638,50.8828 118.5112,51.0322 Q119.1587,51.1816 119.7231,51.4805 L119.7231,54.2031 Q119.0923,53.6221 118.4988,53.3523 Q117.9053,53.0825 117.2744,53.0825 Q115.9297,53.0825 115.2449,54.1492 Q114.5601,55.2158 114.5601,57.3159 Q114.5601,59.4077 115.2449,60.4744 Q115.9297,61.541 117.2744,61.541 Q117.9053,61.541 118.4988,61.2712 Q119.0923,61.0015 119.7231,60.4204 Z " fill="#000000"/><text fill="#000000" font-family="sans-serif" font-size="12" lengthAdjust="spacing" textLength="27" x="137.75" y="61.5352">Main</text><line style="stroke:#A80036;stroke-width:1.5;" x1="71.5" x2="198.5" y1="73" y2="73"/><line style="stroke:#A80036;stroke-width:1.5;" x1="71.5" x2="198.5" y1="81" y2="81"/><ellipse cx="81.5" cy="92" fill="#84BE84" rx="3" ry="3" style="stroke:#038048;stroke-width:1.0;"/><text fill="#000000" font-family="sans-serif" font-size="11" lengthAdjust="spacing" text-decoration="underline" textLength="103" x="90.5" y="95.6348">main(String[]): void</text></a><text fill="#888888" font-family="sans-serif" font-size="10" lengthAdjust="spacing" textLength="182" x="38.5" y="133.628">UMLDoclet 2.0.14, PlantUML 1.2021.9</text><!--MD5=[22a475b20c60ba9730bdb2d684b450c2]
@startuml
    namespace nz.ac.wgtn.swen225.lc.app.Main {

        class Main [[Main.html]] {
            {static} +main(String[]): void
        }

    }

    center footer UMLDoclet 2.0.14, PlantUML 1.2021.9
@enduml

PlantUML version 1.2021.9(Sun Jul 25 22:13:56 NZST 2021)
(APACHE source distribution)
Java Runtime: OpenJDK Runtime Environment
JVM: OpenJDK 64-Bit Server VM
Default Encoding: UTF-8
Language: en
Country: NZ
--></g></svg>