<?xml version="1.0" encoding="UTF-8" standalone="no"?><svg xmlns="http://www.w3.org/2000/svg" xmlns:xlink="http://www.w3.org/1999/xlink" contentScriptType="application/ecmascript" contentStyleType="text/css" height="255px" preserveAspectRatio="none" style="width:256px;height:255px;background:#FFFFFF;" version="1.1" viewBox="0 0 256 255" width="256px" zoomAndPan="magnify"><defs><filter height="300%" id="f17ul78nrxrcpb" width="300%" x="-1" y="-1"><feGaussianBlur result="blurOut" stdDeviation="2.0"/><feColorMatrix in="blurOut" result="blurOut2" type="matrix" values="0 0 0 0 0 0 0 0 0 0 0 0 0 0 0 0 0 0 .4 0"/><feOffset dx="4.0" dy="4.0" in="blurOut2" result="blurOut3"/><feBlend in="SourceGraphic" in2="blurOut3" mode="normal"/></filter></defs><g><!--MD5=[503f578f227ff82b65a230ddd687ee18]
class nz.ac.wgtn.swen225.lc.domain.world.tiles.LockedDoorTile--><a href="LockedDoorTile.html" target="_top" title="LockedDoorTile.html" xlink:actuate="onRequest" xlink:href="LockedDoorTile.html" xlink:show="new" xlink:title="LockedDoorTile.html" xlink:type="simple"><rect codeLine="5" fill="#FEFECE" filter="url(#f17ul78nrxrcpb)" height="119.041" id="nz.ac.wgtn.swen225.lc.domain.world.tiles.LockedDoorTile" style="stroke:#A80036;stroke-width:1.5;" width="235" x="7" y="105.27"/><ellipse cx="22" cy="124.4028" fill="#ADD1B2" rx="11" ry="11" style="stroke:#A80036;stroke-width:1.0;"/><path d="M24.4731,130.5459 Q23.8921,130.8447 23.2529,130.9941 Q22.6138,131.1435 21.9082,131.1435 Q19.4014,131.1435 18.0815,129.4917 Q16.7617,127.8398 16.7617,124.7187 Q16.7617,121.5893 18.0815,119.9375 Q19.4014,118.2856 21.9082,118.2856 Q22.6138,118.2856 23.2612,118.435 Q23.9087,118.5845 24.4731,118.8833 L24.4731,121.6059 Q23.8423,121.0249 23.2488,120.7551 Q22.6553,120.4853 22.0244,120.4853 Q20.6797,120.4853 19.9949,121.552 Q19.3101,122.6186 19.3101,124.7187 Q19.3101,126.8105 19.9949,127.8772 Q20.6797,128.9438 22.0244,128.9438 Q22.6553,128.9438 23.2488,128.6741 Q23.8423,128.4043 24.4731,127.8232 Z " fill="#000000"/><text fill="#000000" font-family="sans-serif" font-size="14" lengthAdjust="spacing" textLength="107" x="84" y="123.8052">LockedDoorTile</text><text fill="#000000" font-family="sans-serif" font-size="10" lengthAdjust="spacing" textLength="203" x="36" y="136.4262">nz.ac.wgtn.swen225.lc.domain.world.tiles</text><line style="stroke:#A80036;stroke-width:1.5;" x1="8" x2="241" y1="143.5356" y2="143.5356"/><ellipse cx="18" cy="154.5356" rx="3" ry="3" style="stroke:#038048;stroke-width:1.0;fill:none;"/><text fill="#000000" font-family="sans-serif" font-size="11" lengthAdjust="spacing" textLength="71" x="27" y="158.1704">colour: Color</text><line style="stroke:#A80036;stroke-width:1.5;" x1="8" x2="241" y1="164.4907" y2="164.4907"/><ellipse cx="18" cy="175.4907" fill="#84BE84" rx="3" ry="3" style="stroke:#038048;stroke-width:1.0;"/><text fill="#000000" font-family="sans-serif" font-size="11" lengthAdjust="spacing" textLength="122" x="27" y="179.1255">LockedDoorTile(Color)</text><ellipse cx="18" cy="188.4458" fill="#84BE84" rx="3" ry="3" style="stroke:#038048;stroke-width:1.0;"/><text fill="#000000" font-family="sans-serif" font-size="11" lengthAdjust="spacing" textLength="98" x="27" y="192.0805">getColour(): Color</text><ellipse cx="18" cy="201.4009" fill="#84BE84" rx="3" ry="3" style="stroke:#038048;stroke-width:1.0;"/><text fill="#000000" font-family="sans-serif" font-size="11" lengthAdjust="spacing" textLength="204" x="27" y="205.0356">onMoveInto(Position, Controller): void</text><ellipse cx="18" cy="214.3559" fill="#84BE84" rx="3" ry="3" style="stroke:#038048;stroke-width:1.0;"/><text fill="#000000" font-family="sans-serif" font-size="11" lengthAdjust="spacing" textLength="180" x="27" y="217.9907">canMoveInto(Controller): boolean</text></a><!--MD5=[f523b7390e7fb5790055f8057a46fac9]
class nz.ac.wgtn.swen225.lc.domain.world.abs.MovableTile--><a href="../abs/MovableTile.html" target="_top" title="../abs/MovableTile.html" xlink:actuate="onRequest" xlink:href="../abs/MovableTile.html" xlink:show="new" xlink:title="../abs/MovableTile.html" xlink:type="simple"><rect codeLine="13" fill="#FEFECE" filter="url(#f17ul78nrxrcpb)" height="38.2656" id="nz.ac.wgtn.swen225.lc.domain.world.abs.MovableTile" style="stroke:#A80036;stroke-width:1.5;" width="231" x="9" y="7"/><ellipse cx="24" cy="26.1328" fill="#A9DCDF" rx="11" ry="11" style="stroke:#A80036;stroke-width:1.0;"/><path d="M23.8633,21.481 L22.7095,26.5527 L25.0254,26.5527 Z M22.3691,19.2397 L25.3657,19.2397 L28.7109,31.6328 L26.2622,31.6328 L25.4985,28.5698 L22.2197,28.5698 L21.4727,31.6328 L19.0239,31.6328 Z " fill="#000000"/><text fill="#000000" font-family="sans-serif" font-size="14" font-style="italic" lengthAdjust="spacing" textLength="82" x="96.5" y="25.5352">MovableTile</text><text fill="#000000" font-family="sans-serif" font-size="10" font-style="italic" lengthAdjust="spacing" textLength="199" x="38" y="38.1563">nz.ac.wgtn.swen225.lc.domain.world.abs</text></a><!--MD5=[5ef64f56e4593086fb4f4870e653db68]
reverse link nz.ac.wgtn.swen225.lc.domain.world.abs.MovableTile to nz.ac.wgtn.swen225.lc.domain.world.tiles.LockedDoorTile--><path codeLine="15" d="M124.5,66.8 C124.5,78.7 124.5,92.02 124.5,104.89 " fill="none" id="nz.ac.wgtn.swen225.lc.domain.world.abs.MovableTile-backto-nz.ac.wgtn.swen225.lc.domain.world.tiles.LockedDoorTile" style="stroke:#A80036;stroke-width:1.0;"/><polygon fill="none" points="117.5,67.08,124.5,47.08,131.5,67.08,117.5,67.08" style="stroke:#A80036;stroke-width:1.0;"/><text fill="#888888" font-family="sans-serif" font-size="10" lengthAdjust="spacing" textLength="182" x="30.5" y="246.979">UMLDoclet 2.0.14, PlantUML 1.2021.9</text><!--MD5=[589912a5893b7de99bce41935075219e]
@startuml
    set namespaceSeparator none
    hide empty fields
    hide empty methods

    class "<size:14>LockedDoorTile\n<size:10>nz.ac.wgtn.swen225.lc.domain.world.tiles" as nz.ac.wgtn.swen225.lc.domain.world.tiles.LockedDoorTile [[LockedDoorTile.html]] {
        +colour: Color
        +LockedDoorTile(Color)
        +getColour(): Color
        +onMoveInto(Position, Controller): void
        +canMoveInto(Controller): boolean
    }

    abstract class "<size:14>MovableTile\n<size:10>nz.ac.wgtn.swen225.lc.domain.world.abs" as nz.ac.wgtn.swen225.lc.domain.world.abs.MovableTile [[../abs/MovableTile.html]]

    nz.ac.wgtn.swen225.lc.domain.world.abs.MovableTile <|- - nz.ac.wgtn.swen225.lc.domain.world.tiles.LockedDoorTile

    center footer UMLDoclet 2.0.14, PlantUML 1.2021.9
@enduml

PlantUML version 1.2021.9(Sun Jul 25 22:13:56 NZST 2021)
(APACHE source distribution)
Java Runtime: OpenJDK Runtime Environment
JVM: OpenJDK 64-Bit Server VM
Default Encoding: UTF-8
Language: en
Country: NZ
--></g></svg>