<?xml version="1.0" encoding="UTF-8" standalone="no"?><svg xmlns="http://www.w3.org/2000/svg" xmlns:xlink="http://www.w3.org/1999/xlink" contentScriptType="application/ecmascript" contentStyleType="text/css" height="316px" preserveAspectRatio="none" style="width:1844px;height:316px;background:#FFFFFF;" version="1.1" viewBox="0 0 1844 316" width="1844px" zoomAndPan="magnify"><defs><filter height="300%" id="f1qqlyn4qm1pt8" width="300%" x="-1" y="-1"><feGaussianBlur result="blurOut" stdDeviation="2.0"/><feColorMatrix in="blurOut" result="blurOut2" type="matrix" values="0 0 0 0 0 0 0 0 0 0 0 0 0 0 0 0 0 0 .4 0"/><feOffset dx="4.0" dy="4.0" in="blurOut2" result="blurOut3"/><feBlend in="SourceGraphic" in2="blurOut3" mode="normal"/></filter></defs><g><!--MD5=[aa2c8ae157e731e9f5f5daddb48a69da]
cluster nz.ac.wgtn.swen225.lc.domain.world.tiles--><polygon fill="#FFFFFF" filter="url(#f1qqlyn4qm1pt8)" points="16,129,314,129,321,151.4883,1827,151.4883,1827,292.78,16,292.78,16,129" style="stroke:#000000;stroke-width:1.5;"/><line style="stroke:#000000;stroke-width:1.5;" x1="16" x2="321" y1="151.4883" y2="151.4883"/><text fill="#000000" font-family="sans-serif" font-size="14" font-weight="bold" lengthAdjust="spacing" textLength="292" x="20" y="144.5352">nz.ac.wgtn.swen225.lc.domain.world.tiles</text><!--MD5=[0b0b1e7b7efb187451c98f612430ec30]
cluster nz.ac.wgtn.swen225.lc.domain.world.abs--><polygon fill="#FFFFFF" filter="url(#f1qqlyn4qm1pt8)" points="929,6,1220,6,1227,28.4883,1230,28.4883,1230,105,929,105,929,6" style="stroke:#000000;stroke-width:1.5;"/><line style="stroke:#000000;stroke-width:1.5;" x1="929" x2="1227" y1="28.4883" y2="28.4883"/><text fill="#000000" font-family="sans-serif" font-size="14" font-weight="bold" lengthAdjust="spacing" textLength="285" x="933" y="21.5352">nz.ac.wgtn.swen225.lc.domain.world.abs</text><!--MD5=[ee3d49370a84de9025c01e74b978860d]
class nz.ac.wgtn.swen225.lc.domain.world.tiles.TreasureTile--><a href="TreasureTile.html" target="_top" title="TreasureTile.html" xlink:actuate="onRequest" xlink:href="TreasureTile.html" xlink:show="new" xlink:title="TreasureTile.html" xlink:type="simple"><rect codeLine="3" fill="#FEFECE" filter="url(#f1qqlyn4qm1pt8)" height="60.9551" id="nz.ac.wgtn.swen225.lc.domain.world.tiles.TreasureTile" style="stroke:#A80036;stroke-width:1.5;" width="230" x="1470" y="189.91"/><ellipse cx="1544.25" cy="205.91" fill="#ADD1B2" rx="11" ry="11" style="stroke:#A80036;stroke-width:1.0;"/><path d="M1546.7231,212.0531 Q1546.1421,212.3519 1545.5029,212.5013 Q1544.8638,212.6507 1544.1582,212.6507 Q1541.6514,212.6507 1540.3315,210.9989 Q1539.0117,209.347 1539.0117,206.2259 Q1539.0117,203.0965 1540.3315,201.4447 Q1541.6514,199.7928 1544.1582,199.7928 Q1544.8638,199.7928 1545.5112,199.9422 Q1546.1587,200.0916 1546.7231,200.3905 L1546.7231,203.1131 Q1546.0923,202.5321 1545.4988,202.2623 Q1544.9053,201.9925 1544.2744,201.9925 Q1542.9297,201.9925 1542.2449,203.0592 Q1541.5601,204.1258 1541.5601,206.2259 Q1541.5601,208.3177 1542.2449,209.3844 Q1542.9297,210.451 1544.2744,210.451 Q1544.9053,210.451 1545.4988,210.1812 Q1546.0923,209.9115 1546.7231,209.3304 Z " fill="#000000"/><text fill="#000000" font-family="sans-serif" font-size="12" lengthAdjust="spacing" textLength="73" x="1564.75" y="210.4452">TreasureTile</text><line style="stroke:#A80036;stroke-width:1.5;" x1="1471" x2="1699" y1="221.91" y2="221.91"/><line style="stroke:#A80036;stroke-width:1.5;" x1="1471" x2="1699" y1="229.91" y2="229.91"/><ellipse cx="1481" cy="240.91" fill="#84BE84" rx="3" ry="3" style="stroke:#038048;stroke-width:1.0;"/><text fill="#000000" font-family="sans-serif" font-size="11" lengthAdjust="spacing" textLength="204" x="1490" y="244.5448">onMoveInto(Position, Controller): void</text></a><!--MD5=[a996b3ed9a0927dc0cd80e392975b822]
class nz.ac.wgtn.swen225.lc.domain.world.tiles.ExitTile--><a href="ExitTile.html" target="_top" title="ExitTile.html" xlink:actuate="onRequest" xlink:href="ExitTile.html" xlink:show="new" xlink:title="ExitTile.html" xlink:type="simple"><rect codeLine="7" fill="#FEFECE" filter="url(#f1qqlyn4qm1pt8)" height="60.9551" id="nz.ac.wgtn.swen225.lc.domain.world.tiles.ExitTile" style="stroke:#A80036;stroke-width:1.5;" width="230" x="1205" y="189.91"/><ellipse cx="1294.75" cy="205.91" fill="#ADD1B2" rx="11" ry="11" style="stroke:#A80036;stroke-width:1.0;"/><path d="M1297.2231,212.0531 Q1296.6421,212.3519 1296.0029,212.5013 Q1295.3638,212.6507 1294.6582,212.6507 Q1292.1514,212.6507 1290.8315,210.9989 Q1289.5117,209.347 1289.5117,206.2259 Q1289.5117,203.0965 1290.8315,201.4447 Q1292.1514,199.7928 1294.6582,199.7928 Q1295.3638,199.7928 1296.0112,199.9422 Q1296.6587,200.0916 1297.2231,200.3905 L1297.2231,203.1131 Q1296.5923,202.5321 1295.9988,202.2623 Q1295.4053,201.9925 1294.7744,201.9925 Q1293.4297,201.9925 1292.7449,203.0592 Q1292.0601,204.1258 1292.0601,206.2259 Q1292.0601,208.3177 1292.7449,209.3844 Q1293.4297,210.451 1294.7744,210.451 Q1295.4053,210.451 1295.9988,210.1812 Q1296.5923,209.9115 1297.2231,209.3304 Z " fill="#000000"/><text fill="#000000" font-family="sans-serif" font-size="12" lengthAdjust="spacing" textLength="42" x="1315.25" y="210.4452">ExitTile</text><line style="stroke:#A80036;stroke-width:1.5;" x1="1206" x2="1434" y1="221.91" y2="221.91"/><line style="stroke:#A80036;stroke-width:1.5;" x1="1206" x2="1434" y1="229.91" y2="229.91"/><ellipse cx="1216" cy="240.91" fill="#84BE84" rx="3" ry="3" style="stroke:#038048;stroke-width:1.0;"/><text fill="#000000" font-family="sans-serif" font-size="11" lengthAdjust="spacing" textLength="204" x="1225" y="244.5448">onMoveInto(Position, Controller): void</text></a><!--MD5=[d7c694017d11388a232a7a3e2733a0c8]
class nz.ac.wgtn.swen225.lc.domain.world.tiles.WallTile--><a href="WallTile.html" target="_top" title="WallTile.html" xlink:actuate="onRequest" xlink:href="WallTile.html" xlink:show="new" xlink:title="WallTile.html" xlink:type="simple"><rect codeLine="11" fill="#FEFECE" filter="url(#f1qqlyn4qm1pt8)" height="48" id="nz.ac.wgtn.swen225.lc.domain.world.tiles.WallTile" style="stroke:#A80036;stroke-width:1.5;" width="76" x="1735" y="196.39"/><ellipse cx="1750" cy="212.39" fill="#ADD1B2" rx="11" ry="11" style="stroke:#A80036;stroke-width:1.0;"/><path d="M1752.4731,218.5331 Q1751.8921,218.8319 1751.2529,218.9813 Q1750.6138,219.1307 1749.9082,219.1307 Q1747.4014,219.1307 1746.0815,217.4789 Q1744.7617,215.827 1744.7617,212.7059 Q1744.7617,209.5765 1746.0815,207.9247 Q1747.4014,206.2728 1749.9082,206.2728 Q1750.6138,206.2728 1751.2612,206.4222 Q1751.9087,206.5716 1752.4731,206.8705 L1752.4731,209.5931 Q1751.8423,209.0121 1751.2488,208.7423 Q1750.6553,208.4725 1750.0244,208.4725 Q1748.6797,208.4725 1747.9949,209.5392 Q1747.3101,210.6058 1747.3101,212.7059 Q1747.3101,214.7977 1747.9949,215.8644 Q1748.6797,216.931 1750.0244,216.931 Q1750.6553,216.931 1751.2488,216.6612 Q1751.8423,216.3915 1752.4731,215.8104 Z " fill="#000000"/><text fill="#000000" font-family="sans-serif" font-size="12" lengthAdjust="spacing" textLength="44" x="1764" y="216.9252">WallTile</text><line style="stroke:#A80036;stroke-width:1.5;" x1="1736" x2="1810" y1="228.39" y2="228.39"/><line style="stroke:#A80036;stroke-width:1.5;" x1="1736" x2="1810" y1="236.39" y2="236.39"/></a><!--MD5=[503f578f227ff82b65a230ddd687ee18]
class nz.ac.wgtn.swen225.lc.domain.world.tiles.LockedDoorTile--><a href="LockedDoorTile.html" target="_top" title="LockedDoorTile.html" xlink:actuate="onRequest" xlink:href="LockedDoorTile.html" xlink:show="new" xlink:title="LockedDoorTile.html" xlink:type="simple"><rect codeLine="13" fill="#FEFECE" filter="url(#f1qqlyn4qm1pt8)" height="112.7754" id="nz.ac.wgtn.swen225.lc.domain.world.tiles.LockedDoorTile" style="stroke:#A80036;stroke-width:1.5;" width="230" x="827" y="164"/><ellipse cx="892.75" cy="180" fill="#ADD1B2" rx="11" ry="11" style="stroke:#A80036;stroke-width:1.0;"/><path d="M895.2231,186.1431 Q894.6421,186.4419 894.0029,186.5913 Q893.3638,186.7407 892.6582,186.7407 Q890.1514,186.7407 888.8315,185.0889 Q887.5117,183.437 887.5117,180.3159 Q887.5117,177.1865 888.8315,175.5347 Q890.1514,173.8828 892.6582,173.8828 Q893.3638,173.8828 894.0112,174.0322 Q894.6587,174.1816 895.2231,174.4805 L895.2231,177.2031 Q894.5923,176.6221 893.9988,176.3523 Q893.4053,176.0825 892.7744,176.0825 Q891.4297,176.0825 890.7449,177.1492 Q890.0601,178.2158 890.0601,180.3159 Q890.0601,182.4077 890.7449,183.4744 Q891.4297,184.541 892.7744,184.541 Q893.4053,184.541 893.9988,184.2712 Q894.5923,184.0015 895.2231,183.4204 Z " fill="#000000"/><text fill="#000000" font-family="sans-serif" font-size="12" lengthAdjust="spacing" textLength="90" x="913.25" y="184.5352">LockedDoorTile</text><line style="stroke:#A80036;stroke-width:1.5;" x1="828" x2="1056" y1="196" y2="196"/><ellipse cx="838" cy="207" rx="3" ry="3" style="stroke:#038048;stroke-width:1.0;fill:none;"/><text fill="#000000" font-family="sans-serif" font-size="11" lengthAdjust="spacing" textLength="71" x="847" y="210.6348">colour: Color</text><line style="stroke:#A80036;stroke-width:1.5;" x1="828" x2="1056" y1="216.9551" y2="216.9551"/><ellipse cx="838" cy="227.9551" fill="#84BE84" rx="3" ry="3" style="stroke:#038048;stroke-width:1.0;"/><text fill="#000000" font-family="sans-serif" font-size="11" lengthAdjust="spacing" textLength="122" x="847" y="231.5898">LockedDoorTile(Color)</text><ellipse cx="838" cy="240.9102" fill="#84BE84" rx="3" ry="3" style="stroke:#038048;stroke-width:1.0;"/><text fill="#000000" font-family="sans-serif" font-size="11" lengthAdjust="spacing" textLength="98" x="847" y="244.5449">getColour(): Color</text><ellipse cx="838" cy="253.8652" fill="#84BE84" rx="3" ry="3" style="stroke:#038048;stroke-width:1.0;"/><text fill="#000000" font-family="sans-serif" font-size="11" lengthAdjust="spacing" textLength="204" x="847" y="257.5">onMoveInto(Position, Controller): void</text><ellipse cx="838" cy="266.8203" fill="#84BE84" rx="3" ry="3" style="stroke:#038048;stroke-width:1.0;"/><text fill="#000000" font-family="sans-serif" font-size="11" lengthAdjust="spacing" textLength="180" x="847" y="270.4551">canMoveInto(Controller): boolean</text></a><!--MD5=[64b38f72dca9868895494e0d7034cb55]
class nz.ac.wgtn.swen225.lc.domain.world.tiles.ExitLockTile--><a href="ExitLockTile.html" target="_top" title="ExitLockTile.html" xlink:actuate="onRequest" xlink:href="ExitLockTile.html" xlink:show="new" xlink:title="ExitLockTile.html" xlink:type="simple"><rect codeLine="21" fill="#FEFECE" filter="url(#f1qqlyn4qm1pt8)" height="73.9102" id="nz.ac.wgtn.swen225.lc.domain.world.tiles.ExitLockTile" style="stroke:#A80036;stroke-width:1.5;" width="230" x="562" y="183.44"/><ellipse cx="638.75" cy="199.44" fill="#ADD1B2" rx="11" ry="11" style="stroke:#A80036;stroke-width:1.0;"/><path d="M641.2231,205.5831 Q640.6421,205.8819 640.0029,206.0313 Q639.3638,206.1807 638.6582,206.1807 Q636.1514,206.1807 634.8315,204.5289 Q633.5117,202.877 633.5117,199.7559 Q633.5117,196.6265 634.8315,194.9747 Q636.1514,193.3228 638.6582,193.3228 Q639.3638,193.3228 640.0112,193.4722 Q640.6587,193.6216 641.2231,193.9205 L641.2231,196.6431 Q640.5923,196.0621 639.9988,195.7923 Q639.4053,195.5225 638.7744,195.5225 Q637.4297,195.5225 636.7449,196.5892 Q636.0601,197.6558 636.0601,199.7559 Q636.0601,201.8477 636.7449,202.9144 Q637.4297,203.981 638.7744,203.981 Q639.4053,203.981 639.9988,203.7112 Q640.5923,203.4415 641.2231,202.8604 Z " fill="#000000"/><text fill="#000000" font-family="sans-serif" font-size="12" lengthAdjust="spacing" textLength="68" x="659.25" y="203.9752">ExitLockTile</text><line style="stroke:#A80036;stroke-width:1.5;" x1="563" x2="791" y1="215.44" y2="215.44"/><line style="stroke:#A80036;stroke-width:1.5;" x1="563" x2="791" y1="223.44" y2="223.44"/><ellipse cx="573" cy="234.44" fill="#84BE84" rx="3" ry="3" style="stroke:#038048;stroke-width:1.0;"/><text fill="#000000" font-family="sans-serif" font-size="11" lengthAdjust="spacing" textLength="180" x="582" y="238.0748">canMoveInto(Controller): boolean</text><ellipse cx="573" cy="247.3951" fill="#84BE84" rx="3" ry="3" style="stroke:#038048;stroke-width:1.0;"/><text fill="#000000" font-family="sans-serif" font-size="11" lengthAdjust="spacing" textLength="204" x="582" y="251.0298">onMoveInto(Position, Controller): void</text></a><!--MD5=[db0fc70bb7bb63c20f23463e8b656567]
class nz.ac.wgtn.swen225.lc.domain.world.tiles.InfoTile--><a href="InfoTile.html" target="_top" title="InfoTile.html" xlink:actuate="onRequest" xlink:href="InfoTile.html" xlink:show="new" xlink:title="InfoTile.html" xlink:type="simple"><rect codeLine="26" fill="#FEFECE" filter="url(#f1qqlyn4qm1pt8)" height="86.8652" id="nz.ac.wgtn.swen225.lc.domain.world.tiles.InfoTile" style="stroke:#A80036;stroke-width:1.5;" width="230" x="297" y="176.96"/><ellipse cx="386.75" cy="192.96" fill="#ADD1B2" rx="11" ry="11" style="stroke:#A80036;stroke-width:1.0;"/><path d="M389.2231,199.1031 Q388.6421,199.4019 388.0029,199.5513 Q387.3638,199.7007 386.6582,199.7007 Q384.1514,199.7007 382.8315,198.0489 Q381.5117,196.397 381.5117,193.2759 Q381.5117,190.1465 382.8315,188.4947 Q384.1514,186.8428 386.6582,186.8428 Q387.3638,186.8428 388.0112,186.9922 Q388.6587,187.1416 389.2231,187.4405 L389.2231,190.1631 Q388.5923,189.5821 387.9988,189.3123 Q387.4053,189.0425 386.7744,189.0425 Q385.4297,189.0425 384.7449,190.1092 Q384.0601,191.1758 384.0601,193.2759 Q384.0601,195.3677 384.7449,196.4344 Q385.4297,197.501 386.7744,197.501 Q387.4053,197.501 387.9988,197.2312 Q388.5923,196.9615 389.2231,196.3804 Z " fill="#000000"/><text fill="#000000" font-family="sans-serif" font-size="12" lengthAdjust="spacing" textLength="42" x="407.25" y="197.4952">InfoTile</text><line style="stroke:#A80036;stroke-width:1.5;" x1="298" x2="526" y1="208.96" y2="208.96"/><line style="stroke:#A80036;stroke-width:1.5;" x1="298" x2="526" y1="216.96" y2="216.96"/><ellipse cx="308" cy="227.96" fill="#84BE84" rx="3" ry="3" style="stroke:#038048;stroke-width:1.0;"/><text fill="#000000" font-family="sans-serif" font-size="11" lengthAdjust="spacing" textLength="80" x="317" y="231.5948">InfoTile(String)</text><ellipse cx="308" cy="240.9151" fill="#84BE84" rx="3" ry="3" style="stroke:#038048;stroke-width:1.0;"/><text fill="#000000" font-family="sans-serif" font-size="11" lengthAdjust="spacing" textLength="115" x="317" y="244.5498">helpMessage(): String</text><ellipse cx="308" cy="253.8702" fill="#84BE84" rx="3" ry="3" style="stroke:#038048;stroke-width:1.0;"/><text fill="#000000" font-family="sans-serif" font-size="11" lengthAdjust="spacing" textLength="204" x="317" y="257.5049">onMoveInto(Position, Controller): void</text></a><!--MD5=[68bc53f469b1d47db705e8b7f68c3c53]
class nz.ac.wgtn.swen225.lc.domain.world.tiles.KeyTile--><a href="KeyTile.html" target="_top" title="KeyTile.html" xlink:actuate="onRequest" xlink:href="KeyTile.html" xlink:show="new" xlink:title="KeyTile.html" xlink:type="simple"><rect codeLine="32" fill="#FEFECE" filter="url(#f1qqlyn4qm1pt8)" height="86.8652" id="nz.ac.wgtn.swen225.lc.domain.world.tiles.KeyTile" style="stroke:#A80036;stroke-width:1.5;" width="230" x="32" y="176.96"/><ellipse cx="121.75" cy="192.96" fill="#ADD1B2" rx="11" ry="11" style="stroke:#A80036;stroke-width:1.0;"/><path d="M124.2231,199.1031 Q123.6421,199.4019 123.0029,199.5513 Q122.3638,199.7007 121.6582,199.7007 Q119.1514,199.7007 117.8315,198.0489 Q116.5117,196.397 116.5117,193.2759 Q116.5117,190.1465 117.8315,188.4947 Q119.1514,186.8428 121.6582,186.8428 Q122.3638,186.8428 123.0112,186.9922 Q123.6587,187.1416 124.2231,187.4405 L124.2231,190.1631 Q123.5923,189.5821 122.9988,189.3123 Q122.4053,189.0425 121.7744,189.0425 Q120.4297,189.0425 119.7449,190.1092 Q119.0601,191.1758 119.0601,193.2759 Q119.0601,195.3677 119.7449,196.4344 Q120.4297,197.501 121.7744,197.501 Q122.4053,197.501 122.9988,197.2312 Q123.5923,196.9615 124.2231,196.3804 Z " fill="#000000"/><text fill="#000000" font-family="sans-serif" font-size="12" lengthAdjust="spacing" textLength="42" x="142.25" y="197.4952">KeyTile</text><line style="stroke:#A80036;stroke-width:1.5;" x1="33" x2="261" y1="208.96" y2="208.96"/><line style="stroke:#A80036;stroke-width:1.5;" x1="33" x2="261" y1="216.96" y2="216.96"/><ellipse cx="43" cy="227.96" fill="#84BE84" rx="3" ry="3" style="stroke:#038048;stroke-width:1.0;"/><text fill="#000000" font-family="sans-serif" font-size="11" lengthAdjust="spacing" textLength="76" x="52" y="231.5948">KeyTile(Color)</text><ellipse cx="43" cy="240.9151" fill="#84BE84" rx="3" ry="3" style="stroke:#038048;stroke-width:1.0;"/><text fill="#000000" font-family="sans-serif" font-size="11" lengthAdjust="spacing" textLength="98" x="52" y="244.5498">getColour(): Color</text><ellipse cx="43" cy="253.8702" fill="#84BE84" rx="3" ry="3" style="stroke:#038048;stroke-width:1.0;"/><text fill="#000000" font-family="sans-serif" font-size="11" lengthAdjust="spacing" textLength="204" x="52" y="257.5049">onMoveInto(Position, Controller): void</text></a><!--MD5=[99ec754c09ea80c7947564f5de0848bb]
class nz.ac.wgtn.swen225.lc.domain.world.tiles.FreeTile--><a href="FreeTile.html" target="_top" title="FreeTile.html" xlink:actuate="onRequest" xlink:href="FreeTile.html" xlink:show="new" xlink:title="FreeTile.html" xlink:type="simple"><rect codeLine="38" fill="#FEFECE" filter="url(#f1qqlyn4qm1pt8)" height="48" id="nz.ac.wgtn.swen225.lc.domain.world.tiles.FreeTile" style="stroke:#A80036;stroke-width:1.5;" width="78" x="1092" y="196.39"/><ellipse cx="1107" cy="212.39" fill="#ADD1B2" rx="11" ry="11" style="stroke:#A80036;stroke-width:1.0;"/><path d="M1109.4731,218.5331 Q1108.8921,218.8319 1108.2529,218.9813 Q1107.6138,219.1307 1106.9082,219.1307 Q1104.4014,219.1307 1103.0815,217.4789 Q1101.7617,215.827 1101.7617,212.7059 Q1101.7617,209.5765 1103.0815,207.9247 Q1104.4014,206.2728 1106.9082,206.2728 Q1107.6138,206.2728 1108.2612,206.4222 Q1108.9087,206.5716 1109.4731,206.8705 L1109.4731,209.5931 Q1108.8423,209.0121 1108.2488,208.7423 Q1107.6553,208.4725 1107.0244,208.4725 Q1105.6797,208.4725 1104.9949,209.5392 Q1104.3101,210.6058 1104.3101,212.7059 Q1104.3101,214.7977 1104.9949,215.8644 Q1105.6797,216.931 1107.0244,216.931 Q1107.6553,216.931 1108.2488,216.6612 Q1108.8423,216.3915 1109.4731,215.8104 Z " fill="#000000"/><text fill="#000000" font-family="sans-serif" font-size="12" lengthAdjust="spacing" textLength="46" x="1121" y="216.9252">FreeTile</text><line style="stroke:#A80036;stroke-width:1.5;" x1="1093" x2="1169" y1="228.39" y2="228.39"/><line style="stroke:#A80036;stroke-width:1.5;" x1="1093" x2="1169" y1="236.39" y2="236.39"/></a><!--MD5=[f523b7390e7fb5790055f8057a46fac9]
class nz.ac.wgtn.swen225.lc.domain.world.abs.MovableTile--><a href="../abs/MovableTile.html" target="_top" title="../abs/MovableTile.html" xlink:actuate="onRequest" xlink:href="../abs/MovableTile.html" xlink:show="new" xlink:title="../abs/MovableTile.html" xlink:type="simple"><rect codeLine="51" fill="#FEFECE" filter="url(#f1qqlyn4qm1pt8)" height="48" id="nz.ac.wgtn.swen225.lc.domain.world.abs.MovableTile" style="stroke:#A80036;stroke-width:1.5;" width="101" x="985.5" y="41"/><ellipse cx="1000.5" cy="57" fill="#A9DCDF" rx="11" ry="11" style="stroke:#A80036;stroke-width:1.0;"/><path d="M1000.3633,52.3481 L999.2095,57.4199 L1001.5254,57.4199 Z M998.8691,50.1069 L1001.8657,50.1069 L1005.2109,62.5 L1002.7622,62.5 L1001.9985,59.437 L998.7197,59.437 L997.9727,62.5 L995.5239,62.5 Z " fill="#000000"/><text fill="#000000" font-family="sans-serif" font-size="12" font-style="italic" lengthAdjust="spacing" textLength="69" x="1014.5" y="61.5352">MovableTile</text><line style="stroke:#A80036;stroke-width:1.5;" x1="986.5" x2="1085.5" y1="73" y2="73"/><line style="stroke:#A80036;stroke-width:1.5;" x1="986.5" x2="1085.5" y1="81" y2="81"/></a><!--MD5=[9577de04549f7dbde57272e57436f547]
class nz.ac.wgtn.swen225.lc.domain.world.abs.Tile--><a href="../abs/Tile.html" target="_top" title="../abs/Tile.html" xlink:actuate="onRequest" xlink:href="../abs/Tile.html" xlink:show="new" xlink:title="../abs/Tile.html" xlink:type="simple"><rect codeLine="52" fill="#FEFECE" filter="url(#f1qqlyn4qm1pt8)" height="48" id="nz.ac.wgtn.swen225.lc.domain.world.abs.Tile" style="stroke:#A80036;stroke-width:1.5;" width="53" x="1121.5" y="41"/><ellipse cx="1136.5" cy="57" fill="#A9DCDF" rx="11" ry="11" style="stroke:#A80036;stroke-width:1.0;"/><path d="M1136.3633,52.3481 L1135.2095,57.4199 L1137.5254,57.4199 Z M1134.8691,50.1069 L1137.8657,50.1069 L1141.2109,62.5 L1138.7622,62.5 L1137.9985,59.437 L1134.7197,59.437 L1133.9727,62.5 L1131.5239,62.5 Z " fill="#000000"/><text fill="#000000" font-family="sans-serif" font-size="12" font-style="italic" lengthAdjust="spacing" textLength="21" x="1150.5" y="61.5352">Tile</text><line style="stroke:#A80036;stroke-width:1.5;" x1="1122.5" x2="1173.5" y1="73" y2="73"/><line style="stroke:#A80036;stroke-width:1.5;" x1="1122.5" x2="1173.5" y1="81" y2="81"/></a><!--MD5=[d4c34d607b4ac9053a7e73966d27e36e]
reverse link nz.ac.wgtn.swen225.lc.domain.world.abs.MovableTile to nz.ac.wgtn.swen225.lc.domain.world.tiles.TreasureTile--><path codeLine="40" d="M1079.55,101.44 C1087.3,106.14 1095.6,110.28 1104,113 C1140.79,124.95 1415.41,108.47 1452,121 C1492.49,134.87 1530.9,165.93 1555.94,189.46 " fill="none" id="nz.ac.wgtn.swen225.lc.domain.world.abs.MovableTile-backto-nz.ac.wgtn.swen225.lc.domain.world.tiles.TreasureTile" style="stroke:#A80036;stroke-width:1.0;"/><polygon fill="none" points="1075.88,107.41,1063.4,90.28,1083.83,95.89,1075.88,107.41" style="stroke:#A80036;stroke-width:1.0;"/><!--MD5=[73fd55b05380338b2d39a3d0e3130de5]
reverse link nz.ac.wgtn.swen225.lc.domain.world.abs.MovableTile to nz.ac.wgtn.swen225.lc.domain.world.tiles.ExitTile--><path codeLine="41" d="M1080.47,101.36 C1087.99,105.95 1095.97,110.07 1104,113 C1138.81,125.73 1152.4,107.72 1187,121 C1226.55,136.19 1264.68,166.54 1289.89,189.53 " fill="none" id="nz.ac.wgtn.swen225.lc.domain.world.abs.MovableTile-backto-nz.ac.wgtn.swen225.lc.domain.world.tiles.ExitTile" style="stroke:#A80036;stroke-width:1.0;"/><polygon fill="none" points="1076.78,107.32,1064.23,90.24,1084.69,95.77,1076.78,107.32" style="stroke:#A80036;stroke-width:1.0;"/><!--MD5=[f718ea475111656291865d523757a647]
reverse link nz.ac.wgtn.swen225.lc.domain.world.abs.Tile to nz.ac.wgtn.swen225.lc.domain.world.tiles.WallTile--><path codeLine="42" d="M1195.88,68.12 C1325.02,74.17 1673.68,92.94 1717,121 C1743.56,138.21 1758.86,172.69 1766.56,195.91 " fill="none" id="nz.ac.wgtn.swen225.lc.domain.world.abs.Tile-backto-nz.ac.wgtn.swen225.lc.domain.world.tiles.WallTile" style="stroke:#A80036;stroke-width:1.0;"/><polygon fill="none" points="1195.95,75.13,1176.29,67.22,1196.59,61.14,1195.95,75.13" style="stroke:#A80036;stroke-width:1.0;"/><!--MD5=[5ef64f56e4593086fb4f4870e653db68]
reverse link nz.ac.wgtn.swen225.lc.domain.world.abs.MovableTile to nz.ac.wgtn.swen225.lc.domain.world.tiles.LockedDoorTile--><path codeLine="43" d="M1010.53,107.57 C999.95,124.83 987.51,145.13 976.16,163.65 " fill="none" id="nz.ac.wgtn.swen225.lc.domain.world.abs.MovableTile-backto-nz.ac.wgtn.swen225.lc.domain.world.tiles.LockedDoorTile" style="stroke:#A80036;stroke-width:1.0;"/><polygon fill="none" points="1004.51,103.99,1020.93,90.59,1016.45,111.3,1004.51,103.99" style="stroke:#A80036;stroke-width:1.0;"/><!--MD5=[8b75c20c90ec0784b9b28b25052e436d]
reverse link nz.ac.wgtn.swen225.lc.domain.world.abs.MovableTile to nz.ac.wgtn.swen225.lc.domain.world.tiles.ExitLockTile--><path codeLine="44" d="M963.95,76.01 C918.3,84.15 858.87,98.13 810,121 C776.05,136.9 742.16,162.15 717.08,183.1 " fill="none" id="nz.ac.wgtn.swen225.lc.domain.world.abs.MovableTile-backto-nz.ac.wgtn.swen225.lc.domain.world.tiles.ExitLockTile" style="stroke:#A80036;stroke-width:1.0;"/><polygon fill="none" points="962.78,69.11,983.66,72.72,965.08,82.92,962.78,69.11" style="stroke:#A80036;stroke-width:1.0;"/><!--MD5=[43b39f4a8e5e23907ffb7130b03e5074]
reverse link nz.ac.wgtn.swen225.lc.domain.world.abs.MovableTile to nz.ac.wgtn.swen225.lc.domain.world.tiles.InfoTile--><path codeLine="45" d="M963.95,69.48 C846.54,75.9 619.54,91.73 545,121 C512.79,133.66 481.43,156.2 457.26,176.51 " fill="none" id="nz.ac.wgtn.swen225.lc.domain.world.abs.MovableTile-backto-nz.ac.wgtn.swen225.lc.domain.world.tiles.InfoTile" style="stroke:#A80036;stroke-width:1.0;"/><polygon fill="none" points="963.37,62.5,983.71,68.43,964.11,76.48,963.37,62.5" style="stroke:#A80036;stroke-width:1.0;"/><!--MD5=[29d12b2e2c578a0515fe8511e104c69c]
reverse link nz.ac.wgtn.swen225.lc.domain.world.abs.MovableTile to nz.ac.wgtn.swen225.lc.domain.world.tiles.KeyTile--><path codeLine="46" d="M963.84,66.17 C799.92,67.35 404.11,75.03 280,121 C247.28,133.13 215.66,155.9 191.46,176.49 " fill="none" id="nz.ac.wgtn.swen225.lc.domain.world.abs.MovableTile-backto-nz.ac.wgtn.swen225.lc.domain.world.tiles.KeyTile" style="stroke:#A80036;stroke-width:1.0;"/><polygon fill="none" points="963.6,59.17,983.64,66.05,963.68,73.17,963.6,59.17" style="stroke:#A80036;stroke-width:1.0;"/><!--MD5=[29d03a81b6e4edb432f923c687b47073]
reverse link nz.ac.wgtn.swen225.lc.domain.world.abs.MovableTile to nz.ac.wgtn.swen225.lc.domain.world.tiles.FreeTile--><path codeLine="47" d="M1064.74,106.84 C1067.92,111.58 1071.06,116.37 1074,121 C1089.96,146.18 1106.92,175.89 1118.15,196.02 " fill="none" id="nz.ac.wgtn.swen225.lc.domain.world.abs.MovableTile-backto-nz.ac.wgtn.swen225.lc.domain.world.tiles.FreeTile" style="stroke:#A80036;stroke-width:1.0;"/><polygon fill="none" points="1059.09,110.98,1053.55,90.53,1070.64,103.06,1059.09,110.98" style="stroke:#A80036;stroke-width:1.0;"/><text fill="#888888" font-family="sans-serif" font-size="10" lengthAdjust="spacing" textLength="182" x="824.5" y="308.448">UMLDoclet 2.0.14, PlantUML 1.2021.9</text><!--MD5=[99cf2d25537d3bb44fba80243f231aa3]
@startuml
    namespace nz.ac.wgtn.swen225.lc.domain.world.tiles {

        class TreasureTile [[TreasureTile.html]] {
            +onMoveInto(Position, Controller): void
        }

        class ExitTile [[ExitTile.html]] {
            +onMoveInto(Position, Controller): void
        }

        class WallTile [[WallTile.html]]

        class LockedDoorTile [[LockedDoorTile.html]] {
            +colour: Color
            +LockedDoorTile(Color)
            +getColour(): Color
            +onMoveInto(Position, Controller): void
            +canMoveInto(Controller): boolean
        }

        class ExitLockTile [[ExitLockTile.html]] {
            +canMoveInto(Controller): boolean
            +onMoveInto(Position, Controller): void
        }

        class InfoTile [[InfoTile.html]] {
            +InfoTile(String)
            +helpMessage(): String
            +onMoveInto(Position, Controller): void
        }

        class KeyTile [[KeyTile.html]] {
            +KeyTile(Color)
            +getColour(): Color
            +onMoveInto(Position, Controller): void
        }

        class FreeTile [[FreeTile.html]]

        nz.ac.wgtn.swen225.lc.domain.world.abs.MovableTile <|- - TreasureTile
        nz.ac.wgtn.swen225.lc.domain.world.abs.MovableTile <|- - ExitTile
        nz.ac.wgtn.swen225.lc.domain.world.abs.Tile <|- - WallTile
        nz.ac.wgtn.swen225.lc.domain.world.abs.MovableTile <|- - LockedDoorTile
        nz.ac.wgtn.swen225.lc.domain.world.abs.MovableTile <|- - ExitLockTile
        nz.ac.wgtn.swen225.lc.domain.world.abs.MovableTile <|- - InfoTile
        nz.ac.wgtn.swen225.lc.domain.world.abs.MovableTile <|- - KeyTile
        nz.ac.wgtn.swen225.lc.domain.world.abs.MovableTile <|- - FreeTile
    }

    namespace nz.ac.wgtn.swen225.lc.domain.world.abs {
        abstract class MovableTile [[../abs/MovableTile.html]]
        abstract class Tile [[../abs/Tile.html]]
    }

    center footer UMLDoclet 2.0.14, PlantUML 1.2021.9
@enduml

PlantUML version 1.2021.9(Sun Jul 25 22:13:56 NZST 2021)
(APACHE source distribution)
Java Runtime: OpenJDK Runtime Environment
JVM: OpenJDK 64-Bit Server VM
Default Encoding: UTF-8
Language: en
Country: NZ
--></g></svg>