<?xml version="1.0" encoding="UTF-8" standalone="no"?><svg xmlns="http://www.w3.org/2000/svg" xmlns:xlink="http://www.w3.org/1999/xlink" contentScriptType="application/ecmascript" contentStyleType="text/css" height="174px" preserveAspectRatio="none" style="width:256px;height:174px;background:#FFFFFF;" version="1.1" viewBox="0 0 256 174" width="256px" zoomAndPan="magnify"><defs><filter height="300%" id="f1i9cdx3i1zxmf" width="300%" x="-1" y="-1"><feGaussianBlur result="blurOut" stdDeviation="2.0"/><feColorMatrix in="blurOut" result="blurOut2" type="matrix" values="0 0 0 0 0 0 0 0 0 0 0 0 0 0 0 0 0 0 .4 0"/><feOffset dx="4.0" dy="4.0" in="blurOut2" result="blurOut3"/><feBlend in="SourceGraphic" in2="blurOut3" mode="normal"/></filter></defs><g><!--MD5=[d7c694017d11388a232a7a3e2733a0c8]
class nz.ac.wgtn.swen225.lc.domain.world.tiles.WallTile--><a href="WallTile.html" target="_top" title="WallTile.html" xlink:actuate="onRequest" xlink:href="WallTile.html" xlink:show="new" xlink:title="WallTile.html" xlink:type="simple"><rect codeLine="5" fill="#FEFECE" filter="url(#f1i9cdx3i1zxmf)" height="38.2656" id="nz.ac.wgtn.swen225.lc.domain.world.tiles.WallTile" style="stroke:#A80036;stroke-width:1.5;" width="235" x="7" y="105.26"/><ellipse cx="22" cy="124.3928" fill="#ADD1B2" rx="11" ry="11" style="stroke:#A80036;stroke-width:1.0;"/><path d="M24.4731,130.5359 Q23.8921,130.8347 23.2529,130.9841 Q22.6138,131.1335 21.9082,131.1335 Q19.4014,131.1335 18.0815,129.4817 Q16.7617,127.8298 16.7617,124.7087 Q16.7617,121.5793 18.0815,119.9275 Q19.4014,118.2756 21.9082,118.2756 Q22.6138,118.2756 23.2612,118.425 Q23.9087,118.5745 24.4731,118.8733 L24.4731,121.5959 Q23.8423,121.0149 23.2488,120.7451 Q22.6553,120.4753 22.0244,120.4753 Q20.6797,120.4753 19.9949,121.542 Q19.3101,122.6086 19.3101,124.7087 Q19.3101,126.8005 19.9949,127.8672 Q20.6797,128.9338 22.0244,128.9338 Q22.6553,128.9338 23.2488,128.6641 Q23.8423,128.3943 24.4731,127.8132 Z " fill="#000000"/><text fill="#000000" font-family="sans-serif" font-size="14" lengthAdjust="spacing" textLength="53" x="111" y="123.7952">WallTile</text><text fill="#000000" font-family="sans-serif" font-size="10" lengthAdjust="spacing" textLength="203" x="36" y="136.4163">nz.ac.wgtn.swen225.lc.domain.world.tiles</text></a><!--MD5=[9577de04549f7dbde57272e57436f547]
class nz.ac.wgtn.swen225.lc.domain.world.abs.Tile--><a href="../abs/Tile.html" target="_top" title="../abs/Tile.html" xlink:actuate="onRequest" xlink:href="../abs/Tile.html" xlink:show="new" xlink:title="../abs/Tile.html" xlink:type="simple"><rect codeLine="7" fill="#FEFECE" filter="url(#f1i9cdx3i1zxmf)" height="38.2656" id="nz.ac.wgtn.swen225.lc.domain.world.abs.Tile" style="stroke:#A80036;stroke-width:1.5;" width="231" x="9" y="7"/><ellipse cx="24" cy="26.1328" fill="#A9DCDF" rx="11" ry="11" style="stroke:#A80036;stroke-width:1.0;"/><path d="M23.8633,21.481 L22.7095,26.5527 L25.0254,26.5527 Z M22.3691,19.2397 L25.3657,19.2397 L28.7109,31.6328 L26.2622,31.6328 L25.4985,28.5698 L22.2197,28.5698 L21.4727,31.6328 L19.0239,31.6328 Z " fill="#000000"/><text fill="#000000" font-family="sans-serif" font-size="14" font-style="italic" lengthAdjust="spacing" textLength="25" x="125" y="25.5352">Tile</text><text fill="#000000" font-family="sans-serif" font-size="10" font-style="italic" lengthAdjust="spacing" textLength="199" x="38" y="38.1563">nz.ac.wgtn.swen225.lc.domain.world.abs</text></a><!--MD5=[f718ea475111656291865d523757a647]
reverse link nz.ac.wgtn.swen225.lc.domain.world.abs.Tile to nz.ac.wgtn.swen225.lc.domain.world.tiles.WallTile--><path codeLine="9" d="M124.5,66.94 C124.5,80.1 124.5,94.12 124.5,104.89 " fill="none" id="nz.ac.wgtn.swen225.lc.domain.world.abs.Tile-backto-nz.ac.wgtn.swen225.lc.domain.world.tiles.WallTile" style="stroke:#A80036;stroke-width:1.0;"/><polygon fill="none" points="117.5,67.21,124.5,47.21,131.5,67.21,117.5,67.21" style="stroke:#A80036;stroke-width:1.0;"/><text fill="#888888" font-family="sans-serif" font-size="10" lengthAdjust="spacing" textLength="182" x="30.5" y="166.1936">UMLDoclet 2.0.14, PlantUML 1.2021.9</text><!--MD5=[f61480d8cbbde272409465adab9267a8]
@startuml
    set namespaceSeparator none
    hide empty fields
    hide empty methods

    class "<size:14>WallTile\n<size:10>nz.ac.wgtn.swen225.lc.domain.world.tiles" as nz.ac.wgtn.swen225.lc.domain.world.tiles.WallTile [[WallTile.html]]

    abstract class "<size:14>Tile\n<size:10>nz.ac.wgtn.swen225.lc.domain.world.abs" as nz.ac.wgtn.swen225.lc.domain.world.abs.Tile [[../abs/Tile.html]]

    nz.ac.wgtn.swen225.lc.domain.world.abs.Tile <|- - nz.ac.wgtn.swen225.lc.domain.world.tiles.WallTile

    center footer UMLDoclet 2.0.14, PlantUML 1.2021.9
@enduml

PlantUML version 1.2021.9(Sun Jul 25 22:13:56 NZST 2021)
(APACHE source distribution)
Java Runtime: OpenJDK Runtime Environment
JVM: OpenJDK 64-Bit Server VM
Default Encoding: UTF-8
Language: en
Country: NZ
--></g></svg>