<?xml version="1.0" encoding="UTF-8" standalone="no"?><svg xmlns="http://www.w3.org/2000/svg" xmlns:xlink="http://www.w3.org/1999/xlink" contentScriptType="application/ecmascript" contentStyleType="text/css" height="117px" preserveAspectRatio="none" style="width:235px;height:117px;background:#FFFFFF;" version="1.1" viewBox="0 0 235 117" width="235px" zoomAndPan="magnify"><defs><filter height="300%" id="fg8ogyfoypaih" width="300%" x="-1" y="-1"><feGaussianBlur result="blurOut" stdDeviation="2.0"/><feColorMatrix in="blurOut" result="blurOut2" type="matrix" values="0 0 0 0 0 0 0 0 0 0 0 0 0 0 0 0 0 0 .4 0"/><feOffset dx="4.0" dy="4.0" in="blurOut2" result="blurOut3"/><feBlend in="SourceGraphic" in2="blurOut3" mode="normal"/></filter></defs><g><!--MD5=[b11b555c24b6c718829afb77f2df49ea]
class nz.ac.wgtn.swen225.lc.domain.Controller--><a href="Controller.html" target="_top" title="Controller.html" xlink:actuate="onRequest" xlink:href="Controller.html" xlink:show="new" xlink:title="Controller.html" xlink:type="simple"><rect codeLine="5" fill="#FEFECE" filter="url(#fg8ogyfoypaih)" height="85.1309" id="nz.ac.wgtn.swen225.lc.domain.Controller" style="stroke:#A80036;stroke-width:1.5;" width="214" x="7" y="7"/><ellipse cx="36.85" cy="26.1328" fill="#ADD1B2" rx="11" ry="11" style="stroke:#A80036;stroke-width:1.0;"/><path d="M39.3231,32.2759 Q38.7421,32.5747 38.1029,32.7241 Q37.4638,32.8735 36.7582,32.8735 Q34.2514,32.8735 32.9315,31.2217 Q31.6117,29.5698 31.6117,26.4487 Q31.6117,23.3193 32.9315,21.6675 Q34.2514,20.0156 36.7582,20.0156 Q37.4638,20.0156 38.1112,20.165 Q38.7587,20.3145 39.3231,20.6133 L39.3231,23.3359 Q38.6923,22.7549 38.0988,22.4851 Q37.5053,22.2153 36.8744,22.2153 Q35.5297,22.2153 34.8449,23.282 Q34.1601,24.3486 34.1601,26.4487 Q34.1601,28.5405 34.8449,29.6072 Q35.5297,30.6738 36.8744,30.6738 Q37.5053,30.6738 38.0988,30.4041 Q38.6923,30.1343 39.3231,29.5532 Z " fill="#000000"/><text fill="#000000" font-family="sans-serif" font-size="14" lengthAdjust="spacing" textLength="70" x="93.65" y="25.5352">Controller</text><text fill="#000000" font-family="sans-serif" font-size="10" lengthAdjust="spacing" textLength="149" x="54.15" y="38.1563">nz.ac.wgtn.swen225.lc.domain</text><line style="stroke:#A80036;stroke-width:1.5;" x1="8" x2="220" y1="45.2656" y2="45.2656"/><ellipse cx="18" cy="56.2656" fill="#84BE84" rx="3" ry="3" style="stroke:#038048;stroke-width:1.0;"/><text fill="#000000" font-family="sans-serif" font-size="11" lengthAdjust="spacing" textLength="125" x="27" y="59.9004">Controller(GameModel)</text><ellipse cx="18" cy="69.2207" fill="#84BE84" rx="3" ry="3" style="stroke:#038048;stroke-width:1.0;"/><text fill="#000000" font-family="sans-serif" font-size="11" lengthAdjust="spacing" textLength="109" x="27" y="72.8555">model(): GameModel</text><ellipse cx="18" cy="82.1758" fill="#84BE84" rx="3" ry="3" style="stroke:#038048;stroke-width:1.0;"/><text fill="#000000" font-family="sans-serif" font-size="11" lengthAdjust="spacing" textLength="188" x="27" y="85.8105">tryMoveInDirection(Direction): void</text></a><text fill="#888888" font-family="sans-serif" font-size="10" lengthAdjust="spacing" textLength="182" x="23" y="108.7988">UMLDoclet 2.0.14, PlantUML 1.2021.9</text><!--MD5=[aeba98f111434a23d01a59c41fc6a9e6]
@startuml
    set namespaceSeparator none
    hide empty fields
    hide empty methods

    class "<size:14>Controller\n<size:10>nz.ac.wgtn.swen225.lc.domain" as nz.ac.wgtn.swen225.lc.domain.Controller [[Controller.html]] {
        +Controller(GameModel)
        +model(): GameModel
        +tryMoveInDirection(Direction): void
    }

    center footer UMLDoclet 2.0.14, PlantUML 1.2021.9
@enduml

PlantUML version 1.2021.9(Sun Jul 25 22:13:56 NZST 2021)
(APACHE source distribution)
Java Runtime: OpenJDK Runtime Environment
JVM: OpenJDK 64-Bit Server VM
Default Encoding: UTF-8
Language: en
Country: NZ
--></g></svg>