<?xml version="1.0" encoding="UTF-8" standalone="no"?><svg xmlns="http://www.w3.org/2000/svg" xmlns:xlink="http://www.w3.org/1999/xlink" contentScriptType="application/ecmascript" contentStyleType="text/css" height="130px" preserveAspectRatio="none" style="width:339px;height:130px;background:#FFFFFF;" version="1.1" viewBox="0 0 339 130" width="339px" zoomAndPan="magnify"><defs><filter height="300%" id="fg244uigwq6m4" width="300%" x="-1" y="-1"><feGaussianBlur result="blurOut" stdDeviation="2.0"/><feColorMatrix in="blurOut" result="blurOut2" type="matrix" values="0 0 0 0 0 0 0 0 0 0 0 0 0 0 0 0 0 0 .4 0"/><feOffset dx="4.0" dy="4.0" in="blurOut2" result="blurOut3"/><feBlend in="SourceGraphic" in2="blurOut3" mode="normal"/></filter></defs><g><!--MD5=[0748225f5c4aea5073268fbe2b19381e]
class nz.ac.wgtn.swen225.lc.domain.ControllerTests--><a href="ControllerTests.html" target="_top" title="ControllerTests.html" xlink:actuate="onRequest" xlink:href="ControllerTests.html" xlink:show="new" xlink:title="ControllerTests.html" xlink:type="simple"><rect codeLine="5" fill="#FEFECE" filter="url(#fg244uigwq6m4)" height="98.0859" id="nz.ac.wgtn.swen225.lc.domain.ControllerTests" style="stroke:#A80036;stroke-width:1.5;" width="318" x="7" y="7"/><ellipse cx="87.25" cy="26.1328" fill="#ADD1B2" rx="11" ry="11" style="stroke:#A80036;stroke-width:1.0;"/><path d="M89.7231,32.2759 Q89.1421,32.5747 88.5029,32.7241 Q87.8638,32.8735 87.1582,32.8735 Q84.6514,32.8735 83.3315,31.2217 Q82.0117,29.5698 82.0117,26.4487 Q82.0117,23.3193 83.3315,21.6675 Q84.6514,20.0156 87.1582,20.0156 Q87.8638,20.0156 88.5112,20.165 Q89.1587,20.3145 89.7231,20.6133 L89.7231,23.3359 Q89.0923,22.7549 88.4988,22.4851 Q87.9053,22.2153 87.2744,22.2153 Q85.9297,22.2153 85.2449,23.282 Q84.5601,24.3486 84.5601,26.4487 Q84.5601,28.5405 85.2449,29.6072 Q85.9297,30.6738 87.2744,30.6738 Q87.9053,30.6738 88.4988,30.4041 Q89.0923,30.1343 89.7231,29.5532 Z " fill="#000000"/><text fill="#000000" font-family="sans-serif" font-size="14" lengthAdjust="spacing" textLength="106" x="129.25" y="25.5352">ControllerTests</text><text fill="#000000" font-family="sans-serif" font-size="10" lengthAdjust="spacing" textLength="149" x="107.75" y="38.1563">nz.ac.wgtn.swen225.lc.domain</text><line style="stroke:#A80036;stroke-width:1.5;" x1="8" x2="324" y1="45.2656" y2="45.2656"/><ellipse cx="18" cy="56.2656" fill="#84BE84" rx="3" ry="3" style="stroke:#038048;stroke-width:1.0;"/><text fill="#000000" font-family="sans-serif" font-size="11" lengthAdjust="spacing" textLength="67" x="27" y="59.9004">setup(): void</text><ellipse cx="18" cy="69.2207" fill="#84BE84" rx="3" ry="3" style="stroke:#038048;stroke-width:1.0;"/><text fill="#000000" font-family="sans-serif" font-size="11" lengthAdjust="spacing" textLength="280" x="27" y="72.8555">testInvalidMoveIntoWall(): Collection&lt;DynamicTest&gt;</text><ellipse cx="18" cy="82.1758" fill="#84BE84" rx="3" ry="3" style="stroke:#038048;stroke-width:1.0;"/><text fill="#000000" font-family="sans-serif" font-size="11" lengthAdjust="spacing" textLength="292" x="27" y="85.8105">testValidMoveIntoFreeTile(): Collection&lt;DynamicTest&gt;</text><ellipse cx="18" cy="95.1309" fill="#84BE84" rx="3" ry="3" style="stroke:#038048;stroke-width:1.0;"/><text fill="#000000" font-family="sans-serif" font-size="11" lengthAdjust="spacing" textLength="116" x="27" y="98.7656">testAgentLoop(): void</text></a><text fill="#888888" font-family="sans-serif" font-size="10" lengthAdjust="spacing" textLength="182" x="75" y="121.7539">UMLDoclet 2.0.14, PlantUML 1.2021.9</text><!--MD5=[3e2130c332c322b5fcaec45b229dbac5]
@startuml
    set namespaceSeparator none
    hide empty fields
    hide empty methods

    class "<size:14>ControllerTests\n<size:10>nz.ac.wgtn.swen225.lc.domain" as nz.ac.wgtn.swen225.lc.domain.ControllerTests [[ControllerTests.html]] {
        +setup(): void
        +testInvalidMoveIntoWall(): Collection<DynamicTest>
        +testValidMoveIntoFreeTile(): Collection<DynamicTest>
        +testAgentLoop(): void
    }

    center footer UMLDoclet 2.0.14, PlantUML 1.2021.9
@enduml

PlantUML version 1.2021.9(Sun Jul 25 22:13:56 NZST 2021)
(APACHE source distribution)
Java Runtime: OpenJDK Runtime Environment
JVM: OpenJDK 64-Bit Server VM
Default Encoding: UTF-8
Language: en
Country: NZ
--></g></svg>