<?xml version="1.0" encoding="UTF-8" standalone="no"?><svg xmlns="http://www.w3.org/2000/svg" xmlns:xlink="http://www.w3.org/1999/xlink" contentScriptType="application/ecmascript" contentStyleType="text/css" height="195px" preserveAspectRatio="none" style="width:245px;height:195px;background:#FFFFFF;" version="1.1" viewBox="0 0 245 195" width="245px" zoomAndPan="magnify"><defs><filter height="300%" id="figz2ui0s9c4h" width="300%" x="-1" y="-1"><feGaussianBlur result="blurOut" stdDeviation="2.0"/><feColorMatrix in="blurOut" result="blurOut2" type="matrix" values="0 0 0 0 0 0 0 0 0 0 0 0 0 0 0 0 0 0 .4 0"/><feOffset dx="4.0" dy="4.0" in="blurOut2" result="blurOut3"/><feBlend in="SourceGraphic" in2="blurOut3" mode="normal"/></filter></defs><g><!--MD5=[63519368455db51eef9b03c23dd475ad]
class nz.ac.wgtn.swen225.lc.domain.ModelTests--><a href="ModelTests.html" target="_top" title="ModelTests.html" xlink:actuate="onRequest" xlink:href="ModelTests.html" xlink:show="new" xlink:title="ModelTests.html" xlink:type="simple"><rect codeLine="5" fill="#FEFECE" filter="url(#figz2ui0s9c4h)" height="162.8613" id="nz.ac.wgtn.swen225.lc.domain.ModelTests" style="stroke:#A80036;stroke-width:1.5;" width="224" x="7" y="7"/><ellipse cx="41.35" cy="26.1328" fill="#ADD1B2" rx="11" ry="11" style="stroke:#A80036;stroke-width:1.0;"/><path d="M43.8231,32.2759 Q43.2421,32.5747 42.6029,32.7241 Q41.9638,32.8735 41.2582,32.8735 Q38.7514,32.8735 37.4315,31.2217 Q36.1117,29.5698 36.1117,26.4487 Q36.1117,23.3193 37.4315,21.6675 Q38.7514,20.0156 41.2582,20.0156 Q41.9638,20.0156 42.6112,20.165 Q43.2587,20.3145 43.8231,20.6133 L43.8231,23.3359 Q43.1923,22.7549 42.5988,22.4851 Q42.0053,22.2153 41.3744,22.2153 Q40.0297,22.2153 39.3449,23.282 Q38.6601,24.3486 38.6601,26.4487 Q38.6601,28.5405 39.3449,29.6072 Q40.0297,30.6738 41.3744,30.6738 Q42.0053,30.6738 42.5988,30.4041 Q43.1923,30.1343 43.8231,29.5532 Z " fill="#000000"/><text fill="#000000" font-family="sans-serif" font-size="14" lengthAdjust="spacing" textLength="78" x="95.15" y="25.5352">ModelTests</text><text fill="#000000" font-family="sans-serif" font-size="10" lengthAdjust="spacing" textLength="149" x="59.65" y="38.1563">nz.ac.wgtn.swen225.lc.domain</text><line style="stroke:#A80036;stroke-width:1.5;" x1="8" x2="230" y1="45.2656" y2="45.2656"/><ellipse cx="18" cy="56.2656" fill="#84BE84" rx="3" ry="3" style="stroke:#038048;stroke-width:1.0;"/><text fill="#000000" font-family="sans-serif" font-size="11" lengthAdjust="spacing" textLength="99" x="27" y="59.9004">setupModel(): void</text><ellipse cx="18" cy="69.2207" fill="#84BE84" rx="3" ry="3" style="stroke:#038048;stroke-width:1.0;"/><text fill="#000000" font-family="sans-serif" font-size="11" lengthAdjust="spacing" textLength="173" x="27" y="72.8555">testPropertyChangeEvent(): void</text><ellipse cx="18" cy="82.1758" fill="#84BE84" rx="3" ry="3" style="stroke:#038048;stroke-width:1.0;"/><text fill="#000000" font-family="sans-serif" font-size="11" lengthAdjust="spacing" textLength="189" x="27" y="85.8105">testValidTreasureDecrement(): void</text><ellipse cx="18" cy="95.1309" fill="#84BE84" rx="3" ry="3" style="stroke:#038048;stroke-width:1.0;"/><text fill="#000000" font-family="sans-serif" font-size="11" lengthAdjust="spacing" textLength="198" x="27" y="98.7656">testInvalidTreasureDecrement(): void</text><ellipse cx="18" cy="108.0859" fill="#84BE84" rx="3" ry="3" style="stroke:#038048;stroke-width:1.0;"/><text fill="#000000" font-family="sans-serif" font-size="11" lengthAdjust="spacing" textLength="111" x="27" y="111.7207">testResetKeys(): void</text><ellipse cx="18" cy="121.041" fill="#84BE84" rx="3" ry="3" style="stroke:#038048;stroke-width:1.0;"/><text fill="#000000" font-family="sans-serif" font-size="11" lengthAdjust="spacing" textLength="140" x="27" y="124.6758">testKeysStartEmpty(): void</text><ellipse cx="18" cy="133.9961" fill="#84BE84" rx="3" ry="3" style="stroke:#038048;stroke-width:1.0;"/><text fill="#000000" font-family="sans-serif" font-size="11" lengthAdjust="spacing" textLength="136" x="27" y="137.6309">testKeyStore(String): void</text><ellipse cx="18" cy="146.9512" fill="#84BE84" rx="3" ry="3" style="stroke:#038048;stroke-width:1.0;"/><text fill="#000000" font-family="sans-serif" font-size="11" lengthAdjust="spacing" textLength="195" x="27" y="150.5859">testInvalidKeyStoreFails(String): void</text><ellipse cx="18" cy="159.9063" fill="#84BE84" rx="3" ry="3" style="stroke:#038048;stroke-width:1.0;"/><text fill="#000000" font-family="sans-serif" font-size="11" lengthAdjust="spacing" textLength="110" x="27" y="163.541">testLoadLevel(): void</text></a><text fill="#888888" font-family="sans-serif" font-size="10" lengthAdjust="spacing" textLength="182" x="28" y="186.5293">UMLDoclet 2.0.14, PlantUML 1.2021.9</text><!--MD5=[67db6c9acf2452818e7a9521e6917776]
@startuml
    set namespaceSeparator none
    hide empty fields
    hide empty methods

    class "<size:14>ModelTests\n<size:10>nz.ac.wgtn.swen225.lc.domain" as nz.ac.wgtn.swen225.lc.domain.ModelTests [[ModelTests.html]] {
        +setupModel(): void
        +testPropertyChangeEvent(): void
        +testValidTreasureDecrement(): void
        +testInvalidTreasureDecrement(): void
        +testResetKeys(): void
        +testKeysStartEmpty(): void
        +testKeyStore(String): void
        +testInvalidKeyStoreFails(String): void
        +testLoadLevel(): void
    }

    center footer UMLDoclet 2.0.14, PlantUML 1.2021.9
@enduml

PlantUML version 1.2021.9(Sun Jul 25 22:13:56 NZST 2021)
(APACHE source distribution)
Java Runtime: OpenJDK Runtime Environment
JVM: OpenJDK 64-Bit Server VM
Default Encoding: UTF-8
Language: en
Country: NZ
--></g></svg>