<?xml version="1.0" encoding="UTF-8" standalone="no"?><svg xmlns="http://www.w3.org/2000/svg" xmlns:xlink="http://www.w3.org/1999/xlink" contentScriptType="application/ecmascript" contentStyleType="text/css" height="552px" preserveAspectRatio="none" style="width:912px;height:552px;background:#FFFFFF;" version="1.1" viewBox="0 0 912 552" width="912px" zoomAndPan="magnify"><defs><filter height="300%" id="f1t3q72etuwnrp" width="300%" x="-1" y="-1"><feGaussianBlur result="blurOut" stdDeviation="2.0"/><feColorMatrix in="blurOut" result="blurOut2" type="matrix" values="0 0 0 0 0 0 0 0 0 0 0 0 0 0 0 0 0 0 .4 0"/><feOffset dx="4.0" dy="4.0" in="blurOut2" result="blurOut3"/><feBlend in="SourceGraphic" in2="blurOut3" mode="normal"/></filter></defs><g><!--MD5=[a8970189bb39a092ded2bf845e77f238]
cluster nz.ac.wgtn.swen225.lc.domain--><polygon fill="#FFFFFF" filter="url(#f1t3q72etuwnrp)" points="16,6,235,6,242,28.4883,895,28.4883,895,528.28,16,528.28,16,6" style="stroke:#000000;stroke-width:1.5;"/><line style="stroke:#000000;stroke-width:1.5;" x1="16" x2="242" y1="28.4883" y2="28.4883"/><text fill="#000000" font-family="sans-serif" font-size="14" font-weight="bold" lengthAdjust="spacing" textLength="213" x="20" y="21.5352">nz.ac.wgtn.swen225.lc.domain</text><!--MD5=[63519368455db51eef9b03c23dd475ad]
class nz.ac.wgtn.swen225.lc.domain.ModelTests--><a href="ModelTests.html" target="_top" title="ModelTests.html" xlink:actuate="onRequest" xlink:href="ModelTests.html" xlink:show="new" xlink:title="ModelTests.html" xlink:type="simple"><rect codeLine="3" fill="#FEFECE" filter="url(#f1t3q72etuwnrp)" height="164.5957" id="nz.ac.wgtn.swen225.lc.domain.ModelTests" style="stroke:#A80036;stroke-width:1.5;" width="224" x="32" y="41"/><ellipse cx="106.75" cy="57" fill="#ADD1B2" rx="11" ry="11" style="stroke:#A80036;stroke-width:1.0;"/><path d="M109.2231,63.1431 Q108.6421,63.4419 108.0029,63.5913 Q107.3638,63.7407 106.6582,63.7407 Q104.1514,63.7407 102.8315,62.0889 Q101.5117,60.437 101.5117,57.3159 Q101.5117,54.1865 102.8315,52.5347 Q104.1514,50.8828 106.6582,50.8828 Q107.3638,50.8828 108.0112,51.0322 Q108.6587,51.1816 109.2231,51.4805 L109.2231,54.2031 Q108.5923,53.6221 107.9988,53.3523 Q107.4053,53.0825 106.7744,53.0825 Q105.4297,53.0825 104.7449,54.1492 Q104.0601,55.2158 104.0601,57.3159 Q104.0601,59.4077 104.7449,60.4744 Q105.4297,61.541 106.7744,61.541 Q107.4053,61.541 107.9988,61.2712 Q108.5923,61.0015 109.2231,60.4204 Z " fill="#000000"/><text fill="#000000" font-family="sans-serif" font-size="12" lengthAdjust="spacing" textLength="66" x="127.25" y="61.5352">ModelTests</text><line style="stroke:#A80036;stroke-width:1.5;" x1="33" x2="255" y1="73" y2="73"/><line style="stroke:#A80036;stroke-width:1.5;" x1="33" x2="255" y1="81" y2="81"/><ellipse cx="43" cy="92" fill="#84BE84" rx="3" ry="3" style="stroke:#038048;stroke-width:1.0;"/><text fill="#000000" font-family="sans-serif" font-size="11" lengthAdjust="spacing" textLength="99" x="52" y="95.6348">setupModel(): void</text><ellipse cx="43" cy="104.9551" fill="#84BE84" rx="3" ry="3" style="stroke:#038048;stroke-width:1.0;"/><text fill="#000000" font-family="sans-serif" font-size="11" lengthAdjust="spacing" textLength="173" x="52" y="108.5898">testPropertyChangeEvent(): void</text><ellipse cx="43" cy="117.9102" fill="#84BE84" rx="3" ry="3" style="stroke:#038048;stroke-width:1.0;"/><text fill="#000000" font-family="sans-serif" font-size="11" lengthAdjust="spacing" textLength="189" x="52" y="121.5449">testValidTreasureDecrement(): void</text><ellipse cx="43" cy="130.8652" fill="#84BE84" rx="3" ry="3" style="stroke:#038048;stroke-width:1.0;"/><text fill="#000000" font-family="sans-serif" font-size="11" lengthAdjust="spacing" textLength="198" x="52" y="134.5">testInvalidTreasureDecrement(): void</text><ellipse cx="43" cy="143.8203" fill="#84BE84" rx="3" ry="3" style="stroke:#038048;stroke-width:1.0;"/><text fill="#000000" font-family="sans-serif" font-size="11" lengthAdjust="spacing" textLength="111" x="52" y="147.4551">testResetKeys(): void</text><ellipse cx="43" cy="156.7754" fill="#84BE84" rx="3" ry="3" style="stroke:#038048;stroke-width:1.0;"/><text fill="#000000" font-family="sans-serif" font-size="11" lengthAdjust="spacing" textLength="140" x="52" y="160.4102">testKeysStartEmpty(): void</text><ellipse cx="43" cy="169.7305" fill="#84BE84" rx="3" ry="3" style="stroke:#038048;stroke-width:1.0;"/><text fill="#000000" font-family="sans-serif" font-size="11" lengthAdjust="spacing" textLength="136" x="52" y="173.3652">testKeyStore(String): void</text><ellipse cx="43" cy="182.6855" fill="#84BE84" rx="3" ry="3" style="stroke:#038048;stroke-width:1.0;"/><text fill="#000000" font-family="sans-serif" font-size="11" lengthAdjust="spacing" textLength="195" x="52" y="186.3203">testInvalidKeyStoreFails(String): void</text><ellipse cx="43" cy="195.6406" fill="#84BE84" rx="3" ry="3" style="stroke:#038048;stroke-width:1.0;"/><text fill="#000000" font-family="sans-serif" font-size="11" lengthAdjust="spacing" textLength="110" x="52" y="199.2754">testLoadLevel(): void</text></a><!--MD5=[a0088e5fce36528c8e8341e7a0850c19]
class nz.ac.wgtn.swen225.lc.domain.AgentTests--><a href="AgentTests.html" target="_top" title="AgentTests.html" xlink:actuate="onRequest" xlink:href="AgentTests.html" xlink:show="new" xlink:title="AgentTests.html" xlink:type="simple"><rect codeLine="15" fill="#FEFECE" filter="url(#f1t3q72etuwnrp)" height="60.9551" id="nz.ac.wgtn.swen225.lc.domain.AgentTests" style="stroke:#A80036;stroke-width:1.5;" width="115" x="290.5" y="92.82"/><ellipse cx="314.05" cy="108.82" fill="#ADD1B2" rx="11" ry="11" style="stroke:#A80036;stroke-width:1.0;"/><path d="M316.5231,114.9631 Q315.9421,115.2619 315.3029,115.4113 Q314.6638,115.5607 313.9582,115.5607 Q311.4514,115.5607 310.1315,113.9089 Q308.8117,112.257 308.8117,109.1359 Q308.8117,106.0065 310.1315,104.3547 Q311.4514,102.7028 313.9582,102.7028 Q314.6638,102.7028 315.3112,102.8522 Q315.9587,103.0016 316.5231,103.3005 L316.5231,106.0231 Q315.8923,105.4421 315.2988,105.1723 Q314.7053,104.9025 314.0744,104.9025 Q312.7297,104.9025 312.0449,105.9692 Q311.3601,107.0358 311.3601,109.1359 Q311.3601,111.2277 312.0449,112.2944 Q312.7297,113.361 314.0744,113.361 Q314.7053,113.361 315.2988,113.0912 Q315.8923,112.8215 316.5231,112.2404 Z " fill="#000000"/><text fill="#000000" font-family="sans-serif" font-size="12" lengthAdjust="spacing" textLength="64" x="329.95" y="113.3552">AgentTests</text><line style="stroke:#A80036;stroke-width:1.5;" x1="291.5" x2="404.5" y1="124.82" y2="124.82"/><line style="stroke:#A80036;stroke-width:1.5;" x1="291.5" x2="404.5" y1="132.82" y2="132.82"/><ellipse cx="301.5" cy="143.82" fill="#84BE84" rx="3" ry="3" style="stroke:#038048;stroke-width:1.0;"/><text fill="#000000" font-family="sans-serif" font-size="11" lengthAdjust="spacing" textLength="89" x="310.5" y="147.4548">testAgent(): void</text></a><!--MD5=[1e9f5524b8500ecfd20821bf531ebd70]
class nz.ac.wgtn.swen225.lc.domain.PositionTests--><a href="PositionTests.html" target="_top" title="PositionTests.html" xlink:actuate="onRequest" xlink:href="PositionTests.html" xlink:show="new" xlink:title="PositionTests.html" xlink:type="simple"><rect codeLine="19" fill="#FEFECE" filter="url(#f1t3q72etuwnrp)" height="125.7305" id="nz.ac.wgtn.swen225.lc.domain.PositionTests" style="stroke:#A80036;stroke-width:1.5;" width="294" x="440" y="60.43"/><ellipse cx="545.25" cy="76.43" fill="#ADD1B2" rx="11" ry="11" style="stroke:#A80036;stroke-width:1.0;"/><path d="M547.7231,82.5731 Q547.1421,82.8719 546.5029,83.0213 Q545.8638,83.1707 545.1582,83.1707 Q542.6514,83.1707 541.3315,81.5189 Q540.0117,79.867 540.0117,76.7459 Q540.0117,73.6165 541.3315,71.9647 Q542.6514,70.3128 545.1582,70.3128 Q545.8638,70.3128 546.5112,70.4622 Q547.1587,70.6116 547.7231,70.9105 L547.7231,73.6331 Q547.0923,73.0521 546.4988,72.7823 Q545.9053,72.5125 545.2744,72.5125 Q543.9297,72.5125 543.2449,73.5792 Q542.5601,74.6458 542.5601,76.7459 Q542.5601,78.8377 543.2449,79.9044 Q543.9297,80.971 545.2744,80.971 Q545.9053,80.971 546.4988,80.7012 Q547.0923,80.4315 547.7231,79.8504 Z " fill="#000000"/><text fill="#000000" font-family="sans-serif" font-size="12" lengthAdjust="spacing" textLength="75" x="565.75" y="80.9652">PositionTests</text><line style="stroke:#A80036;stroke-width:1.5;" x1="441" x2="733" y1="92.43" y2="92.43"/><line style="stroke:#A80036;stroke-width:1.5;" x1="441" x2="733" y1="100.43" y2="100.43"/><ellipse cx="451" cy="111.43" fill="#84BE84" rx="3" ry="3" style="stroke:#038048;stroke-width:1.0;"/><text fill="#000000" font-family="sans-serif" font-size="11" lengthAdjust="spacing" textLength="135" x="460" y="115.0648">testAddition(String): void</text><ellipse cx="451" cy="124.3851" fill="#84BE84" rx="3" ry="3" style="stroke:#038048;stroke-width:1.0;"/><text fill="#000000" font-family="sans-serif" font-size="11" lengthAdjust="spacing" textLength="151" x="460" y="128.0198">testSubtraction(String): void</text><ellipse cx="451" cy="137.3402" fill="#84BE84" rx="3" ry="3" style="stroke:#038048;stroke-width:1.0;"/><text fill="#000000" font-family="sans-serif" font-size="11" lengthAdjust="spacing" textLength="135" x="460" y="140.9749">testToString(String): void</text><ellipse cx="451" cy="150.2952" fill="#84BE84" rx="3" ry="3" style="stroke:#038048;stroke-width:1.0;"/><text fill="#000000" font-family="sans-serif" font-size="11" lengthAdjust="spacing" textLength="268" x="460" y="153.93">testDistanceFunction(): Collection&lt;DynamicTest&gt;</text><ellipse cx="451" cy="163.2503" fill="#84BE84" rx="3" ry="3" style="stroke:#038048;stroke-width:1.0;"/><text fill="#000000" font-family="sans-serif" font-size="11" lengthAdjust="spacing" textLength="124" x="460" y="166.8851">testGreaterThan(): void</text><ellipse cx="451" cy="176.2054" fill="#84BE84" rx="3" ry="3" style="stroke:#038048;stroke-width:1.0;"/><text fill="#000000" font-family="sans-serif" font-size="11" lengthAdjust="spacing" textLength="119" x="460" y="179.8402">testLesserThan(): void</text></a><!--MD5=[c319c274fa151e64950eba34378d5730]
class nz.ac.wgtn.swen225.lc.domain.EventTests--><a href="EventTests.html" target="_top" title="EventTests.html" xlink:actuate="onRequest" xlink:href="EventTests.html" xlink:show="new" xlink:title="EventTests.html" xlink:type="simple"><rect codeLine="28" fill="#FEFECE" filter="url(#f1t3q72etuwnrp)" height="73.9102" id="nz.ac.wgtn.swen225.lc.domain.EventTests" style="stroke:#A80036;stroke-width:1.5;" width="202" x="32" y="278.55"/><ellipse cx="97.75" cy="294.55" fill="#ADD1B2" rx="11" ry="11" style="stroke:#A80036;stroke-width:1.0;"/><path d="M100.2231,300.6931 Q99.6421,300.9919 99.0029,301.1413 Q98.3638,301.2907 97.6582,301.2907 Q95.1514,301.2907 93.8315,299.6389 Q92.5117,297.987 92.5117,294.8659 Q92.5117,291.7365 93.8315,290.0847 Q95.1514,288.4328 97.6582,288.4328 Q98.3638,288.4328 99.0112,288.5822 Q99.6587,288.7316 100.2231,289.0305 L100.2231,291.7531 Q99.5923,291.1721 98.9988,290.9023 Q98.4053,290.6325 97.7744,290.6325 Q96.4297,290.6325 95.7449,291.6992 Q95.0601,292.7658 95.0601,294.8659 Q95.0601,296.9577 95.7449,298.0244 Q96.4297,299.091 97.7744,299.091 Q98.4053,299.091 98.9988,298.8212 Q99.5923,298.5515 100.2231,297.9704 Z " fill="#000000"/><text fill="#000000" font-family="sans-serif" font-size="12" lengthAdjust="spacing" textLength="62" x="118.25" y="299.0852">EventTests</text><line style="stroke:#A80036;stroke-width:1.5;" x1="33" x2="233" y1="310.55" y2="310.55"/><line style="stroke:#A80036;stroke-width:1.5;" x1="33" x2="233" y1="318.55" y2="318.55"/><ellipse cx="43" cy="329.55" fill="#84BE84" rx="3" ry="3" style="stroke:#038048;stroke-width:1.0;"/><text fill="#000000" font-family="sans-serif" font-size="11" lengthAdjust="spacing" textLength="176" x="52" y="333.1848">testDirectionChangeEvent(): void</text><ellipse cx="43" cy="342.5051" fill="#84BE84" rx="3" ry="3" style="stroke:#038048;stroke-width:1.0;"/><text fill="#000000" font-family="sans-serif" font-size="11" lengthAdjust="spacing" textLength="146" x="52" y="346.1398">testTileChangeEvent(): void</text></a><!--MD5=[8418ff0bd31ce225b01f9d284ee714ab]
class nz.ac.wgtn.swen225.lc.domain.TileTests--><a href="TileTests.html" target="_top" title="TileTests.html" xlink:actuate="onRequest" xlink:href="TileTests.html" xlink:show="new" xlink:title="TileTests.html" xlink:type="simple"><rect codeLine="33" fill="#FEFECE" filter="url(#f1t3q72etuwnrp)" height="73.9102" id="nz.ac.wgtn.swen225.lc.domain.TileTests" style="stroke:#A80036;stroke-width:1.5;" width="257" x="269.5" y="278.55"/><ellipse cx="367.75" cy="294.55" fill="#ADD1B2" rx="11" ry="11" style="stroke:#A80036;stroke-width:1.0;"/><path d="M370.2231,300.6931 Q369.6421,300.9919 369.0029,301.1413 Q368.3638,301.2907 367.6582,301.2907 Q365.1514,301.2907 363.8315,299.6389 Q362.5117,297.987 362.5117,294.8659 Q362.5117,291.7365 363.8315,290.0847 Q365.1514,288.4328 367.6582,288.4328 Q368.3638,288.4328 369.0112,288.5822 Q369.6587,288.7316 370.2231,289.0305 L370.2231,291.7531 Q369.5923,291.1721 368.9988,290.9023 Q368.4053,290.6325 367.7744,290.6325 Q366.4297,290.6325 365.7449,291.6992 Q365.0601,292.7658 365.0601,294.8659 Q365.0601,296.9577 365.7449,298.0244 Q366.4297,299.091 367.7744,299.091 Q368.4053,299.091 368.9988,298.8212 Q369.5923,298.5515 370.2231,297.9704 Z " fill="#000000"/><text fill="#000000" font-family="sans-serif" font-size="12" lengthAdjust="spacing" textLength="52" x="388.25" y="299.0852">TileTests</text><line style="stroke:#A80036;stroke-width:1.5;" x1="270.5" x2="525.5" y1="310.55" y2="310.55"/><line style="stroke:#A80036;stroke-width:1.5;" x1="270.5" x2="525.5" y1="318.55" y2="318.55"/><ellipse cx="280.5" cy="329.55" fill="#84BE84" rx="3" ry="3" style="stroke:#038048;stroke-width:1.0;"/><text fill="#000000" font-family="sans-serif" font-size="11" lengthAdjust="spacing" textLength="97" x="289.5" y="333.1848">testInfoTile(): void</text><ellipse cx="280.5" cy="342.5051" fill="#84BE84" rx="3" ry="3" style="stroke:#038048;stroke-width:1.0;"/><text fill="#000000" font-family="sans-serif" font-size="11" lengthAdjust="spacing" textLength="231" x="289.5" y="346.1398">testCloneTiles(): Collection&lt;DynamicTest&gt;</text></a><!--MD5=[0748225f5c4aea5073268fbe2b19381e]
class nz.ac.wgtn.swen225.lc.domain.ControllerTests--><a href="ControllerTests.html" target="_top" title="ControllerTests.html" xlink:actuate="onRequest" xlink:href="ControllerTests.html" xlink:show="new" xlink:title="ControllerTests.html" xlink:type="simple"><rect codeLine="38" fill="#FEFECE" filter="url(#f1t3q72etuwnrp)" height="99.8203" id="nz.ac.wgtn.swen225.lc.domain.ControllerTests" style="stroke:#A80036;stroke-width:1.5;" width="318" x="561" y="265.59"/><ellipse cx="672.25" cy="281.59" fill="#ADD1B2" rx="11" ry="11" style="stroke:#A80036;stroke-width:1.0;"/><path d="M674.7231,287.7331 Q674.1421,288.0319 673.5029,288.1813 Q672.8638,288.3307 672.1582,288.3307 Q669.6514,288.3307 668.3315,286.6789 Q667.0117,285.027 667.0117,281.9059 Q667.0117,278.7765 668.3315,277.1247 Q669.6514,275.4728 672.1582,275.4728 Q672.8638,275.4728 673.5112,275.6222 Q674.1587,275.7716 674.7231,276.0705 L674.7231,278.7931 Q674.0923,278.2121 673.4988,277.9423 Q672.9053,277.6725 672.2744,277.6725 Q670.9297,277.6725 670.2449,278.7392 Q669.5601,279.8058 669.5601,281.9059 Q669.5601,283.9977 670.2449,285.0644 Q670.9297,286.131 672.2744,286.131 Q672.9053,286.131 673.4988,285.8612 Q674.0923,285.5915 674.7231,285.0104 Z " fill="#000000"/><text fill="#000000" font-family="sans-serif" font-size="12" lengthAdjust="spacing" textLength="87" x="692.75" y="286.1252">ControllerTests</text><line style="stroke:#A80036;stroke-width:1.5;" x1="562" x2="878" y1="297.59" y2="297.59"/><line style="stroke:#A80036;stroke-width:1.5;" x1="562" x2="878" y1="305.59" y2="305.59"/><ellipse cx="572" cy="316.59" fill="#84BE84" rx="3" ry="3" style="stroke:#038048;stroke-width:1.0;"/><text fill="#000000" font-family="sans-serif" font-size="11" lengthAdjust="spacing" textLength="67" x="581" y="320.2248">setup(): void</text><ellipse cx="572" cy="329.5451" fill="#84BE84" rx="3" ry="3" style="stroke:#038048;stroke-width:1.0;"/><text fill="#000000" font-family="sans-serif" font-size="11" lengthAdjust="spacing" textLength="280" x="581" y="333.1798">testInvalidMoveIntoWall(): Collection&lt;DynamicTest&gt;</text><ellipse cx="572" cy="342.5002" fill="#84BE84" rx="3" ry="3" style="stroke:#038048;stroke-width:1.0;"/><text fill="#000000" font-family="sans-serif" font-size="11" lengthAdjust="spacing" textLength="292" x="581" y="346.1349">testValidMoveIntoFreeTile(): Collection&lt;DynamicTest&gt;</text><ellipse cx="572" cy="355.4552" fill="#84BE84" rx="3" ry="3" style="stroke:#038048;stroke-width:1.0;"/><text fill="#000000" font-family="sans-serif" font-size="11" lengthAdjust="spacing" textLength="116" x="581" y="359.09">testAgentLoop(): void</text></a><!--MD5=[b11b555c24b6c718829afb77f2df49ea]
class nz.ac.wgtn.swen225.lc.domain.Controller--><a href="Controller.html" target="_top" title="Controller.html" xlink:actuate="onRequest" xlink:href="Controller.html" xlink:show="new" xlink:title="Controller.html" xlink:type="simple"><rect codeLine="45" fill="#FEFECE" filter="url(#f1t3q72etuwnrp)" height="86.8652" id="nz.ac.wgtn.swen225.lc.domain.Controller" style="stroke:#A80036;stroke-width:1.5;" width="214" x="32" y="425.41"/><ellipse cx="106.75" cy="441.41" fill="#ADD1B2" rx="11" ry="11" style="stroke:#A80036;stroke-width:1.0;"/><path d="M109.2231,447.5531 Q108.6421,447.8519 108.0029,448.0013 Q107.3638,448.1507 106.6582,448.1507 Q104.1514,448.1507 102.8315,446.4989 Q101.5117,444.847 101.5117,441.7259 Q101.5117,438.5965 102.8315,436.9447 Q104.1514,435.2928 106.6582,435.2928 Q107.3638,435.2928 108.0112,435.4422 Q108.6587,435.5916 109.2231,435.8905 L109.2231,438.6131 Q108.5923,438.0321 107.9988,437.7623 Q107.4053,437.4925 106.7744,437.4925 Q105.4297,437.4925 104.7449,438.5592 Q104.0601,439.6258 104.0601,441.7259 Q104.0601,443.8177 104.7449,444.8844 Q105.4297,445.951 106.7744,445.951 Q107.4053,445.951 107.9988,445.6812 Q108.5923,445.4115 109.2231,444.8304 Z " fill="#000000"/><text fill="#000000" font-family="sans-serif" font-size="12" lengthAdjust="spacing" textLength="56" x="127.25" y="445.9452">Controller</text><line style="stroke:#A80036;stroke-width:1.5;" x1="33" x2="245" y1="457.41" y2="457.41"/><line style="stroke:#A80036;stroke-width:1.5;" x1="33" x2="245" y1="465.41" y2="465.41"/><ellipse cx="43" cy="476.41" fill="#84BE84" rx="3" ry="3" style="stroke:#038048;stroke-width:1.0;"/><text fill="#000000" font-family="sans-serif" font-size="11" lengthAdjust="spacing" textLength="125" x="52" y="480.0448">Controller(GameModel)</text><ellipse cx="43" cy="489.3651" fill="#84BE84" rx="3" ry="3" style="stroke:#038048;stroke-width:1.0;"/><text fill="#000000" font-family="sans-serif" font-size="11" lengthAdjust="spacing" textLength="109" x="52" y="492.9998">model(): GameModel</text><ellipse cx="43" cy="502.3202" fill="#84BE84" rx="3" ry="3" style="stroke:#038048;stroke-width:1.0;"/><text fill="#000000" font-family="sans-serif" font-size="11" lengthAdjust="spacing" textLength="188" x="52" y="505.9549">tryMoveInDirection(Direction): void</text></a><!--MD5=[4a80559fb91ac834cba096e7eb0f8b3c]
link nz.ac.wgtn.swen225.lc.domain.ModelTests to nz.ac.wgtn.swen225.lc.domain.AgentTests--><!--MD5=[b57884e6501b831e11e0800299ec3ce6]
link nz.ac.wgtn.swen225.lc.domain.AgentTests to nz.ac.wgtn.swen225.lc.domain.PositionTests--><!--MD5=[17340f04e205b4273cebe58baeee00f9]
link nz.ac.wgtn.swen225.lc.domain.ModelTests to nz.ac.wgtn.swen225.lc.domain.EventTests--><!--MD5=[2421ec21e196acf0640455e4272d19a0]
link nz.ac.wgtn.swen225.lc.domain.EventTests to nz.ac.wgtn.swen225.lc.domain.TileTests--><!--MD5=[f0a8278282e6a1990d8b49ea9a41e4ea]
link nz.ac.wgtn.swen225.lc.domain.TileTests to nz.ac.wgtn.swen225.lc.domain.ControllerTests--><!--MD5=[8331725570153b0ac1f8108430a980fc]
link nz.ac.wgtn.swen225.lc.domain.EventTests to nz.ac.wgtn.swen225.lc.domain.Controller--><text fill="#888888" font-family="sans-serif" font-size="10" lengthAdjust="spacing" textLength="182" x="358.5" y="543.948">UMLDoclet 2.0.14, PlantUML 1.2021.9</text><!--MD5=[8598731f6ee153a0d280e9e166f51836]
@startuml
    namespace nz.ac.wgtn.swen225.lc.domain {

        class ModelTests [[ModelTests.html]] {
            +setupModel(): void
            +testPropertyChangeEvent(): void
            +testValidTreasureDecrement(): void
            +testInvalidTreasureDecrement(): void
            +testResetKeys(): void
            +testKeysStartEmpty(): void
            +testKeyStore(String): void
            +testInvalidKeyStoreFails(String): void
            +testLoadLevel(): void
        }

        class AgentTests [[AgentTests.html]] {
            +testAgent(): void
        }

        class PositionTests [[PositionTests.html]] {
            +testAddition(String): void
            +testSubtraction(String): void
            +testToString(String): void
            +testDistanceFunction(): Collection<DynamicTest>
            +testGreaterThan(): void
            +testLesserThan(): void
        }

        class EventTests [[EventTests.html]] {
            +testDirectionChangeEvent(): void
            +testTileChangeEvent(): void
        }

        class TileTests [[TileTests.html]] {
            +testInfoTile(): void
            +testCloneTiles(): Collection<DynamicTest>
        }

        class ControllerTests [[ControllerTests.html]] {
            +setup(): void
            +testInvalidMoveIntoWall(): Collection<DynamicTest>
            +testValidMoveIntoFreeTile(): Collection<DynamicTest>
            +testAgentLoop(): void
        }

        class Controller [[Controller.html]] {
            +Controller(GameModel)
            +model(): GameModel
            +tryMoveInDirection(Direction): void
        }

    }

    center footer UMLDoclet 2.0.14, PlantUML 1.2021.9
@enduml

PlantUML version 1.2021.9(Sun Jul 25 22:13:56 NZST 2021)
(APACHE source distribution)
Java Runtime: OpenJDK Runtime Environment
JVM: OpenJDK 64-Bit Server VM
Default Encoding: UTF-8
Language: en
Country: NZ
--></g></svg>