<?xml version="1.0" encoding="UTF-8" standalone="no"?><svg xmlns="http://www.w3.org/2000/svg" xmlns:xlink="http://www.w3.org/1999/xlink" contentScriptType="application/ecmascript" contentStyleType="text/css" height="156px" preserveAspectRatio="none" style="width:315px;height:156px;background:#FFFFFF;" version="1.1" viewBox="0 0 315 156" width="315px" zoomAndPan="magnify"><defs><filter height="300%" id="f1rc77luj9auwr" width="300%" x="-1" y="-1"><feGaussianBlur result="blurOut" stdDeviation="2.0"/><feColorMatrix in="blurOut" result="blurOut2" type="matrix" values="0 0 0 0 0 0 0 0 0 0 0 0 0 0 0 0 0 0 .4 0"/><feOffset dx="4.0" dy="4.0" in="blurOut2" result="blurOut3"/><feBlend in="SourceGraphic" in2="blurOut3" mode="normal"/></filter></defs><g><!--MD5=[1e9f5524b8500ecfd20821bf531ebd70]
class nz.ac.wgtn.swen225.lc.domain.PositionTests--><a href="PositionTests.html" target="_top" title="PositionTests.html" xlink:actuate="onRequest" xlink:href="PositionTests.html" xlink:show="new" xlink:title="PositionTests.html" xlink:type="simple"><rect codeLine="5" fill="#FEFECE" filter="url(#f1rc77luj9auwr)" height="123.9961" id="nz.ac.wgtn.swen225.lc.domain.PositionTests" style="stroke:#A80036;stroke-width:1.5;" width="294" x="7" y="7"/><ellipse cx="75.25" cy="26.1328" fill="#ADD1B2" rx="11" ry="11" style="stroke:#A80036;stroke-width:1.0;"/><path d="M77.7231,32.2759 Q77.1421,32.5747 76.5029,32.7241 Q75.8638,32.8735 75.1582,32.8735 Q72.6514,32.8735 71.3315,31.2217 Q70.0117,29.5698 70.0117,26.4487 Q70.0117,23.3193 71.3315,21.6675 Q72.6514,20.0156 75.1582,20.0156 Q75.8638,20.0156 76.5112,20.165 Q77.1587,20.3145 77.7231,20.6133 L77.7231,23.3359 Q77.0923,22.7549 76.4988,22.4851 Q75.9053,22.2153 75.2744,22.2153 Q73.9297,22.2153 73.2449,23.282 Q72.5601,24.3486 72.5601,26.4487 Q72.5601,28.5405 73.2449,29.6072 Q73.9297,30.6738 75.2744,30.6738 Q75.9053,30.6738 76.4988,30.4041 Q77.0923,30.1343 77.7231,29.5532 Z " fill="#000000"/><text fill="#000000" font-family="sans-serif" font-size="14" lengthAdjust="spacing" textLength="91" x="124.75" y="25.5352">PositionTests</text><text fill="#000000" font-family="sans-serif" font-size="10" lengthAdjust="spacing" textLength="149" x="95.75" y="38.1563">nz.ac.wgtn.swen225.lc.domain</text><line style="stroke:#A80036;stroke-width:1.5;" x1="8" x2="300" y1="45.2656" y2="45.2656"/><ellipse cx="18" cy="56.2656" fill="#84BE84" rx="3" ry="3" style="stroke:#038048;stroke-width:1.0;"/><text fill="#000000" font-family="sans-serif" font-size="11" lengthAdjust="spacing" textLength="135" x="27" y="59.9004">testAddition(String): void</text><ellipse cx="18" cy="69.2207" fill="#84BE84" rx="3" ry="3" style="stroke:#038048;stroke-width:1.0;"/><text fill="#000000" font-family="sans-serif" font-size="11" lengthAdjust="spacing" textLength="151" x="27" y="72.8555">testSubtraction(String): void</text><ellipse cx="18" cy="82.1758" fill="#84BE84" rx="3" ry="3" style="stroke:#038048;stroke-width:1.0;"/><text fill="#000000" font-family="sans-serif" font-size="11" lengthAdjust="spacing" textLength="135" x="27" y="85.8105">testToString(String): void</text><ellipse cx="18" cy="95.1309" fill="#84BE84" rx="3" ry="3" style="stroke:#038048;stroke-width:1.0;"/><text fill="#000000" font-family="sans-serif" font-size="11" lengthAdjust="spacing" textLength="268" x="27" y="98.7656">testDistanceFunction(): Collection&lt;DynamicTest&gt;</text><ellipse cx="18" cy="108.0859" fill="#84BE84" rx="3" ry="3" style="stroke:#038048;stroke-width:1.0;"/><text fill="#000000" font-family="sans-serif" font-size="11" lengthAdjust="spacing" textLength="124" x="27" y="111.7207">testGreaterThan(): void</text><ellipse cx="18" cy="121.041" fill="#84BE84" rx="3" ry="3" style="stroke:#038048;stroke-width:1.0;"/><text fill="#000000" font-family="sans-serif" font-size="11" lengthAdjust="spacing" textLength="119" x="27" y="124.6758">testLesserThan(): void</text></a><text fill="#888888" font-family="sans-serif" font-size="10" lengthAdjust="spacing" textLength="182" x="63" y="147.6641">UMLDoclet 2.0.14, PlantUML 1.2021.9</text><!--MD5=[9cb90025271dbdcf98a042b3d64d402b]
@startuml
    set namespaceSeparator none
    hide empty fields
    hide empty methods

    class "<size:14>PositionTests\n<size:10>nz.ac.wgtn.swen225.lc.domain" as nz.ac.wgtn.swen225.lc.domain.PositionTests [[PositionTests.html]] {
        +testAddition(String): void
        +testSubtraction(String): void
        +testToString(String): void
        +testDistanceFunction(): Collection<DynamicTest>
        +testGreaterThan(): void
        +testLesserThan(): void
    }

    center footer UMLDoclet 2.0.14, PlantUML 1.2021.9
@enduml

PlantUML version 1.2021.9(Sun Jul 25 22:13:56 NZST 2021)
(APACHE source distribution)
Java Runtime: OpenJDK Runtime Environment
JVM: OpenJDK 64-Bit Server VM
Default Encoding: UTF-8
Language: en
Country: NZ
--></g></svg>