<?xml version="1.0" encoding="UTF-8" standalone="no"?><svg xmlns="http://www.w3.org/2000/svg" xmlns:xlink="http://www.w3.org/1999/xlink" contentScriptType="application/ecmascript" contentStyleType="text/css" height="255px" preserveAspectRatio="none" style="width:288px;height:255px;background:#FFFFFF;" version="1.1" viewBox="0 0 288 255" width="288px" zoomAndPan="magnify"><defs><filter height="300%" id="fn3u05vtscrtq" width="300%" x="-1" y="-1"><feGaussianBlur result="blurOut" stdDeviation="2.0"/><feColorMatrix in="blurOut" result="blurOut2" type="matrix" values="0 0 0 0 0 0 0 0 0 0 0 0 0 0 0 0 0 0 .4 0"/><feOffset dx="4.0" dy="4.0" in="blurOut2" result="blurOut3"/><feBlend in="SourceGraphic" in2="blurOut3" mode="normal"/></filter></defs><g><!--MD5=[40bdf1bac9ff39af50d6360a6957aa28]
class nz.ac.wgtn.swen225.lc.recorder.DummyEnemy--><a href="DummyEnemy.html" target="_top" title="DummyEnemy.html" xlink:actuate="onRequest" xlink:href="DummyEnemy.html" xlink:show="new" xlink:title="DummyEnemy.html" xlink:type="simple"><rect codeLine="5" fill="#FEFECE" filter="url(#fn3u05vtscrtq)" height="98.0859" id="nz.ac.wgtn.swen225.lc.recorder.DummyEnemy" style="stroke:#A80036;stroke-width:1.5;" width="224" x="28.5" y="126.22"/><ellipse cx="60.6" cy="145.3528" fill="#ADD1B2" rx="11" ry="11" style="stroke:#A80036;stroke-width:1.0;"/><path d="M63.0731,151.4959 Q62.4921,151.7947 61.8529,151.9441 Q61.2138,152.0935 60.5082,152.0935 Q58.0014,152.0935 56.6815,150.4417 Q55.3617,148.7898 55.3617,145.6687 Q55.3617,142.5393 56.6815,140.8875 Q58.0014,139.2356 60.5082,139.2356 Q61.2138,139.2356 61.8612,139.385 Q62.5087,139.5345 63.0731,139.8333 L63.0731,142.5559 Q62.4423,141.9749 61.8488,141.7051 Q61.2553,141.4353 60.6244,141.4353 Q59.2797,141.4353 58.5949,142.502 Q57.9101,143.5686 57.9101,145.6687 Q57.9101,147.7605 58.5949,148.8272 Q59.2797,149.8938 60.6244,149.8938 Q61.2553,149.8938 61.8488,149.6241 Q62.4423,149.3543 63.0731,148.7732 Z " fill="#000000"/><text fill="#000000" font-family="sans-serif" font-size="14" lengthAdjust="spacing" textLength="97" x="106.9" y="144.7552">DummyEnemy</text><text fill="#000000" font-family="sans-serif" font-size="10" lengthAdjust="spacing" textLength="154" x="78.4" y="157.3763">nz.ac.wgtn.swen225.lc.recorder</text><line style="stroke:#A80036;stroke-width:1.5;" x1="29.5" x2="251.5" y1="164.4856" y2="164.4856"/><ellipse cx="39.5" cy="175.4856" fill="#84BE84" rx="3" ry="3" style="stroke:#038048;stroke-width:1.0;"/><text fill="#000000" font-family="sans-serif" font-size="11" lengthAdjust="spacing" textLength="127" x="48.5" y="179.1204">DummyEnemy(Position)</text><ellipse cx="39.5" cy="188.4407" fill="#84BE84" rx="3" ry="3" style="stroke:#038048;stroke-width:1.0;"/><text fill="#000000" font-family="sans-serif" font-size="11" lengthAdjust="spacing" textLength="182" x="48.5" y="192.0755">DummyEnemy(Position, Direction)</text><ellipse cx="39.5" cy="201.3958" fill="#84BE84" rx="3" ry="3" style="stroke:#038048;stroke-width:1.0;"/><text fill="#000000" font-family="sans-serif" font-size="11" lengthAdjust="spacing" textLength="198" x="48.5" y="205.0305">DummyEnemy(PositionAndDirection)</text><ellipse cx="39.5" cy="214.3509" fill="#84BE84" rx="3" ry="3" style="stroke:#038048;stroke-width:1.0;"/><text fill="#000000" font-family="sans-serif" font-size="11" lengthAdjust="spacing" textLength="139" x="48.5" y="217.9856">onTurn(GameModel): void</text></a><!--MD5=[bf311294ad2c08ca8e25260e7b1cffd0]
class nz.ac.wgtn.swen225.lc.domain.world.abs.agents.Agent--><a href="../domain/world/abs/agents/Agent.html" target="_top" title="../domain/world/abs/agents/Agent.html" xlink:actuate="onRequest" xlink:href="../domain/world/abs/agents/Agent.html" xlink:show="new" xlink:title="../domain/world/abs/agents/Agent.html" xlink:type="simple"><rect codeLine="12" fill="#FEFECE" filter="url(#fn3u05vtscrtq)" height="59.2207" id="nz.ac.wgtn.swen225.lc.domain.world.abs.agents.Agent" style="stroke:#A80036;stroke-width:1.5;" width="267" x="7" y="7"/><ellipse cx="22" cy="26.1328" fill="#A9DCDF" rx="11" ry="11" style="stroke:#A80036;stroke-width:1.0;"/><path d="M21.8633,21.481 L20.7095,26.5527 L23.0254,26.5527 Z M20.3691,19.2397 L23.3657,19.2397 L26.7109,31.6328 L24.2622,31.6328 L23.4985,28.5698 L20.2197,28.5698 L19.4727,31.6328 L17.0239,31.6328 Z " fill="#000000"/><text fill="#000000" font-family="sans-serif" font-size="14" font-style="italic" lengthAdjust="spacing" textLength="41" x="133" y="25.5352">Agent</text><text fill="#000000" font-family="sans-serif" font-size="10" font-style="italic" lengthAdjust="spacing" textLength="235" x="36" y="38.1563">nz.ac.wgtn.swen225.lc.domain.world.abs.agents</text><line style="stroke:#A80036;stroke-width:1.5;" x1="8" x2="273" y1="45.2656" y2="45.2656"/><ellipse cx="18" cy="56.2656" fill="#84BE84" rx="3" ry="3" style="stroke:#038048;stroke-width:1.0;"/><text fill="#000000" font-family="sans-serif" font-size="11" font-style="italic" lengthAdjust="spacing" textLength="139" x="27" y="59.9004">onTurn(GameModel): void</text></a><!--MD5=[5a922f64329afc7eb0975be6068a559b]
reverse link nz.ac.wgtn.swen225.lc.domain.world.abs.agents.Agent to nz.ac.wgtn.swen225.lc.recorder.DummyEnemy--><path codeLine="16" d="M140.5,87.73 C140.5,100.21 140.5,113.57 140.5,125.97 " fill="none" id="nz.ac.wgtn.swen225.lc.domain.world.abs.agents.Agent-backto-nz.ac.wgtn.swen225.lc.recorder.DummyEnemy" style="stroke:#A80036;stroke-width:1.0;"/><polygon fill="none" points="133.5,88.11,140.5,68.11,147.5,88.11,133.5,88.11" style="stroke:#A80036;stroke-width:1.0;"/><text fill="#888888" font-family="sans-serif" font-size="10" lengthAdjust="spacing" textLength="182" x="46.5" y="246.9739">UMLDoclet 2.0.14, PlantUML 1.2021.9</text><!--MD5=[9daae2c8d322612a09d2d4d6edfec16d]
@startuml
    set namespaceSeparator none
    hide empty fields
    hide empty methods

    class "<size:14>DummyEnemy\n<size:10>nz.ac.wgtn.swen225.lc.recorder" as nz.ac.wgtn.swen225.lc.recorder.DummyEnemy [[DummyEnemy.html]] {
        +DummyEnemy(Position)
        +DummyEnemy(Position, Direction)
        +DummyEnemy(PositionAndDirection)
        +onTurn(GameModel): void
    }

    abstract class "<size:14>Agent\n<size:10>nz.ac.wgtn.swen225.lc.domain.world.abs.agents" as nz.ac.wgtn.swen225.lc.domain.world.abs.agents.Agent [[../domain/world/abs/agents/Agent.html]] {
        {abstract} +onTurn(GameModel): void
    }

    nz.ac.wgtn.swen225.lc.domain.world.abs.agents.Agent <|- - nz.ac.wgtn.swen225.lc.recorder.DummyEnemy

    center footer UMLDoclet 2.0.14, PlantUML 1.2021.9
@enduml

PlantUML version 1.2021.9(Sun Jul 25 22:13:56 NZST 2021)
(APACHE source distribution)
Java Runtime: OpenJDK Runtime Environment
JVM: OpenJDK 64-Bit Server VM
Default Encoding: UTF-8
Language: en
Country: NZ
--></g></svg>