<?xml version="1.0" encoding="UTF-8" standalone="no"?><svg xmlns="http://www.w3.org/2000/svg" xmlns:xlink="http://www.w3.org/1999/xlink" contentScriptType="application/ecmascript" contentStyleType="text/css" height="593px" preserveAspectRatio="none" style="width:1084px;height:593px;background:#FFFFFF;" version="1.1" viewBox="0 0 1084 593" width="1084px" zoomAndPan="magnify"><defs><filter height="300%" id="f140qlf1lax492" width="300%" x="-1" y="-1"><feGaussianBlur result="blurOut" stdDeviation="2.0"/><feColorMatrix in="blurOut" result="blurOut2" type="matrix" values="0 0 0 0 0 0 0 0 0 0 0 0 0 0 0 0 0 0 .4 0"/><feOffset dx="4.0" dy="4.0" in="blurOut2" result="blurOut3"/><feBlend in="SourceGraphic" in2="blurOut3" mode="normal"/></filter></defs><g><!--MD5=[52540deb13144cb2b9caea8cc0bdbe1f]
cluster nz.ac.wgtn.swen225.lc.recorder--><polygon fill="#FFFFFF" filter="url(#f140qlf1lax492)" points="16,176.86,240,176.86,247,199.3483,1067,199.3483,1067,569.28,16,569.28,16,176.86" style="stroke:#000000;stroke-width:1.5;"/><line style="stroke:#000000;stroke-width:1.5;" x1="16" x2="247" y1="199.3483" y2="199.3483"/><text fill="#000000" font-family="sans-serif" font-size="14" font-weight="bold" lengthAdjust="spacing" textLength="218" x="20" y="192.3952">nz.ac.wgtn.swen225.lc.recorder</text><!--MD5=[6a39a39c47fb706f08052322cf4a8af1]
cluster java.beans--><polygon fill="#FFFFFF" filter="url(#f140qlf1lax492)" points="16,18.95,96,18.95,103,41.4383,314,41.4383,314,130.91,16,130.91,16,18.95" style="stroke:#000000;stroke-width:1.5;"/><line style="stroke:#000000;stroke-width:1.5;" x1="16" x2="103" y1="41.4383" y2="41.4383"/><text fill="#000000" font-family="sans-serif" font-size="14" font-weight="bold" lengthAdjust="spacing" textLength="74" x="20" y="34.4852">java.beans</text><!--MD5=[89413922d0abce7dd209c3bfa29444de]
cluster nz.ac.wgtn.swen225.lc.domain.world.abs.agents--><polygon fill="#FFFFFF" filter="url(#f140qlf1lax492)" points="342,6,684,6,691,28.4883,694,28.4883,694,143.86,342,143.86,342,6" style="stroke:#000000;stroke-width:1.5;"/><line style="stroke:#000000;stroke-width:1.5;" x1="342" x2="691" y1="28.4883" y2="28.4883"/><text fill="#000000" font-family="sans-serif" font-size="14" font-weight="bold" lengthAdjust="spacing" textLength="336" x="346" y="21.5352">nz.ac.wgtn.swen225.lc.domain.world.abs.agents</text><!--MD5=[9a41371656f34a0556b7f48094acf718]
class nz.ac.wgtn.swen225.lc.recorder.RecorderTests--><a href="RecorderTests.html" target="_top" title="RecorderTests.html" xlink:actuate="onRequest" xlink:href="RecorderTests.html" xlink:show="new" xlink:title="RecorderTests.html" xlink:type="simple"><rect codeLine="3" fill="#FEFECE" filter="url(#f140qlf1lax492)" height="86.8652" id="nz.ac.wgtn.swen225.lc.recorder.RecorderTests" style="stroke:#A80036;stroke-width:1.5;" width="178" x="592" y="224.82"/><ellipse cx="634.9" cy="240.82" fill="#ADD1B2" rx="11" ry="11" style="stroke:#A80036;stroke-width:1.0;"/><path d="M637.3731,246.9631 Q636.7921,247.2619 636.1529,247.4113 Q635.5138,247.5607 634.8082,247.5607 Q632.3014,247.5607 630.9815,245.9089 Q629.6617,244.257 629.6617,241.1359 Q629.6617,238.0065 630.9815,236.3547 Q632.3014,234.7028 634.8082,234.7028 Q635.5138,234.7028 636.1612,234.8522 Q636.8087,235.0016 637.3731,235.3005 L637.3731,238.0231 Q636.7423,237.4421 636.1488,237.1723 Q635.5553,236.9025 634.9244,236.9025 Q633.5797,236.9025 632.8949,237.9692 Q632.2101,239.0358 632.2101,241.1359 Q632.2101,243.2277 632.8949,244.2944 Q633.5797,245.361 634.9244,245.361 Q635.5553,245.361 636.1488,245.0912 Q636.7423,244.8215 637.3731,244.2404 Z " fill="#000000"/><text fill="#000000" font-family="sans-serif" font-size="12" lengthAdjust="spacing" textLength="84" x="655.1" y="245.3552">RecorderTests</text><line style="stroke:#A80036;stroke-width:1.5;" x1="593" x2="769" y1="256.82" y2="256.82"/><line style="stroke:#A80036;stroke-width:1.5;" x1="593" x2="769" y1="264.82" y2="264.82"/><ellipse cx="603" cy="275.82" fill="#84BE84" rx="3" ry="3" style="stroke:#038048;stroke-width:1.0;"/><text fill="#000000" font-family="sans-serif" font-size="11" lengthAdjust="spacing" textLength="140" x="612" y="279.4548">doMoves(Controller): void</text><ellipse cx="603" cy="288.7751" fill="#84BE84" rx="3" ry="3" style="stroke:#038048;stroke-width:1.0;"/><text fill="#000000" font-family="sans-serif" font-size="11" lengthAdjust="spacing" text-decoration="underline" textLength="117" x="612" y="292.4098">createReplay(): Replay</text><ellipse cx="603" cy="301.7302" fill="#84BE84" rx="3" ry="3" style="stroke:#038048;stroke-width:1.0;"/><text fill="#000000" font-family="sans-serif" font-size="11" lengthAdjust="spacing" text-decoration="underline" textLength="152" x="612" y="305.3649">createSimpleReplay(): Replay</text></a><!--MD5=[9dc795ca8d2b9bfa0842f62df34c7352]
class nz.ac.wgtn.swen225.lc.recorder.Recorder--><a href="Recorder.html" target="_top" title="Recorder.html" xlink:actuate="onRequest" xlink:href="Recorder.html" xlink:show="new" xlink:title="Recorder.html" xlink:type="simple"><rect codeLine="9" fill="#FEFECE" filter="url(#f140qlf1lax492)" height="112.7754" id="nz.ac.wgtn.swen225.lc.recorder.Recorder" style="stroke:#A80036;stroke-width:1.5;" width="267" x="31.5" y="211.86"/><ellipse cx="134.25" cy="227.86" fill="#ADD1B2" rx="11" ry="11" style="stroke:#A80036;stroke-width:1.0;"/><path d="M136.7231,234.0031 Q136.1421,234.3019 135.5029,234.4513 Q134.8638,234.6007 134.1582,234.6007 Q131.6514,234.6007 130.3315,232.9489 Q129.0117,231.297 129.0117,228.1759 Q129.0117,225.0465 130.3315,223.3947 Q131.6514,221.7428 134.1582,221.7428 Q134.8638,221.7428 135.5112,221.8922 Q136.1587,222.0416 136.7231,222.3405 L136.7231,225.0631 Q136.0923,224.4821 135.4988,224.2123 Q134.9053,223.9425 134.2744,223.9425 Q132.9297,223.9425 132.2449,225.0092 Q131.5601,226.0758 131.5601,228.1759 Q131.5601,230.2677 132.2449,231.3344 Q132.9297,232.401 134.2744,232.401 Q134.9053,232.401 135.4988,232.1312 Q136.0923,231.8615 136.7231,231.2804 Z " fill="#000000"/><text fill="#000000" font-family="sans-serif" font-size="12" lengthAdjust="spacing" textLength="53" x="154.75" y="232.3952">Recorder</text><line style="stroke:#A80036;stroke-width:1.5;" x1="32.5" x2="297.5" y1="243.86" y2="243.86"/><line style="stroke:#A80036;stroke-width:1.5;" x1="32.5" x2="297.5" y1="251.86" y2="251.86"/><ellipse cx="42.5" cy="262.86" fill="#84BE84" rx="3" ry="3" style="stroke:#038048;stroke-width:1.0;"/><text fill="#000000" font-family="sans-serif" font-size="11" lengthAdjust="spacing" textLength="119" x="51.5" y="266.4948">Recorder(GameModel)</text><ellipse cx="42.5" cy="275.8151" fill="#84BE84" rx="3" ry="3" style="stroke:#038048;stroke-width:1.0;"/><text fill="#000000" font-family="sans-serif" font-size="11" lengthAdjust="spacing" textLength="241" x="51.5" y="279.4498">propertyChange(PropertyChangeEvent): void</text><ellipse cx="42.5" cy="288.7702" fill="#84BE84" rx="3" ry="3" style="stroke:#038048;stroke-width:1.0;"/><text fill="#000000" font-family="sans-serif" font-size="11" lengthAdjust="spacing" textLength="207" x="51.5" y="292.4049">handleChange(int, String, Object): void</text><ellipse cx="42.5" cy="301.7252" fill="#84BE84" rx="3" ry="3" style="stroke:#038048;stroke-width:1.0;"/><text fill="#000000" font-family="sans-serif" font-size="11" lengthAdjust="spacing" textLength="121" x="51.5" y="305.36">getReplayPath(): String</text><ellipse cx="42.5" cy="314.6803" fill="#84BE84" rx="3" ry="3" style="stroke:#038048;stroke-width:1.0;"/><text fill="#000000" font-family="sans-serif" font-size="11" lengthAdjust="spacing" textLength="96" x="51.5" y="318.3151">saveReplay(): void</text></a><!--MD5=[55ab31fb011e3cd9e52d9160488de9fc]
class nz.ac.wgtn.swen225.lc.recorder.Replay--><a href="Replay.html" target="_top" title="Replay.html" xlink:actuate="onRequest" xlink:href="Replay.html" xlink:show="new" xlink:title="Replay.html" xlink:type="simple"><rect codeLine="17" fill="#FEFECE" filter="url(#f140qlf1lax492)" height="73.9102" id="nz.ac.wgtn.swen225.lc.recorder.Replay" style="stroke:#A80036;stroke-width:1.5;" width="321" x="31.5" y="440.5"/><ellipse cx="168.25" cy="456.5" fill="#ADD1B2" rx="11" ry="11" style="stroke:#A80036;stroke-width:1.0;"/><path d="M170.7231,462.6431 Q170.1421,462.9419 169.5029,463.0913 Q168.8638,463.2407 168.1582,463.2407 Q165.6514,463.2407 164.3315,461.5889 Q163.0117,459.937 163.0117,456.8159 Q163.0117,453.6865 164.3315,452.0347 Q165.6514,450.3828 168.1582,450.3828 Q168.8638,450.3828 169.5112,450.5322 Q170.1587,450.6816 170.7231,450.9805 L170.7231,453.7031 Q170.0923,453.1221 169.4988,452.8523 Q168.9053,452.5825 168.2744,452.5825 Q166.9297,452.5825 166.2449,453.6492 Q165.5601,454.7158 165.5601,456.8159 Q165.5601,458.9077 166.2449,459.9744 Q166.9297,461.041 168.2744,461.041 Q168.9053,461.041 169.4988,460.7712 Q170.0923,460.5015 170.7231,459.9204 Z " fill="#000000"/><text fill="#000000" font-family="sans-serif" font-size="12" lengthAdjust="spacing" textLength="39" x="188.75" y="461.0352">Replay</text><line style="stroke:#A80036;stroke-width:1.5;" x1="32.5" x2="351.5" y1="472.5" y2="472.5"/><line style="stroke:#A80036;stroke-width:1.5;" x1="32.5" x2="351.5" y1="480.5" y2="480.5"/><ellipse cx="42.5" cy="491.5" fill="#84BE84" rx="3" ry="3" style="stroke:#038048;stroke-width:1.0;"/><text fill="#000000" font-family="sans-serif" font-size="11" lengthAdjust="spacing" textLength="291" x="51.5" y="495.1348">Replay(TreeMap&lt;Integer, HashMap&lt;String, Object&gt;&gt;)</text><ellipse cx="42.5" cy="504.4551" fill="#84BE84" rx="3" ry="3" style="stroke:#038048;stroke-width:1.0;"/><text fill="#000000" font-family="sans-serif" font-size="11" lengthAdjust="spacing" textLength="295" x="51.5" y="508.0898">replay(): TreeMap&lt;Integer, HashMap&lt;String, Object&gt;&gt;</text></a><!--MD5=[0abfd1d2a2265f830e9ee0fee14901b4]
class nz.ac.wgtn.swen225.lc.recorder.PositionAndDirection--><a href="PositionAndDirection.html" target="_top" title="PositionAndDirection.html" xlink:actuate="onRequest" xlink:href="PositionAndDirection.html" xlink:show="new" xlink:title="PositionAndDirection.html" xlink:type="simple"><rect codeLine="22" fill="#FEFECE" filter="url(#f140qlf1lax492)" height="86.8652" id="nz.ac.wgtn.swen225.lc.recorder.PositionAndDirection" style="stroke:#A80036;stroke-width:1.5;" width="246" x="805" y="224.82"/><ellipse cx="864.75" cy="240.82" fill="#ADD1B2" rx="11" ry="11" style="stroke:#A80036;stroke-width:1.0;"/><path d="M867.2231,246.9631 Q866.6421,247.2619 866.0029,247.4113 Q865.3638,247.5607 864.6582,247.5607 Q862.1514,247.5607 860.8315,245.9089 Q859.5117,244.257 859.5117,241.1359 Q859.5117,238.0065 860.8315,236.3547 Q862.1514,234.7028 864.6582,234.7028 Q865.3638,234.7028 866.0112,234.8522 Q866.6587,235.0016 867.2231,235.3005 L867.2231,238.0231 Q866.5923,237.4421 865.9988,237.1723 Q865.4053,236.9025 864.7744,236.9025 Q863.4297,236.9025 862.7449,237.9692 Q862.0601,239.0358 862.0601,241.1359 Q862.0601,243.2277 862.7449,244.2944 Q863.4297,245.361 864.7744,245.361 Q865.4053,245.361 865.9988,245.0912 Q866.5923,244.8215 867.2231,244.2404 Z " fill="#000000"/><text fill="#000000" font-family="sans-serif" font-size="12" lengthAdjust="spacing" textLength="118" x="885.25" y="245.3552">PositionAndDirection</text><line style="stroke:#A80036;stroke-width:1.5;" x1="806" x2="1050" y1="256.82" y2="256.82"/><line style="stroke:#A80036;stroke-width:1.5;" x1="806" x2="1050" y1="264.82" y2="264.82"/><ellipse cx="816" cy="275.82" fill="#84BE84" rx="3" ry="3" style="stroke:#038048;stroke-width:1.0;"/><text fill="#000000" font-family="sans-serif" font-size="11" lengthAdjust="spacing" textLength="220" x="825" y="279.4548">PositionAndDirection(Position, Direction)</text><ellipse cx="816" cy="288.7751" fill="#84BE84" rx="3" ry="3" style="stroke:#038048;stroke-width:1.0;"/><text fill="#000000" font-family="sans-serif" font-size="11" lengthAdjust="spacing" textLength="101" x="825" y="292.4098">position(): Position</text><ellipse cx="816" cy="301.7302" fill="#84BE84" rx="3" ry="3" style="stroke:#038048;stroke-width:1.0;"/><text fill="#000000" font-family="sans-serif" font-size="11" lengthAdjust="spacing" textLength="111" x="825" y="305.3649">direction(): Direction</text></a><!--MD5=[3fe396588f24ae27dc931b57bc7e75d4]
class nz.ac.wgtn.swen225.lc.recorder.ReplayPlayer--><a href="ReplayPlayer.html" target="_top" title="ReplayPlayer.html" xlink:actuate="onRequest" xlink:href="ReplayPlayer.html" xlink:show="new" xlink:title="ReplayPlayer.html" xlink:type="simple"><rect codeLine="28" fill="#FEFECE" filter="url(#f140qlf1lax492)" height="151.6406" id="nz.ac.wgtn.swen225.lc.recorder.ReplayPlayer" style="stroke:#A80036;stroke-width:1.5;" width="417" x="409.5" y="401.64"/><ellipse cx="576.75" cy="417.64" fill="#ADD1B2" rx="11" ry="11" style="stroke:#A80036;stroke-width:1.0;"/><path d="M579.2231,423.7831 Q578.6421,424.0819 578.0029,424.2313 Q577.3638,424.3807 576.6582,424.3807 Q574.1514,424.3807 572.8315,422.7289 Q571.5117,421.077 571.5117,417.9559 Q571.5117,414.8265 572.8315,413.1747 Q574.1514,411.5228 576.6582,411.5228 Q577.3638,411.5228 578.0112,411.6722 Q578.6587,411.8216 579.2231,412.1205 L579.2231,414.8431 Q578.5923,414.2621 577.9988,413.9923 Q577.4053,413.7225 576.7744,413.7225 Q575.4297,413.7225 574.7449,414.7892 Q574.0601,415.8558 574.0601,417.9559 Q574.0601,420.0477 574.7449,421.1144 Q575.4297,422.181 576.7744,422.181 Q577.4053,422.181 577.9988,421.9112 Q578.5923,421.6415 579.2231,421.0604 Z " fill="#000000"/><text fill="#000000" font-family="sans-serif" font-size="12" lengthAdjust="spacing" textLength="74" x="597.25" y="422.1752">ReplayPlayer</text><line style="stroke:#A80036;stroke-width:1.5;" x1="410.5" x2="825.5" y1="433.64" y2="433.64"/><line style="stroke:#A80036;stroke-width:1.5;" x1="410.5" x2="825.5" y1="441.64" y2="441.64"/><ellipse cx="420.5" cy="452.64" fill="#84BE84" rx="3" ry="3" style="stroke:#038048;stroke-width:1.0;"/><text fill="#000000" font-family="sans-serif" font-size="11" lengthAdjust="spacing" textLength="391" x="429.5" y="456.2748">ReplayPlayer(GameModel, TreeMap&lt;Integer, HashMap&lt;String, Object&gt;&gt;)</text><ellipse cx="420.5" cy="465.5951" fill="#84BE84" rx="3" ry="3" style="stroke:#038048;stroke-width:1.0;"/><text fill="#000000" font-family="sans-serif" font-size="11" lengthAdjust="spacing" textLength="93" x="429.5" y="469.2298">setTime(int): void</text><ellipse cx="420.5" cy="478.5502" fill="#84BE84" rx="3" ry="3" style="stroke:#038048;stroke-width:1.0;"/><text fill="#000000" font-family="sans-serif" font-size="11" lengthAdjust="spacing" textLength="83" x="429.5" y="482.1849">realTime(): void</text><ellipse cx="420.5" cy="491.5052" fill="#84BE84" rx="3" ry="3" style="stroke:#038048;stroke-width:1.0;"/><text fill="#000000" font-family="sans-serif" font-size="11" lengthAdjust="spacing" textLength="95" x="429.5" y="495.14">stepByStep(): void</text><ellipse cx="420.5" cy="504.4603" fill="#84BE84" rx="3" ry="3" style="stroke:#038048;stroke-width:1.0;"/><text fill="#000000" font-family="sans-serif" font-size="11" lengthAdjust="spacing" textLength="59" x="429.5" y="508.0951">play(): void</text><ellipse cx="420.5" cy="517.4154" fill="#84BE84" rx="3" ry="3" style="stroke:#038048;stroke-width:1.0;"/><text fill="#000000" font-family="sans-serif" font-size="11" lengthAdjust="spacing" textLength="69" x="429.5" y="521.0502">pause(): void</text><ellipse cx="420.5" cy="530.3705" fill="#84BE84" rx="3" ry="3" style="stroke:#038048;stroke-width:1.0;"/><text fill="#000000" font-family="sans-serif" font-size="11" lengthAdjust="spacing" textLength="109" x="429.5" y="534.0052">hasEnded(): boolean</text><ellipse cx="420.5" cy="543.3255" fill="#84BE84" rx="3" ry="3" style="stroke:#038048;stroke-width:1.0;"/><text fill="#000000" font-family="sans-serif" font-size="11" lengthAdjust="spacing" text-decoration="underline" textLength="171" x="429.5" y="546.9603">findValidReplay(String): boolean</text></a><!--MD5=[40bdf1bac9ff39af50d6360a6957aa28]
class nz.ac.wgtn.swen225.lc.recorder.DummyEnemy--><a href="DummyEnemy.html" target="_top" title="DummyEnemy.html" xlink:actuate="onRequest" xlink:href="DummyEnemy.html" xlink:show="new" xlink:title="DummyEnemy.html" xlink:type="simple"><rect codeLine="39" fill="#FEFECE" filter="url(#f140qlf1lax492)" height="99.8203" id="nz.ac.wgtn.swen225.lc.recorder.DummyEnemy" style="stroke:#A80036;stroke-width:1.5;" width="224" x="333" y="218.34"/><ellipse cx="399.75" cy="234.34" fill="#ADD1B2" rx="11" ry="11" style="stroke:#A80036;stroke-width:1.0;"/><path d="M402.2231,240.4831 Q401.6421,240.7819 401.0029,240.9313 Q400.3638,241.0807 399.6582,241.0807 Q397.1514,241.0807 395.8315,239.4289 Q394.5117,237.777 394.5117,234.6559 Q394.5117,231.5265 395.8315,229.8747 Q397.1514,228.2228 399.6582,228.2228 Q400.3638,228.2228 401.0112,228.3722 Q401.6587,228.5216 402.2231,228.8205 L402.2231,231.5431 Q401.5923,230.9621 400.9988,230.6923 Q400.4053,230.4225 399.7744,230.4225 Q398.4297,230.4225 397.7449,231.4892 Q397.0601,232.5558 397.0601,234.6559 Q397.0601,236.7477 397.7449,237.8144 Q398.4297,238.881 399.7744,238.881 Q400.4053,238.881 400.9988,238.6112 Q401.5923,238.3415 402.2231,237.7604 Z " fill="#000000"/><text fill="#000000" font-family="sans-serif" font-size="12" lengthAdjust="spacing" textLength="82" x="420.25" y="238.8752">DummyEnemy</text><line style="stroke:#A80036;stroke-width:1.5;" x1="334" x2="556" y1="250.34" y2="250.34"/><line style="stroke:#A80036;stroke-width:1.5;" x1="334" x2="556" y1="258.34" y2="258.34"/><ellipse cx="344" cy="269.34" fill="#84BE84" rx="3" ry="3" style="stroke:#038048;stroke-width:1.0;"/><text fill="#000000" font-family="sans-serif" font-size="11" lengthAdjust="spacing" textLength="127" x="353" y="272.9748">DummyEnemy(Position)</text><ellipse cx="344" cy="282.2951" fill="#84BE84" rx="3" ry="3" style="stroke:#038048;stroke-width:1.0;"/><text fill="#000000" font-family="sans-serif" font-size="11" lengthAdjust="spacing" textLength="182" x="353" y="285.9298">DummyEnemy(Position, Direction)</text><ellipse cx="344" cy="295.2502" fill="#84BE84" rx="3" ry="3" style="stroke:#038048;stroke-width:1.0;"/><text fill="#000000" font-family="sans-serif" font-size="11" lengthAdjust="spacing" textLength="198" x="353" y="298.8849">DummyEnemy(PositionAndDirection)</text><ellipse cx="344" cy="308.2052" fill="#84BE84" rx="3" ry="3" style="stroke:#038048;stroke-width:1.0;"/><text fill="#000000" font-family="sans-serif" font-size="11" lengthAdjust="spacing" textLength="139" x="353" y="311.84">onTurn(GameModel): void</text></a><!--MD5=[aaa86e803c5360a448df60cd3e4f6e64]
class nz.ac.wgtn.swen225.lc.recorder.TileAndLocation--><a href="TileAndLocation.html" target="_top" title="TileAndLocation.html" xlink:actuate="onRequest" xlink:href="TileAndLocation.html" xlink:show="new" xlink:title="TileAndLocation.html" xlink:type="simple"><rect codeLine="46" fill="#FEFECE" filter="url(#f140qlf1lax492)" height="86.8652" id="nz.ac.wgtn.swen225.lc.recorder.TileAndLocation" style="stroke:#A80036;stroke-width:1.5;" width="189" x="861.5" y="434.03"/><ellipse cx="906.25" cy="450.03" fill="#ADD1B2" rx="11" ry="11" style="stroke:#A80036;stroke-width:1.0;"/><path d="M908.7231,456.1731 Q908.1421,456.4719 907.5029,456.6213 Q906.8638,456.7707 906.1582,456.7707 Q903.6514,456.7707 902.3315,455.1189 Q901.0117,453.467 901.0117,450.3459 Q901.0117,447.2165 902.3315,445.5647 Q903.6514,443.9128 906.1582,443.9128 Q906.8638,443.9128 907.5112,444.0622 Q908.1587,444.2116 908.7231,444.5105 L908.7231,447.2331 Q908.0923,446.6521 907.4988,446.3823 Q906.9053,446.1125 906.2744,446.1125 Q904.9297,446.1125 904.2449,447.1792 Q903.5601,448.2458 903.5601,450.3459 Q903.5601,452.4377 904.2449,453.5044 Q904.9297,454.571 906.2744,454.571 Q906.9053,454.571 907.4988,454.3012 Q908.0923,454.0315 908.7231,453.4504 Z " fill="#000000"/><text fill="#000000" font-family="sans-serif" font-size="12" lengthAdjust="spacing" textLength="91" x="926.75" y="454.5652">TileAndLocation</text><line style="stroke:#A80036;stroke-width:1.5;" x1="862.5" x2="1049.5" y1="466.03" y2="466.03"/><line style="stroke:#A80036;stroke-width:1.5;" x1="862.5" x2="1049.5" y1="474.03" y2="474.03"/><ellipse cx="872.5" cy="485.03" fill="#84BE84" rx="3" ry="3" style="stroke:#038048;stroke-width:1.0;"/><text fill="#000000" font-family="sans-serif" font-size="11" lengthAdjust="spacing" textLength="163" x="881.5" y="488.6648">TileAndLocation(Position, Tile)</text><ellipse cx="872.5" cy="497.9851" fill="#84BE84" rx="3" ry="3" style="stroke:#038048;stroke-width:1.0;"/><text fill="#000000" font-family="sans-serif" font-size="11" lengthAdjust="spacing" textLength="101" x="881.5" y="501.6198">position(): Position</text><ellipse cx="872.5" cy="510.9402" fill="#84BE84" rx="3" ry="3" style="stroke:#038048;stroke-width:1.0;"/><text fill="#000000" font-family="sans-serif" font-size="11" lengthAdjust="spacing" textLength="49" x="881.5" y="514.5749">tile(): Tile</text></a><!--MD5=[0d154d630b9a073463cbcbf880061a38]
class java.beans.PropertyChangeListener--><rect codeLine="58" fill="#FEFECE" filter="url(#f140qlf1lax492)" height="60.9551" id="java.beans.PropertyChangeListener" style="stroke:#A80036;stroke-width:1.5;" width="267" x="31.5" y="53.95"/><ellipse cx="92.25" cy="69.95" fill="#B4A7E5" rx="11" ry="11" style="stroke:#A80036;stroke-width:1.0;"/><path d="M88.6777,66.2151 L88.6777,64.0569 L96.0571,64.0569 L96.0571,66.2151 L93.5918,66.2151 L93.5918,74.2918 L96.0571,74.2918 L96.0571,76.45 L88.6777,76.45 L88.6777,74.2918 L91.1431,74.2918 L91.1431,66.2151 Z " fill="#000000"/><text fill="#000000" font-family="sans-serif" font-size="12" font-style="italic" lengthAdjust="spacing" textLength="137" x="112.75" y="74.4852">PropertyChangeListener</text><line style="stroke:#A80036;stroke-width:1.5;" x1="32.5" x2="297.5" y1="85.95" y2="85.95"/><line style="stroke:#A80036;stroke-width:1.5;" x1="32.5" x2="297.5" y1="93.95" y2="93.95"/><ellipse cx="42.5" cy="104.95" fill="#84BE84" rx="3" ry="3" style="stroke:#038048;stroke-width:1.0;"/><text fill="#000000" font-family="sans-serif" font-size="11" font-style="italic" lengthAdjust="spacing" textLength="241" x="51.5" y="108.5848">propertyChange(PropertyChangeEvent): void</text><!--MD5=[bf311294ad2c08ca8e25260e7b1cffd0]
class nz.ac.wgtn.swen225.lc.domain.world.abs.agents.Agent--><a href="../domain/world/abs/agents/Agent.html" target="_top" title="../domain/world/abs/agents/Agent.html" xlink:actuate="onRequest" xlink:href="../domain/world/abs/agents/Agent.html" xlink:show="new" xlink:title="../domain/world/abs/agents/Agent.html" xlink:type="simple"><rect codeLine="64" fill="#FEFECE" filter="url(#f140qlf1lax492)" height="86.8652" id="nz.ac.wgtn.swen225.lc.domain.world.abs.agents.Agent" style="stroke:#A80036;stroke-width:1.5;" width="165" x="362.5" y="41"/><ellipse cx="424.25" cy="57" fill="#A9DCDF" rx="11" ry="11" style="stroke:#A80036;stroke-width:1.0;"/><path d="M424.1133,52.3481 L422.9595,57.4199 L425.2754,57.4199 Z M422.6191,50.1069 L425.6157,50.1069 L428.9609,62.5 L426.5122,62.5 L425.7485,59.437 L422.4697,59.437 L421.7227,62.5 L419.2739,62.5 Z " fill="#000000"/><text fill="#000000" font-family="sans-serif" font-size="12" font-style="italic" lengthAdjust="spacing" textLength="33" x="444.75" y="61.5352">Agent</text><line style="stroke:#A80036;stroke-width:1.5;" x1="363.5" x2="526.5" y1="73" y2="73"/><ellipse cx="373.5" cy="84" rx="3" ry="3" style="stroke:#038048;stroke-width:1.0;fill:none;"/><text fill="#000000" font-family="sans-serif" font-size="11" lengthAdjust="spacing" textLength="93" x="382.5" y="87.6348">position: Position</text><ellipse cx="373.5" cy="96.9551" rx="3" ry="3" style="stroke:#038048;stroke-width:1.0;fill:none;"/><text fill="#000000" font-family="sans-serif" font-size="11" lengthAdjust="spacing" textLength="103" x="382.5" y="100.5898">direction: Direction</text><line style="stroke:#A80036;stroke-width:1.5;" x1="363.5" x2="526.5" y1="106.9102" y2="106.9102"/><ellipse cx="373.5" cy="117.9102" fill="#84BE84" rx="3" ry="3" style="stroke:#038048;stroke-width:1.0;"/><text fill="#000000" font-family="sans-serif" font-size="11" font-style="italic" lengthAdjust="spacing" textLength="139" x="382.5" y="121.5449">onTurn(GameModel): void</text></a><!--MD5=[e1c0b524bf815eb9bf913cbabcfaa33d]
reverse link java.beans.PropertyChangeListener to nz.ac.wgtn.swen225.lc.recorder.Recorder--><path codeLine="52" d="M165,136.29 C165,159.72 165,187.59 165,211.58 " fill="none" id="java.beans.PropertyChangeListener-backto-nz.ac.wgtn.swen225.lc.recorder.Recorder" style="stroke:#A80036;stroke-width:1.0;stroke-dasharray:7.0,7.0;"/><polygon fill="none" points="158,136.56,165,116.56,172,136.56,158,136.56" style="stroke:#A80036;stroke-width:1.0;"/><!--MD5=[80c89ea10ec7caee8698d2c98d5c98af]
link nz.ac.wgtn.swen225.lc.recorder.Recorder to nz.ac.wgtn.swen225.lc.recorder.Replay--><path codeLine="53" d="M172.27,325.05 C176.74,359.33 182.37,402.54 186.47,434.02 " fill="none" id="nz.ac.wgtn.swen225.lc.recorder.Recorder-to-nz.ac.wgtn.swen225.lc.recorder.Replay" style="stroke:#A80036;stroke-width:1.0;"/><polygon fill="#A80036" points="187.07,438.65,189.8793,429.2103,186.427,433.6915,181.9458,430.2392,187.07,438.65" style="stroke:#A80036;stroke-width:1.0;"/><text fill="#000000" font-family="sans-serif" font-size="13" lengthAdjust="spacing" textLength="38" x="179" y="368.2084">replay</text><!--MD5=[5a922f64329afc7eb0975be6068a559b]
reverse link nz.ac.wgtn.swen225.lc.domain.world.abs.agents.Agent to nz.ac.wgtn.swen225.lc.recorder.DummyEnemy--><path codeLine="54" d="M445,149.56 C445,172.09 445,197.03 445,218.14 " fill="none" id="nz.ac.wgtn.swen225.lc.domain.world.abs.agents.Agent-backto-nz.ac.wgtn.swen225.lc.recorder.DummyEnemy" style="stroke:#A80036;stroke-width:1.0;"/><polygon fill="none" points="438,149.57,445,129.57,452,149.57,438,149.57" style="stroke:#A80036;stroke-width:1.0;"/><!--MD5=[0799c5f335e18c469ab0e875a166b74a]
link nz.ac.wgtn.swen225.lc.recorder.RecorderTests to nz.ac.wgtn.swen225.lc.recorder.PositionAndDirection--><!--MD5=[132b2fa01274459e589071625a77628c]
link nz.ac.wgtn.swen225.lc.recorder.RecorderTests to nz.ac.wgtn.swen225.lc.recorder.ReplayPlayer--><!--MD5=[a200e3e90187cf812daca67f4989d232]
link nz.ac.wgtn.swen225.lc.recorder.ReplayPlayer to nz.ac.wgtn.swen225.lc.recorder.TileAndLocation--><text fill="#888888" font-family="sans-serif" font-size="10" lengthAdjust="spacing" textLength="182" x="444.5" y="584.948">UMLDoclet 2.0.14, PlantUML 1.2021.9</text><!--MD5=[300b1d2926d0843f37408f9f3dfe93d7]
@startuml
    namespace nz.ac.wgtn.swen225.lc.recorder {

        class RecorderTests [[RecorderTests.html]] {
            +doMoves(Controller): void
            {static} +createReplay(): Replay
            {static} +createSimpleReplay(): Replay
        }

        class Recorder [[Recorder.html]] {
            +Recorder(GameModel)
            +propertyChange(PropertyChangeEvent): void
            +handleChange(int, String, Object): void
            +getReplayPath(): String
            +saveReplay(): void
        }

        class Replay [[Replay.html]] {
            +Replay(TreeMap<Integer, HashMap<String, Object>>)
            +replay(): TreeMap<Integer, HashMap<String, Object>>
        }

        class PositionAndDirection [[PositionAndDirection.html]] {
            +PositionAndDirection(Position, Direction)
            +position(): Position
            +direction(): Direction
        }

        class ReplayPlayer [[ReplayPlayer.html]] {
            +ReplayPlayer(GameModel, TreeMap<Integer, HashMap<String, Object>>)
            +setTime(int): void
            +realTime(): void
            +stepByStep(): void
            +play(): void
            +pause(): void
            +hasEnded(): boolean
            {static} +findValidReplay(String): boolean
        }

        class DummyEnemy [[DummyEnemy.html]] {
            +DummyEnemy(Position)
            +DummyEnemy(Position, Direction)
            +DummyEnemy(PositionAndDirection)
            +onTurn(GameModel): void
        }

        class TileAndLocation [[TileAndLocation.html]] {
            +TileAndLocation(Position, Tile)
            +position(): Position
            +tile(): Tile
        }

        java.beans.PropertyChangeListener <|.. Recorder
        Recorder - -> Replay: replay
        nz.ac.wgtn.swen225.lc.domain.world.abs.agents.Agent <|- - DummyEnemy
    }

    namespace java.beans {
        interface PropertyChangeListener {
            {abstract} +propertyChange(PropertyChangeEvent): void
        }
    }

    namespace nz.ac.wgtn.swen225.lc.domain.world.abs.agents {
        abstract class Agent [[../domain/world/abs/agents/Agent.html]] {
            +position: Position
            +direction: Direction
            {abstract} +onTurn(GameModel): void
        }
    }

    center footer UMLDoclet 2.0.14, PlantUML 1.2021.9
@enduml

PlantUML version 1.2021.9(Sun Jul 25 22:13:56 NZST 2021)
(APACHE source distribution)
Java Runtime: OpenJDK Runtime Environment
JVM: OpenJDK 64-Bit Server VM
Default Encoding: UTF-8
Language: en
Country: NZ
--></g></svg>