<?xml version="1.0" encoding="UTF-8" standalone="no"?><svg xmlns="http://www.w3.org/2000/svg" xmlns:xlink="http://www.w3.org/1999/xlink" contentScriptType="application/ecmascript" contentStyleType="text/css" height="221px" preserveAspectRatio="none" style="width:267px;height:221px;background:#FFFFFF;" version="1.1" viewBox="0 0 267 221" width="267px" zoomAndPan="magnify"><defs><filter height="300%" id="f1igw8a39k2hem" width="300%" x="-1" y="-1"><feGaussianBlur result="blurOut" stdDeviation="2.0"/><feColorMatrix in="blurOut" result="blurOut2" type="matrix" values="0 0 0 0 0 0 0 0 0 0 0 0 0 0 0 0 0 0 .4 0"/><feOffset dx="4.0" dy="4.0" in="blurOut2" result="blurOut3"/><feBlend in="SourceGraphic" in2="blurOut3" mode="normal"/></filter></defs><g><!--MD5=[0abfd1d2a2265f830e9ee0fee14901b4]
class nz.ac.wgtn.swen225.lc.recorder.PositionAndDirection--><a href="PositionAndDirection.html" target="_top" title="PositionAndDirection.html" xlink:actuate="onRequest" xlink:href="PositionAndDirection.html" xlink:show="new" xlink:title="PositionAndDirection.html" xlink:type="simple"><rect codeLine="5" fill="#FEFECE" filter="url(#f1igw8a39k2hem)" height="85.1309" id="nz.ac.wgtn.swen225.lc.recorder.PositionAndDirection" style="stroke:#A80036;stroke-width:1.5;" width="246" x="7" y="105.27"/><ellipse cx="49" cy="124.4028" fill="#ADD1B2" rx="11" ry="11" style="stroke:#A80036;stroke-width:1.0;"/><path d="M51.4731,130.5459 Q50.8921,130.8447 50.2529,130.9941 Q49.6138,131.1435 48.9082,131.1435 Q46.4014,131.1435 45.0815,129.4917 Q43.7617,127.8398 43.7617,124.7187 Q43.7617,121.5893 45.0815,119.9375 Q46.4014,118.2856 48.9082,118.2856 Q49.6138,118.2856 50.2612,118.435 Q50.9087,118.5845 51.4731,118.8833 L51.4731,121.6059 Q50.8423,121.0249 50.2488,120.7551 Q49.6553,120.4853 49.0244,120.4853 Q47.6797,120.4853 46.9949,121.552 Q46.3101,122.6186 46.3101,124.7187 Q46.3101,126.8105 46.9949,127.8772 Q47.6797,128.9438 49.0244,128.9438 Q49.6553,128.9438 50.2488,128.6741 Q50.8423,128.4043 51.4731,127.8232 Z " fill="#000000"/><text fill="#000000" font-family="sans-serif" font-size="14" lengthAdjust="spacing" textLength="145" x="73.5" y="123.8052">PositionAndDirection</text><text fill="#000000" font-family="sans-serif" font-size="10" lengthAdjust="spacing" textLength="154" x="69" y="136.4263">nz.ac.wgtn.swen225.lc.recorder</text><line style="stroke:#A80036;stroke-width:1.5;" x1="8" x2="252" y1="143.5356" y2="143.5356"/><ellipse cx="18" cy="154.5356" fill="#84BE84" rx="3" ry="3" style="stroke:#038048;stroke-width:1.0;"/><text fill="#000000" font-family="sans-serif" font-size="11" lengthAdjust="spacing" textLength="220" x="27" y="158.1704">PositionAndDirection(Position, Direction)</text><ellipse cx="18" cy="167.4907" fill="#84BE84" rx="3" ry="3" style="stroke:#038048;stroke-width:1.0;"/><text fill="#000000" font-family="sans-serif" font-size="11" lengthAdjust="spacing" textLength="101" x="27" y="171.1255">position(): Position</text><ellipse cx="18" cy="180.4458" fill="#84BE84" rx="3" ry="3" style="stroke:#038048;stroke-width:1.0;"/><text fill="#000000" font-family="sans-serif" font-size="11" lengthAdjust="spacing" textLength="111" x="27" y="184.0805">direction(): Direction</text></a><!--MD5=[aeced6b90a5f9cea7e9b0d4e8b5a9b7c]
class java.lang.Record--><rect codeLine="11" fill="#FEFECE" filter="url(#f1igw8a39k2hem)" height="38.2656" id="java.lang.Record" style="stroke:#A80036;stroke-width:1.5;" width="80" x="90" y="7"/><ellipse cx="105" cy="26.1328" fill="#A9DCDF" rx="11" ry="11" style="stroke:#A80036;stroke-width:1.0;"/><path d="M104.8633,21.481 L103.7095,26.5527 L106.0254,26.5527 Z M103.3691,19.2397 L106.3657,19.2397 L109.7109,31.6328 L107.2622,31.6328 L106.4985,28.5698 L103.2197,28.5698 L102.4727,31.6328 L100.0239,31.6328 Z " fill="#000000"/><text fill="#000000" font-family="sans-serif" font-size="14" font-style="italic" lengthAdjust="spacing" textLength="48" x="119" y="25.5352">Record</text><text fill="#000000" font-family="sans-serif" font-size="10" font-style="italic" lengthAdjust="spacing" textLength="44" x="121" y="38.1563">java.lang</text><!--MD5=[89b5d7149a0a924e113dec2947380c0d]
reverse link java.lang.Record to nz.ac.wgtn.swen225.lc.recorder.PositionAndDirection--><path codeLine="13" d="M130,66.83 C130,79.01 130,92.46 130,104.79 " fill="none" id="java.lang.Record-backto-nz.ac.wgtn.swen225.lc.recorder.PositionAndDirection" style="stroke:#A80036;stroke-width:1.0;"/><polygon fill="none" points="123,67.09,130,47.09,137,67.09,123,67.09" style="stroke:#A80036;stroke-width:1.0;"/><text fill="#888888" font-family="sans-serif" font-size="10" lengthAdjust="spacing" textLength="182" x="36" y="213.0688">UMLDoclet 2.0.14, PlantUML 1.2021.9</text><!--MD5=[8e284205df387e9c1e0825e6ce8c4072]
@startuml
    set namespaceSeparator none
    hide empty fields
    hide empty methods

    class "<size:14>PositionAndDirection\n<size:10>nz.ac.wgtn.swen225.lc.recorder" as nz.ac.wgtn.swen225.lc.recorder.PositionAndDirection [[PositionAndDirection.html]] {
        +PositionAndDirection(Position, Direction)
        +position(): Position
        +direction(): Direction
    }

    abstract class "<size:14>Record\n<size:10>java.lang" as java.lang.Record

    java.lang.Record <|- - nz.ac.wgtn.swen225.lc.recorder.PositionAndDirection

    center footer UMLDoclet 2.0.14, PlantUML 1.2021.9
@enduml

PlantUML version 1.2021.9(Sun Jul 25 22:13:56 NZST 2021)
(APACHE source distribution)
Java Runtime: OpenJDK Runtime Environment
JVM: OpenJDK 64-Bit Server VM
Default Encoding: UTF-8
Language: en
Country: NZ
--></g></svg>