<?xml version="1.0" encoding="UTF-8" standalone="no"?><svg xmlns="http://www.w3.org/2000/svg" xmlns:xlink="http://www.w3.org/1999/xlink" contentScriptType="application/ecmascript" contentStyleType="text/css" height="281px" preserveAspectRatio="none" style="width:288px;height:281px;background:#FFFFFF;" version="1.1" viewBox="0 0 288 281" width="288px" zoomAndPan="magnify"><defs><filter height="300%" id="fbzufsrhdxjk3" width="300%" x="-1" y="-1"><feGaussianBlur result="blurOut" stdDeviation="2.0"/><feColorMatrix in="blurOut" result="blurOut2" type="matrix" values="0 0 0 0 0 0 0 0 0 0 0 0 0 0 0 0 0 0 .4 0"/><feOffset dx="4.0" dy="4.0" in="blurOut2" result="blurOut3"/><feBlend in="SourceGraphic" in2="blurOut3" mode="normal"/></filter></defs><g><!--MD5=[9dc795ca8d2b9bfa0842f62df34c7352]
class nz.ac.wgtn.swen225.lc.recorder.Recorder--><a href="Recorder.html" target="_top" title="Recorder.html" xlink:actuate="onRequest" xlink:href="Recorder.html" xlink:show="new" xlink:title="Recorder.html" xlink:type="simple"><rect codeLine="5" fill="#FEFECE" filter="url(#fbzufsrhdxjk3)" height="123.9961" id="nz.ac.wgtn.swen225.lc.recorder.Recorder" style="stroke:#A80036;stroke-width:1.5;" width="267" x="7" y="126.22"/><ellipse cx="59.25" cy="145.3528" fill="#ADD1B2" rx="11" ry="11" style="stroke:#A80036;stroke-width:1.0;"/><path d="M61.7231,151.4959 Q61.1421,151.7947 60.5029,151.9441 Q59.8638,152.0935 59.1582,152.0935 Q56.6514,152.0935 55.3315,150.4417 Q54.0117,148.7898 54.0117,145.6687 Q54.0117,142.5393 55.3315,140.8875 Q56.6514,139.2356 59.1582,139.2356 Q59.8638,139.2356 60.5112,139.385 Q61.1587,139.5345 61.7231,139.8333 L61.7231,142.5559 Q61.0923,141.9749 60.4988,141.7051 Q59.9053,141.4353 59.2744,141.4353 Q57.9297,141.4353 57.2449,142.502 Q56.5601,143.5686 56.5601,145.6687 Q56.5601,147.7605 57.2449,148.8272 Q57.9297,149.8938 59.2744,149.8938 Q59.9053,149.8938 60.4988,149.6241 Q61.0923,149.3543 61.7231,148.7732 Z " fill="#000000"/><text fill="#000000" font-family="sans-serif" font-size="14" lengthAdjust="spacing" textLength="62" x="125.75" y="144.7552">Recorder</text><text fill="#000000" font-family="sans-serif" font-size="10" lengthAdjust="spacing" textLength="154" x="79.75" y="157.3763">nz.ac.wgtn.swen225.lc.recorder</text><line style="stroke:#A80036;stroke-width:1.5;" x1="8" x2="273" y1="164.4856" y2="164.4856"/><ellipse cx="18" cy="175.4856" fill="#84BE84" rx="3" ry="3" style="stroke:#038048;stroke-width:1.0;"/><text fill="#000000" font-family="sans-serif" font-size="11" lengthAdjust="spacing" textLength="119" x="27" y="179.1204">Recorder(GameModel)</text><ellipse cx="18" cy="188.4407" fill="#84BE84" rx="3" ry="3" style="stroke:#038048;stroke-width:1.0;"/><text fill="#000000" font-family="sans-serif" font-size="11" lengthAdjust="spacing" textLength="241" x="27" y="192.0755">propertyChange(PropertyChangeEvent): void</text><ellipse cx="18" cy="201.3958" fill="#84BE84" rx="3" ry="3" style="stroke:#038048;stroke-width:1.0;"/><text fill="#000000" font-family="sans-serif" font-size="11" lengthAdjust="spacing" textLength="207" x="27" y="205.0305">handleChange(int, String, Object): void</text><ellipse cx="18" cy="214.3509" fill="#84BE84" rx="3" ry="3" style="stroke:#038048;stroke-width:1.0;"/><text fill="#000000" font-family="sans-serif" font-size="11" lengthAdjust="spacing" textLength="101" x="27" y="217.9856">getReplay(): Replay</text><ellipse cx="18" cy="227.3059" fill="#84BE84" rx="3" ry="3" style="stroke:#038048;stroke-width:1.0;"/><text fill="#000000" font-family="sans-serif" font-size="11" lengthAdjust="spacing" textLength="121" x="27" y="230.9407">getReplayPath(): String</text><ellipse cx="18" cy="240.261" fill="#84BE84" rx="3" ry="3" style="stroke:#038048;stroke-width:1.0;"/><text fill="#000000" font-family="sans-serif" font-size="11" lengthAdjust="spacing" textLength="96" x="27" y="243.8958">saveReplay(): void</text></a><!--MD5=[0d154d630b9a073463cbcbf880061a38]
class java.beans.PropertyChangeListener--><rect codeLine="14" fill="#FEFECE" filter="url(#fbzufsrhdxjk3)" height="59.2207" id="java.beans.PropertyChangeListener" style="stroke:#A80036;stroke-width:1.5;" width="267" x="7" y="7"/><ellipse cx="53.75" cy="26.1328" fill="#B4A7E5" rx="11" ry="11" style="stroke:#A80036;stroke-width:1.0;"/><path d="M50.1777,22.3979 L50.1777,20.2397 L57.5571,20.2397 L57.5571,22.3979 L55.0918,22.3979 L55.0918,30.4746 L57.5571,30.4746 L57.5571,32.6328 L50.1777,32.6328 L50.1777,30.4746 L52.6431,30.4746 L52.6431,22.3979 Z " fill="#000000"/><text fill="#000000" font-family="sans-serif" font-size="14" font-style="italic" lengthAdjust="spacing" textLength="165" x="74.25" y="25.5352">PropertyChangeListener</text><text fill="#000000" font-family="sans-serif" font-size="10" font-style="italic" lengthAdjust="spacing" textLength="52" x="130.75" y="38.1563">java.beans</text><line style="stroke:#A80036;stroke-width:1.5;" x1="8" x2="273" y1="45.2656" y2="45.2656"/><ellipse cx="18" cy="56.2656" fill="#84BE84" rx="3" ry="3" style="stroke:#038048;stroke-width:1.0;"/><text fill="#000000" font-family="sans-serif" font-size="11" font-style="italic" lengthAdjust="spacing" textLength="241" x="27" y="59.9004">propertyChange(PropertyChangeEvent): void</text><!--MD5=[e1c0b524bf815eb9bf913cbabcfaa33d]
reverse link java.beans.PropertyChangeListener to nz.ac.wgtn.swen225.lc.recorder.Recorder--><path codeLine="18" d="M140.5,87.74 C140.5,100 140.5,113.24 140.5,125.95 " fill="none" id="java.beans.PropertyChangeListener-backto-nz.ac.wgtn.swen225.lc.recorder.Recorder" style="stroke:#A80036;stroke-width:1.0;stroke-dasharray:7.0,7.0;"/><polygon fill="none" points="133.5,87.97,140.5,67.97,147.5,87.97,133.5,87.97" style="stroke:#A80036;stroke-width:1.0;"/><text fill="#888888" font-family="sans-serif" font-size="10" lengthAdjust="spacing" textLength="182" x="46.5" y="272.8841">UMLDoclet 2.0.14, PlantUML 1.2021.9</text><!--MD5=[97925a8414d342f6211ae68f2228efe8]
@startuml
    set namespaceSeparator none
    hide empty fields
    hide empty methods

    class "<size:14>Recorder\n<size:10>nz.ac.wgtn.swen225.lc.recorder" as nz.ac.wgtn.swen225.lc.recorder.Recorder [[Recorder.html]] {
        +Recorder(GameModel)
        +propertyChange(PropertyChangeEvent): void
        +handleChange(int, String, Object): void
        +getReplay(): Replay
        +getReplayPath(): String
        +saveReplay(): void
    }

    interface "<size:14>PropertyChangeListener\n<size:10>java.beans" as java.beans.PropertyChangeListener {
        {abstract} +propertyChange(PropertyChangeEvent): void
    }

    java.beans.PropertyChangeListener <|.. nz.ac.wgtn.swen225.lc.recorder.Recorder

    center footer UMLDoclet 2.0.14, PlantUML 1.2021.9
@enduml

PlantUML version 1.2021.9(Sun Jul 25 22:13:56 NZST 2021)
(APACHE source distribution)
Java Runtime: OpenJDK Runtime Environment
JVM: OpenJDK 64-Bit Server VM
Default Encoding: UTF-8
Language: en
Country: NZ
--></g></svg>