<?xml version="1.0" encoding="UTF-8" standalone="no"?><svg xmlns="http://www.w3.org/2000/svg" xmlns:xlink="http://www.w3.org/1999/xlink" contentScriptType="application/ecmascript" contentStyleType="text/css" height="208px" preserveAspectRatio="none" style="width:342px;height:208px;background:#FFFFFF;" version="1.1" viewBox="0 0 342 208" width="342px" zoomAndPan="magnify"><defs><filter height="300%" id="f6h6igkjy9z0u" width="300%" x="-1" y="-1"><feGaussianBlur result="blurOut" stdDeviation="2.0"/><feColorMatrix in="blurOut" result="blurOut2" type="matrix" values="0 0 0 0 0 0 0 0 0 0 0 0 0 0 0 0 0 0 .4 0"/><feOffset dx="4.0" dy="4.0" in="blurOut2" result="blurOut3"/><feBlend in="SourceGraphic" in2="blurOut3" mode="normal"/></filter></defs><g><!--MD5=[55ab31fb011e3cd9e52d9160488de9fc]
class nz.ac.wgtn.swen225.lc.recorder.Replay--><a href="Replay.html" target="_top" title="Replay.html" xlink:actuate="onRequest" xlink:href="Replay.html" xlink:show="new" xlink:title="Replay.html" xlink:type="simple"><rect codeLine="5" fill="#FEFECE" filter="url(#f6h6igkjy9z0u)" height="72.1758" id="nz.ac.wgtn.swen225.lc.recorder.Replay" style="stroke:#A80036;stroke-width:1.5;" width="321" x="7" y="105.26"/><ellipse cx="86.25" cy="124.3928" fill="#ADD1B2" rx="11" ry="11" style="stroke:#A80036;stroke-width:1.0;"/><path d="M88.7231,130.5359 Q88.1421,130.8347 87.5029,130.9841 Q86.8638,131.1335 86.1582,131.1335 Q83.6514,131.1335 82.3315,129.4817 Q81.0117,127.8298 81.0117,124.7087 Q81.0117,121.5793 82.3315,119.9275 Q83.6514,118.2756 86.1582,118.2756 Q86.8638,118.2756 87.5112,118.425 Q88.1587,118.5745 88.7231,118.8733 L88.7231,121.5959 Q88.0923,121.0149 87.4988,120.7451 Q86.9053,120.4753 86.2744,120.4753 Q84.9297,120.4753 84.2449,121.542 Q83.5601,122.6086 83.5601,124.7087 Q83.5601,126.8005 84.2449,127.8672 Q84.9297,128.9338 86.2744,128.9338 Q86.9053,128.9338 87.4988,128.6641 Q88.0923,128.3943 88.7231,127.8132 Z " fill="#000000"/><text fill="#000000" font-family="sans-serif" font-size="14" lengthAdjust="spacing" textLength="45" x="161.25" y="123.7952">Replay</text><text fill="#000000" font-family="sans-serif" font-size="10" lengthAdjust="spacing" textLength="154" x="106.75" y="136.4163">nz.ac.wgtn.swen225.lc.recorder</text><line style="stroke:#A80036;stroke-width:1.5;" x1="8" x2="327" y1="143.5256" y2="143.5256"/><ellipse cx="18" cy="154.5256" fill="#84BE84" rx="3" ry="3" style="stroke:#038048;stroke-width:1.0;"/><text fill="#000000" font-family="sans-serif" font-size="11" lengthAdjust="spacing" textLength="291" x="27" y="158.1604">Replay(TreeMap&lt;Integer, HashMap&lt;String, Object&gt;&gt;)</text><ellipse cx="18" cy="167.4807" fill="#84BE84" rx="3" ry="3" style="stroke:#038048;stroke-width:1.0;"/><text fill="#000000" font-family="sans-serif" font-size="11" lengthAdjust="spacing" textLength="295" x="27" y="171.1155">replay(): TreeMap&lt;Integer, HashMap&lt;String, Object&gt;&gt;</text></a><!--MD5=[aeced6b90a5f9cea7e9b0d4e8b5a9b7c]
class java.lang.Record--><rect codeLine="10" fill="#FEFECE" filter="url(#f6h6igkjy9z0u)" height="38.2656" id="java.lang.Record" style="stroke:#A80036;stroke-width:1.5;" width="80" x="127.5" y="7"/><ellipse cx="142.5" cy="26.1328" fill="#A9DCDF" rx="11" ry="11" style="stroke:#A80036;stroke-width:1.0;"/><path d="M142.3633,21.481 L141.2095,26.5527 L143.5254,26.5527 Z M140.8691,19.2397 L143.8657,19.2397 L147.2109,31.6328 L144.7622,31.6328 L143.9985,28.5698 L140.7197,28.5698 L139.9727,31.6328 L137.5239,31.6328 Z " fill="#000000"/><text fill="#000000" font-family="sans-serif" font-size="14" font-style="italic" lengthAdjust="spacing" textLength="48" x="156.5" y="25.5352">Record</text><text fill="#000000" font-family="sans-serif" font-size="10" font-style="italic" lengthAdjust="spacing" textLength="44" x="158.5" y="38.1563">java.lang</text><!--MD5=[c0f7adf59b7b96daedeff66c462ff117]
reverse link java.lang.Record to nz.ac.wgtn.swen225.lc.recorder.Replay--><path codeLine="12" d="M167.5,66.71 C167.5,79.17 167.5,92.85 167.5,104.99 " fill="none" id="java.lang.Record-backto-nz.ac.wgtn.swen225.lc.recorder.Replay" style="stroke:#A80036;stroke-width:1.0;"/><polygon fill="none" points="160.5,67.09,167.5,47.09,174.5,67.09,160.5,67.09" style="stroke:#A80036;stroke-width:1.0;"/><text fill="#888888" font-family="sans-serif" font-size="10" lengthAdjust="spacing" textLength="182" x="73.5" y="200.1038">UMLDoclet 2.0.14, PlantUML 1.2021.9</text><!--MD5=[11a58bb01bbf6cb17f11cca04e8f4e48]
@startuml
    set namespaceSeparator none
    hide empty fields
    hide empty methods

    class "<size:14>Replay\n<size:10>nz.ac.wgtn.swen225.lc.recorder" as nz.ac.wgtn.swen225.lc.recorder.Replay [[Replay.html]] {
        +Replay(TreeMap<Integer, HashMap<String, Object>>)
        +replay(): TreeMap<Integer, HashMap<String, Object>>
    }

    abstract class "<size:14>Record\n<size:10>java.lang" as java.lang.Record

    java.lang.Record <|- - nz.ac.wgtn.swen225.lc.recorder.Replay

    center footer UMLDoclet 2.0.14, PlantUML 1.2021.9
@enduml

PlantUML version 1.2021.9(Sun Jul 25 22:13:56 NZST 2021)
(APACHE source distribution)
Java Runtime: OpenJDK Runtime Environment
JVM: OpenJDK 64-Bit Server VM
Default Encoding: UTF-8
Language: en
Country: NZ
--></g></svg>