<?xml version="1.0" encoding="UTF-8" standalone="no"?><svg xmlns="http://www.w3.org/2000/svg" xmlns:xlink="http://www.w3.org/1999/xlink" contentScriptType="application/ecmascript" contentStyleType="text/css" height="223px" preserveAspectRatio="none" style="width:288px;height:223px;background:#FFFFFF;" version="1.1" viewBox="0 0 288 223" width="288px" zoomAndPan="magnify"><defs><filter height="300%" id="faz55s5eblju7" width="300%" x="-1" y="-1"><feGaussianBlur result="blurOut" stdDeviation="2.0"/><feColorMatrix in="blurOut" result="blurOut2" type="matrix" values="0 0 0 0 0 0 0 0 0 0 0 0 0 0 0 0 0 0 .4 0"/><feOffset dx="4.0" dy="4.0" in="blurOut2" result="blurOut3"/><feBlend in="SourceGraphic" in2="blurOut3" mode="normal"/></filter></defs><g><!--MD5=[4fc6a52ec9c292e3c0290ba362a6a416]
class SimpleEnemy--><a href="SimpleEnemy.html" target="_top" title="SimpleEnemy.html" xlink:actuate="onRequest" xlink:href="SimpleEnemy.html" xlink:show="new" xlink:title="SimpleEnemy.html" xlink:type="simple"><rect codeLine="5" fill="#FEFECE" filter="url(#faz55s5eblju7)" height="65.9102" id="SimpleEnemy" style="stroke:#A80036;stroke-width:1.5;" width="165" x="58" y="126.22"/><ellipse cx="98.65" cy="142.22" fill="#ADD1B2" rx="11" ry="11" style="stroke:#A80036;stroke-width:1.0;"/><path d="M101.1231,148.3631 Q100.5421,148.6619 99.9029,148.8113 Q99.2638,148.9607 98.5582,148.9607 Q96.0514,148.9607 94.7315,147.3089 Q93.4117,145.657 93.4117,142.5359 Q93.4117,139.4065 94.7315,137.7547 Q96.0514,136.1028 98.5582,136.1028 Q99.2638,136.1028 99.9112,136.2522 Q100.5587,136.4016 101.1231,136.7005 L101.1231,139.4231 Q100.4923,138.8421 99.8988,138.5723 Q99.3053,138.3025 98.6744,138.3025 Q97.3297,138.3025 96.6449,139.3692 Q95.9601,140.4358 95.9601,142.5359 Q95.9601,144.6277 96.6449,145.6944 Q97.3297,146.761 98.6744,146.761 Q99.3053,146.761 99.8988,146.4912 Q100.4923,146.2215 101.1231,145.6404 Z " fill="#000000"/><text fill="#000000" font-family="sans-serif" font-size="12" lengthAdjust="spacing" textLength="76" x="118.35" y="146.7552">SimpleEnemy</text><line style="stroke:#A80036;stroke-width:1.5;" x1="59" x2="222" y1="158.22" y2="158.22"/><ellipse cx="69" cy="169.22" fill="#84BE84" rx="3" ry="3" style="stroke:#038048;stroke-width:1.0;"/><text fill="#000000" font-family="sans-serif" font-size="11" lengthAdjust="spacing" textLength="121" x="78" y="172.8548">SimpleEnemy(Position)</text><ellipse cx="69" cy="182.1751" fill="#84BE84" rx="3" ry="3" style="stroke:#038048;stroke-width:1.0;"/><text fill="#000000" font-family="sans-serif" font-size="11" lengthAdjust="spacing" textLength="139" x="78" y="185.8098">onTurn(GameModel): void</text></a><!--MD5=[bf311294ad2c08ca8e25260e7b1cffd0]
class nz.ac.wgtn.swen225.lc.domain.world.abs.agents.Agent--><a href="nz/ac/wgtn/swen225/lc/domain/world/abs/agents/Agent.html" target="_top" title="nz/ac/wgtn/swen225/lc/domain/world/abs/agents/Agent.html" xlink:actuate="onRequest" xlink:href="nz/ac/wgtn/swen225/lc/domain/world/abs/agents/Agent.html" xlink:show="new" xlink:title="nz/ac/wgtn/swen225/lc/domain/world/abs/agents/Agent.html" xlink:type="simple"><rect codeLine="10" fill="#FEFECE" filter="url(#faz55s5eblju7)" height="59.2207" id="nz.ac.wgtn.swen225.lc.domain.world.abs.agents.Agent" style="stroke:#A80036;stroke-width:1.5;" width="267" x="7" y="7"/><ellipse cx="22" cy="26.1328" fill="#A9DCDF" rx="11" ry="11" style="stroke:#A80036;stroke-width:1.0;"/><path d="M21.8633,21.481 L20.7095,26.5527 L23.0254,26.5527 Z M20.3691,19.2397 L23.3657,19.2397 L26.7109,31.6328 L24.2622,31.6328 L23.4985,28.5698 L20.2197,28.5698 L19.4727,31.6328 L17.0239,31.6328 Z " fill="#000000"/><text fill="#000000" font-family="sans-serif" font-size="14" font-style="italic" lengthAdjust="spacing" textLength="41" x="133" y="25.5352">Agent</text><text fill="#000000" font-family="sans-serif" font-size="10" font-style="italic" lengthAdjust="spacing" textLength="235" x="36" y="38.1563">nz.ac.wgtn.swen225.lc.domain.world.abs.agents</text><line style="stroke:#A80036;stroke-width:1.5;" x1="8" x2="273" y1="45.2656" y2="45.2656"/><ellipse cx="18" cy="56.2656" fill="#84BE84" rx="3" ry="3" style="stroke:#038048;stroke-width:1.0;"/><text fill="#000000" font-family="sans-serif" font-size="11" font-style="italic" lengthAdjust="spacing" textLength="139" x="27" y="59.9004">onTurn(GameModel): void</text></a><!--MD5=[b5b0b761c35015fef1cc35811b9e7dc6]
reverse link nz.ac.wgtn.swen225.lc.domain.world.abs.agents.Agent to SimpleEnemy--><path codeLine="14" d="M140.5,87.89 C140.5,100.83 140.5,114.41 140.5,126.14 " fill="none" id="nz.ac.wgtn.swen225.lc.domain.world.abs.agents.Agent-backto-SimpleEnemy" style="stroke:#A80036;stroke-width:1.0;"/><polygon fill="none" points="133.5,88,140.5,68,147.5,88,133.5,88" style="stroke:#A80036;stroke-width:1.0;"/><text fill="#888888" font-family="sans-serif" font-size="10" lengthAdjust="spacing" textLength="182" x="46.5" y="214.7981">UMLDoclet 2.0.14, PlantUML 1.2021.9</text><!--MD5=[0b0194eedc244a5ab67aa319ccf05578]
@startuml
    set namespaceSeparator none
    hide empty fields
    hide empty methods

    class SimpleEnemy [[SimpleEnemy.html]] {
        +SimpleEnemy(Position)
        +onTurn(GameModel): void
    }

    abstract class "<size:14>Agent\n<size:10>nz.ac.wgtn.swen225.lc.domain.world.abs.agents" as nz.ac.wgtn.swen225.lc.domain.world.abs.agents.Agent [[nz/ac/wgtn/swen225/lc/domain/world/abs/agents/Agent.html]] {
        {abstract} +onTurn(GameModel): void
    }

    nz.ac.wgtn.swen225.lc.domain.world.abs.agents.Agent <|- - SimpleEnemy

    center footer UMLDoclet 2.0.14, PlantUML 1.2021.9
@enduml

PlantUML version 1.2021.9(Sun Jul 25 22:13:56 NZST 2021)
(APACHE source distribution)
Java Runtime: OpenJDK Runtime Environment
JVM: OpenJDK 64-Bit Server VM
Default Encoding: UTF-8
Language: en
Country: NZ
--></g></svg>