<?xml version="1.0" encoding="UTF-8" standalone="no"?><svg xmlns="http://www.w3.org/2000/svg" xmlns:xlink="http://www.w3.org/1999/xlink" contentScriptType="application/ecmascript" contentStyleType="text/css" height="260px" preserveAspectRatio="none" style="width:271px;height:260px;background:#FFFFFF;" version="1.1" viewBox="0 0 271 260" width="271px" zoomAndPan="magnify"><defs><filter height="300%" id="f1hkzfo7ymbsyg" width="300%" x="-1" y="-1"><feGaussianBlur result="blurOut" stdDeviation="2.0"/><feColorMatrix in="blurOut" result="blurOut2" type="matrix" values="0 0 0 0 0 0 0 0 0 0 0 0 0 0 0 0 0 0 .4 0"/><feOffset dx="4.0" dy="4.0" in="blurOut2" result="blurOut3"/><feBlend in="SourceGraphic" in2="blurOut3" mode="normal"/></filter></defs><g><!--MD5=[3cced4f5267fc89281e7d01c0606a98a]
class nz.ac.wgtn.swen225.lc.domain.world.level.Level--><a href="Level.html" target="_top" title="Level.html" xlink:actuate="onRequest" xlink:href="Level.html" xlink:show="new" xlink:title="Level.html" xlink:type="simple"><rect codeLine="5" fill="#FEFECE" filter="url(#f1hkzfo7ymbsyg)" height="123.9961" id="nz.ac.wgtn.swen225.lc.domain.world.level.Level" style="stroke:#A80036;stroke-width:1.5;" width="250" x="7" y="105.26"/><ellipse cx="27.85" cy="124.3928" fill="#ADD1B2" rx="11" ry="11" style="stroke:#A80036;stroke-width:1.0;"/><path d="M30.3231,130.5359 Q29.7421,130.8347 29.1029,130.9841 Q28.4638,131.1335 27.7582,131.1335 Q25.2514,131.1335 23.9315,129.4817 Q22.6117,127.8298 22.6117,124.7087 Q22.6117,121.5793 23.9315,119.9275 Q25.2514,118.2756 27.7582,118.2756 Q28.4638,118.2756 29.1112,118.425 Q29.7587,118.5745 30.3231,118.8733 L30.3231,121.5959 Q29.6923,121.0149 29.0988,120.7451 Q28.5053,120.4753 27.8744,120.4753 Q26.5297,120.4753 25.8449,121.542 Q25.1601,122.6086 25.1601,124.7087 Q25.1601,126.8005 25.8449,127.8672 Q26.5297,128.9338 27.8744,128.9338 Q28.5053,128.9338 29.0988,128.6641 Q29.6923,128.3943 30.3231,127.8132 Z " fill="#000000"/><text fill="#000000" font-family="sans-serif" font-size="14" lengthAdjust="spacing" textLength="34" x="128.65" y="123.7952">Level</text><text fill="#000000" font-family="sans-serif" font-size="10" lengthAdjust="spacing" textLength="205" x="43.15" y="136.4163">nz.ac.wgtn.swen225.lc.domain.world.level</text><line style="stroke:#A80036;stroke-width:1.5;" x1="8" x2="256" y1="143.5256" y2="143.5256"/><ellipse cx="18" cy="154.5256" fill="#84BE84" rx="3" ry="3" style="stroke:#038048;stroke-width:1.0;"/><text fill="#000000" font-family="sans-serif" font-size="11" lengthAdjust="spacing" textLength="224" x="27" y="158.1604">Level(String, Tile[], Position, List&lt;Agent&gt;)</text><ellipse cx="18" cy="167.4807" fill="#84BE84" rx="3" ry="3" style="stroke:#038048;stroke-width:1.0;"/><text fill="#000000" font-family="sans-serif" font-size="11" lengthAdjust="spacing" textLength="143" x="27" y="171.1155">generateGameTiles(): Tile[]</text><ellipse cx="18" cy="180.4358" fill="#84BE84" rx="3" ry="3" style="stroke:#038048;stroke-width:1.0;"/><text fill="#000000" font-family="sans-serif" font-size="11" lengthAdjust="spacing" textLength="79" x="27" y="184.0705">mapId(): String</text><ellipse cx="18" cy="193.3909" fill="#84BE84" rx="3" ry="3" style="stroke:#038048;stroke-width:1.0;"/><text fill="#000000" font-family="sans-serif" font-size="11" lengthAdjust="spacing" textLength="107" x="27" y="197.0256">originalTiles(): Tile[]</text><ellipse cx="18" cy="206.3459" fill="#84BE84" rx="3" ry="3" style="stroke:#038048;stroke-width:1.0;"/><text fill="#000000" font-family="sans-serif" font-size="11" lengthAdjust="spacing" textLength="167" x="27" y="209.9807">playerSpawnPosition(): Position</text><ellipse cx="18" cy="219.301" fill="#84BE84" rx="3" ry="3" style="stroke:#038048;stroke-width:1.0;"/><text fill="#000000" font-family="sans-serif" font-size="11" lengthAdjust="spacing" textLength="119" x="27" y="222.9358">agents(): List&lt;Agent&gt;</text></a><!--MD5=[aeced6b90a5f9cea7e9b0d4e8b5a9b7c]
class java.lang.Record--><rect codeLine="14" fill="#FEFECE" filter="url(#f1hkzfo7ymbsyg)" height="38.2656" id="java.lang.Record" style="stroke:#A80036;stroke-width:1.5;" width="80" x="92" y="7"/><ellipse cx="107" cy="26.1328" fill="#A9DCDF" rx="11" ry="11" style="stroke:#A80036;stroke-width:1.0;"/><path d="M106.8633,21.481 L105.7095,26.5527 L108.0254,26.5527 Z M105.3691,19.2397 L108.3657,19.2397 L111.7109,31.6328 L109.2622,31.6328 L108.4985,28.5698 L105.2197,28.5698 L104.4727,31.6328 L102.0239,31.6328 Z " fill="#000000"/><text fill="#000000" font-family="sans-serif" font-size="14" font-style="italic" lengthAdjust="spacing" textLength="48" x="121" y="25.5352">Record</text><text fill="#000000" font-family="sans-serif" font-size="10" font-style="italic" lengthAdjust="spacing" textLength="44" x="123" y="38.1563">java.lang</text><!--MD5=[1a21ac82455ff73aae32cadbbb4a20ea]
reverse link java.lang.Record to nz.ac.wgtn.swen225.lc.domain.world.level.Level--><path codeLine="16" d="M132,66.75 C132,78.6 132,91.89 132,104.8 " fill="none" id="java.lang.Record-backto-nz.ac.wgtn.swen225.lc.domain.world.level.Level" style="stroke:#A80036;stroke-width:1.0;"/><polygon fill="none" points="125,67.12,132,47.12,139,67.12,125,67.12" style="stroke:#A80036;stroke-width:1.0;"/><text fill="#888888" font-family="sans-serif" font-size="10" lengthAdjust="spacing" textLength="182" x="38" y="251.9241">UMLDoclet 2.0.14, PlantUML 1.2021.9</text><!--MD5=[78173cfb941ef430697988a12b8892f0]
@startuml
    set namespaceSeparator none
    hide empty fields
    hide empty methods

    class "<size:14>Level\n<size:10>nz.ac.wgtn.swen225.lc.domain.world.level" as nz.ac.wgtn.swen225.lc.domain.world.level.Level [[Level.html]] {
        +Level(String, Tile[], Position, List<Agent>)
        +generateGameTiles(): Tile[]
        +mapId(): String
        +originalTiles(): Tile[]
        +playerSpawnPosition(): Position
        +agents(): List<Agent>
    }

    abstract class "<size:14>Record\n<size:10>java.lang" as java.lang.Record

    java.lang.Record <|- - nz.ac.wgtn.swen225.lc.domain.world.level.Level

    center footer UMLDoclet 2.0.14, PlantUML 1.2021.9
@enduml

PlantUML version 1.2021.9(Sun Jul 25 22:13:56 NZST 2021)
(APACHE source distribution)
Java Runtime: OpenJDK Runtime Environment
JVM: OpenJDK 64-Bit Server VM
Default Encoding: UTF-8
Language: en
Country: NZ
--></g></svg>