<?xml version="1.0" encoding="UTF-8" standalone="no"?><svg xmlns="http://www.w3.org/2000/svg" xmlns:xlink="http://www.w3.org/1999/xlink" contentScriptType="application/ecmascript" contentStyleType="text/css" height="328px" preserveAspectRatio="none" style="width:364px;height:328px;background:#FFFFFF;" version="1.1" viewBox="0 0 364 328" width="364px" zoomAndPan="magnify"><defs><filter height="300%" id="f10ildq7iwhfqa" width="300%" x="-1" y="-1"><feGaussianBlur result="blurOut" stdDeviation="2.0"/><feColorMatrix in="blurOut" result="blurOut2" type="matrix" values="0 0 0 0 0 0 0 0 0 0 0 0 0 0 0 0 0 0 .4 0"/><feOffset dx="4.0" dy="4.0" in="blurOut2" result="blurOut3"/><feBlend in="SourceGraphic" in2="blurOut3" mode="normal"/></filter></defs><g><!--MD5=[560601170a57aecfa15019f38424df39]
class nz.ac.wgtn.swen225.lc.app.data.GameTimer--><a href="GameTimer.html" target="_top" title="GameTimer.html" xlink:actuate="onRequest" xlink:href="GameTimer.html" xlink:show="new" xlink:title="GameTimer.html" xlink:type="simple"><rect codeLine="5" fill="#FEFECE" filter="url(#f10ildq7iwhfqa)" height="170.8613" id="nz.ac.wgtn.swen225.lc.app.data.GameTimer" style="stroke:#A80036;stroke-width:1.5;" width="343" x="7" y="126.22"/><ellipse cx="96.25" cy="145.3528" fill="#ADD1B2" rx="11" ry="11" style="stroke:#A80036;stroke-width:1.0;"/><path d="M98.7231,151.4959 Q98.1421,151.7947 97.5029,151.9441 Q96.8638,152.0935 96.1582,152.0935 Q93.6514,152.0935 92.3315,150.4417 Q91.0117,148.7898 91.0117,145.6687 Q91.0117,142.5393 92.3315,140.8875 Q93.6514,139.2356 96.1582,139.2356 Q96.8638,139.2356 97.5112,139.385 Q98.1587,139.5345 98.7231,139.8333 L98.7231,142.5559 Q98.0923,141.9749 97.4988,141.7051 Q96.9053,141.4353 96.2744,141.4353 Q94.9297,141.4353 94.2449,142.502 Q93.5601,143.5686 93.5601,145.6687 Q93.5601,147.7605 94.2449,148.8272 Q94.9297,149.8938 96.2744,149.8938 Q96.9053,149.8938 97.4988,149.6241 Q98.0923,149.3543 98.7231,148.7732 Z " fill="#000000"/><text fill="#000000" font-family="sans-serif" font-size="14" lengthAdjust="spacing" textLength="79" x="155.25" y="144.7552">GameTimer</text><text fill="#000000" font-family="sans-serif" font-size="10" lengthAdjust="spacing" textLength="156" x="116.75" y="157.3762">nz.ac.wgtn.swen225.lc.app.data</text><line style="stroke:#A80036;stroke-width:1.5;" x1="8" x2="349" y1="164.4856" y2="164.4856"/><ellipse cx="18" cy="175.4856" rx="3" ry="3" style="stroke:#038048;stroke-width:1.0;fill:none;"/><text fill="#000000" font-family="sans-serif" font-size="11" lengthAdjust="spacing" textLength="71" x="27" y="179.1204">gameTick: int</text><line style="stroke:#A80036;stroke-width:1.5;" x1="8" x2="349" y1="185.4407" y2="185.4407"/><ellipse cx="18" cy="196.4407" fill="#84BE84" rx="3" ry="3" style="stroke:#038048;stroke-width:1.0;"/><text fill="#000000" font-family="sans-serif" font-size="11" lengthAdjust="spacing" textLength="97" x="27" y="200.0755">getGameTick(): int</text><ellipse cx="18" cy="209.3958" fill="#84BE84" rx="3" ry="3" style="stroke:#038048;stroke-width:1.0;"/><text fill="#000000" font-family="sans-serif" font-size="11" lengthAdjust="spacing" textLength="146" x="27" y="213.0305">getSecondsRemaining(): int</text><ellipse cx="18" cy="222.3509" fill="#84BE84" rx="3" ry="3" style="stroke:#038048;stroke-width:1.0;"/><text fill="#000000" font-family="sans-serif" font-size="11" lengthAdjust="spacing" textLength="241" x="27" y="225.9856">addGameKeyListener(GameKeyListener): void</text><ellipse cx="18" cy="235.3059" fill="#84BE84" rx="3" ry="3" style="stroke:#038048;stroke-width:1.0;"/><text fill="#000000" font-family="sans-serif" font-size="11" lengthAdjust="spacing" textLength="189" x="27" y="238.9407">addMainWindow(MainWindow): void</text><ellipse cx="18" cy="248.261" fill="#84BE84" rx="3" ry="3" style="stroke:#038048;stroke-width:1.0;"/><text fill="#000000" font-family="sans-serif" font-size="11" lengthAdjust="spacing" textLength="112" x="27" y="251.8958">pause(boolean): void</text><ellipse cx="18" cy="261.2161" fill="#84BE84" rx="3" ry="3" style="stroke:#038048;stroke-width:1.0;"/><text fill="#000000" font-family="sans-serif" font-size="11" lengthAdjust="spacing" textLength="90" x="27" y="264.8509">resetTime(): void</text><ellipse cx="18" cy="274.1712" fill="#84BE84" rx="3" ry="3" style="stroke:#038048;stroke-width:1.0;"/><text fill="#000000" font-family="sans-serif" font-size="11" lengthAdjust="spacing" textLength="317" x="27" y="277.8059">addPropertyChangeListener(PropertyChangeListener): void</text><ellipse cx="18" cy="287.1262" fill="#84BE84" rx="3" ry="3" style="stroke:#038048;stroke-width:1.0;"/><text fill="#000000" font-family="sans-serif" font-size="11" lengthAdjust="spacing" textLength="190" x="27" y="290.761">actionPerformed(ActionEvent): void</text></a><!--MD5=[6631281fcee7fc541b441b6c950a0fa0]
class java.awt.event.ActionListener--><rect codeLine="17" fill="#FEFECE" filter="url(#f10ildq7iwhfqa)" height="59.2207" id="java.awt.event.ActionListener" style="stroke:#A80036;stroke-width:1.5;" width="216" x="70.5" y="7"/><ellipse cx="125.25" cy="26.1328" fill="#B4A7E5" rx="11" ry="11" style="stroke:#A80036;stroke-width:1.0;"/><path d="M121.6777,22.3979 L121.6777,20.2397 L129.0571,20.2397 L129.0571,22.3979 L126.5918,22.3979 L126.5918,30.4746 L129.0571,30.4746 L129.0571,32.6328 L121.6777,32.6328 L121.6777,30.4746 L124.1431,30.4746 L124.1431,22.3979 Z " fill="#000000"/><text fill="#000000" font-family="sans-serif" font-size="14" font-style="italic" lengthAdjust="spacing" textLength="98" x="145.75" y="25.5352">ActionListener</text><text fill="#000000" font-family="sans-serif" font-size="10" font-style="italic" lengthAdjust="spacing" textLength="71" x="159.25" y="38.1563">java.awt.event</text><line style="stroke:#A80036;stroke-width:1.5;" x1="71.5" x2="285.5" y1="45.2656" y2="45.2656"/><ellipse cx="81.5" cy="56.2656" fill="#84BE84" rx="3" ry="3" style="stroke:#038048;stroke-width:1.0;"/><text fill="#000000" font-family="sans-serif" font-size="11" font-style="italic" lengthAdjust="spacing" textLength="190" x="90.5" y="59.9004">actionPerformed(ActionEvent): void</text><!--MD5=[d3ca4cfce01dd2cd47b95e7d791df294]
reverse link java.awt.event.ActionListener to nz.ac.wgtn.swen225.lc.app.data.GameTimer--><path codeLine="21" d="M178.5,87.87 C178.5,99.82 178.5,112.91 178.5,125.94 " fill="none" id="java.awt.event.ActionListener-backto-nz.ac.wgtn.swen225.lc.app.data.GameTimer" style="stroke:#A80036;stroke-width:1.0;stroke-dasharray:7.0,7.0;"/><polygon fill="none" points="171.5,88.09,178.5,68.09,185.5,88.09,171.5,88.09" style="stroke:#A80036;stroke-width:1.0;"/><text fill="#888888" font-family="sans-serif" font-size="10" lengthAdjust="spacing" textLength="182" x="84.5" y="319.7493">UMLDoclet 2.0.14, PlantUML 1.2021.9</text><!--MD5=[4698ba037cd6a18b468bff95d06aa3f2]
@startuml
    set namespaceSeparator none
    hide empty fields
    hide empty methods

    class "<size:14>GameTimer\n<size:10>nz.ac.wgtn.swen225.lc.app.data" as nz.ac.wgtn.swen225.lc.app.data.GameTimer [[GameTimer.html]] {
        +gameTick: int
        +getGameTick(): int
        +getSecondsRemaining(): int
        +addGameKeyListener(GameKeyListener): void
        +addMainWindow(MainWindow): void
        +pause(boolean): void
        +resetTime(): void
        +addPropertyChangeListener(PropertyChangeListener): void
        +actionPerformed(ActionEvent): void
    }

    interface "<size:14>ActionListener\n<size:10>java.awt.event" as java.awt.event.ActionListener {
        {abstract} +actionPerformed(ActionEvent): void
    }

    java.awt.event.ActionListener <|.. nz.ac.wgtn.swen225.lc.app.data.GameTimer

    center footer UMLDoclet 2.0.14, PlantUML 1.2021.9
@enduml

PlantUML version 1.2021.9(Sun Jul 25 22:13:56 NZST 2021)
(APACHE source distribution)
Java Runtime: OpenJDK Runtime Environment
JVM: OpenJDK 64-Bit Server VM
Default Encoding: UTF-8
Language: en
Country: NZ
--></g></svg>