<?xml version="1.0" encoding="UTF-8" standalone="no"?><svg xmlns="http://www.w3.org/2000/svg" xmlns:xlink="http://www.w3.org/1999/xlink" contentScriptType="application/ecmascript" contentStyleType="text/css" height="381px" preserveAspectRatio="none" style="width:409px;height:381px;background:#FFFFFF;" version="1.1" viewBox="0 0 409 381" width="409px" zoomAndPan="magnify"><defs><filter height="300%" id="f1fd7jp756wh59" width="300%" x="-1" y="-1"><feGaussianBlur result="blurOut" stdDeviation="2.0"/><feColorMatrix in="blurOut" result="blurOut2" type="matrix" values="0 0 0 0 0 0 0 0 0 0 0 0 0 0 0 0 0 0 .4 0"/><feOffset dx="4.0" dy="4.0" in="blurOut2" result="blurOut3"/><feBlend in="SourceGraphic" in2="blurOut3" mode="normal"/></filter></defs><g><!--MD5=[a4bfdd6603b3dc601672860f91f33ea8]
cluster nz.ac.wgtn.swen225.lc.app.data--><polygon fill="#FFFFFF" filter="url(#f1fd7jp756wh59)" points="16,141.95,241,141.95,248,164.4383,392,164.4383,392,357.55,16,357.55,16,141.95" style="stroke:#000000;stroke-width:1.5;"/><line style="stroke:#000000;stroke-width:1.5;" x1="16" x2="248" y1="164.4383" y2="164.4383"/><text fill="#000000" font-family="sans-serif" font-size="14" font-weight="bold" lengthAdjust="spacing" textLength="219" x="20" y="157.4852">nz.ac.wgtn.swen225.lc.app.data</text><!--MD5=[d63c23c2d4b14118d71bd46d55a646bd]
cluster java.awt.event--><polygon fill="#FFFFFF" filter="url(#f1fd7jp756wh59)" points="80,6,186,6,193,28.4883,328,28.4883,328,117.95,80,117.95,80,6" style="stroke:#000000;stroke-width:1.5;"/><line style="stroke:#000000;stroke-width:1.5;" x1="80" x2="193" y1="28.4883" y2="28.4883"/><text fill="#000000" font-family="sans-serif" font-size="14" font-weight="bold" lengthAdjust="spacing" textLength="100" x="84" y="21.5352">java.awt.event</text><!--MD5=[560601170a57aecfa15019f38424df39]
class nz.ac.wgtn.swen225.lc.app.data.GameTimer--><a href="GameTimer.html" target="_top" title="GameTimer.html" xlink:actuate="onRequest" xlink:href="GameTimer.html" xlink:show="new" xlink:title="GameTimer.html" xlink:type="simple"><rect codeLine="3" fill="#FEFECE" filter="url(#f1fd7jp756wh59)" height="164.5957" id="nz.ac.wgtn.swen225.lc.app.data.GameTimer" style="stroke:#A80036;stroke-width:1.5;" width="343" x="32.5" y="176.95"/><ellipse cx="165.75" cy="192.95" fill="#ADD1B2" rx="11" ry="11" style="stroke:#A80036;stroke-width:1.0;"/><path d="M168.2231,199.0931 Q167.6421,199.3919 167.0029,199.5413 Q166.3638,199.6907 165.6582,199.6907 Q163.1514,199.6907 161.8315,198.0389 Q160.5117,196.387 160.5117,193.2659 Q160.5117,190.1365 161.8315,188.4847 Q163.1514,186.8328 165.6582,186.8328 Q166.3638,186.8328 167.0112,186.9822 Q167.6587,187.1316 168.2231,187.4305 L168.2231,190.1531 Q167.5923,189.5721 166.9988,189.3023 Q166.4053,189.0325 165.7744,189.0325 Q164.4297,189.0325 163.7449,190.0992 Q163.0601,191.1658 163.0601,193.2659 Q163.0601,195.3577 163.7449,196.4244 Q164.4297,197.491 165.7744,197.491 Q166.4053,197.491 166.9988,197.2212 Q167.5923,196.9515 168.2231,196.3704 Z " fill="#000000"/><text fill="#000000" font-family="sans-serif" font-size="12" lengthAdjust="spacing" textLength="68" x="186.25" y="197.4852">GameTimer</text><line style="stroke:#A80036;stroke-width:1.5;" x1="33.5" x2="374.5" y1="208.95" y2="208.95"/><ellipse cx="43.5" cy="219.95" rx="3" ry="3" style="stroke:#038048;stroke-width:1.0;fill:none;"/><text fill="#000000" font-family="sans-serif" font-size="11" lengthAdjust="spacing" textLength="71" x="52.5" y="223.5848">gameTick: int</text><line style="stroke:#A80036;stroke-width:1.5;" x1="33.5" x2="374.5" y1="229.9051" y2="229.9051"/><ellipse cx="43.5" cy="240.9051" fill="#84BE84" rx="3" ry="3" style="stroke:#038048;stroke-width:1.0;"/><text fill="#000000" font-family="sans-serif" font-size="11" lengthAdjust="spacing" textLength="97" x="52.5" y="244.5398">getGameTick(): int</text><ellipse cx="43.5" cy="253.8602" fill="#84BE84" rx="3" ry="3" style="stroke:#038048;stroke-width:1.0;"/><text fill="#000000" font-family="sans-serif" font-size="11" lengthAdjust="spacing" textLength="146" x="52.5" y="257.4949">getSecondsRemaining(): int</text><ellipse cx="43.5" cy="266.8152" fill="#84BE84" rx="3" ry="3" style="stroke:#038048;stroke-width:1.0;"/><text fill="#000000" font-family="sans-serif" font-size="11" lengthAdjust="spacing" textLength="241" x="52.5" y="270.45">addGameKeyListener(GameKeyListener): void</text><ellipse cx="43.5" cy="279.7703" fill="#84BE84" rx="3" ry="3" style="stroke:#038048;stroke-width:1.0;"/><text fill="#000000" font-family="sans-serif" font-size="11" lengthAdjust="spacing" textLength="189" x="52.5" y="283.4051">addMainWindow(MainWindow): void</text><ellipse cx="43.5" cy="292.7254" fill="#84BE84" rx="3" ry="3" style="stroke:#038048;stroke-width:1.0;"/><text fill="#000000" font-family="sans-serif" font-size="11" lengthAdjust="spacing" textLength="112" x="52.5" y="296.3602">pause(boolean): void</text><ellipse cx="43.5" cy="305.6805" fill="#84BE84" rx="3" ry="3" style="stroke:#038048;stroke-width:1.0;"/><text fill="#000000" font-family="sans-serif" font-size="11" lengthAdjust="spacing" textLength="90" x="52.5" y="309.3152">resetTime(): void</text><ellipse cx="43.5" cy="318.6355" fill="#84BE84" rx="3" ry="3" style="stroke:#038048;stroke-width:1.0;"/><text fill="#000000" font-family="sans-serif" font-size="11" lengthAdjust="spacing" textLength="317" x="52.5" y="322.2703">addPropertyChangeListener(PropertyChangeListener): void</text><ellipse cx="43.5" cy="331.5906" fill="#84BE84" rx="3" ry="3" style="stroke:#038048;stroke-width:1.0;"/><text fill="#000000" font-family="sans-serif" font-size="11" lengthAdjust="spacing" textLength="190" x="52.5" y="335.2254">actionPerformed(ActionEvent): void</text></a><!--MD5=[6631281fcee7fc541b441b6c950a0fa0]
class java.awt.event.ActionListener--><rect codeLine="19" fill="#FEFECE" filter="url(#f1fd7jp756wh59)" height="60.9551" id="java.awt.event.ActionListener" style="stroke:#A80036;stroke-width:1.5;" width="216" x="96" y="41"/><ellipse cx="159.75" cy="57" fill="#B4A7E5" rx="11" ry="11" style="stroke:#A80036;stroke-width:1.0;"/><path d="M156.1777,53.2651 L156.1777,51.1069 L163.5571,51.1069 L163.5571,53.2651 L161.0918,53.2651 L161.0918,61.3418 L163.5571,61.3418 L163.5571,63.5 L156.1777,63.5 L156.1777,61.3418 L158.6431,61.3418 L158.6431,53.2651 Z " fill="#000000"/><text fill="#000000" font-family="sans-serif" font-size="12" font-style="italic" lengthAdjust="spacing" textLength="80" x="180.25" y="61.5352">ActionListener</text><line style="stroke:#A80036;stroke-width:1.5;" x1="97" x2="311" y1="73" y2="73"/><line style="stroke:#A80036;stroke-width:1.5;" x1="97" x2="311" y1="81" y2="81"/><ellipse cx="107" cy="92" fill="#84BE84" rx="3" ry="3" style="stroke:#038048;stroke-width:1.0;"/><text fill="#000000" font-family="sans-serif" font-size="11" font-style="italic" lengthAdjust="spacing" textLength="190" x="116" y="95.6348">actionPerformed(ActionEvent): void</text><!--MD5=[d3ca4cfce01dd2cd47b95e7d791df294]
reverse link java.awt.event.ActionListener to nz.ac.wgtn.swen225.lc.app.data.GameTimer--><path codeLine="15" d="M204,123.77 C204,140.17 204,158.76 204,176.76 " fill="none" id="java.awt.event.ActionListener-backto-nz.ac.wgtn.swen225.lc.app.data.GameTimer" style="stroke:#A80036;stroke-width:1.0;stroke-dasharray:7.0,7.0;"/><polygon fill="none" points="197,123.84,204,103.84,211,123.84,197,123.84" style="stroke:#A80036;stroke-width:1.0;"/><text fill="#888888" font-family="sans-serif" font-size="10" lengthAdjust="spacing" textLength="182" x="107" y="373.218">UMLDoclet 2.0.14, PlantUML 1.2021.9</text><!--MD5=[2fcdd42fd661e03cc567e25ec19c2ead]
@startuml
    namespace nz.ac.wgtn.swen225.lc.app.data {

        class GameTimer [[GameTimer.html]] {
            +gameTick: int
            +getGameTick(): int
            +getSecondsRemaining(): int
            +addGameKeyListener(GameKeyListener): void
            +addMainWindow(MainWindow): void
            +pause(boolean): void
            +resetTime(): void
            +addPropertyChangeListener(PropertyChangeListener): void
            +actionPerformed(ActionEvent): void
        }

        java.awt.event.ActionListener <|.. GameTimer
    }

    namespace java.awt.event {
        interface ActionListener {
            {abstract} +actionPerformed(ActionEvent): void
        }
    }

    center footer UMLDoclet 2.0.14, PlantUML 1.2021.9
@enduml

PlantUML version 1.2021.9(Sun Jul 25 22:13:56 NZST 2021)
(APACHE source distribution)
Java Runtime: OpenJDK Runtime Environment
JVM: OpenJDK 64-Bit Server VM
Default Encoding: UTF-8
Language: en
Country: NZ
--></g></svg>