<?xml version="1.0" encoding="UTF-8" standalone="no"?><svg xmlns="http://www.w3.org/2000/svg" xmlns:xlink="http://www.w3.org/1999/xlink" contentScriptType="application/ecmascript" contentStyleType="text/css" height="315px" preserveAspectRatio="none" style="width:444px;height:315px;background:#FFFFFF;" version="1.1" viewBox="0 0 444 315" width="444px" zoomAndPan="magnify"><defs><filter height="300%" id="fw6e3e0h4gnv4" width="300%" x="-1" y="-1"><feGaussianBlur result="blurOut" stdDeviation="2.0"/><feColorMatrix in="blurOut" result="blurOut2" type="matrix" values="0 0 0 0 0 0 0 0 0 0 0 0 0 0 0 0 0 0 .4 0"/><feOffset dx="4.0" dy="4.0" in="blurOut2" result="blurOut3"/><feBlend in="SourceGraphic" in2="blurOut3" mode="normal"/></filter></defs><g><!--MD5=[f0880ea9b670e5f105cbbf85d26bc176]
class nz.ac.wgtn.swen225.lc.renderer.BoardView--><a href="BoardView.html" target="_top" title="BoardView.html" xlink:actuate="onRequest" xlink:href="BoardView.html" xlink:show="new" xlink:title="BoardView.html" xlink:type="simple"><rect codeLine="5" fill="#FEFECE" filter="url(#fw6e3e0h4gnv4)" height="157.9063" id="nz.ac.wgtn.swen225.lc.renderer.BoardView" style="stroke:#A80036;stroke-width:1.5;" width="267" x="48.5" y="126.22"/><ellipse cx="100.25" cy="145.3528" fill="#ADD1B2" rx="11" ry="11" style="stroke:#A80036;stroke-width:1.0;"/><path d="M102.7231,151.4959 Q102.1421,151.7947 101.5029,151.9441 Q100.8638,152.0935 100.1582,152.0935 Q97.6514,152.0935 96.3315,150.4417 Q95.0117,148.7898 95.0117,145.6687 Q95.0117,142.5393 96.3315,140.8875 Q97.6514,139.2356 100.1582,139.2356 Q100.8638,139.2356 101.5112,139.385 Q102.1587,139.5345 102.7231,139.8333 L102.7231,142.5559 Q102.0923,141.9749 101.4988,141.7051 Q100.9053,141.4353 100.2744,141.4353 Q98.9297,141.4353 98.2449,142.502 Q97.5601,143.5686 97.5601,145.6687 Q97.5601,147.7605 98.2449,148.8272 Q98.9297,149.8938 100.2744,149.8938 Q100.9053,149.8938 101.4988,149.6241 Q102.0923,149.3543 102.7231,148.7732 Z " fill="#000000"/><text fill="#000000" font-family="sans-serif" font-size="14" lengthAdjust="spacing" textLength="72" x="162.25" y="144.7552">BoardView</text><text fill="#000000" font-family="sans-serif" font-size="10" lengthAdjust="spacing" textLength="155" x="120.75" y="157.3763">nz.ac.wgtn.swen225.lc.renderer</text><line style="stroke:#A80036;stroke-width:1.5;" x1="49.5" x2="314.5" y1="164.4856" y2="164.4856"/><ellipse cx="59.5" cy="175.4856" rx="3" ry="3" style="stroke:#038048;stroke-width:1.0;fill:none;"/><text fill="#000000" font-family="sans-serif" font-size="11" lengthAdjust="spacing" text-decoration="underline" textLength="95" x="68.5" y="179.1204">frameCounter: int</text><ellipse cx="59.5" cy="188.4407" rx="3" ry="3" style="stroke:#038048;stroke-width:1.0;fill:none;"/><text fill="#000000" font-family="sans-serif" font-size="11" lengthAdjust="spacing" text-decoration="underline" textLength="99" x="68.5" y="192.0755">frameTimer: Timer</text><ellipse cx="59.5" cy="201.3958" rx="3" ry="3" style="stroke:#038048;stroke-width:1.0;fill:none;"/><text fill="#000000" font-family="sans-serif" font-size="11" lengthAdjust="spacing" textLength="156" x="68.5" y="205.0305">soundControl: SoundControl</text><ellipse cx="59.5" cy="214.3509" rx="3" ry="3" style="stroke:#038048;stroke-width:1.0;fill:none;"/><text fill="#000000" font-family="sans-serif" font-size="11" lengthAdjust="spacing" textLength="129" x="68.5" y="217.9856">BOARD_SIZE: Dimension</text><ellipse cx="59.5" cy="227.3059" rx="3" ry="3" style="stroke:#038048;stroke-width:1.0;fill:none;"/><text fill="#000000" font-family="sans-serif" font-size="11" lengthAdjust="spacing" text-decoration="underline" textLength="70" x="68.5" y="230.9407">TILE_SIZE: int</text><line style="stroke:#A80036;stroke-width:1.5;" x1="49.5" x2="314.5" y1="237.261" y2="237.261"/><ellipse cx="59.5" cy="248.261" fill="#84BE84" rx="3" ry="3" style="stroke:#038048;stroke-width:1.0;"/><text fill="#000000" font-family="sans-serif" font-size="11" lengthAdjust="spacing" textLength="125" x="68.5" y="251.8958">BoardView(GameModel)</text><ellipse cx="59.5" cy="261.2161" fill="#84BE84" rx="3" ry="3" style="stroke:#038048;stroke-width:1.0;"/><text fill="#000000" font-family="sans-serif" font-size="11" lengthAdjust="spacing" textLength="87" x="68.5" y="264.8509">drawHelp(): void</text><ellipse cx="59.5" cy="274.1712" fill="#84BE84" rx="3" ry="3" style="stroke:#038048;stroke-width:1.0;"/><text fill="#000000" font-family="sans-serif" font-size="11" lengthAdjust="spacing" textLength="241" x="68.5" y="277.8059">propertyChange(PropertyChangeEvent): void</text></a><!--MD5=[5e6c2f023040cfdbf03fc9c867f5d54e]
class javax.swing.JLayeredPane--><rect codeLine="16" fill="#FEFECE" filter="url(#fw6e3e0h4gnv4)" height="38.2656" id="javax.swing.JLayeredPane" style="stroke:#A80036;stroke-width:1.5;" width="122" x="7" y="17.48"/><ellipse cx="22" cy="36.6128" fill="#ADD1B2" rx="11" ry="11" style="stroke:#A80036;stroke-width:1.0;"/><path d="M24.4731,42.7559 Q23.8921,43.0547 23.2529,43.2041 Q22.6138,43.3535 21.9082,43.3535 Q19.4014,43.3535 18.0815,41.7017 Q16.7617,40.0498 16.7617,36.9287 Q16.7617,33.7993 18.0815,32.1475 Q19.4014,30.4956 21.9082,30.4956 Q22.6138,30.4956 23.2612,30.645 Q23.9087,30.7945 24.4731,31.0933 L24.4731,33.8159 Q23.8423,33.2349 23.2488,32.9651 Q22.6553,32.6953 22.0244,32.6953 Q20.6797,32.6953 19.9949,33.762 Q19.3101,34.8286 19.3101,36.9287 Q19.3101,39.0205 19.9949,40.0872 Q20.6797,41.1538 22.0244,41.1538 Q22.6553,41.1538 23.2488,40.8841 Q23.8423,40.6143 24.4731,40.0332 Z " fill="#000000"/><text fill="#000000" font-family="sans-serif" font-size="14" lengthAdjust="spacing" textLength="90" x="36" y="36.0152">JLayeredPane</text><text fill="#000000" font-family="sans-serif" font-size="10" lengthAdjust="spacing" textLength="57" x="52.5" y="48.6363">javax.swing</text><!--MD5=[0d154d630b9a073463cbcbf880061a38]
class java.beans.PropertyChangeListener--><rect codeLine="17" fill="#FEFECE" filter="url(#fw6e3e0h4gnv4)" height="59.2207" id="java.beans.PropertyChangeListener" style="stroke:#A80036;stroke-width:1.5;" width="267" x="163.5" y="7"/><ellipse cx="210.25" cy="26.1328" fill="#B4A7E5" rx="11" ry="11" style="stroke:#A80036;stroke-width:1.0;"/><path d="M206.6777,22.3979 L206.6777,20.2397 L214.0571,20.2397 L214.0571,22.3979 L211.5918,22.3979 L211.5918,30.4746 L214.0571,30.4746 L214.0571,32.6328 L206.6777,32.6328 L206.6777,30.4746 L209.1431,30.4746 L209.1431,22.3979 Z " fill="#000000"/><text fill="#000000" font-family="sans-serif" font-size="14" font-style="italic" lengthAdjust="spacing" textLength="165" x="230.75" y="25.5352">PropertyChangeListener</text><text fill="#000000" font-family="sans-serif" font-size="10" font-style="italic" lengthAdjust="spacing" textLength="52" x="287.25" y="38.1563">java.beans</text><line style="stroke:#A80036;stroke-width:1.5;" x1="164.5" x2="429.5" y1="45.2656" y2="45.2656"/><ellipse cx="174.5" cy="56.2656" fill="#84BE84" rx="3" ry="3" style="stroke:#038048;stroke-width:1.0;"/><text fill="#000000" font-family="sans-serif" font-size="11" font-style="italic" lengthAdjust="spacing" textLength="241" x="183.5" y="59.9004">propertyChange(PropertyChangeEvent): void</text><!--MD5=[b4bcfdd9150b78f4c7249c432bb136b5]
reverse link javax.swing.JLayeredPane to nz.ac.wgtn.swen225.lc.renderer.BoardView--><path codeLine="21" d="M92.61,73.57 C103.14,88.96 115.88,107.57 128.4,125.86 " fill="none" id="javax.swing.JLayeredPane-backto-nz.ac.wgtn.swen225.lc.renderer.BoardView" style="stroke:#A80036;stroke-width:1.0;"/><polygon fill="none" points="87.01,77.78,81.49,57.32,98.56,69.87,87.01,77.78" style="stroke:#A80036;stroke-width:1.0;"/><!--MD5=[125e8fd5ea1856c7498aa01a0ebdd049]
reverse link java.beans.PropertyChangeListener to nz.ac.wgtn.swen225.lc.renderer.BoardView--><path codeLine="22" d="M264.77,84.3 C255.85,97.21 245.93,111.58 236.14,125.76 " fill="none" id="java.beans.PropertyChangeListener-backto-nz.ac.wgtn.swen225.lc.renderer.BoardView" style="stroke:#A80036;stroke-width:1.0;stroke-dasharray:7.0,7.0;"/><polygon fill="none" points="258.98,80.35,276.11,67.87,270.51,88.31,258.98,80.35" style="stroke:#A80036;stroke-width:1.0;"/><text fill="#888888" font-family="sans-serif" font-size="10" lengthAdjust="spacing" textLength="182" x="124.75" y="306.7942">UMLDoclet 2.0.14, PlantUML 1.2021.9</text><!--MD5=[fffabea5802ebec6d65a304c2958ff28]
@startuml
    set namespaceSeparator none
    hide empty fields
    hide empty methods

    class "<size:14>BoardView\n<size:10>nz.ac.wgtn.swen225.lc.renderer" as nz.ac.wgtn.swen225.lc.renderer.BoardView [[BoardView.html]] {
        {static} +frameCounter: int
        {static} +frameTimer: Timer
        +soundControl: SoundControl
        +BOARD_SIZE: Dimension
        {static} +TILE_SIZE: int
        +BoardView(GameModel)
        +drawHelp(): void
        +propertyChange(PropertyChangeEvent): void
    }

    class "<size:14>JLayeredPane\n<size:10>javax.swing" as javax.swing.JLayeredPane
    interface "<size:14>PropertyChangeListener\n<size:10>java.beans" as java.beans.PropertyChangeListener {
        {abstract} +propertyChange(PropertyChangeEvent): void
    }

    javax.swing.JLayeredPane <|- - nz.ac.wgtn.swen225.lc.renderer.BoardView
    java.beans.PropertyChangeListener <|.. nz.ac.wgtn.swen225.lc.renderer.BoardView

    center footer UMLDoclet 2.0.14, PlantUML 1.2021.9
@enduml

PlantUML version 1.2021.9(Sun Jul 25 22:13:56 NZST 2021)
(APACHE source distribution)
Java Runtime: OpenJDK Runtime Environment
JVM: OpenJDK 64-Bit Server VM
Default Encoding: UTF-8
Language: en
Country: NZ
--></g></svg>