<?xml version="1.0" encoding="UTF-8" standalone="no"?><svg xmlns="http://www.w3.org/2000/svg" xmlns:xlink="http://www.w3.org/1999/xlink" contentScriptType="application/ecmascript" contentStyleType="text/css" height="221px" preserveAspectRatio="none" style="width:228px;height:221px;background:#FFFFFF;" version="1.1" viewBox="0 0 228 221" width="228px" zoomAndPan="magnify"><defs><filter height="300%" id="f6d1e6duxb658" width="300%" x="-1" y="-1"><feGaussianBlur result="blurOut" stdDeviation="2.0"/><feColorMatrix in="blurOut" result="blurOut2" type="matrix" values="0 0 0 0 0 0 0 0 0 0 0 0 0 0 0 0 0 0 .4 0"/><feOffset dx="4.0" dy="4.0" in="blurOut2" result="blurOut3"/><feBlend in="SourceGraphic" in2="blurOut3" mode="normal"/></filter></defs><g><!--MD5=[164c93a523ea75cf50cb570d830ccc60]
class nz.ac.wgtn.swen225.lc.renderer.ImagePanel--><a href="ImagePanel.html" target="_top" title="ImagePanel.html" xlink:actuate="onRequest" xlink:href="ImagePanel.html" xlink:show="new" xlink:title="ImagePanel.html" xlink:type="simple"><rect codeLine="5" fill="#FEFECE" filter="url(#f6d1e6duxb658)" height="85.1309" id="nz.ac.wgtn.swen225.lc.renderer.ImagePanel" style="stroke:#A80036;stroke-width:1.5;" width="207" x="7" y="105.27"/><ellipse cx="31" cy="124.4028" fill="#ADD1B2" rx="11" ry="11" style="stroke:#A80036;stroke-width:1.0;"/><path d="M33.4731,130.5459 Q32.8921,130.8447 32.2529,130.9941 Q31.6138,131.1435 30.9082,131.1435 Q28.4014,131.1435 27.0815,129.4917 Q25.7617,127.8398 25.7617,124.7187 Q25.7617,121.5893 27.0815,119.9375 Q28.4014,118.2856 30.9082,118.2856 Q31.6138,118.2856 32.2612,118.435 Q32.9087,118.5845 33.4731,118.8833 L33.4731,121.6059 Q32.8423,121.0249 32.2488,120.7551 Q31.6553,120.4853 31.0244,120.4853 Q29.6797,120.4853 28.9949,121.552 Q28.3101,122.6186 28.3101,124.7187 Q28.3101,126.8105 28.9949,127.8772 Q29.6797,128.9438 31.0244,128.9438 Q31.6553,128.9438 32.2488,128.6741 Q32.8423,128.4043 33.4731,127.8232 Z " fill="#000000"/><text fill="#000000" font-family="sans-serif" font-size="14" lengthAdjust="spacing" textLength="79" x="85" y="123.8052">ImagePanel</text><text fill="#000000" font-family="sans-serif" font-size="10" lengthAdjust="spacing" textLength="155" x="47" y="136.4263">nz.ac.wgtn.swen225.lc.renderer</text><line style="stroke:#A80036;stroke-width:1.5;" x1="8" x2="213" y1="143.5356" y2="143.5356"/><ellipse cx="18" cy="154.5356" fill="#84BE84" rx="3" ry="3" style="stroke:#038048;stroke-width:1.0;"/><text fill="#000000" font-family="sans-serif" font-size="11" lengthAdjust="spacing" textLength="145" x="27" y="158.1704">ImagePanel(BufferedImage)</text><ellipse cx="18" cy="167.4907" fill="#84BE84" rx="3" ry="3" style="stroke:#038048;stroke-width:1.0;"/><text fill="#000000" font-family="sans-serif" font-size="11" lengthAdjust="spacing" textLength="181" x="27" y="171.1255">ImagePanel(BufferedImage, Color)</text><ellipse cx="18" cy="180.4458" fill="#84BE84" rx="3" ry="3" style="stroke:#038048;stroke-width:1.0;"/><text fill="#000000" font-family="sans-serif" font-size="11" lengthAdjust="spacing" textLength="158" x="27" y="184.0805">setPreferredSize(int, int): void</text></a><!--MD5=[56a185cb33bdc7c23303e5865f20a19b]
class javax.swing.JPanel--><rect codeLine="11" fill="#FEFECE" filter="url(#f6d1e6duxb658)" height="38.2656" id="javax.swing.JPanel" style="stroke:#A80036;stroke-width:1.5;" width="89" x="66" y="7"/><ellipse cx="81" cy="26.1328" fill="#ADD1B2" rx="11" ry="11" style="stroke:#A80036;stroke-width:1.0;"/><path d="M83.4731,32.2759 Q82.8921,32.5747 82.2529,32.7241 Q81.6138,32.8735 80.9082,32.8735 Q78.4014,32.8735 77.0815,31.2217 Q75.7617,29.5698 75.7617,26.4487 Q75.7617,23.3193 77.0815,21.6675 Q78.4014,20.0156 80.9082,20.0156 Q81.6138,20.0156 82.2612,20.165 Q82.9087,20.3145 83.4731,20.6133 L83.4731,23.3359 Q82.8423,22.7549 82.2488,22.4851 Q81.6553,22.2153 81.0244,22.2153 Q79.6797,22.2153 78.9949,23.282 Q78.3101,24.3486 78.3101,26.4487 Q78.3101,28.5405 78.9949,29.6072 Q79.6797,30.6738 81.0244,30.6738 Q81.6553,30.6738 82.2488,30.4041 Q82.8423,30.1343 83.4731,29.5532 Z " fill="#000000"/><text fill="#000000" font-family="sans-serif" font-size="14" lengthAdjust="spacing" textLength="41" x="103" y="25.5352">JPanel</text><text fill="#000000" font-family="sans-serif" font-size="10" lengthAdjust="spacing" textLength="57" x="95" y="38.1563">javax.swing</text><!--MD5=[e7ad5854866dbb1732ac18e29390bca3]
reverse link javax.swing.JPanel to nz.ac.wgtn.swen225.lc.renderer.ImagePanel--><path codeLine="13" d="M110.5,66.83 C110.5,79.01 110.5,92.46 110.5,104.79 " fill="none" id="javax.swing.JPanel-backto-nz.ac.wgtn.swen225.lc.renderer.ImagePanel" style="stroke:#A80036;stroke-width:1.0;"/><polygon fill="none" points="103.5,67.09,110.5,47.09,117.5,67.09,103.5,67.09" style="stroke:#A80036;stroke-width:1.0;"/><text fill="#888888" font-family="sans-serif" font-size="10" lengthAdjust="spacing" textLength="182" x="16.5" y="213.0688">UMLDoclet 2.0.14, PlantUML 1.2021.9</text><!--MD5=[dafb08e94fc9510de18b2769811889b1]
@startuml
    set namespaceSeparator none
    hide empty fields
    hide empty methods

    class "<size:14>ImagePanel\n<size:10>nz.ac.wgtn.swen225.lc.renderer" as nz.ac.wgtn.swen225.lc.renderer.ImagePanel [[ImagePanel.html]] {
        +ImagePanel(BufferedImage)
        +ImagePanel(BufferedImage, Color)
        +setPreferredSize(int, int): void
    }

    class "<size:14>JPanel\n<size:10>javax.swing" as javax.swing.JPanel

    javax.swing.JPanel <|- - nz.ac.wgtn.swen225.lc.renderer.ImagePanel

    center footer UMLDoclet 2.0.14, PlantUML 1.2021.9
@enduml

PlantUML version 1.2021.9(Sun Jul 25 22:13:56 NZST 2021)
(APACHE source distribution)
Java Runtime: OpenJDK Runtime Environment
JVM: OpenJDK 64-Bit Server VM
Default Encoding: UTF-8
Language: en
Country: NZ
--></g></svg>