<?xml version="1.0" encoding="UTF-8" standalone="no"?><svg xmlns="http://www.w3.org/2000/svg" xmlns:xlink="http://www.w3.org/1999/xlink" contentScriptType="application/ecmascript" contentStyleType="text/css" height="260px" preserveAspectRatio="none" style="width:282px;height:260px;background:#FFFFFF;" version="1.1" viewBox="0 0 282 260" width="282px" zoomAndPan="magnify"><defs><filter height="300%" id="f1gy1ghnypu1mc" width="300%" x="-1" y="-1"><feGaussianBlur result="blurOut" stdDeviation="2.0"/><feColorMatrix in="blurOut" result="blurOut2" type="matrix" values="0 0 0 0 0 0 0 0 0 0 0 0 0 0 0 0 0 0 .4 0"/><feOffset dx="4.0" dy="4.0" in="blurOut2" result="blurOut3"/><feBlend in="SourceGraphic" in2="blurOut3" mode="normal"/></filter></defs><g><!--MD5=[0e5a0f264728c86485323c03cc20a323]
class nz.ac.wgtn.swen225.lc.renderer.MainWindow--><a href="MainWindow.html" target="_top" title="MainWindow.html" xlink:actuate="onRequest" xlink:href="MainWindow.html" xlink:show="new" xlink:title="MainWindow.html" xlink:type="simple"><rect codeLine="5" fill="#FEFECE" filter="url(#f1gy1ghnypu1mc)" height="123.9961" id="nz.ac.wgtn.swen225.lc.renderer.MainWindow" style="stroke:#A80036;stroke-width:1.5;" width="261" x="7" y="105.26"/><ellipse cx="55.75" cy="124.3928" fill="#ADD1B2" rx="11" ry="11" style="stroke:#A80036;stroke-width:1.0;"/><path d="M58.2231,130.5359 Q57.6421,130.8347 57.0029,130.9841 Q56.3638,131.1335 55.6582,131.1335 Q53.1514,131.1335 51.8315,129.4817 Q50.5117,127.8298 50.5117,124.7087 Q50.5117,121.5793 51.8315,119.9275 Q53.1514,118.2756 55.6582,118.2756 Q56.3638,118.2756 57.0112,118.425 Q57.6587,118.5745 58.2231,118.8733 L58.2231,121.5959 Q57.5923,121.0149 56.9988,120.7451 Q56.4053,120.4753 55.7744,120.4753 Q54.4297,120.4753 53.7449,121.542 Q53.0601,122.6086 53.0601,124.7087 Q53.0601,126.8005 53.7449,127.8672 Q54.4297,128.9338 55.7744,128.9338 Q56.4053,128.9338 56.9988,128.6641 Q57.5923,128.3943 58.2231,127.8132 Z " fill="#000000"/><text fill="#000000" font-family="sans-serif" font-size="14" lengthAdjust="spacing" textLength="87" x="110.25" y="123.7952">MainWindow</text><text fill="#000000" font-family="sans-serif" font-size="10" lengthAdjust="spacing" textLength="155" x="76.25" y="136.4163">nz.ac.wgtn.swen225.lc.renderer</text><line style="stroke:#A80036;stroke-width:1.5;" x1="8" x2="267" y1="143.5256" y2="143.5256"/><ellipse cx="18" cy="154.5256" fill="#84BE84" rx="3" ry="3" style="stroke:#038048;stroke-width:1.0;"/><text fill="#000000" font-family="sans-serif" font-size="11" lengthAdjust="spacing" textLength="136" x="27" y="158.1604">MainWindow(GameModel)</text><ellipse cx="18" cy="167.4807" fill="#84BE84" rx="3" ry="3" style="stroke:#038048;stroke-width:1.0;"/><text fill="#000000" font-family="sans-serif" font-size="11" lengthAdjust="spacing" textLength="235" x="27" y="171.1155">getApplicationWindow(): ApplicationWindow</text><ellipse cx="18" cy="180.4358" fill="#84BE84" rx="3" ry="3" style="stroke:#038048;stroke-width:1.0;"/><text fill="#000000" font-family="sans-serif" font-size="11" lengthAdjust="spacing" textLength="134" x="27" y="184.0705">setPaused(boolean): void</text><ellipse cx="18" cy="193.3909" fill="#84BE84" rx="3" ry="3" style="stroke:#038048;stroke-width:1.0;"/><text fill="#000000" font-family="sans-serif" font-size="11" lengthAdjust="spacing" textLength="71" x="27" y="197.0256">setFail(): void</text><ellipse cx="18" cy="206.3459" fill="#84BE84" rx="3" ry="3" style="stroke:#038048;stroke-width:1.0;"/><text fill="#000000" font-family="sans-serif" font-size="11" lengthAdjust="spacing" textLength="141" x="27" y="209.9807">getBoardView(): BoardView</text><ellipse cx="18" cy="219.301" fill="#84BE84" rx="3" ry="3" style="stroke:#038048;stroke-width:1.0;"/><text fill="#000000" font-family="sans-serif" font-size="11" lengthAdjust="spacing" textLength="96" x="27" y="222.9358">setWinView(): void</text></a><!--MD5=[18a7562403221f513ca44e0f82c4c17a]
class javax.swing.JFrame--><rect codeLine="14" fill="#FEFECE" filter="url(#f1gy1ghnypu1mc)" height="38.2656" id="javax.swing.JFrame" style="stroke:#A80036;stroke-width:1.5;" width="89" x="93" y="7"/><ellipse cx="108" cy="26.1328" fill="#ADD1B2" rx="11" ry="11" style="stroke:#A80036;stroke-width:1.0;"/><path d="M110.4731,32.2759 Q109.8921,32.5747 109.2529,32.7241 Q108.6138,32.8735 107.9082,32.8735 Q105.4014,32.8735 104.0815,31.2217 Q102.7617,29.5698 102.7617,26.4487 Q102.7617,23.3193 104.0815,21.6675 Q105.4014,20.0156 107.9082,20.0156 Q108.6138,20.0156 109.2612,20.165 Q109.9087,20.3145 110.4731,20.6133 L110.4731,23.3359 Q109.8423,22.7549 109.2488,22.4851 Q108.6553,22.2153 108.0244,22.2153 Q106.6797,22.2153 105.9949,23.282 Q105.3101,24.3486 105.3101,26.4487 Q105.3101,28.5405 105.9949,29.6072 Q106.6797,30.6738 108.0244,30.6738 Q108.6553,30.6738 109.2488,30.4041 Q109.8423,30.1343 110.4731,29.5532 Z " fill="#000000"/><text fill="#000000" font-family="sans-serif" font-size="14" lengthAdjust="spacing" textLength="47" x="127" y="25.5352">JFrame</text><text fill="#000000" font-family="sans-serif" font-size="10" lengthAdjust="spacing" textLength="57" x="122" y="38.1563">javax.swing</text><!--MD5=[eeeafcec555361e0f1c0fb35fb21ebf2]
reverse link javax.swing.JFrame to nz.ac.wgtn.swen225.lc.renderer.MainWindow--><path codeLine="16" d="M137.5,66.75 C137.5,78.6 137.5,91.89 137.5,104.8 " fill="none" id="javax.swing.JFrame-backto-nz.ac.wgtn.swen225.lc.renderer.MainWindow" style="stroke:#A80036;stroke-width:1.0;"/><polygon fill="none" points="130.5,67.12,137.5,47.12,144.5,67.12,130.5,67.12" style="stroke:#A80036;stroke-width:1.0;"/><text fill="#888888" font-family="sans-serif" font-size="10" lengthAdjust="spacing" textLength="182" x="43.5" y="251.9241">UMLDoclet 2.0.14, PlantUML 1.2021.9</text><!--MD5=[5fbc964aeb21484abab9b7c15f5fe078]
@startuml
    set namespaceSeparator none
    hide empty fields
    hide empty methods

    class "<size:14>MainWindow\n<size:10>nz.ac.wgtn.swen225.lc.renderer" as nz.ac.wgtn.swen225.lc.renderer.MainWindow [[MainWindow.html]] {
        +MainWindow(GameModel)
        +getApplicationWindow(): ApplicationWindow
        +setPaused(boolean): void
        +setFail(): void
        +getBoardView(): BoardView
        +setWinView(): void
    }

    class "<size:14>JFrame\n<size:10>javax.swing" as javax.swing.JFrame

    javax.swing.JFrame <|- - nz.ac.wgtn.swen225.lc.renderer.MainWindow

    center footer UMLDoclet 2.0.14, PlantUML 1.2021.9
@enduml

PlantUML version 1.2021.9(Sun Jul 25 22:13:56 NZST 2021)
(APACHE source distribution)
Java Runtime: OpenJDK Runtime Environment
JVM: OpenJDK 64-Bit Server VM
Default Encoding: UTF-8
Language: en
Country: NZ
--></g></svg>