<?xml version="1.0" encoding="UTF-8" standalone="no"?><svg xmlns="http://www.w3.org/2000/svg" xmlns:xlink="http://www.w3.org/1999/xlink" contentScriptType="application/ecmascript" contentStyleType="text/css" height="956px" preserveAspectRatio="none" style="width:1158px;height:956px;background:#FFFFFF;" version="1.1" viewBox="0 0 1158 956" width="1158px" zoomAndPan="magnify"><defs><filter height="300%" id="f5iylj1ocb5pu" width="300%" x="-1" y="-1"><feGaussianBlur result="blurOut" stdDeviation="2.0"/><feColorMatrix in="blurOut" result="blurOut2" type="matrix" values="0 0 0 0 0 0 0 0 0 0 0 0 0 0 0 0 0 0 .4 0"/><feOffset dx="4.0" dy="4.0" in="blurOut2" result="blurOut3"/><feBlend in="SourceGraphic" in2="blurOut3" mode="normal"/></filter></defs><g><!--MD5=[ff17a17c8d58aa71d00458aa20630b94]
cluster nz.ac.wgtn.swen225.lc.renderer--><polygon fill="#FFFFFF" filter="url(#f5iylj1ocb5pu)" points="16,228.68,241,228.68,248,251.1683,769,251.1683,769,932.83,16,932.83,16,228.68" style="stroke:#000000;stroke-width:1.5;"/><line style="stroke:#000000;stroke-width:1.5;" x1="16" x2="248" y1="251.1683" y2="251.1683"/><text fill="#000000" font-family="sans-serif" font-size="14" font-weight="bold" lengthAdjust="spacing" textLength="219" x="20" y="244.2152">nz.ac.wgtn.swen225.lc.renderer</text><!--MD5=[535aab4de90d4dfa371a9b40d5438fc3]
cluster javax.swing--><polygon fill="#FFFFFF" filter="url(#f5iylj1ocb5pu)" points="403,6,492,6,499,28.4883,849,28.4883,849,195.68,403,195.68,403,6" style="stroke:#000000;stroke-width:1.5;"/><line style="stroke:#000000;stroke-width:1.5;" x1="403" x2="499" y1="28.4883" y2="28.4883"/><text fill="#000000" font-family="sans-serif" font-size="14" font-weight="bold" lengthAdjust="spacing" textLength="83" x="407" y="21.5352">javax.swing</text><!--MD5=[6a39a39c47fb706f08052322cf4a8af1]
cluster java.beans--><polygon fill="#FFFFFF" filter="url(#f5iylj1ocb5pu)" points="843,254.59,923,254.59,930,277.0783,1141,277.0783,1141,366.55,843,366.55,843,254.59" style="stroke:#000000;stroke-width:1.5;"/><line style="stroke:#000000;stroke-width:1.5;" x1="843" x2="930" y1="277.0783" y2="277.0783"/><text fill="#000000" font-family="sans-serif" font-size="14" font-weight="bold" lengthAdjust="spacing" textLength="74" x="847" y="270.1252">java.beans</text><!--MD5=[2eacde85ec1fa67f49da1f588ee0075f]
class nz.ac.wgtn.swen225.lc.renderer.SoundControl--><a href="SoundControl.html" target="_top" title="SoundControl.html" xlink:actuate="onRequest" xlink:href="SoundControl.html" xlink:show="new" xlink:title="SoundControl.html" xlink:type="simple"><rect codeLine="3" fill="#FEFECE" filter="url(#f5iylj1ocb5pu)" height="99.8203" id="nz.ac.wgtn.swen225.lc.renderer.SoundControl" style="stroke:#A80036;stroke-width:1.5;" width="172" x="198" y="669.14"/><ellipse cx="241.8" cy="685.14" fill="#ADD1B2" rx="11" ry="11" style="stroke:#A80036;stroke-width:1.0;"/><path d="M244.2731,691.2831 Q243.6921,691.5819 243.0529,691.7313 Q242.4138,691.8807 241.7082,691.8807 Q239.2014,691.8807 237.8815,690.2289 Q236.5617,688.577 236.5617,685.4559 Q236.5617,682.3265 237.8815,680.6747 Q239.2014,679.0228 241.7082,679.0228 Q242.4138,679.0228 243.0612,679.1722 Q243.7087,679.3216 244.2731,679.6205 L244.2731,682.3431 Q243.6423,681.7621 243.0488,681.4923 Q242.4553,681.2225 241.8244,681.2225 Q240.4797,681.2225 239.7949,682.2892 Q239.1101,683.3558 239.1101,685.4559 Q239.1101,687.5477 239.7949,688.6144 Q240.4797,689.681 241.8244,689.681 Q242.4553,689.681 243.0488,689.4112 Q243.6423,689.1415 244.2731,688.5604 Z " fill="#000000"/><text fill="#000000" font-family="sans-serif" font-size="12" lengthAdjust="spacing" textLength="76" x="262.2" y="689.6752">SoundControl</text><line style="stroke:#A80036;stroke-width:1.5;" x1="199" x2="369" y1="701.14" y2="701.14"/><line style="stroke:#A80036;stroke-width:1.5;" x1="199" x2="369" y1="709.14" y2="709.14"/><ellipse cx="209" cy="720.14" fill="#84BE84" rx="3" ry="3" style="stroke:#038048;stroke-width:1.0;"/><text fill="#000000" font-family="sans-serif" font-size="11" lengthAdjust="spacing" textLength="86" x="218" y="723.7748">playSong(): void</text><ellipse cx="209" cy="733.0951" fill="#84BE84" rx="3" ry="3" style="stroke:#038048;stroke-width:1.0;"/><text fill="#000000" font-family="sans-serif" font-size="11" lengthAdjust="spacing" textLength="88" x="218" y="736.7298">stopSong(): void</text><ellipse cx="209" cy="746.0502" fill="#84BE84" rx="3" ry="3" style="stroke:#038048;stroke-width:1.0;"/><text fill="#000000" font-family="sans-serif" font-size="11" lengthAdjust="spacing" textLength="146" x="218" y="749.6849">playSound(SoundList): void</text><ellipse cx="209" cy="759.0052" fill="#84BE84" rx="3" ry="3" style="stroke:#038048;stroke-width:1.0;"/><text fill="#000000" font-family="sans-serif" font-size="11" lengthAdjust="spacing" textLength="59" x="218" y="762.64">play(): void</text></a><!--MD5=[6b0387999e39f702e716809ff3f5f29a]
class nz.ac.wgtn.swen225.lc.renderer.SoundControl.SoundList--><a href="SoundControl.SoundList.html" target="_top" title="SoundControl.SoundList.html" xlink:actuate="onRequest" xlink:href="SoundControl.SoundList.html" xlink:show="new" xlink:title="SoundControl.SoundList.html" xlink:type="simple"><rect codeLine="10" fill="#FEFECE" filter="url(#f5iylj1ocb5pu)" height="86.8652" id="nz.ac.wgtn.swen225.lc.renderer.SoundControl.SoundList" style="stroke:#A80036;stroke-width:1.5;" width="166" x="201" y="829.96"/><ellipse cx="216" cy="845.96" fill="#EB937F" rx="11" ry="11" style="stroke:#A80036;stroke-width:1.0;"/><path d="M219.6143,852.46 L211.8945,852.46 L211.8945,840.0669 L219.6143,840.0669 L219.6143,842.2251 L214.3433,842.2251 L214.3433,844.898 L219.1162,844.898 L219.1162,847.0562 L214.3433,847.0562 L214.3433,850.3018 L219.6143,850.3018 Z " fill="#000000"/><text fill="#000000" font-family="sans-serif" font-size="12" lengthAdjust="spacing" textLength="134" x="230" y="850.4952">SoundControl.SoundList</text><line style="stroke:#A80036;stroke-width:1.5;" x1="202" x2="366" y1="861.96" y2="861.96"/><ellipse cx="212" cy="872.96" rx="3" ry="3" style="stroke:#038048;stroke-width:1.0;fill:none;"/><text fill="#000000" font-family="sans-serif" font-size="11" lengthAdjust="spacing" text-decoration="underline" textLength="53" x="221" y="876.5948">mainSong</text><ellipse cx="212" cy="885.9151" rx="3" ry="3" style="stroke:#038048;stroke-width:1.0;fill:none;"/><text fill="#000000" font-family="sans-serif" font-size="11" lengthAdjust="spacing" text-decoration="underline" textLength="40" x="221" y="889.5498">walking</text><ellipse cx="212" cy="898.8702" rx="3" ry="3" style="stroke:#038048;stroke-width:1.0;fill:none;"/><text fill="#000000" font-family="sans-serif" font-size="11" lengthAdjust="spacing" text-decoration="underline" textLength="36" x="221" y="902.5049">pickup</text><line style="stroke:#A80036;stroke-width:1.5;" x1="202" x2="366" y1="908.8252" y2="908.8252"/></a><!--MD5=[6bfe0f7da9e3ec8ceb132e76a307cfba]
class nz.ac.wgtn.swen225.lc.renderer.MainMenu--><a href="MainMenu.html" target="_top" title="MainMenu.html" xlink:actuate="onRequest" xlink:href="MainMenu.html" xlink:show="new" xlink:title="MainMenu.html" xlink:type="simple"><rect codeLine="16" fill="#FEFECE" filter="url(#f5iylj1ocb5pu)" height="60.9551" id="nz.ac.wgtn.swen225.lc.renderer.MainMenu" style="stroke:#A80036;stroke-width:1.5;" width="182" x="32" y="289.59"/><ellipse cx="89.75" cy="305.59" fill="#ADD1B2" rx="11" ry="11" style="stroke:#A80036;stroke-width:1.0;"/><path d="M92.2231,311.7331 Q91.6421,312.0319 91.0029,312.1813 Q90.3638,312.3307 89.6582,312.3307 Q87.1514,312.3307 85.8315,310.6789 Q84.5117,309.027 84.5117,305.9059 Q84.5117,302.7765 85.8315,301.1247 Q87.1514,299.4728 89.6582,299.4728 Q90.3638,299.4728 91.0112,299.6222 Q91.6587,299.7716 92.2231,300.0705 L92.2231,302.7931 Q91.5923,302.2121 90.9988,301.9423 Q90.4053,301.6725 89.7744,301.6725 Q88.4297,301.6725 87.7449,302.7392 Q87.0601,303.8058 87.0601,305.9059 Q87.0601,307.9977 87.7449,309.0644 Q88.4297,310.131 89.7744,310.131 Q90.4053,310.131 90.9988,309.8612 Q91.5923,309.5915 92.2231,309.0104 Z " fill="#000000"/><text fill="#000000" font-family="sans-serif" font-size="12" lengthAdjust="spacing" textLength="58" x="110.25" y="310.1252">MainMenu</text><line style="stroke:#A80036;stroke-width:1.5;" x1="33" x2="213" y1="321.59" y2="321.59"/><ellipse cx="43" cy="332.59" rx="3" ry="3" style="stroke:#038048;stroke-width:1.0;fill:none;"/><text fill="#000000" font-family="sans-serif" font-size="11" lengthAdjust="spacing" textLength="156" x="52" y="336.2248">MAIN_MENU_SIZE: Dimension</text><line style="stroke:#A80036;stroke-width:1.5;" x1="33" x2="213" y1="342.5451" y2="342.5451"/></a><!--MD5=[f0880ea9b670e5f105cbbf85d26bc176]
class nz.ac.wgtn.swen225.lc.renderer.BoardView--><a href="BoardView.html" target="_top" title="BoardView.html" xlink:actuate="onRequest" xlink:href="BoardView.html" xlink:show="new" xlink:title="BoardView.html" xlink:type="simple"><rect codeLine="20" fill="#FEFECE" filter="url(#f5iylj1ocb5pu)" height="138.6855" id="nz.ac.wgtn.swen225.lc.renderer.BoardView" style="stroke:#A80036;stroke-width:1.5;" width="267" x="150.5" y="453.46"/><ellipse cx="249.25" cy="469.46" fill="#ADD1B2" rx="11" ry="11" style="stroke:#A80036;stroke-width:1.0;"/><path d="M251.7231,475.6031 Q251.1421,475.9019 250.5029,476.0513 Q249.8638,476.2007 249.1582,476.2007 Q246.6514,476.2007 245.3315,474.5489 Q244.0117,472.897 244.0117,469.7759 Q244.0117,466.6465 245.3315,464.9947 Q246.6514,463.3428 249.1582,463.3428 Q249.8638,463.3428 250.5112,463.4922 Q251.1587,463.6416 251.7231,463.9405 L251.7231,466.6631 Q251.0923,466.0821 250.4988,465.8123 Q249.9053,465.5425 249.2744,465.5425 Q247.9297,465.5425 247.2449,466.6092 Q246.5601,467.6758 246.5601,469.7759 Q246.5601,471.8677 247.2449,472.9344 Q247.9297,474.001 249.2744,474.001 Q249.9053,474.001 250.4988,473.7312 Q251.0923,473.4615 251.7231,472.8804 Z " fill="#000000"/><text fill="#000000" font-family="sans-serif" font-size="12" lengthAdjust="spacing" textLength="61" x="269.75" y="473.9952">BoardView</text><line style="stroke:#A80036;stroke-width:1.5;" x1="151.5" x2="416.5" y1="485.46" y2="485.46"/><ellipse cx="161.5" cy="496.46" rx="3" ry="3" style="stroke:#038048;stroke-width:1.0;fill:none;"/><text fill="#000000" font-family="sans-serif" font-size="11" lengthAdjust="spacing" text-decoration="underline" textLength="95" x="170.5" y="500.0948">frameCounter: int</text><ellipse cx="161.5" cy="509.4151" rx="3" ry="3" style="stroke:#038048;stroke-width:1.0;fill:none;"/><text fill="#000000" font-family="sans-serif" font-size="11" lengthAdjust="spacing" text-decoration="underline" textLength="99" x="170.5" y="513.0498">frameTimer: Timer</text><ellipse cx="161.5" cy="522.3702" rx="3" ry="3" style="stroke:#038048;stroke-width:1.0;fill:none;"/><text fill="#000000" font-family="sans-serif" font-size="11" lengthAdjust="spacing" textLength="129" x="170.5" y="526.0049">BOARD_SIZE: Dimension</text><ellipse cx="161.5" cy="535.3252" rx="3" ry="3" style="stroke:#038048;stroke-width:1.0;fill:none;"/><text fill="#000000" font-family="sans-serif" font-size="11" lengthAdjust="spacing" text-decoration="underline" textLength="70" x="170.5" y="538.96">TILE_SIZE: int</text><line style="stroke:#A80036;stroke-width:1.5;" x1="151.5" x2="416.5" y1="545.2803" y2="545.2803"/><ellipse cx="161.5" cy="556.2803" fill="#84BE84" rx="3" ry="3" style="stroke:#038048;stroke-width:1.0;"/><text fill="#000000" font-family="sans-serif" font-size="11" lengthAdjust="spacing" textLength="125" x="170.5" y="559.9151">BoardView(GameModel)</text><ellipse cx="161.5" cy="569.2354" fill="#84BE84" rx="3" ry="3" style="stroke:#038048;stroke-width:1.0;"/><text fill="#000000" font-family="sans-serif" font-size="11" lengthAdjust="spacing" textLength="87" x="170.5" y="572.8702">drawHelp(): void</text><ellipse cx="161.5" cy="582.1905" fill="#84BE84" rx="3" ry="3" style="stroke:#038048;stroke-width:1.0;"/><text fill="#000000" font-family="sans-serif" font-size="11" lengthAdjust="spacing" textLength="241" x="170.5" y="585.8252">propertyChange(PropertyChangeEvent): void</text></a><!--MD5=[0e5a0f264728c86485323c03cc20a323]
class nz.ac.wgtn.swen225.lc.renderer.MainWindow--><a href="MainWindow.html" target="_top" title="MainWindow.html" xlink:actuate="onRequest" xlink:href="MainWindow.html" xlink:show="new" xlink:title="MainWindow.html" xlink:type="simple"><rect codeLine="30" fill="#FEFECE" filter="url(#f5iylj1ocb5pu)" height="112.7754" id="nz.ac.wgtn.swen225.lc.renderer.MainWindow" style="stroke:#A80036;stroke-width:1.5;" width="261" x="249.5" y="263.68"/><ellipse cx="340.25" cy="279.68" fill="#ADD1B2" rx="11" ry="11" style="stroke:#A80036;stroke-width:1.0;"/><path d="M342.7231,285.8231 Q342.1421,286.1219 341.5029,286.2713 Q340.8638,286.4207 340.1582,286.4207 Q337.6514,286.4207 336.3315,284.7689 Q335.0117,283.117 335.0117,279.9959 Q335.0117,276.8665 336.3315,275.2147 Q337.6514,273.5628 340.1582,273.5628 Q340.8638,273.5628 341.5112,273.7122 Q342.1587,273.8616 342.7231,274.1605 L342.7231,276.8831 Q342.0923,276.3021 341.4988,276.0323 Q340.9053,275.7625 340.2744,275.7625 Q338.9297,275.7625 338.2449,276.8292 Q337.5601,277.8958 337.5601,279.9959 Q337.5601,282.0877 338.2449,283.1544 Q338.9297,284.221 340.2744,284.221 Q340.9053,284.221 341.4988,283.9512 Q342.0923,283.6815 342.7231,283.1004 Z " fill="#000000"/><text fill="#000000" font-family="sans-serif" font-size="12" lengthAdjust="spacing" textLength="71" x="360.75" y="284.2152">MainWindow</text><line style="stroke:#A80036;stroke-width:1.5;" x1="250.5" x2="509.5" y1="295.68" y2="295.68"/><line style="stroke:#A80036;stroke-width:1.5;" x1="250.5" x2="509.5" y1="303.68" y2="303.68"/><ellipse cx="260.5" cy="314.68" fill="#84BE84" rx="3" ry="3" style="stroke:#038048;stroke-width:1.0;"/><text fill="#000000" font-family="sans-serif" font-size="11" lengthAdjust="spacing" textLength="136" x="269.5" y="318.3148">MainWindow(GameModel)</text><ellipse cx="260.5" cy="327.6351" fill="#84BE84" rx="3" ry="3" style="stroke:#038048;stroke-width:1.0;"/><text fill="#000000" font-family="sans-serif" font-size="11" lengthAdjust="spacing" textLength="235" x="269.5" y="331.2698">getApplicationWindow(): ApplicationWindow</text><ellipse cx="260.5" cy="340.5902" fill="#84BE84" rx="3" ry="3" style="stroke:#038048;stroke-width:1.0;"/><text fill="#000000" font-family="sans-serif" font-size="11" lengthAdjust="spacing" textLength="134" x="269.5" y="344.2249">setPaused(boolean): void</text><ellipse cx="260.5" cy="353.5452" fill="#84BE84" rx="3" ry="3" style="stroke:#038048;stroke-width:1.0;"/><text fill="#000000" font-family="sans-serif" font-size="11" lengthAdjust="spacing" textLength="71" x="269.5" y="357.18">setFail(): void</text><ellipse cx="260.5" cy="366.5003" fill="#84BE84" rx="3" ry="3" style="stroke:#038048;stroke-width:1.0;"/><text fill="#000000" font-family="sans-serif" font-size="11" lengthAdjust="spacing" textLength="96" x="269.5" y="370.1351">setWinView(): void</text></a><!--MD5=[9e2f434f3d916d29fdd197c28493bc28]
class nz.ac.wgtn.swen225.lc.renderer.SpriteEntity--><a href="SpriteEntity.html" target="_top" title="SpriteEntity.html" xlink:actuate="onRequest" xlink:href="SpriteEntity.html" xlink:show="new" xlink:title="SpriteEntity.html" xlink:type="simple"><rect codeLine="38" fill="#FEFECE" filter="url(#f5iylj1ocb5pu)" height="112.7754" id="nz.ac.wgtn.swen225.lc.renderer.SpriteEntity" style="stroke:#A80036;stroke-width:1.5;" width="300" x="453" y="466.41"/><ellipse cx="566.75" cy="482.41" fill="#ADD1B2" rx="11" ry="11" style="stroke:#A80036;stroke-width:1.0;"/><path d="M569.2231,488.5531 Q568.6421,488.8519 568.0029,489.0013 Q567.3638,489.1507 566.6582,489.1507 Q564.1514,489.1507 562.8315,487.4989 Q561.5117,485.847 561.5117,482.7259 Q561.5117,479.5965 562.8315,477.9447 Q564.1514,476.2928 566.6582,476.2928 Q567.3638,476.2928 568.0112,476.4422 Q568.6587,476.5916 569.2231,476.8905 L569.2231,479.6131 Q568.5923,479.0321 567.9988,478.7623 Q567.4053,478.4925 566.7744,478.4925 Q565.4297,478.4925 564.7449,479.5592 Q564.0601,480.6258 564.0601,482.7259 Q564.0601,484.8177 564.7449,485.8844 Q565.4297,486.951 566.7744,486.951 Q567.4053,486.951 567.9988,486.6812 Q568.5923,486.4115 569.2231,485.8304 Z " fill="#000000"/><text fill="#000000" font-family="sans-serif" font-size="12" lengthAdjust="spacing" textLength="64" x="587.25" y="486.9452">SpriteEntity</text><line style="stroke:#A80036;stroke-width:1.5;" x1="454" x2="752" y1="498.41" y2="498.41"/><ellipse cx="464" cy="509.41" rx="3" ry="3" style="stroke:#038048;stroke-width:1.0;fill:none;"/><text fill="#000000" font-family="sans-serif" font-size="11" lengthAdjust="spacing" textLength="144" x="473" y="513.0448">currentDirection: Direction</text><line style="stroke:#A80036;stroke-width:1.5;" x1="454" x2="752" y1="519.3651" y2="519.3651"/><ellipse cx="464" cy="530.3651" fill="#84BE84" rx="3" ry="3" style="stroke:#038048;stroke-width:1.0;"/><text fill="#000000" font-family="sans-serif" font-size="11" lengthAdjust="spacing" textLength="206" x="473" y="533.9998">SpriteEntity(BufferedImage, int, int, int)</text><ellipse cx="464" cy="543.3202" fill="#84BE84" rx="3" ry="3" style="stroke:#038048;stroke-width:1.0;"/><text fill="#000000" font-family="sans-serif" font-size="11" lengthAdjust="spacing" textLength="274" x="473" y="546.9549">SpriteEntity(BufferedImage, int, int, int, GameModel)</text><ellipse cx="464" cy="556.2752" fill="#84BE84" rx="3" ry="3" style="stroke:#038048;stroke-width:1.0;"/><text fill="#000000" font-family="sans-serif" font-size="11" lengthAdjust="spacing" textLength="147" x="473" y="559.91">animateSprite(): ImagePanel</text><ellipse cx="464" cy="569.2303" fill="#84BE84" rx="3" ry="3" style="stroke:#038048;stroke-width:1.0;"/><text fill="#000000" font-family="sans-serif" font-size="11" lengthAdjust="spacing" textLength="241" x="473" y="572.8651">propertyChange(PropertyChangeEvent): void</text></a><!--MD5=[164c93a523ea75cf50cb570d830ccc60]
class nz.ac.wgtn.swen225.lc.renderer.ImagePanel--><a href="ImagePanel.html" target="_top" title="ImagePanel.html" xlink:actuate="onRequest" xlink:href="ImagePanel.html" xlink:show="new" xlink:title="ImagePanel.html" xlink:type="simple"><rect codeLine="46" fill="#FEFECE" filter="url(#f5iylj1ocb5pu)" height="86.8652" id="nz.ac.wgtn.swen225.lc.renderer.ImagePanel" style="stroke:#A80036;stroke-width:1.5;" width="207" x="545.5" y="276.64"/><ellipse cx="611.75" cy="292.64" fill="#ADD1B2" rx="11" ry="11" style="stroke:#A80036;stroke-width:1.0;"/><path d="M614.2231,298.7831 Q613.6421,299.0819 613.0029,299.2313 Q612.3638,299.3807 611.6582,299.3807 Q609.1514,299.3807 607.8315,297.7289 Q606.5117,296.077 606.5117,292.9559 Q606.5117,289.8265 607.8315,288.1747 Q609.1514,286.5228 611.6582,286.5228 Q612.3638,286.5228 613.0112,286.6722 Q613.6587,286.8216 614.2231,287.1205 L614.2231,289.8431 Q613.5923,289.2621 612.9988,288.9923 Q612.4053,288.7225 611.7744,288.7225 Q610.4297,288.7225 609.7449,289.7892 Q609.0601,290.8558 609.0601,292.9559 Q609.0601,295.0477 609.7449,296.1144 Q610.4297,297.181 611.7744,297.181 Q612.4053,297.181 612.9988,296.9112 Q613.5923,296.6415 614.2231,296.0604 Z " fill="#000000"/><text fill="#000000" font-family="sans-serif" font-size="12" lengthAdjust="spacing" textLength="66" x="632.25" y="297.1752">ImagePanel</text><line style="stroke:#A80036;stroke-width:1.5;" x1="546.5" x2="751.5" y1="308.64" y2="308.64"/><line style="stroke:#A80036;stroke-width:1.5;" x1="546.5" x2="751.5" y1="316.64" y2="316.64"/><ellipse cx="556.5" cy="327.64" fill="#84BE84" rx="3" ry="3" style="stroke:#038048;stroke-width:1.0;"/><text fill="#000000" font-family="sans-serif" font-size="11" lengthAdjust="spacing" textLength="145" x="565.5" y="331.2748">ImagePanel(BufferedImage)</text><ellipse cx="556.5" cy="340.5951" fill="#84BE84" rx="3" ry="3" style="stroke:#038048;stroke-width:1.0;"/><text fill="#000000" font-family="sans-serif" font-size="11" lengthAdjust="spacing" textLength="181" x="565.5" y="344.2298">ImagePanel(BufferedImage, Color)</text><ellipse cx="556.5" cy="353.5502" fill="#84BE84" rx="3" ry="3" style="stroke:#038048;stroke-width:1.0;"/><text fill="#000000" font-family="sans-serif" font-size="11" lengthAdjust="spacing" textLength="158" x="565.5" y="357.1849">setPreferredSize(int, int): void</text></a><!--MD5=[18a7562403221f513ca44e0f82c4c17a]
class javax.swing.JFrame--><rect codeLine="65" fill="#FEFECE" filter="url(#f5iylj1ocb5pu)" height="48" id="javax.swing.JFrame" style="stroke:#A80036;stroke-width:1.5;" width="72" x="419" y="86.34"/><ellipse cx="434" cy="102.34" fill="#ADD1B2" rx="11" ry="11" style="stroke:#A80036;stroke-width:1.0;"/><path d="M436.4731,108.4831 Q435.8921,108.7819 435.2529,108.9313 Q434.6138,109.0807 433.9082,109.0807 Q431.4014,109.0807 430.0815,107.4289 Q428.7617,105.777 428.7617,102.6559 Q428.7617,99.5265 430.0815,97.8747 Q431.4014,96.2228 433.9082,96.2228 Q434.6138,96.2228 435.2612,96.3722 Q435.9087,96.5216 436.4731,96.8205 L436.4731,99.5431 Q435.8423,98.9621 435.2488,98.6923 Q434.6553,98.4225 434.0244,98.4225 Q432.6797,98.4225 431.9949,99.4892 Q431.3101,100.5558 431.3101,102.6559 Q431.3101,104.7477 431.9949,105.8144 Q432.6797,106.881 434.0244,106.881 Q434.6553,106.881 435.2488,106.6112 Q435.8423,106.3415 436.4731,105.7604 Z " fill="#000000"/><text fill="#000000" font-family="sans-serif" font-size="12" lengthAdjust="spacing" textLength="40" x="448" y="106.8752">JFrame</text><line style="stroke:#A80036;stroke-width:1.5;" x1="420" x2="490" y1="118.34" y2="118.34"/><line style="stroke:#A80036;stroke-width:1.5;" x1="420" x2="490" y1="126.34" y2="126.34"/><!--MD5=[5e6c2f023040cfdbf03fc9c867f5d54e]
class javax.swing.JLayeredPane--><rect codeLine="67" fill="#FEFECE" filter="url(#f5iylj1ocb5pu)" height="138.6855" id="javax.swing.JLayeredPane" style="stroke:#A80036;stroke-width:1.5;" width="205" x="628.5" y="41"/><ellipse cx="687.75" cy="57" fill="#ADD1B2" rx="11" ry="11" style="stroke:#A80036;stroke-width:1.0;"/><path d="M690.2231,63.1431 Q689.6421,63.4419 689.0029,63.5913 Q688.3638,63.7407 687.6582,63.7407 Q685.1514,63.7407 683.8315,62.0889 Q682.5117,60.437 682.5117,57.3159 Q682.5117,54.1865 683.8315,52.5347 Q685.1514,50.8828 687.6582,50.8828 Q688.3638,50.8828 689.0112,51.0322 Q689.6587,51.1816 690.2231,51.4805 L690.2231,54.2031 Q689.5923,53.6221 688.9988,53.3523 Q688.4053,53.0825 687.7744,53.0825 Q686.4297,53.0825 685.7449,54.1492 Q685.0601,55.2158 685.0601,57.3159 Q685.0601,59.4077 685.7449,60.4744 Q686.4297,61.541 687.7744,61.541 Q688.4053,61.541 688.9988,61.2712 Q689.5923,61.0015 690.2231,60.4204 Z " fill="#000000"/><text fill="#000000" font-family="sans-serif" font-size="12" lengthAdjust="spacing" textLength="78" x="708.25" y="61.5352">JLayeredPane</text><line style="stroke:#A80036;stroke-width:1.5;" x1="629.5" x2="832.5" y1="73" y2="73"/><ellipse cx="639.5" cy="84" rx="3" ry="3" style="stroke:#038048;stroke-width:1.0;fill:none;"/><text fill="#000000" font-family="sans-serif" font-size="11" lengthAdjust="spacing" text-decoration="underline" textLength="133" x="648.5" y="87.6348">DEFAULT_LAYER: Integer</text><ellipse cx="639.5" cy="96.9551" rx="3" ry="3" style="stroke:#038048;stroke-width:1.0;fill:none;"/><text fill="#000000" font-family="sans-serif" font-size="11" lengthAdjust="spacing" text-decoration="underline" textLength="130" x="648.5" y="100.5898">PALETTE_LAYER: Integer</text><ellipse cx="639.5" cy="109.9102" rx="3" ry="3" style="stroke:#038048;stroke-width:1.0;fill:none;"/><text fill="#000000" font-family="sans-serif" font-size="11" lengthAdjust="spacing" text-decoration="underline" textLength="124" x="648.5" y="113.5449">MODAL_LAYER: Integer</text><ellipse cx="639.5" cy="122.8652" rx="3" ry="3" style="stroke:#038048;stroke-width:1.0;fill:none;"/><text fill="#000000" font-family="sans-serif" font-size="11" lengthAdjust="spacing" text-decoration="underline" textLength="119" x="648.5" y="126.5">POPUP_LAYER: Integer</text><ellipse cx="639.5" cy="135.8203" rx="3" ry="3" style="stroke:#038048;stroke-width:1.0;fill:none;"/><text fill="#000000" font-family="sans-serif" font-size="11" lengthAdjust="spacing" text-decoration="underline" textLength="115" x="648.5" y="139.4551">DRAG_LAYER: Integer</text><ellipse cx="639.5" cy="148.7754" rx="3" ry="3" style="stroke:#038048;stroke-width:1.0;fill:none;"/><text fill="#000000" font-family="sans-serif" font-size="11" lengthAdjust="spacing" text-decoration="underline" textLength="179" x="648.5" y="152.4102">FRAME_CONTENT_LAYER: Integer</text><ellipse cx="639.5" cy="161.7305" rx="3" ry="3" style="stroke:#038048;stroke-width:1.0;fill:none;"/><text fill="#000000" font-family="sans-serif" font-size="11" lengthAdjust="spacing" text-decoration="underline" textLength="133" x="648.5" y="165.3652">LAYER_PROPERTY: String</text><line style="stroke:#A80036;stroke-width:1.5;" x1="629.5" x2="832.5" y1="171.6855" y2="171.6855"/><!--MD5=[56a185cb33bdc7c23303e5865f20a19b]
class javax.swing.JPanel--><rect codeLine="76" fill="#FEFECE" filter="url(#f5iylj1ocb5pu)" height="48" id="javax.swing.JPanel" style="stroke:#A80036;stroke-width:1.5;" width="67" x="526.5" y="86.34"/><ellipse cx="541.5" cy="102.34" fill="#ADD1B2" rx="11" ry="11" style="stroke:#A80036;stroke-width:1.0;"/><path d="M543.9731,108.4831 Q543.3921,108.7819 542.7529,108.9313 Q542.1138,109.0807 541.4082,109.0807 Q538.9014,109.0807 537.5815,107.4289 Q536.2617,105.777 536.2617,102.6559 Q536.2617,99.5265 537.5815,97.8747 Q538.9014,96.2228 541.4082,96.2228 Q542.1138,96.2228 542.7612,96.3722 Q543.4087,96.5216 543.9731,96.8205 L543.9731,99.5431 Q543.3423,98.9621 542.7488,98.6923 Q542.1553,98.4225 541.5244,98.4225 Q540.1797,98.4225 539.4949,99.4892 Q538.8101,100.5558 538.8101,102.6559 Q538.8101,104.7477 539.4949,105.8144 Q540.1797,106.881 541.5244,106.881 Q542.1553,106.881 542.7488,106.6112 Q543.3423,106.3415 543.9731,105.7604 Z " fill="#000000"/><text fill="#000000" font-family="sans-serif" font-size="12" lengthAdjust="spacing" textLength="35" x="555.5" y="106.8752">JPanel</text><line style="stroke:#A80036;stroke-width:1.5;" x1="527.5" x2="592.5" y1="118.34" y2="118.34"/><line style="stroke:#A80036;stroke-width:1.5;" x1="527.5" x2="592.5" y1="126.34" y2="126.34"/><!--MD5=[0d154d630b9a073463cbcbf880061a38]
class java.beans.PropertyChangeListener--><rect codeLine="81" fill="#FEFECE" filter="url(#f5iylj1ocb5pu)" height="60.9551" id="java.beans.PropertyChangeListener" style="stroke:#A80036;stroke-width:1.5;" width="267" x="858.5" y="289.59"/><ellipse cx="919.25" cy="305.59" fill="#B4A7E5" rx="11" ry="11" style="stroke:#A80036;stroke-width:1.0;"/><path d="M915.6777,301.8551 L915.6777,299.6969 L923.0571,299.6969 L923.0571,301.8551 L920.5918,301.8551 L920.5918,309.9318 L923.0571,309.9318 L923.0571,312.09 L915.6777,312.09 L915.6777,309.9318 L918.1431,309.9318 L918.1431,301.8551 Z " fill="#000000"/><text fill="#000000" font-family="sans-serif" font-size="12" font-style="italic" lengthAdjust="spacing" textLength="137" x="939.75" y="310.1252">PropertyChangeListener</text><line style="stroke:#A80036;stroke-width:1.5;" x1="859.5" x2="1124.5" y1="321.59" y2="321.59"/><line style="stroke:#A80036;stroke-width:1.5;" x1="859.5" x2="1124.5" y1="329.59" y2="329.59"/><ellipse cx="869.5" cy="340.59" fill="#84BE84" rx="3" ry="3" style="stroke:#038048;stroke-width:1.0;"/><text fill="#000000" font-family="sans-serif" font-size="11" font-style="italic" lengthAdjust="spacing" textLength="241" x="878.5" y="344.2248">propertyChange(PropertyChangeEvent): void</text><!--MD5=[7e77c61108c0002ab38ba92b14edf29c]
reverse link nz.ac.wgtn.swen225.lc.renderer.SoundControl to nz.ac.wgtn.swen225.lc.renderer.SoundControl.SoundList--><path codeLine="52" d="M284,785.56 C284,800.47 284,815.93 284,829.61 " fill="none" id="nz.ac.wgtn.swen225.lc.renderer.SoundControl-backto-nz.ac.wgtn.swen225.lc.renderer.SoundControl.SoundList" style="stroke:#A80036;stroke-width:1.0;"/><ellipse cx="284" cy="778.61" fill="#FFFFFF" rx="8" ry="8" style="stroke:#A80036;stroke-width:1.0;"/><line style="stroke:#A80036;stroke-width:1.0;" x1="284" x2="284" y1="786.61" y2="770.61"/><line style="stroke:#A80036;stroke-width:1.0;" x1="276" x2="292" y1="778.61" y2="778.61"/><!--MD5=[c7993d60664f234fd35c69cc812ee8c7]
reverse link javax.swing.JFrame to nz.ac.wgtn.swen225.lc.renderer.MainMenu--><path codeLine="53" d="M398.72,133.74 C352.16,153.47 285.26,184.63 232,220.68 C202.45,240.69 172.62,268.24 151.65,289.1 " fill="none" id="javax.swing.JFrame-backto-nz.ac.wgtn.swen225.lc.renderer.MainMenu" style="stroke:#A80036;stroke-width:1.0;"/><polygon fill="none" points="396.01,127.29,417.17,126.08,401.38,140.22,396.01,127.29" style="stroke:#A80036;stroke-width:1.0;"/><!--MD5=[b4bcfdd9150b78f4c7249c432bb136b5]
reverse link javax.swing.JLayeredPane to nz.ac.wgtn.swen225.lc.renderer.BoardView--><path codeLine="54" d="M774.91,199.55 C796.05,255.81 809.25,327.16 770,376.46 C674.84,495.97 579.75,404.61 435,453.46 C429.27,455.39 423.47,457.47 417.64,459.65 " fill="none" id="javax.swing.JLayeredPane-backto-nz.ac.wgtn.swen225.lc.renderer.BoardView" style="stroke:#A80036;stroke-width:1.0;"/><polygon fill="none" points="768.56,202.52,767.58,181.36,781.55,197.29,768.56,202.52" style="stroke:#A80036;stroke-width:1.0;"/><!--MD5=[125e8fd5ea1856c7498aa01a0ebdd049]
reverse link java.beans.PropertyChangeListener to nz.ac.wgtn.swen225.lc.renderer.BoardView--><path codeLine="55" d="M940.06,363.69 C910.3,385.6 871.17,410.38 832,423.46 C664.17,479.51 606.44,409.64 435,453.46 C429.28,454.92 423.52,456.58 417.74,458.41 " fill="none" id="java.beans.PropertyChangeListener-backto-nz.ac.wgtn.swen225.lc.renderer.BoardView" style="stroke:#A80036;stroke-width:1.0;stroke-dasharray:7.0,7.0;"/><polygon fill="none" points="935.51,358.36,955.66,351.81,943.99,369.5,935.51,358.36" style="stroke:#A80036;stroke-width:1.0;"/><!--MD5=[a369208388d998d99c97fe99c98eeb55]
link nz.ac.wgtn.swen225.lc.renderer.BoardView to nz.ac.wgtn.swen225.lc.renderer.SoundControl--><path codeLine="56" d="M284,592.56 C284,615.51 284,640.77 284,662.58 " fill="none" id="nz.ac.wgtn.swen225.lc.renderer.BoardView-to-nz.ac.wgtn.swen225.lc.renderer.SoundControl" style="stroke:#A80036;stroke-width:1.0;"/><polygon fill="#A80036" points="284,667.41,288,658.41,284,662.41,280,658.41,284,667.41" style="stroke:#A80036;stroke-width:1.0;"/><text fill="#000000" font-family="sans-serif" font-size="13" lengthAdjust="spacing" textLength="86" x="285" y="635.7084">soundControl</text><!--MD5=[eeeafcec555361e0f1c0fb35fb21ebf2]
reverse link javax.swing.JFrame to nz.ac.wgtn.swen225.lc.renderer.MainWindow--><path codeLine="57" d="M439.24,154.99 C427.85,186.53 412.38,229.39 400.1,263.39 " fill="none" id="javax.swing.JFrame-backto-nz.ac.wgtn.swen225.lc.renderer.MainWindow" style="stroke:#A80036;stroke-width:1.0;"/><polygon fill="none" points="432.65,152.62,446.03,136.19,445.82,157.38,432.65,152.62" style="stroke:#A80036;stroke-width:1.0;"/><!--MD5=[1f717bdb091223e0b0a50506305c8bbc]
link nz.ac.wgtn.swen225.lc.renderer.MainWindow to nz.ac.wgtn.swen225.lc.renderer.BoardView--><path codeLine="58" d="M353.39,376.72 C342.91,398.63 330.72,424.12 319.51,447.56 " fill="none" id="nz.ac.wgtn.swen225.lc.renderer.MainWindow-to-nz.ac.wgtn.swen225.lc.renderer.BoardView" style="stroke:#A80036;stroke-width:1.0;"/><polygon fill="#A80036" points="317.48,451.79,324.9695,445.3941,319.6358,447.2786,317.7513,441.9449,317.48,451.79" style="stroke:#A80036;stroke-width:1.0;"/><text fill="#000000" font-family="sans-serif" font-size="13" lengthAdjust="spacing" textLength="65" x="338" y="420.0284">boardView</text><!--MD5=[0eec9db2c83009da3d6499d87b9881ad]
reverse link nz.ac.wgtn.swen225.lc.renderer.ImagePanel to nz.ac.wgtn.swen225.lc.renderer.SpriteEntity--><path codeLine="59" d="M634.47,384.49 C628.48,410.63 621.6,440.65 615.8,465.95 " fill="none" id="nz.ac.wgtn.swen225.lc.renderer.ImagePanel-backto-nz.ac.wgtn.swen225.lc.renderer.SpriteEntity" style="stroke:#A80036;stroke-width:1.0;"/><polygon fill="none" points="627.62,383.05,638.91,365.12,641.26,386.17,627.62,383.05" style="stroke:#A80036;stroke-width:1.0;"/><!--MD5=[a73487b1005115df6171c66318a8d6c7]
reverse link java.beans.PropertyChangeListener to nz.ac.wgtn.swen225.lc.renderer.SpriteEntity--><path codeLine="60" d="M969.44,369.78 C958.44,388.9 943.54,409.55 925,423.46 C875.21,460.83 811.12,484.13 753.25,498.59 " fill="none" id="java.beans.PropertyChangeListener-backto-nz.ac.wgtn.swen225.lc.renderer.SpriteEntity" style="stroke:#A80036;stroke-width:1.0;stroke-dasharray:7.0,7.0;"/><polygon fill="none" points="963.25,366.51,978.78,352.09,975.63,373.05,963.25,366.51" style="stroke:#A80036;stroke-width:1.0;"/><!--MD5=[e7ad5854866dbb1732ac18e29390bca3]
reverse link javax.swing.JPanel to nz.ac.wgtn.swen225.lc.renderer.ImagePanel--><path codeLine="61" d="M578.42,154.34 C593.73,190.06 615.39,240.62 630.67,276.28 " fill="none" id="javax.swing.JPanel-backto-nz.ac.wgtn.swen225.lc.renderer.ImagePanel" style="stroke:#A80036;stroke-width:1.0;"/><polygon fill="none" points="572.07,157.3,570.63,136.16,584.94,151.78,572.07,157.3" style="stroke:#A80036;stroke-width:1.0;"/><text fill="#888888" font-family="sans-serif" font-size="10" lengthAdjust="spacing" textLength="182" x="481.5" y="948.498">UMLDoclet 2.0.14, PlantUML 1.2021.9</text><!--MD5=[f8a1f5ee626057e332bf11487b735fa3]
@startuml
    namespace nz.ac.wgtn.swen225.lc.renderer {

        class SoundControl [[SoundControl.html]] {
            +playSong(): void
            +stopSong(): void
            +playSound(SoundList): void
            +play(): void
        }

        enum nz.ac.wgtn.swen225.lc.renderer.SoundControl.SoundList [[SoundControl.SoundList.html]] {
            {static} +mainSong
            {static} +walking
            {static} +pickup
        }

        class MainMenu [[MainMenu.html]] {
            +MAIN_MENU_SIZE: Dimension
        }

        class BoardView [[BoardView.html]] {
            {static} +frameCounter: int
            {static} +frameTimer: Timer
            +BOARD_SIZE: Dimension
            {static} +TILE_SIZE: int
            +BoardView(GameModel)
            +drawHelp(): void
            +propertyChange(PropertyChangeEvent): void
        }

        class MainWindow [[MainWindow.html]] {
            +MainWindow(GameModel)
            +getApplicationWindow(): ApplicationWindow
            +setPaused(boolean): void
            +setFail(): void
            +setWinView(): void
        }

        class SpriteEntity [[SpriteEntity.html]] {
            +currentDirection: Direction
            +SpriteEntity(BufferedImage, int, int, int)
            +SpriteEntity(BufferedImage, int, int, int, GameModel)
            +animateSprite(): ImagePanel
            +propertyChange(PropertyChangeEvent): void
        }

        class ImagePanel [[ImagePanel.html]] {
            +ImagePanel(BufferedImage)
            +ImagePanel(BufferedImage, Color)
            +setPreferredSize(int, int): void
        }

        SoundControl +- - nz.ac.wgtn.swen225.lc.renderer.SoundControl.SoundList
        javax.swing.JFrame <|- - MainMenu
        javax.swing.JLayeredPane <|- - BoardView
        java.beans.PropertyChangeListener <|.. BoardView
        BoardView - -> SoundControl: soundControl
        javax.swing.JFrame <|- - MainWindow
        MainWindow - -> BoardView: boardView
        ImagePanel <|- - SpriteEntity
        java.beans.PropertyChangeListener <|.. SpriteEntity
        javax.swing.JPanel <|- - ImagePanel
    }

    namespace javax.swing {
        class JFrame {
        }
        class JLayeredPane {
            {static} +DEFAULT_LAYER: Integer
            {static} +PALETTE_LAYER: Integer
            {static} +MODAL_LAYER: Integer
            {static} +POPUP_LAYER: Integer
            {static} +DRAG_LAYER: Integer
            {static} +FRAME_CONTENT_LAYER: Integer
            {static} +LAYER_PROPERTY: String
        }
        class JPanel {
        }
    }

    namespace java.beans {
        interface PropertyChangeListener {
            {abstract} +propertyChange(PropertyChangeEvent): void
        }
    }

    center footer UMLDoclet 2.0.14, PlantUML 1.2021.9
@enduml

PlantUML version 1.2021.9(Sun Jul 25 22:13:56 NZST 2021)
(APACHE source distribution)
Java Runtime: OpenJDK Runtime Environment
JVM: OpenJDK 64-Bit Server VM
Default Encoding: UTF-8
Language: en
Country: NZ
--></g></svg>