<?xml version="1.0" encoding="UTF-8" standalone="no"?><svg xmlns="http://www.w3.org/2000/svg" xmlns:xlink="http://www.w3.org/1999/xlink" contentScriptType="application/ecmascript" contentStyleType="text/css" height="234px" preserveAspectRatio="none" style="width:220px;height:234px;background:#FFFFFF;" version="1.1" viewBox="0 0 220 234" width="220px" zoomAndPan="magnify"><defs><filter height="300%" id="f1ei7kpn51lsni" width="300%" x="-1" y="-1"><feGaussianBlur result="blurOut" stdDeviation="2.0"/><feColorMatrix in="blurOut" result="blurOut2" type="matrix" values="0 0 0 0 0 0 0 0 0 0 0 0 0 0 0 0 0 0 .4 0"/><feOffset dx="4.0" dy="4.0" in="blurOut2" result="blurOut3"/><feBlend in="SourceGraphic" in2="blurOut3" mode="normal"/></filter></defs><g><!--MD5=[2eacde85ec1fa67f49da1f588ee0075f]
class nz.ac.wgtn.swen225.lc.renderer.SoundControl--><a href="SoundControl.html" target="_top" title="SoundControl.html" xlink:actuate="onRequest" xlink:href="SoundControl.html" xlink:show="new" xlink:title="SoundControl.html" xlink:type="simple"><rect codeLine="5" fill="#FEFECE" filter="url(#f1ei7kpn51lsni)" height="98.0859" id="nz.ac.wgtn.swen225.lc.renderer.SoundControl" style="stroke:#A80036;stroke-width:1.5;" width="187" x="13" y="7"/><ellipse cx="28" cy="26.1328" fill="#ADD1B2" rx="11" ry="11" style="stroke:#A80036;stroke-width:1.0;"/><path d="M30.4731,32.2759 Q29.8921,32.5747 29.2529,32.7241 Q28.6138,32.8735 27.9082,32.8735 Q25.4014,32.8735 24.0815,31.2217 Q22.7617,29.5698 22.7617,26.4487 Q22.7617,23.3193 24.0815,21.6675 Q25.4014,20.0156 27.9082,20.0156 Q28.6138,20.0156 29.2612,20.165 Q29.9087,20.3145 30.4731,20.6133 L30.4731,23.3359 Q29.8423,22.7549 29.2488,22.4851 Q28.6553,22.2153 28.0244,22.2153 Q26.6797,22.2153 25.9949,23.282 Q25.3101,24.3486 25.3101,26.4487 Q25.3101,28.5405 25.9949,29.6072 Q26.6797,30.6738 28.0244,30.6738 Q28.6553,30.6738 29.2488,30.4041 Q29.8423,30.1343 30.4731,29.5532 Z " fill="#000000"/><text fill="#000000" font-family="sans-serif" font-size="14" lengthAdjust="spacing" textLength="96" x="71.5" y="25.5352">SoundControl</text><text fill="#000000" font-family="sans-serif" font-size="10" lengthAdjust="spacing" textLength="155" x="42" y="38.1563">nz.ac.wgtn.swen225.lc.renderer</text><line style="stroke:#A80036;stroke-width:1.5;" x1="14" x2="199" y1="45.2656" y2="45.2656"/><ellipse cx="24" cy="56.2656" fill="#84BE84" rx="3" ry="3" style="stroke:#038048;stroke-width:1.0;"/><text fill="#000000" font-family="sans-serif" font-size="11" lengthAdjust="spacing" textLength="86" x="33" y="59.9004">playSong(): void</text><ellipse cx="24" cy="69.2207" fill="#84BE84" rx="3" ry="3" style="stroke:#038048;stroke-width:1.0;"/><text fill="#000000" font-family="sans-serif" font-size="11" lengthAdjust="spacing" textLength="88" x="33" y="72.8555">stopSong(): void</text><ellipse cx="24" cy="82.1758" fill="#84BE84" rx="3" ry="3" style="stroke:#038048;stroke-width:1.0;"/><text fill="#000000" font-family="sans-serif" font-size="11" lengthAdjust="spacing" textLength="146" x="33" y="85.8105">playSound(SoundList): void</text><ellipse cx="24" cy="95.1309" fill="#84BE84" rx="3" ry="3" style="stroke:#038048;stroke-width:1.0;"/><text fill="#000000" font-family="sans-serif" font-size="11" lengthAdjust="spacing" textLength="59" x="33" y="98.7656">play(): void</text></a><!--MD5=[6b0387999e39f702e716809ff3f5f29a]
class nz.ac.wgtn.swen225.lc.renderer.SoundControl.SoundList--><a href="SoundControl.SoundList.html" target="_top" title="SoundControl.SoundList.html" xlink:actuate="onRequest" xlink:href="SoundControl.SoundList.html" xlink:show="new" xlink:title="SoundControl.SoundList.html" xlink:type="simple"><rect codeLine="11" fill="#FEFECE" filter="url(#f1ei7kpn51lsni)" height="38.2656" id="nz.ac.wgtn.swen225.lc.renderer.SoundControl.SoundList" style="stroke:#A80036;stroke-width:1.5;" width="199" x="7" y="165.08"/><ellipse cx="22" cy="184.2128" fill="#EB937F" rx="11" ry="11" style="stroke:#A80036;stroke-width:1.0;"/><path d="M25.6143,190.7128 L17.8945,190.7128 L17.8945,178.3197 L25.6143,178.3197 L25.6143,180.4779 L20.3433,180.4779 L20.3433,183.1508 L25.1162,183.1508 L25.1162,185.309 L20.3433,185.309 L20.3433,188.5546 L25.6143,188.5546 Z " fill="#000000"/><text fill="#000000" font-family="sans-serif" font-size="14" lengthAdjust="spacing" textLength="167" x="36" y="183.6152">SoundControl.SoundList</text><text fill="#000000" font-family="sans-serif" font-size="10" lengthAdjust="spacing" textLength="155" x="42" y="196.2362">nz.ac.wgtn.swen225.lc.renderer</text></a><!--MD5=[7e77c61108c0002ab38ba92b14edf29c]
reverse link nz.ac.wgtn.swen225.lc.renderer.SoundControl to nz.ac.wgtn.swen225.lc.renderer.SoundControl.SoundList--><path codeLine="13" d="M106.5,121.76 C106.5,137.51 106.5,153.13 106.5,164.68 " fill="none" id="nz.ac.wgtn.swen225.lc.renderer.SoundControl-backto-nz.ac.wgtn.swen225.lc.renderer.SoundControl.SoundList" style="stroke:#A80036;stroke-width:1.0;"/><ellipse cx="106.5" cy="114.98" fill="#FFFFFF" rx="8" ry="8" style="stroke:#A80036;stroke-width:1.0;"/><line style="stroke:#A80036;stroke-width:1.0;" x1="106.5" x2="106.5" y1="122.98" y2="106.98"/><line style="stroke:#A80036;stroke-width:1.0;" x1="98.5" x2="114.5" y1="114.98" y2="114.98"/><text fill="#888888" font-family="sans-serif" font-size="10" lengthAdjust="spacing" textLength="182" x="12.5" y="226.0136">UMLDoclet 2.0.14, PlantUML 1.2021.9</text><!--MD5=[b70748de3a05dd01921924797070dc64]
@startuml
    set namespaceSeparator none
    hide empty fields
    hide empty methods

    class "<size:14>SoundControl\n<size:10>nz.ac.wgtn.swen225.lc.renderer" as nz.ac.wgtn.swen225.lc.renderer.SoundControl [[SoundControl.html]] {
        +playSong(): void
        +stopSong(): void
        +playSound(SoundList): void
        +play(): void
    }
    enum "<size:14>SoundControl.SoundList\n<size:10>nz.ac.wgtn.swen225.lc.renderer" as nz.ac.wgtn.swen225.lc.renderer.SoundControl.SoundList [[SoundControl.SoundList.html]]

    nz.ac.wgtn.swen225.lc.renderer.SoundControl +- - nz.ac.wgtn.swen225.lc.renderer.SoundControl.SoundList

    center footer UMLDoclet 2.0.14, PlantUML 1.2021.9
@enduml

PlantUML version 1.2021.9(Sun Jul 25 22:13:56 NZST 2021)
(APACHE source distribution)
Java Runtime: OpenJDK Runtime Environment
JVM: OpenJDK 64-Bit Server VM
Default Encoding: UTF-8
Language: en
Country: NZ
--></g></svg>