<?xml version="1.0" encoding="UTF-8" standalone="no"?><svg xmlns="http://www.w3.org/2000/svg" xmlns:xlink="http://www.w3.org/1999/xlink" contentScriptType="application/ecmascript" contentStyleType="text/css" height="276px" preserveAspectRatio="none" style="width:510px;height:276px;background:#FFFFFF;" version="1.1" viewBox="0 0 510 276" width="510px" zoomAndPan="magnify"><defs><filter height="300%" id="f699lxzxvtb8v" width="300%" x="-1" y="-1"><feGaussianBlur result="blurOut" stdDeviation="2.0"/><feColorMatrix in="blurOut" result="blurOut2" type="matrix" values="0 0 0 0 0 0 0 0 0 0 0 0 0 0 0 0 0 0 .4 0"/><feOffset dx="4.0" dy="4.0" in="blurOut2" result="blurOut3"/><feBlend in="SourceGraphic" in2="blurOut3" mode="normal"/></filter></defs><g><!--MD5=[9e2f434f3d916d29fdd197c28493bc28]
class nz.ac.wgtn.swen225.lc.renderer.SpriteEntity--><a href="SpriteEntity.html" target="_top" title="SpriteEntity.html" xlink:actuate="onRequest" xlink:href="SpriteEntity.html" xlink:show="new" xlink:title="SpriteEntity.html" xlink:type="simple"><rect codeLine="5" fill="#FEFECE" filter="url(#f699lxzxvtb8v)" height="119.041" id="nz.ac.wgtn.swen225.lc.renderer.SpriteEntity" style="stroke:#A80036;stroke-width:1.5;" width="300" x="81.5" y="126.22"/><ellipse cx="149.75" cy="145.3528" fill="#ADD1B2" rx="11" ry="11" style="stroke:#A80036;stroke-width:1.0;"/><path d="M152.2231,151.4959 Q151.6421,151.7947 151.0029,151.9441 Q150.3638,152.0935 149.6582,152.0935 Q147.1514,152.0935 145.8315,150.4417 Q144.5117,148.7898 144.5117,145.6687 Q144.5117,142.5393 145.8315,140.8875 Q147.1514,139.2356 149.6582,139.2356 Q150.3638,139.2356 151.0112,139.385 Q151.6587,139.5345 152.2231,139.8333 L152.2231,142.5559 Q151.5923,141.9749 150.9988,141.7051 Q150.4053,141.4353 149.7744,141.4353 Q148.4297,141.4353 147.7449,142.502 Q147.0601,143.5686 147.0601,145.6687 Q147.0601,147.7605 147.7449,148.8272 Q148.4297,149.8938 149.7744,149.8938 Q150.4053,149.8938 150.9988,149.6241 Q151.5923,149.3543 152.2231,148.7732 Z " fill="#000000"/><text fill="#000000" font-family="sans-serif" font-size="14" lengthAdjust="spacing" textLength="78" x="208.75" y="144.7552">SpriteEntity</text><text fill="#000000" font-family="sans-serif" font-size="10" lengthAdjust="spacing" textLength="155" x="170.25" y="157.3762">nz.ac.wgtn.swen225.lc.renderer</text><line style="stroke:#A80036;stroke-width:1.5;" x1="82.5" x2="380.5" y1="164.4856" y2="164.4856"/><ellipse cx="92.5" cy="175.4856" rx="3" ry="3" style="stroke:#038048;stroke-width:1.0;fill:none;"/><text fill="#000000" font-family="sans-serif" font-size="11" lengthAdjust="spacing" textLength="144" x="101.5" y="179.1204">currentDirection: Direction</text><line style="stroke:#A80036;stroke-width:1.5;" x1="82.5" x2="380.5" y1="185.4407" y2="185.4407"/><ellipse cx="92.5" cy="196.4407" fill="#84BE84" rx="3" ry="3" style="stroke:#038048;stroke-width:1.0;"/><text fill="#000000" font-family="sans-serif" font-size="11" lengthAdjust="spacing" textLength="206" x="101.5" y="200.0755">SpriteEntity(BufferedImage, int, int, int)</text><ellipse cx="92.5" cy="209.3958" fill="#84BE84" rx="3" ry="3" style="stroke:#038048;stroke-width:1.0;"/><text fill="#000000" font-family="sans-serif" font-size="11" lengthAdjust="spacing" textLength="274" x="101.5" y="213.0305">SpriteEntity(BufferedImage, int, int, int, GameModel)</text><ellipse cx="92.5" cy="222.3509" fill="#84BE84" rx="3" ry="3" style="stroke:#038048;stroke-width:1.0;"/><text fill="#000000" font-family="sans-serif" font-size="11" lengthAdjust="spacing" textLength="147" x="101.5" y="225.9856">animateSprite(): ImagePanel</text><ellipse cx="92.5" cy="235.3059" fill="#84BE84" rx="3" ry="3" style="stroke:#038048;stroke-width:1.0;"/><text fill="#000000" font-family="sans-serif" font-size="11" lengthAdjust="spacing" textLength="241" x="101.5" y="238.9407">propertyChange(PropertyChangeEvent): void</text></a><!--MD5=[164c93a523ea75cf50cb570d830ccc60]
class nz.ac.wgtn.swen225.lc.renderer.ImagePanel--><a href="ImagePanel.html" target="_top" title="ImagePanel.html" xlink:actuate="onRequest" xlink:href="ImagePanel.html" xlink:show="new" xlink:title="ImagePanel.html" xlink:type="simple"><rect codeLine="13" fill="#FEFECE" filter="url(#f699lxzxvtb8v)" height="38.2656" id="nz.ac.wgtn.swen225.lc.renderer.ImagePanel" style="stroke:#A80036;stroke-width:1.5;" width="187" x="7" y="17.48"/><ellipse cx="22" cy="36.6128" fill="#ADD1B2" rx="11" ry="11" style="stroke:#A80036;stroke-width:1.0;"/><path d="M24.4731,42.7559 Q23.8921,43.0547 23.2529,43.2041 Q22.6138,43.3535 21.9082,43.3535 Q19.4014,43.3535 18.0815,41.7017 Q16.7617,40.0498 16.7617,36.9287 Q16.7617,33.7993 18.0815,32.1475 Q19.4014,30.4956 21.9082,30.4956 Q22.6138,30.4956 23.2612,30.645 Q23.9087,30.7945 24.4731,31.0933 L24.4731,33.8159 Q23.8423,33.2349 23.2488,32.9651 Q22.6553,32.6953 22.0244,32.6953 Q20.6797,32.6953 19.9949,33.762 Q19.3101,34.8286 19.3101,36.9287 Q19.3101,39.0205 19.9949,40.0872 Q20.6797,41.1538 22.0244,41.1538 Q22.6553,41.1538 23.2488,40.8841 Q23.8423,40.6143 24.4731,40.0332 Z " fill="#000000"/><text fill="#000000" font-family="sans-serif" font-size="14" lengthAdjust="spacing" textLength="79" x="74" y="36.0152">ImagePanel</text><text fill="#000000" font-family="sans-serif" font-size="10" lengthAdjust="spacing" textLength="155" x="36" y="48.6362">nz.ac.wgtn.swen225.lc.renderer</text></a><!--MD5=[0d154d630b9a073463cbcbf880061a38]
class java.beans.PropertyChangeListener--><rect codeLine="14" fill="#FEFECE" filter="url(#f699lxzxvtb8v)" height="59.2207" id="java.beans.PropertyChangeListener" style="stroke:#A80036;stroke-width:1.5;" width="267" x="229" y="7"/><ellipse cx="275.75" cy="26.1328" fill="#B4A7E5" rx="11" ry="11" style="stroke:#A80036;stroke-width:1.0;"/><path d="M272.1777,22.3979 L272.1777,20.2397 L279.5571,20.2397 L279.5571,22.3979 L277.0918,22.3979 L277.0918,30.4746 L279.5571,30.4746 L279.5571,32.6328 L272.1777,32.6328 L272.1777,30.4746 L274.6431,30.4746 L274.6431,22.3979 Z " fill="#000000"/><text fill="#000000" font-family="sans-serif" font-size="14" font-style="italic" lengthAdjust="spacing" textLength="165" x="296.25" y="25.5352">PropertyChangeListener</text><text fill="#000000" font-family="sans-serif" font-size="10" font-style="italic" lengthAdjust="spacing" textLength="52" x="352.75" y="38.1563">java.beans</text><line style="stroke:#A80036;stroke-width:1.5;" x1="230" x2="495" y1="45.2656" y2="45.2656"/><ellipse cx="240" cy="56.2656" fill="#84BE84" rx="3" ry="3" style="stroke:#038048;stroke-width:1.0;"/><text fill="#000000" font-family="sans-serif" font-size="11" font-style="italic" lengthAdjust="spacing" textLength="241" x="249" y="59.9004">propertyChange(PropertyChangeEvent): void</text><!--MD5=[0eec9db2c83009da3d6499d87b9881ad]
reverse link nz.ac.wgtn.swen225.lc.renderer.ImagePanel to nz.ac.wgtn.swen225.lc.renderer.SpriteEntity--><path codeLine="18" d="M130.95,71.81 C145.3,87.93 162.84,107.63 179.23,126.03 " fill="none" id="nz.ac.wgtn.swen225.lc.renderer.ImagePanel-backto-nz.ac.wgtn.swen225.lc.renderer.SpriteEntity" style="stroke:#A80036;stroke-width:1.0;"/><polygon fill="none" points="125.9,76.67,117.83,57.08,136.36,67.36,125.9,76.67" style="stroke:#A80036;stroke-width:1.0;"/><!--MD5=[a73487b1005115df6171c66318a8d6c7]
reverse link java.beans.PropertyChangeListener to nz.ac.wgtn.swen225.lc.renderer.SpriteEntity--><path codeLine="19" d="M322.58,82.45 C310.38,96.15 296.77,111.43 283.88,125.91 " fill="none" id="java.beans.PropertyChangeListener-backto-nz.ac.wgtn.swen225.lc.renderer.SpriteEntity" style="stroke:#A80036;stroke-width:1.0;stroke-dasharray:7.0,7.0;"/><polygon fill="none" points="317.08,78.09,335.61,67.81,327.54,87.4,317.08,78.09" style="stroke:#A80036;stroke-width:1.0;"/><text fill="#888888" font-family="sans-serif" font-size="10" lengthAdjust="spacing" textLength="182" x="157.5" y="267.929">UMLDoclet 2.0.14, PlantUML 1.2021.9</text><!--MD5=[0d507deb30d9fda95fbd5295209d6e0a]
@startuml
    set namespaceSeparator none
    hide empty fields
    hide empty methods

    class "<size:14>SpriteEntity\n<size:10>nz.ac.wgtn.swen225.lc.renderer" as nz.ac.wgtn.swen225.lc.renderer.SpriteEntity [[SpriteEntity.html]] {
        +currentDirection: Direction
        +SpriteEntity(BufferedImage, int, int, int)
        +SpriteEntity(BufferedImage, int, int, int, GameModel)
        +animateSprite(): ImagePanel
        +propertyChange(PropertyChangeEvent): void
    }

    class "<size:14>ImagePanel\n<size:10>nz.ac.wgtn.swen225.lc.renderer" as nz.ac.wgtn.swen225.lc.renderer.ImagePanel [[ImagePanel.html]]
    interface "<size:14>PropertyChangeListener\n<size:10>java.beans" as java.beans.PropertyChangeListener {
        {abstract} +propertyChange(PropertyChangeEvent): void
    }

    nz.ac.wgtn.swen225.lc.renderer.ImagePanel <|- - nz.ac.wgtn.swen225.lc.renderer.SpriteEntity
    java.beans.PropertyChangeListener <|.. nz.ac.wgtn.swen225.lc.renderer.SpriteEntity

    center footer UMLDoclet 2.0.14, PlantUML 1.2021.9
@enduml

PlantUML version 1.2021.9(Sun Jul 25 22:13:56 NZST 2021)
(APACHE source distribution)
Java Runtime: OpenJDK Runtime Environment
JVM: OpenJDK 64-Bit Server VM
Default Encoding: UTF-8
Language: en
Country: NZ
--></g></svg>