<?xml version="1.0" encoding="UTF-8" standalone="no"?><svg xmlns="http://www.w3.org/2000/svg" xmlns:xlink="http://www.w3.org/1999/xlink" contentScriptType="application/ecmascript" contentStyleType="text/css" height="232px" preserveAspectRatio="none" style="width:428px;height:232px;background:#FFFFFF;" version="1.1" viewBox="0 0 428 232" width="428px" zoomAndPan="magnify"><defs><filter height="300%" id="f1dj7ao31lo85m" width="300%" x="-1" y="-1"><feGaussianBlur result="blurOut" stdDeviation="2.0"/><feColorMatrix in="blurOut" result="blurOut2" type="matrix" values="0 0 0 0 0 0 0 0 0 0 0 0 0 0 0 0 0 0 .4 0"/><feOffset dx="4.0" dy="4.0" in="blurOut2" result="blurOut3"/><feBlend in="SourceGraphic" in2="blurOut3" mode="normal"/></filter></defs><g><!--MD5=[5613ace5512b837eaca5b4ce2bb0b569]
class nz.ac.wgtn.swen225.lc.persistency.GameModelDeserializer--><a href="GameModelDeserializer.html" target="_top" title="GameModelDeserializer.html" xlink:actuate="onRequest" xlink:href="GameModelDeserializer.html" xlink:show="new" xlink:title="GameModelDeserializer.html" xlink:type="simple"><rect codeLine="5" fill="#FEFECE" filter="url(#f1dj7ao31lo85m)" height="72.1758" id="nz.ac.wgtn.swen225.lc.persistency.GameModelDeserializer" style="stroke:#A80036;stroke-width:1.5;" width="407" x="7" y="129.22"/><ellipse cx="122.25" cy="148.3528" fill="#ADD1B2" rx="11" ry="11" style="stroke:#A80036;stroke-width:1.0;"/><path d="M124.7231,154.4959 Q124.1421,154.7947 123.5029,154.9441 Q122.8638,155.0935 122.1582,155.0935 Q119.6514,155.0935 118.3315,153.4417 Q117.0117,151.7898 117.0117,148.6687 Q117.0117,145.5393 118.3315,143.8875 Q119.6514,142.2356 122.1582,142.2356 Q122.8638,142.2356 123.5112,142.385 Q124.1587,142.5345 124.7231,142.8333 L124.7231,145.5559 Q124.0923,144.9749 123.4988,144.7051 Q122.9053,144.4353 122.2744,144.4353 Q120.9297,144.4353 120.2449,145.502 Q119.5601,146.5686 119.5601,148.6687 Q119.5601,150.7605 120.2449,151.8272 Q120.9297,152.8938 122.2744,152.8938 Q122.9053,152.8938 123.4988,152.6241 Q124.0923,152.3543 124.7231,151.7732 Z " fill="#000000"/><text fill="#000000" font-family="sans-serif" font-size="14" lengthAdjust="spacing" textLength="162" x="145.75" y="147.7552">GameModelDeserializer</text><text fill="#000000" font-family="sans-serif" font-size="10" lengthAdjust="spacing" textLength="168" x="142.75" y="160.3763">nz.ac.wgtn.swen225.lc.persistency</text><line style="stroke:#A80036;stroke-width:1.5;" x1="8" x2="413" y1="167.4856" y2="167.4856"/><ellipse cx="18" cy="178.4856" fill="#84BE84" rx="3" ry="3" style="stroke:#038048;stroke-width:1.0;"/><text fill="#000000" font-family="sans-serif" font-size="11" lengthAdjust="spacing" textLength="381" x="27" y="182.1204">deserialize(JsonElement, Type, JsonDeserializationContext): GameModel</text><ellipse cx="18" cy="191.4407" fill="#84BE84" rx="3" ry="3" style="stroke:#038048;stroke-width:1.0;"/><text fill="#000000" font-family="sans-serif" font-size="11" lengthAdjust="spacing" text-decoration="underline" textLength="167" x="27" y="195.0755">deserializeTile(JsonObject): Tile</text></a><!--MD5=[158deb3feaef9513dff2170794b50c9a]
class com.google.gson.JsonDeserializer--><rect codeLine="10" fill="#FEFECE" filter="url(#f1dj7ao31lo85m)" height="59.2207" id="com.google.gson.JsonDeserializer" style="stroke:#A80036;stroke-width:1.5;" width="407" x="7" y="10"/><ellipse cx="114.75" cy="29.1328" fill="#B4A7E5" rx="11" ry="11" style="stroke:#A80036;stroke-width:1.0;"/><path d="M111.1777,25.3979 L111.1777,23.2397 L118.5571,23.2397 L118.5571,25.3979 L116.0918,25.3979 L116.0918,33.4746 L118.5571,33.4746 L118.5571,35.6328 L111.1777,35.6328 L111.1777,33.4746 L113.6431,33.4746 L113.6431,25.3979 Z " fill="#000000"/><text fill="#000000" font-family="sans-serif" font-size="14" font-style="italic" lengthAdjust="spacing" textLength="110" x="135.25" y="28.5352">JsonDeserializer</text><text fill="#000000" font-family="sans-serif" font-size="10" font-style="italic" lengthAdjust="spacing" textLength="82" x="149.25" y="41.1563">com.google.gson</text><rect fill="#FFFFFF" height="16.1328" style="stroke:#000000;stroke-width:1.0;stroke-dasharray:2.0,2.0;" width="71" x="346" y="7"/><text fill="#000000" font-family="sans-serif" font-size="12" font-style="italic" lengthAdjust="spacing" textLength="69" x="347" y="19.6016">GameModel</text><line style="stroke:#A80036;stroke-width:1.5;" x1="8" x2="413" y1="48.2656" y2="48.2656"/><ellipse cx="18" cy="59.2656" fill="#84BE84" rx="3" ry="3" style="stroke:#038048;stroke-width:1.0;"/><text fill="#000000" font-family="sans-serif" font-size="11" font-style="italic" lengthAdjust="spacing" textLength="381" x="27" y="62.9004">deserialize(JsonElement, Type, JsonDeserializationContext): GameModel</text><!--MD5=[c5aa624c82aacfc93ba3afd6143b0368]
reverse link com.google.gson.JsonDeserializer to nz.ac.wgtn.swen225.lc.persistency.GameModelDeserializer--><path codeLine="14" d="M210.5,90.72 C210.5,103.51 210.5,116.99 210.5,128.87 " fill="none" id="com.google.gson.JsonDeserializer-backto-nz.ac.wgtn.swen225.lc.persistency.GameModelDeserializer" style="stroke:#A80036;stroke-width:1.0;stroke-dasharray:7.0,7.0;"/><polygon fill="none" points="203.5,91.13,210.5,71.13,217.5,91.13,203.5,91.13" style="stroke:#A80036;stroke-width:1.0;"/><text fill="#888888" font-family="sans-serif" font-size="10" lengthAdjust="spacing" textLength="182" x="116.5" y="224.0638">UMLDoclet 2.0.14, PlantUML 1.2021.9</text><!--MD5=[30632c05b8a2e4f1abfde5826afb6df9]
@startuml
    set namespaceSeparator none
    hide empty fields
    hide empty methods

    class "<size:14>GameModelDeserializer\n<size:10>nz.ac.wgtn.swen225.lc.persistency" as nz.ac.wgtn.swen225.lc.persistency.GameModelDeserializer [[GameModelDeserializer.html]] {
        +deserialize(JsonElement, Type, JsonDeserializationContext): GameModel
        {static} +deserializeTile(JsonObject): Tile
    }

    interface "<size:14>JsonDeserializer\n<size:10>com.google.gson" as com.google.gson.JsonDeserializer<GameModel> {
        {abstract} +deserialize(JsonElement, Type, JsonDeserializationContext): GameModel
    }

    com.google.gson.JsonDeserializer <|.. nz.ac.wgtn.swen225.lc.persistency.GameModelDeserializer

    center footer UMLDoclet 2.0.14, PlantUML 1.2021.9
@enduml

PlantUML version 1.2021.9(Sun Jul 25 22:13:56 NZST 2021)
(APACHE source distribution)
Java Runtime: OpenJDK Runtime Environment
JVM: OpenJDK 64-Bit Server VM
Default Encoding: UTF-8
Language: en
Country: NZ
--></g></svg>