<?xml version="1.0" encoding="UTF-8" standalone="no"?><svg xmlns="http://www.w3.org/2000/svg" xmlns:xlink="http://www.w3.org/1999/xlink" contentScriptType="application/ecmascript" contentStyleType="text/css" height="232px" preserveAspectRatio="none" style="width:401px;height:232px;background:#FFFFFF;" version="1.1" viewBox="0 0 401 232" width="401px" zoomAndPan="magnify"><defs><filter height="300%" id="f173eeagfwo5qe" width="300%" x="-1" y="-1"><feGaussianBlur result="blurOut" stdDeviation="2.0"/><feColorMatrix in="blurOut" result="blurOut2" type="matrix" values="0 0 0 0 0 0 0 0 0 0 0 0 0 0 0 0 0 0 .4 0"/><feOffset dx="4.0" dy="4.0" in="blurOut2" result="blurOut3"/><feBlend in="SourceGraphic" in2="blurOut3" mode="normal"/></filter></defs><g><!--MD5=[d0f345def6aa922da0f3a9f1f264c893]
class nz.ac.wgtn.swen225.lc.persistency.GameModelSerializer--><a href="GameModelSerializer.html" target="_top" title="GameModelSerializer.html" xlink:actuate="onRequest" xlink:href="GameModelSerializer.html" xlink:show="new" xlink:title="GameModelSerializer.html" xlink:type="simple"><rect codeLine="5" fill="#FEFECE" filter="url(#f173eeagfwo5qe)" height="72.1758" id="nz.ac.wgtn.swen225.lc.persistency.GameModelSerializer" style="stroke:#A80036;stroke-width:1.5;" width="380" x="7" y="129.22"/><ellipse cx="108.75" cy="148.3528" fill="#ADD1B2" rx="11" ry="11" style="stroke:#A80036;stroke-width:1.0;"/><path d="M111.2231,154.4959 Q110.6421,154.7947 110.0029,154.9441 Q109.3638,155.0935 108.6582,155.0935 Q106.1514,155.0935 104.8315,153.4417 Q103.5117,151.7898 103.5117,148.6687 Q103.5117,145.5393 104.8315,143.8875 Q106.1514,142.2356 108.6582,142.2356 Q109.3638,142.2356 110.0112,142.385 Q110.6587,142.5345 111.2231,142.8333 L111.2231,145.5559 Q110.5923,144.9749 109.9988,144.7051 Q109.4053,144.4353 108.7744,144.4353 Q107.4297,144.4353 106.7449,145.502 Q106.0601,146.5686 106.0601,148.6687 Q106.0601,150.7605 106.7449,151.8272 Q107.4297,152.8938 108.7744,152.8938 Q109.4053,152.8938 109.9988,152.6241 Q110.5923,152.3543 111.2231,151.7732 Z " fill="#000000"/><text fill="#000000" font-family="sans-serif" font-size="14" lengthAdjust="spacing" textLength="145" x="140.75" y="147.7552">GameModelSerializer</text><text fill="#000000" font-family="sans-serif" font-size="10" lengthAdjust="spacing" textLength="168" x="129.25" y="160.3763">nz.ac.wgtn.swen225.lc.persistency</text><line style="stroke:#A80036;stroke-width:1.5;" x1="8" x2="386" y1="167.4856" y2="167.4856"/><ellipse cx="18" cy="178.4856" fill="#84BE84" rx="3" ry="3" style="stroke:#038048;stroke-width:1.0;"/><text fill="#000000" font-family="sans-serif" font-size="11" lengthAdjust="spacing" textLength="354" x="27" y="182.1204">serialize(GameModel, Type, JsonSerializationContext): JsonElement</text><ellipse cx="18" cy="191.4407" fill="#84BE84" rx="3" ry="3" style="stroke:#038048;stroke-width:1.0;"/><text fill="#000000" font-family="sans-serif" font-size="11" lengthAdjust="spacing" text-decoration="underline" textLength="194" x="27" y="195.0755">serializeTile(Tile, int, int): JsonObject</text></a><!--MD5=[c82d3a33303d7a67d582b557ee99f594]
class com.google.gson.JsonSerializer--><rect codeLine="10" fill="#FEFECE" filter="url(#f173eeagfwo5qe)" height="59.2207" id="com.google.gson.JsonSerializer" style="stroke:#A80036;stroke-width:1.5;" width="380" x="7" y="10"/><ellipse cx="109.75" cy="29.1328" fill="#B4A7E5" rx="11" ry="11" style="stroke:#A80036;stroke-width:1.0;"/><path d="M106.1777,25.3979 L106.1777,23.2397 L113.5571,23.2397 L113.5571,25.3979 L111.0918,25.3979 L111.0918,33.4746 L113.5571,33.4746 L113.5571,35.6328 L106.1777,35.6328 L106.1777,33.4746 L108.6431,33.4746 L108.6431,25.3979 Z " fill="#000000"/><text fill="#000000" font-family="sans-serif" font-size="14" font-style="italic" lengthAdjust="spacing" textLength="93" x="130.25" y="28.5352">JsonSerializer</text><text fill="#000000" font-family="sans-serif" font-size="10" font-style="italic" lengthAdjust="spacing" textLength="82" x="135.75" y="41.1563">com.google.gson</text><rect fill="#FFFFFF" height="16.1328" style="stroke:#000000;stroke-width:1.0;stroke-dasharray:2.0,2.0;" width="71" x="319" y="7"/><text fill="#000000" font-family="sans-serif" font-size="12" font-style="italic" lengthAdjust="spacing" textLength="69" x="320" y="19.6016">GameModel</text><line style="stroke:#A80036;stroke-width:1.5;" x1="8" x2="386" y1="48.2656" y2="48.2656"/><ellipse cx="18" cy="59.2656" fill="#84BE84" rx="3" ry="3" style="stroke:#038048;stroke-width:1.0;"/><text fill="#000000" font-family="sans-serif" font-size="11" font-style="italic" lengthAdjust="spacing" textLength="354" x="27" y="62.9004">serialize(GameModel, Type, JsonSerializationContext): JsonElement</text><!--MD5=[ce4139ea95931de0879f109e663104d6]
reverse link com.google.gson.JsonSerializer to nz.ac.wgtn.swen225.lc.persistency.GameModelSerializer--><path codeLine="14" d="M197,90.72 C197,103.51 197,116.99 197,128.87 " fill="none" id="com.google.gson.JsonSerializer-backto-nz.ac.wgtn.swen225.lc.persistency.GameModelSerializer" style="stroke:#A80036;stroke-width:1.0;stroke-dasharray:7.0,7.0;"/><polygon fill="none" points="190,91.13,197,71.13,204,91.13,190,91.13" style="stroke:#A80036;stroke-width:1.0;"/><text fill="#888888" font-family="sans-serif" font-size="10" lengthAdjust="spacing" textLength="182" x="103" y="224.0638">UMLDoclet 2.0.14, PlantUML 1.2021.9</text><!--MD5=[53a926ad99e83ed00f413aa6837cf0af]
@startuml
    set namespaceSeparator none
    hide empty fields
    hide empty methods

    class "<size:14>GameModelSerializer\n<size:10>nz.ac.wgtn.swen225.lc.persistency" as nz.ac.wgtn.swen225.lc.persistency.GameModelSerializer [[GameModelSerializer.html]] {
        +serialize(GameModel, Type, JsonSerializationContext): JsonElement
        {static} +serializeTile(Tile, int, int): JsonObject
    }

    interface "<size:14>JsonSerializer\n<size:10>com.google.gson" as com.google.gson.JsonSerializer<GameModel> {
        {abstract} +serialize(GameModel, Type, JsonSerializationContext): JsonElement
    }

    com.google.gson.JsonSerializer <|.. nz.ac.wgtn.swen225.lc.persistency.GameModelSerializer

    center footer UMLDoclet 2.0.14, PlantUML 1.2021.9
@enduml

PlantUML version 1.2021.9(Sun Jul 25 22:13:56 NZST 2021)
(APACHE source distribution)
Java Runtime: OpenJDK Runtime Environment
JVM: OpenJDK 64-Bit Server VM
Default Encoding: UTF-8
Language: en
Country: NZ
--></g></svg>