<?xml version="1.0" encoding="UTF-8" standalone="no"?><svg xmlns="http://www.w3.org/2000/svg" xmlns:xlink="http://www.w3.org/1999/xlink" contentScriptType="application/ecmascript" contentStyleType="text/css" height="381px" preserveAspectRatio="none" style="width:3044px;height:381px;background:#FFFFFF;" version="1.1" viewBox="0 0 3044 381" width="3044px" zoomAndPan="magnify"><defs><filter height="300%" id="flrnjgq4cfv5d" width="300%" x="-1" y="-1"><feGaussianBlur result="blurOut" stdDeviation="2.0"/><feColorMatrix in="blurOut" result="blurOut2" type="matrix" values="0 0 0 0 0 0 0 0 0 0 0 0 0 0 0 0 0 0 .4 0"/><feOffset dx="4.0" dy="4.0" in="blurOut2" result="blurOut3"/><feBlend in="SourceGraphic" in2="blurOut3" mode="normal"/></filter></defs><g><!--MD5=[4b7d2fd9f412d52128a393c62b344a69]
cluster nz.ac.wgtn.swen225.lc.persistency--><polygon fill="#FFFFFF" filter="url(#flrnjgq4cfv5d)" points="16,141.95,263,141.95,270,164.4383,3027,164.4383,3027,357.55,16,357.55,16,141.95" style="stroke:#000000;stroke-width:1.5;"/><line style="stroke:#000000;stroke-width:1.5;" x1="16" x2="270" y1="164.4383" y2="164.4383"/><text fill="#000000" font-family="sans-serif" font-size="14" font-weight="bold" lengthAdjust="spacing" textLength="241" x="20" y="157.4852">nz.ac.wgtn.swen225.lc.persistency</text><!--MD5=[4a6f18b448b965bfceb4265889d0cdc6]
cluster com.google.gson--><polygon fill="#FFFFFF" filter="url(#flrnjgq4cfv5d)" points="681,6,807,6,814,28.4883,1426,28.4883,1426,117.95,681,117.95,681,6" style="stroke:#000000;stroke-width:1.5;"/><line style="stroke:#000000;stroke-width:1.5;" x1="681" x2="814" y1="28.4883" y2="28.4883"/><text fill="#000000" font-family="sans-serif" font-size="14" font-weight="bold" lengthAdjust="spacing" textLength="120" x="685" y="21.5352">com.google.gson</text><!--MD5=[eb797cd206e9a38ffd224aff15df3da0]
class nz.ac.wgtn.swen225.lc.persistency.PersistenceManagerTests--><a href="PersistenceManagerTests.html" target="_top" title="PersistenceManagerTests.html" xlink:actuate="onRequest" xlink:href="PersistenceManagerTests.html" xlink:show="new" xlink:title="PersistenceManagerTests.html" xlink:type="simple"><rect codeLine="3" fill="#FEFECE" filter="url(#flrnjgq4cfv5d)" height="164.5957" id="nz.ac.wgtn.swen225.lc.persistency.PersistenceManagerTests" style="stroke:#A80036;stroke-width:1.5;" width="290" x="2721" y="176.95"/><ellipse cx="2788.75" cy="192.95" fill="#ADD1B2" rx="11" ry="11" style="stroke:#A80036;stroke-width:1.0;"/><path d="M2791.2231,199.0931 Q2790.6421,199.3919 2790.0029,199.5413 Q2789.3638,199.6907 2788.6582,199.6907 Q2786.1514,199.6907 2784.8315,198.0389 Q2783.5117,196.387 2783.5117,193.2659 Q2783.5117,190.1365 2784.8315,188.4847 Q2786.1514,186.8328 2788.6582,186.8328 Q2789.3638,186.8328 2790.0112,186.9822 Q2790.6587,187.1316 2791.2231,187.4305 L2791.2231,190.1531 Q2790.5923,189.5721 2789.9988,189.3023 Q2789.4053,189.0325 2788.7744,189.0325 Q2787.4297,189.0325 2786.7449,190.0992 Q2786.0601,191.1658 2786.0601,193.2659 Q2786.0601,195.3577 2786.7449,196.4244 Q2787.4297,197.491 2788.7744,197.491 Q2789.4053,197.491 2789.9988,197.2212 Q2790.5923,196.9515 2791.2231,196.3704 Z " fill="#000000"/><text fill="#000000" font-family="sans-serif" font-size="12" lengthAdjust="spacing" textLength="146" x="2809.25" y="197.4852">PersistenceManagerTests</text><line style="stroke:#A80036;stroke-width:1.5;" x1="2722" x2="3010" y1="208.95" y2="208.95"/><line style="stroke:#A80036;stroke-width:1.5;" x1="2722" x2="3010" y1="216.95" y2="216.95"/><ellipse cx="2732" cy="227.95" fill="#84BE84" rx="3" ry="3" style="stroke:#038048;stroke-width:1.0;"/><text fill="#000000" font-family="sans-serif" font-size="11" lengthAdjust="spacing" textLength="99" x="2741" y="231.5848">setupModel(): void</text><ellipse cx="2732" cy="240.9051" fill="#84BE84" rx="3" ry="3" style="stroke:#038048;stroke-width:1.0;"/><text fill="#000000" font-family="sans-serif" font-size="11" lengthAdjust="spacing" textLength="226" x="2741" y="244.5398">testThatICanSaveABasicGameModel(): void</text><ellipse cx="2732" cy="253.8602" fill="#84BE84" rx="3" ry="3" style="stroke:#038048;stroke-width:1.0;"/><text fill="#000000" font-family="sans-serif" font-size="11" lengthAdjust="spacing" textLength="264" x="2741" y="257.4949">testThatICanCreateAGameModelFromJSON(): void</text><ellipse cx="2732" cy="266.8152" fill="#84BE84" rx="3" ry="3" style="stroke:#038048;stroke-width:1.0;"/><text fill="#000000" font-family="sans-serif" font-size="11" lengthAdjust="spacing" textLength="199" x="2741" y="270.45">testThatICanSaveASimpleLevel(): void</text><ellipse cx="2732" cy="279.7703" fill="#84BE84" rx="3" ry="3" style="stroke:#038048;stroke-width:1.0;"/><text fill="#000000" font-family="sans-serif" font-size="11" lengthAdjust="spacing" textLength="201" x="2741" y="283.4051">testThatICanLoadASimpleLevel(): void</text><ellipse cx="2732" cy="292.7254" fill="#84BE84" rx="3" ry="3" style="stroke:#038048;stroke-width:1.0;"/><text fill="#000000" font-family="sans-serif" font-size="11" lengthAdjust="spacing" textLength="227" x="2741" y="296.3602">testThatICanSaveASimpleRecording(): void</text><ellipse cx="2732" cy="305.6805" fill="#84BE84" rx="3" ry="3" style="stroke:#038048;stroke-width:1.0;"/><text fill="#000000" font-family="sans-serif" font-size="11" lengthAdjust="spacing" textLength="241" x="2741" y="309.3152">testThatICanAccessASimpleRecording(): void</text><ellipse cx="2732" cy="318.6355" fill="#84BE84" rx="3" ry="3" style="stroke:#038048;stroke-width:1.0;"/><text fill="#000000" font-family="sans-serif" font-size="11" lengthAdjust="spacing" textLength="251" x="2741" y="322.2703">testThatICanLoadASimpleEnemyFromJar(): void</text><ellipse cx="2732" cy="331.5906" fill="#84BE84" rx="3" ry="3" style="stroke:#038048;stroke-width:1.0;"/><text fill="#000000" font-family="sans-serif" font-size="11" lengthAdjust="spacing" textLength="261" x="2741" y="335.2254">testThatICannotDeseriliazeWrongTileType(): void</text></a><!--MD5=[d0f345def6aa922da0f3a9f1f264c893]
class nz.ac.wgtn.swen225.lc.persistency.GameModelSerializer--><a href="GameModelSerializer.html" target="_top" title="GameModelSerializer.html" xlink:actuate="onRequest" xlink:href="GameModelSerializer.html" xlink:show="new" xlink:title="GameModelSerializer.html" xlink:type="simple"><rect codeLine="15" fill="#FEFECE" filter="url(#flrnjgq4cfv5d)" height="73.9102" id="nz.ac.wgtn.swen225.lc.persistency.GameModelSerializer" style="stroke:#A80036;stroke-width:1.5;" width="380" x="2306" y="222.3"/><ellipse cx="2430.75" cy="238.3" fill="#ADD1B2" rx="11" ry="11" style="stroke:#A80036;stroke-width:1.0;"/><path d="M2433.2231,244.4431 Q2432.6421,244.7419 2432.0029,244.8913 Q2431.3638,245.0407 2430.6582,245.0407 Q2428.1514,245.0407 2426.8315,243.3889 Q2425.5117,241.737 2425.5117,238.6159 Q2425.5117,235.4865 2426.8315,233.8347 Q2428.1514,232.1828 2430.6582,232.1828 Q2431.3638,232.1828 2432.0112,232.3322 Q2432.6587,232.4816 2433.2231,232.7805 L2433.2231,235.5031 Q2432.5923,234.9221 2431.9988,234.6523 Q2431.4053,234.3825 2430.7744,234.3825 Q2429.4297,234.3825 2428.7449,235.4492 Q2428.0601,236.5158 2428.0601,238.6159 Q2428.0601,240.7077 2428.7449,241.7744 Q2429.4297,242.841 2430.7744,242.841 Q2431.4053,242.841 2431.9988,242.5712 Q2432.5923,242.3015 2433.2231,241.7204 Z " fill="#000000"/><text fill="#000000" font-family="sans-serif" font-size="12" lengthAdjust="spacing" textLength="122" x="2451.25" y="242.8352">GameModelSerializer</text><line style="stroke:#A80036;stroke-width:1.5;" x1="2307" x2="2685" y1="254.3" y2="254.3"/><line style="stroke:#A80036;stroke-width:1.5;" x1="2307" x2="2685" y1="262.3" y2="262.3"/><ellipse cx="2317" cy="273.3" fill="#84BE84" rx="3" ry="3" style="stroke:#038048;stroke-width:1.0;"/><text fill="#000000" font-family="sans-serif" font-size="11" lengthAdjust="spacing" textLength="354" x="2326" y="276.9348">serialize(GameModel, Type, JsonSerializationContext): JsonElement</text><ellipse cx="2317" cy="286.2551" fill="#84BE84" rx="3" ry="3" style="stroke:#038048;stroke-width:1.0;"/><text fill="#000000" font-family="sans-serif" font-size="11" lengthAdjust="spacing" text-decoration="underline" textLength="194" x="2326" y="289.8898">serializeTile(Tile, int, int): JsonObject</text></a><!--MD5=[e11f0d461f0887e8f9c365ffff304729]
class nz.ac.wgtn.swen225.lc.persistency.ReplayDeserializer--><a href="ReplayDeserializer.html" target="_top" title="ReplayDeserializer.html" xlink:actuate="onRequest" xlink:href="ReplayDeserializer.html" xlink:show="new" xlink:title="ReplayDeserializer.html" xlink:type="simple"><rect codeLine="20" fill="#FEFECE" filter="url(#flrnjgq4cfv5d)" height="60.9551" id="nz.ac.wgtn.swen225.lc.persistency.ReplayDeserializer" style="stroke:#A80036;stroke-width:1.5;" width="380" x="1891" y="228.77"/><ellipse cx="2022.75" cy="244.77" fill="#ADD1B2" rx="11" ry="11" style="stroke:#A80036;stroke-width:1.0;"/><path d="M2025.2231,250.9131 Q2024.6421,251.2119 2024.0029,251.3613 Q2023.3638,251.5107 2022.6582,251.5107 Q2020.1514,251.5107 2018.8315,249.8589 Q2017.5117,248.207 2017.5117,245.0859 Q2017.5117,241.9565 2018.8315,240.3047 Q2020.1514,238.6528 2022.6582,238.6528 Q2023.3638,238.6528 2024.0112,238.8022 Q2024.6587,238.9516 2025.2231,239.2505 L2025.2231,241.9731 Q2024.5923,241.3921 2023.9988,241.1223 Q2023.4053,240.8525 2022.7744,240.8525 Q2021.4297,240.8525 2020.7449,241.9192 Q2020.0601,242.9858 2020.0601,245.0859 Q2020.0601,247.1777 2020.7449,248.2444 Q2021.4297,249.311 2022.7744,249.311 Q2023.4053,249.311 2023.9988,249.0412 Q2024.5923,248.7715 2025.2231,248.1904 Z " fill="#000000"/><text fill="#000000" font-family="sans-serif" font-size="12" lengthAdjust="spacing" textLength="108" x="2043.25" y="249.3052">ReplayDeserializer</text><line style="stroke:#A80036;stroke-width:1.5;" x1="1892" x2="2270" y1="260.77" y2="260.77"/><line style="stroke:#A80036;stroke-width:1.5;" x1="1892" x2="2270" y1="268.77" y2="268.77"/><ellipse cx="1902" cy="279.77" fill="#84BE84" rx="3" ry="3" style="stroke:#038048;stroke-width:1.0;"/><text fill="#000000" font-family="sans-serif" font-size="11" lengthAdjust="spacing" textLength="354" x="1911" y="283.4048">deserialize(JsonElement, Type, JsonDeserializationContext): Replay</text></a><!--MD5=[c72fb0612c64c7d75acdd8095f617dc7]
class nz.ac.wgtn.swen225.lc.persistency.PersistenceManager--><a href="PersistenceManager.html" target="_top" title="PersistenceManager.html" xlink:actuate="onRequest" xlink:href="PersistenceManager.html" xlink:show="new" xlink:title="PersistenceManager.html" xlink:type="simple"><rect codeLine="24" fill="#FEFECE" filter="url(#flrnjgq4cfv5d)" height="164.5957" id="nz.ac.wgtn.swen225.lc.persistency.PersistenceManager" style="stroke:#A80036;stroke-width:1.5;" width="205" x="1650.5" y="176.95"/><ellipse cx="1691.6" cy="192.95" fill="#ADD1B2" rx="11" ry="11" style="stroke:#A80036;stroke-width:1.0;"/><path d="M1694.0731,199.0931 Q1693.4921,199.3919 1692.8529,199.5413 Q1692.2138,199.6907 1691.5082,199.6907 Q1689.0014,199.6907 1687.6815,198.0389 Q1686.3617,196.387 1686.3617,193.2659 Q1686.3617,190.1365 1687.6815,188.4847 Q1689.0014,186.8328 1691.5082,186.8328 Q1692.2138,186.8328 1692.8612,186.9822 Q1693.5087,187.1316 1694.0731,187.4305 L1694.0731,190.1531 Q1693.4423,189.5721 1692.8488,189.3023 Q1692.2553,189.0325 1691.6244,189.0325 Q1690.2797,189.0325 1689.5949,190.0992 Q1688.9101,191.1658 1688.9101,193.2659 Q1688.9101,195.3577 1689.5949,196.4244 Q1690.2797,197.491 1691.6244,197.491 Q1692.2553,197.491 1692.8488,197.2212 Q1693.4423,196.9515 1694.0731,196.3704 Z " fill="#000000"/><text fill="#000000" font-family="sans-serif" font-size="12" lengthAdjust="spacing" textLength="115" x="1711.4" y="197.4852">PersistenceManager</text><line style="stroke:#A80036;stroke-width:1.5;" x1="1651.5" x2="1854.5" y1="208.95" y2="208.95"/><line style="stroke:#A80036;stroke-width:1.5;" x1="1651.5" x2="1854.5" y1="216.95" y2="216.95"/><ellipse cx="1661.5" cy="227.95" fill="#84BE84" rx="3" ry="3" style="stroke:#038048;stroke-width:1.0;"/><text fill="#000000" font-family="sans-serif" font-size="11" lengthAdjust="spacing" textLength="105" x="1670.5" y="231.5848">loadLevels(): Level[]</text><ellipse cx="1661.5" cy="240.9051" fill="#84BE84" rx="3" ry="3" style="stroke:#038048;stroke-width:1.0;"/><text fill="#000000" font-family="sans-serif" font-size="11" lengthAdjust="spacing" textLength="179" x="1670.5" y="244.5398">loadGameModel(File): GameModel</text><ellipse cx="1661.5" cy="253.8602" fill="#84BE84" rx="3" ry="3" style="stroke:#038048;stroke-width:1.0;"/><text fill="#000000" font-family="sans-serif" font-size="11" lengthAdjust="spacing" textLength="147" x="1670.5" y="257.4949">save(GameModel, File): void</text><ellipse cx="1661.5" cy="266.8152" fill="#84BE84" rx="3" ry="3" style="stroke:#038048;stroke-width:1.0;"/><text fill="#000000" font-family="sans-serif" font-size="11" lengthAdjust="spacing" textLength="109" x="1670.5" y="270.45">loadLevel(File): Level</text><ellipse cx="1661.5" cy="279.7703" fill="#84BE84" rx="3" ry="3" style="stroke:#038048;stroke-width:1.0;"/><text fill="#000000" font-family="sans-serif" font-size="11" lengthAdjust="spacing" textLength="112" x="1670.5" y="283.4051">save(Level, File): void</text><ellipse cx="1661.5" cy="292.7254" fill="#84BE84" rx="3" ry="3" style="stroke:#038048;stroke-width:1.0;"/><text fill="#000000" font-family="sans-serif" font-size="11" lengthAdjust="spacing" textLength="125" x="1670.5" y="296.3602">loadReplay(File): Replay</text><ellipse cx="1661.5" cy="305.6805" fill="#84BE84" rx="3" ry="3" style="stroke:#038048;stroke-width:1.0;"/><text fill="#000000" font-family="sans-serif" font-size="11" lengthAdjust="spacing" textLength="120" x="1670.5" y="309.3152">save(Replay, File): void</text><ellipse cx="1661.5" cy="318.6355" fill="#84BE84" rx="3" ry="3" style="stroke:#038048;stroke-width:1.0;"/><text fill="#000000" font-family="sans-serif" font-size="11" lengthAdjust="spacing" textLength="176" x="1670.5" y="322.2703">getSimpleEnemy(Position): Agent</text><ellipse cx="1661.5" cy="331.5906" fill="#84BE84" rx="3" ry="3" style="stroke:#038048;stroke-width:1.0;"/><text fill="#000000" font-family="sans-serif" font-size="11" lengthAdjust="spacing" textLength="133" x="1670.5" y="335.2254">getBadActorImage(): URL</text></a><!--MD5=[5c4abc9326826b6416ea1cd082acb77e]
class nz.ac.wgtn.swen225.lc.persistency.ReplaySerializer--><a href="ReplaySerializer.html" target="_top" title="ReplaySerializer.html" xlink:actuate="onRequest" xlink:href="ReplaySerializer.html" xlink:show="new" xlink:title="ReplaySerializer.html" xlink:type="simple"><rect codeLine="36" fill="#FEFECE" filter="url(#flrnjgq4cfv5d)" height="60.9551" id="nz.ac.wgtn.swen225.lc.persistency.ReplaySerializer" style="stroke:#A80036;stroke-width:1.5;" width="353" x="1262.5" y="228.77"/><ellipse cx="1388.75" cy="244.77" fill="#ADD1B2" rx="11" ry="11" style="stroke:#A80036;stroke-width:1.0;"/><path d="M1391.2231,250.9131 Q1390.6421,251.2119 1390.0029,251.3613 Q1389.3638,251.5107 1388.6582,251.5107 Q1386.1514,251.5107 1384.8315,249.8589 Q1383.5117,248.207 1383.5117,245.0859 Q1383.5117,241.9565 1384.8315,240.3047 Q1386.1514,238.6528 1388.6582,238.6528 Q1389.3638,238.6528 1390.0112,238.8022 Q1390.6587,238.9516 1391.2231,239.2505 L1391.2231,241.9731 Q1390.5923,241.3921 1389.9988,241.1223 Q1389.4053,240.8525 1388.7744,240.8525 Q1387.4297,240.8525 1386.7449,241.9192 Q1386.0601,242.9858 1386.0601,245.0859 Q1386.0601,247.1777 1386.7449,248.2444 Q1387.4297,249.311 1388.7744,249.311 Q1389.4053,249.311 1389.9988,249.0412 Q1390.5923,248.7715 1391.2231,248.1904 Z " fill="#000000"/><text fill="#000000" font-family="sans-serif" font-size="12" lengthAdjust="spacing" textLength="92" x="1409.25" y="249.3052">ReplaySerializer</text><line style="stroke:#A80036;stroke-width:1.5;" x1="1263.5" x2="1614.5" y1="260.77" y2="260.77"/><line style="stroke:#A80036;stroke-width:1.5;" x1="1263.5" x2="1614.5" y1="268.77" y2="268.77"/><ellipse cx="1273.5" cy="279.77" fill="#84BE84" rx="3" ry="3" style="stroke:#038048;stroke-width:1.0;"/><text fill="#000000" font-family="sans-serif" font-size="11" lengthAdjust="spacing" textLength="327" x="1282.5" y="283.4048">serialize(Replay, Type, JsonSerializationContext): JsonElement</text></a><!--MD5=[5613ace5512b837eaca5b4ce2bb0b569]
class nz.ac.wgtn.swen225.lc.persistency.GameModelDeserializer--><a href="GameModelDeserializer.html" target="_top" title="GameModelDeserializer.html" xlink:actuate="onRequest" xlink:href="GameModelDeserializer.html" xlink:show="new" xlink:title="GameModelDeserializer.html" xlink:type="simple"><rect codeLine="40" fill="#FEFECE" filter="url(#flrnjgq4cfv5d)" height="73.9102" id="nz.ac.wgtn.swen225.lc.persistency.GameModelDeserializer" style="stroke:#A80036;stroke-width:1.5;" width="407" x="32.5" y="222.3"/><ellipse cx="162.75" cy="238.3" fill="#ADD1B2" rx="11" ry="11" style="stroke:#A80036;stroke-width:1.0;"/><path d="M165.2231,244.4431 Q164.6421,244.7419 164.0029,244.8913 Q163.3638,245.0407 162.6582,245.0407 Q160.1514,245.0407 158.8315,243.3889 Q157.5117,241.737 157.5117,238.6159 Q157.5117,235.4865 158.8315,233.8347 Q160.1514,232.1828 162.6582,232.1828 Q163.3638,232.1828 164.0112,232.3322 Q164.6587,232.4816 165.2231,232.7805 L165.2231,235.5031 Q164.5923,234.9221 163.9988,234.6523 Q163.4053,234.3825 162.7744,234.3825 Q161.4297,234.3825 160.7449,235.4492 Q160.0601,236.5158 160.0601,238.6159 Q160.0601,240.7077 160.7449,241.7744 Q161.4297,242.841 162.7744,242.841 Q163.4053,242.841 163.9988,242.5712 Q164.5923,242.3015 165.2231,241.7204 Z " fill="#000000"/><text fill="#000000" font-family="sans-serif" font-size="12" lengthAdjust="spacing" textLength="138" x="183.25" y="242.8352">GameModelDeserializer</text><line style="stroke:#A80036;stroke-width:1.5;" x1="33.5" x2="438.5" y1="254.3" y2="254.3"/><line style="stroke:#A80036;stroke-width:1.5;" x1="33.5" x2="438.5" y1="262.3" y2="262.3"/><ellipse cx="43.5" cy="273.3" fill="#84BE84" rx="3" ry="3" style="stroke:#038048;stroke-width:1.0;"/><text fill="#000000" font-family="sans-serif" font-size="11" lengthAdjust="spacing" textLength="381" x="52.5" y="276.9348">deserialize(JsonElement, Type, JsonDeserializationContext): GameModel</text><ellipse cx="43.5" cy="286.2551" fill="#84BE84" rx="3" ry="3" style="stroke:#038048;stroke-width:1.0;"/><text fill="#000000" font-family="sans-serif" font-size="11" lengthAdjust="spacing" text-decoration="underline" textLength="167" x="52.5" y="289.8898">deserializeTile(JsonObject): Tile</text></a><!--MD5=[c037cbb31ec5d389acd2c5a20514f684]
class nz.ac.wgtn.swen225.lc.persistency.LevelDeserializer--><a href="LevelDeserializer.html" target="_top" title="LevelDeserializer.html" xlink:actuate="onRequest" xlink:href="LevelDeserializer.html" xlink:show="new" xlink:title="LevelDeserializer.html" xlink:type="simple"><rect codeLine="45" fill="#FEFECE" filter="url(#flrnjgq4cfv5d)" height="60.9551" id="nz.ac.wgtn.swen225.lc.persistency.LevelDeserializer" style="stroke:#A80036;stroke-width:1.5;" width="372" x="475" y="228.77"/><ellipse cx="607.75" cy="244.77" fill="#ADD1B2" rx="11" ry="11" style="stroke:#A80036;stroke-width:1.0;"/><path d="M610.2231,250.9131 Q609.6421,251.2119 609.0029,251.3613 Q608.3638,251.5107 607.6582,251.5107 Q605.1514,251.5107 603.8315,249.8589 Q602.5117,248.207 602.5117,245.0859 Q602.5117,241.9565 603.8315,240.3047 Q605.1514,238.6528 607.6582,238.6528 Q608.3638,238.6528 609.0112,238.8022 Q609.6587,238.9516 610.2231,239.2505 L610.2231,241.9731 Q609.5923,241.3921 608.9988,241.1223 Q608.4053,240.8525 607.7744,240.8525 Q606.4297,240.8525 605.7449,241.9192 Q605.0601,242.9858 605.0601,245.0859 Q605.0601,247.1777 605.7449,248.2444 Q606.4297,249.311 607.7744,249.311 Q608.4053,249.311 608.9988,249.0412 Q609.5923,248.7715 610.2231,248.1904 Z " fill="#000000"/><text fill="#000000" font-family="sans-serif" font-size="12" lengthAdjust="spacing" textLength="98" x="628.25" y="249.3052">LevelDeserializer</text><line style="stroke:#A80036;stroke-width:1.5;" x1="476" x2="846" y1="260.77" y2="260.77"/><line style="stroke:#A80036;stroke-width:1.5;" x1="476" x2="846" y1="268.77" y2="268.77"/><ellipse cx="486" cy="279.77" fill="#84BE84" rx="3" ry="3" style="stroke:#038048;stroke-width:1.0;"/><text fill="#000000" font-family="sans-serif" font-size="11" lengthAdjust="spacing" textLength="346" x="495" y="283.4048">deserialize(JsonElement, Type, JsonDeserializationContext): Level</text></a><!--MD5=[9a9e22cd90e53800783b4dc3290ff57c]
class nz.ac.wgtn.swen225.lc.persistency.LevelSerializer--><a href="LevelSerializer.html" target="_top" title="LevelSerializer.html" xlink:actuate="onRequest" xlink:href="LevelSerializer.html" xlink:show="new" xlink:title="LevelSerializer.html" xlink:type="simple"><rect codeLine="49" fill="#FEFECE" filter="url(#flrnjgq4cfv5d)" height="60.9551" id="nz.ac.wgtn.swen225.lc.persistency.LevelSerializer" style="stroke:#A80036;stroke-width:1.5;" width="345" x="882.5" y="228.77"/><ellipse cx="1009.75" cy="244.77" fill="#ADD1B2" rx="11" ry="11" style="stroke:#A80036;stroke-width:1.0;"/><path d="M1012.2231,250.9131 Q1011.6421,251.2119 1011.0029,251.3613 Q1010.3638,251.5107 1009.6582,251.5107 Q1007.1514,251.5107 1005.8315,249.8589 Q1004.5117,248.207 1004.5117,245.0859 Q1004.5117,241.9565 1005.8315,240.3047 Q1007.1514,238.6528 1009.6582,238.6528 Q1010.3638,238.6528 1011.0112,238.8022 Q1011.6587,238.9516 1012.2231,239.2505 L1012.2231,241.9731 Q1011.5923,241.3921 1010.9988,241.1223 Q1010.4053,240.8525 1009.7744,240.8525 Q1008.4297,240.8525 1007.7449,241.9192 Q1007.0601,242.9858 1007.0601,245.0859 Q1007.0601,247.1777 1007.7449,248.2444 Q1008.4297,249.311 1009.7744,249.311 Q1010.4053,249.311 1010.9988,249.0412 Q1011.5923,248.7715 1012.2231,248.1904 Z " fill="#000000"/><text fill="#000000" font-family="sans-serif" font-size="12" lengthAdjust="spacing" textLength="82" x="1030.25" y="249.3052">LevelSerializer</text><line style="stroke:#A80036;stroke-width:1.5;" x1="883.5" x2="1226.5" y1="260.77" y2="260.77"/><line style="stroke:#A80036;stroke-width:1.5;" x1="883.5" x2="1226.5" y1="268.77" y2="268.77"/><ellipse cx="893.5" cy="279.77" fill="#84BE84" rx="3" ry="3" style="stroke:#038048;stroke-width:1.0;"/><text fill="#000000" font-family="sans-serif" font-size="11" lengthAdjust="spacing" textLength="319" x="902.5" y="283.4048">serialize(Level, Type, JsonSerializationContext): JsonElement</text></a><!--MD5=[c82d3a33303d7a67d582b557ee99f594]
class com.google.gson.JsonSerializer--><rect codeLine="62" fill="#FEFECE" filter="url(#flrnjgq4cfv5d)" height="60.9551" id="com.google.gson.JsonSerializer" style="stroke:#A80036;stroke-width:1.5;" width="325" x="1084.5" y="41"/><ellipse cx="1198.25" cy="57" fill="#B4A7E5" rx="11" ry="11" style="stroke:#A80036;stroke-width:1.0;"/><path d="M1194.6777,53.2651 L1194.6777,51.1069 L1202.0571,51.1069 L1202.0571,53.2651 L1199.5918,53.2651 L1199.5918,61.3418 L1202.0571,61.3418 L1202.0571,63.5 L1194.6777,63.5 L1194.6777,61.3418 L1197.1431,61.3418 L1197.1431,53.2651 Z " fill="#000000"/><text fill="#000000" font-family="sans-serif" font-size="12" font-style="italic" lengthAdjust="spacing" textLength="77" x="1218.75" y="61.5352">JsonSerializer</text><rect fill="#FFFFFF" height="16.1328" style="stroke:#000000;stroke-width:1.0;stroke-dasharray:2.0,2.0;" width="10" x="1402.5" y="38"/><text fill="#000000" font-family="sans-serif" font-size="12" font-style="italic" lengthAdjust="spacing" textLength="8" x="1403.5" y="50.6016">T</text><line style="stroke:#A80036;stroke-width:1.5;" x1="1085.5" x2="1408.5" y1="73" y2="73"/><line style="stroke:#A80036;stroke-width:1.5;" x1="1085.5" x2="1408.5" y1="81" y2="81"/><ellipse cx="1095.5" cy="92" fill="#84BE84" rx="3" ry="3" style="stroke:#038048;stroke-width:1.0;"/><text fill="#000000" font-family="sans-serif" font-size="11" font-style="italic" lengthAdjust="spacing" textLength="299" x="1104.5" y="95.6348">serialize(T, Type, JsonSerializationContext): JsonElement</text><!--MD5=[158deb3feaef9513dff2170794b50c9a]
class com.google.gson.JsonDeserializer--><rect codeLine="65" fill="#FEFECE" filter="url(#flrnjgq4cfv5d)" height="60.9551" id="com.google.gson.JsonDeserializer" style="stroke:#A80036;stroke-width:1.5;" width="352" x="697" y="41"/><ellipse cx="816.25" cy="57" fill="#B4A7E5" rx="11" ry="11" style="stroke:#A80036;stroke-width:1.0;"/><path d="M812.6777,53.2651 L812.6777,51.1069 L820.0571,51.1069 L820.0571,53.2651 L817.5918,53.2651 L817.5918,61.3418 L820.0571,61.3418 L820.0571,63.5 L812.6777,63.5 L812.6777,61.3418 L815.1431,61.3418 L815.1431,53.2651 Z " fill="#000000"/><text fill="#000000" font-family="sans-serif" font-size="12" font-style="italic" lengthAdjust="spacing" textLength="93" x="836.75" y="61.5352">JsonDeserializer</text><rect fill="#FFFFFF" height="16.1328" style="stroke:#000000;stroke-width:1.0;stroke-dasharray:2.0,2.0;" width="10" x="1042" y="38"/><text fill="#000000" font-family="sans-serif" font-size="12" font-style="italic" lengthAdjust="spacing" textLength="8" x="1043" y="50.6016">T</text><line style="stroke:#A80036;stroke-width:1.5;" x1="698" x2="1048" y1="73" y2="73"/><line style="stroke:#A80036;stroke-width:1.5;" x1="698" x2="1048" y1="81" y2="81"/><ellipse cx="708" cy="92" fill="#84BE84" rx="3" ry="3" style="stroke:#038048;stroke-width:1.0;"/><text fill="#000000" font-family="sans-serif" font-size="11" font-style="italic" lengthAdjust="spacing" textLength="326" x="717" y="95.6348">deserialize(JsonElement, Type, JsonDeserializationContext): T</text><!--MD5=[ce4139ea95931de0879f109e663104d6]
reverse link com.google.gson.JsonSerializer to nz.ac.wgtn.swen225.lc.persistency.GameModelSerializer--><path codeLine="53" d="M1431.3,72.82 C1686.65,75.09 2134.1,86.06 2289,133.95 C2349.27,152.59 2410.22,192.27 2450.22,221.82 " fill="none" id="com.google.gson.JsonSerializer-backto-nz.ac.wgtn.swen225.lc.persistency.GameModelSerializer" style="stroke:#A80036;stroke-width:1.0;stroke-dasharray:7.0,7.0;"/><polygon fill="none" points="1431.31,79.82,1411.37,72.65,1431.42,65.82,1431.31,79.82" style="stroke:#A80036;stroke-width:1.0;"/><!--MD5=[44b407e316a3695ee202ab0466a0d657]
reverse link com.google.gson.JsonDeserializer to nz.ac.wgtn.swen225.lc.persistency.ReplayDeserializer--><path codeLine="54" d="M983.48,108.24 C1010.51,115.51 1039.57,122.1 1067,125.95 C1111.35,132.18 1829.89,121.83 1873,133.95 C1939.01,152.53 2005.28,197.84 2044.73,228.31 " fill="none" id="com.google.gson.JsonDeserializer-backto-nz.ac.wgtn.swen225.lc.persistency.ReplayDeserializer" style="stroke:#A80036;stroke-width:1.0;stroke-dasharray:7.0,7.0;"/><polygon fill="none" points="981.61,114.98,964.24,102.85,985.38,101.5,981.61,114.98" style="stroke:#A80036;stroke-width:1.0;"/><!--MD5=[83268286db25dcbfb2fd0e798a4a70db]
reverse link com.google.gson.JsonSerializer to nz.ac.wgtn.swen225.lc.persistency.ReplaySerializer--><path codeLine="55" d="M1293.23,117.21 C1328.88,151.7 1377.19,198.44 1408.23,228.48 " fill="none" id="com.google.gson.JsonSerializer-backto-nz.ac.wgtn.swen225.lc.persistency.ReplaySerializer" style="stroke:#A80036;stroke-width:1.0;stroke-dasharray:7.0,7.0;"/><polygon fill="none" points="1288.44,122.32,1278.94,103.38,1298.18,112.25,1288.44,122.32" style="stroke:#A80036;stroke-width:1.0;"/><!--MD5=[c5aa624c82aacfc93ba3afd6143b0368]
reverse link com.google.gson.JsonDeserializer to nz.ac.wgtn.swen225.lc.persistency.GameModelDeserializer--><path codeLine="56" d="M675.54,86.73 C605.23,95.68 526.32,110.25 457,133.95 C395.36,155.04 331.12,193.29 287.9,221.81 " fill="none" id="com.google.gson.JsonDeserializer-backto-nz.ac.wgtn.swen225.lc.persistency.GameModelDeserializer" style="stroke:#A80036;stroke-width:1.0;stroke-dasharray:7.0,7.0;"/><polygon fill="none" points="674.38,79.82,695.08,84.36,676.07,93.71,674.38,79.82" style="stroke:#A80036;stroke-width:1.0;"/><!--MD5=[188e708ee7a1dfd64f79ca10f3e423dc]
reverse link com.google.gson.JsonDeserializer to nz.ac.wgtn.swen225.lc.persistency.LevelDeserializer--><path codeLine="57" d="M823.02,116.28 C783.55,150.86 729.56,198.17 694.98,228.48 " fill="none" id="com.google.gson.JsonDeserializer-backto-nz.ac.wgtn.swen225.lc.persistency.LevelDeserializer" style="stroke:#A80036;stroke-width:1.0;stroke-dasharray:7.0,7.0;"/><polygon fill="none" points="818.14,111.24,837.8,103.32,827.37,121.77,818.14,111.24" style="stroke:#A80036;stroke-width:1.0;"/><!--MD5=[487155008ef6416ef33dd38ea632fc69]
reverse link com.google.gson.JsonSerializer to nz.ac.wgtn.swen225.lc.persistency.LevelSerializer--><path codeLine="58" d="M1200.77,117.21 C1165.12,151.7 1116.81,198.44 1085.77,228.48 " fill="none" id="com.google.gson.JsonSerializer-backto-nz.ac.wgtn.swen225.lc.persistency.LevelSerializer" style="stroke:#A80036;stroke-width:1.0;stroke-dasharray:7.0,7.0;"/><polygon fill="none" points="1195.82,112.25,1215.06,103.38,1205.56,122.32,1195.82,112.25" style="stroke:#A80036;stroke-width:1.0;"/><text fill="#888888" font-family="sans-serif" font-size="10" lengthAdjust="spacing" textLength="182" x="1424.5" y="373.218">UMLDoclet 2.0.14, PlantUML 1.2021.9</text><!--MD5=[01fe1cebf1967633a6dce1a6d0d5360f]
@startuml
    namespace nz.ac.wgtn.swen225.lc.persistency {

        class PersistenceManagerTests [[PersistenceManagerTests.html]] {
            +setupModel(): void
            +testThatICanSaveABasicGameModel(): void
            +testThatICanCreateAGameModelFromJSON(): void
            +testThatICanSaveASimpleLevel(): void
            +testThatICanLoadASimpleLevel(): void
            +testThatICanSaveASimpleRecording(): void
            +testThatICanAccessASimpleRecording(): void
            +testThatICanLoadASimpleEnemyFromJar(): void
            +testThatICannotDeseriliazeWrongTileType(): void
        }

        class GameModelSerializer [[GameModelSerializer.html]] {
            +serialize(GameModel, Type, JsonSerializationContext): JsonElement
            {static} +serializeTile(Tile, int, int): JsonObject
        }

        class ReplayDeserializer [[ReplayDeserializer.html]] {
            +deserialize(JsonElement, Type, JsonDeserializationContext): Replay
        }

        class PersistenceManager [[PersistenceManager.html]] {
            +loadLevels(): Level[]
            +loadGameModel(File): GameModel
            +save(GameModel, File): void
            +loadLevel(File): Level
            +save(Level, File): void
            +loadReplay(File): Replay
            +save(Replay, File): void
            +getSimpleEnemy(Position): Agent
            +getBadActorImage(): URL
        }

        class ReplaySerializer [[ReplaySerializer.html]] {
            +serialize(Replay, Type, JsonSerializationContext): JsonElement
        }

        class GameModelDeserializer [[GameModelDeserializer.html]] {
            +deserialize(JsonElement, Type, JsonDeserializationContext): GameModel
            {static} +deserializeTile(JsonObject): Tile
        }

        class LevelDeserializer [[LevelDeserializer.html]] {
            +deserialize(JsonElement, Type, JsonDeserializationContext): Level
        }

        class LevelSerializer [[LevelSerializer.html]] {
            +serialize(Level, Type, JsonSerializationContext): JsonElement
        }

        com.google.gson.JsonSerializer <|.. GameModelSerializer
        com.google.gson.JsonDeserializer <|.. ReplayDeserializer
        com.google.gson.JsonSerializer <|.. ReplaySerializer
        com.google.gson.JsonDeserializer <|.. GameModelDeserializer
        com.google.gson.JsonDeserializer <|.. LevelDeserializer
        com.google.gson.JsonSerializer <|.. LevelSerializer
    }

    namespace com.google.gson {
        interface JsonSerializer<T> {
            {abstract} +serialize(T, Type, JsonSerializationContext): JsonElement
        }
        interface JsonDeserializer<T> {
            {abstract} +deserialize(JsonElement, Type, JsonDeserializationContext): T
        }
    }

    center footer UMLDoclet 2.0.14, PlantUML 1.2021.9
@enduml

PlantUML version 1.2021.9(Sun Jul 25 22:13:56 NZST 2021)
(APACHE source distribution)
Java Runtime: OpenJDK Runtime Environment
JVM: OpenJDK 64-Bit Server VM
Default Encoding: UTF-8
Language: en
Country: NZ
--></g></svg>