<?xml version="1.0" encoding="UTF-8" standalone="no"?><svg xmlns="http://www.w3.org/2000/svg" xmlns:xlink="http://www.w3.org/1999/xlink" contentScriptType="application/ecmascript" contentStyleType="text/css" height="219px" preserveAspectRatio="none" style="width:374px;height:219px;background:#FFFFFF;" version="1.1" viewBox="0 0 374 219" width="374px" zoomAndPan="magnify"><defs><filter height="300%" id="f1uk7w6singjm" width="300%" x="-1" y="-1"><feGaussianBlur result="blurOut" stdDeviation="2.0"/><feColorMatrix in="blurOut" result="blurOut2" type="matrix" values="0 0 0 0 0 0 0 0 0 0 0 0 0 0 0 0 0 0 .4 0"/><feOffset dx="4.0" dy="4.0" in="blurOut2" result="blurOut3"/><feBlend in="SourceGraphic" in2="blurOut3" mode="normal"/></filter></defs><g><!--MD5=[5c4abc9326826b6416ea1cd082acb77e]
class nz.ac.wgtn.swen225.lc.persistency.ReplaySerializer--><a href="ReplaySerializer.html" target="_top" title="ReplaySerializer.html" xlink:actuate="onRequest" xlink:href="ReplaySerializer.html" xlink:show="new" xlink:title="ReplaySerializer.html" xlink:type="simple"><rect codeLine="5" fill="#FEFECE" filter="url(#f1uk7w6singjm)" height="59.2207" id="nz.ac.wgtn.swen225.lc.persistency.ReplaySerializer" style="stroke:#A80036;stroke-width:1.5;" width="353" x="7" y="129.22"/><ellipse cx="95.25" cy="148.3528" fill="#ADD1B2" rx="11" ry="11" style="stroke:#A80036;stroke-width:1.0;"/><path d="M97.7231,154.4959 Q97.1421,154.7947 96.5029,154.9441 Q95.8638,155.0935 95.1582,155.0935 Q92.6514,155.0935 91.3315,153.4417 Q90.0117,151.7898 90.0117,148.6687 Q90.0117,145.5393 91.3315,143.8875 Q92.6514,142.2356 95.1582,142.2356 Q95.8638,142.2356 96.5112,142.385 Q97.1587,142.5345 97.7231,142.8333 L97.7231,145.5559 Q97.0923,144.9749 96.4988,144.7051 Q95.9053,144.4353 95.2744,144.4353 Q93.9297,144.4353 93.2449,145.502 Q92.5601,146.5686 92.5601,148.6687 Q92.5601,150.7605 93.2449,151.8272 Q93.9297,152.8938 95.2744,152.8938 Q95.9053,152.8938 96.4988,152.6241 Q97.0923,152.3543 97.7231,151.7732 Z " fill="#000000"/><text fill="#000000" font-family="sans-serif" font-size="14" lengthAdjust="spacing" textLength="109" x="145.25" y="147.7552">ReplaySerializer</text><text fill="#000000" font-family="sans-serif" font-size="10" lengthAdjust="spacing" textLength="168" x="115.75" y="160.3763">nz.ac.wgtn.swen225.lc.persistency</text><line style="stroke:#A80036;stroke-width:1.5;" x1="8" x2="359" y1="167.4856" y2="167.4856"/><ellipse cx="18" cy="178.4856" fill="#84BE84" rx="3" ry="3" style="stroke:#038048;stroke-width:1.0;"/><text fill="#000000" font-family="sans-serif" font-size="11" lengthAdjust="spacing" textLength="327" x="27" y="182.1204">serialize(Replay, Type, JsonSerializationContext): JsonElement</text></a><!--MD5=[c82d3a33303d7a67d582b557ee99f594]
class com.google.gson.JsonSerializer--><rect codeLine="9" fill="#FEFECE" filter="url(#f1uk7w6singjm)" height="59.2207" id="com.google.gson.JsonSerializer" style="stroke:#A80036;stroke-width:1.5;" width="353" x="7" y="10"/><ellipse cx="111.25" cy="29.1328" fill="#B4A7E5" rx="11" ry="11" style="stroke:#A80036;stroke-width:1.0;"/><path d="M107.6777,25.3979 L107.6777,23.2397 L115.0571,23.2397 L115.0571,25.3979 L112.5918,25.3979 L112.5918,33.4746 L115.0571,33.4746 L115.0571,35.6328 L107.6777,35.6328 L107.6777,33.4746 L110.1431,33.4746 L110.1431,25.3979 Z " fill="#000000"/><text fill="#000000" font-family="sans-serif" font-size="14" font-style="italic" lengthAdjust="spacing" textLength="93" x="131.75" y="28.5352">JsonSerializer</text><text fill="#000000" font-family="sans-serif" font-size="10" font-style="italic" lengthAdjust="spacing" textLength="82" x="137.25" y="41.1563">com.google.gson</text><rect fill="#FFFFFF" height="16.1328" style="stroke:#000000;stroke-width:1.0;stroke-dasharray:2.0,2.0;" width="41" x="322" y="7"/><text fill="#000000" font-family="sans-serif" font-size="12" font-style="italic" lengthAdjust="spacing" textLength="39" x="323" y="19.6016">Replay</text><line style="stroke:#A80036;stroke-width:1.5;" x1="8" x2="359" y1="48.2656" y2="48.2656"/><ellipse cx="18" cy="59.2656" fill="#84BE84" rx="3" ry="3" style="stroke:#038048;stroke-width:1.0;"/><text fill="#000000" font-family="sans-serif" font-size="11" font-style="italic" lengthAdjust="spacing" textLength="327" x="27" y="62.9004">serialize(Replay, Type, JsonSerializationContext): JsonElement</text><!--MD5=[83268286db25dcbfb2fd0e798a4a70db]
reverse link com.google.gson.JsonSerializer to nz.ac.wgtn.swen225.lc.persistency.ReplaySerializer--><path codeLine="13" d="M183.5,91 C183.5,103.91 183.5,117.36 183.5,128.78 " fill="none" id="com.google.gson.JsonSerializer-backto-nz.ac.wgtn.swen225.lc.persistency.ReplaySerializer" style="stroke:#A80036;stroke-width:1.0;stroke-dasharray:7.0,7.0;"/><polygon fill="none" points="176.5,91.1,183.5,71.1,190.5,91.1,176.5,91.1" style="stroke:#A80036;stroke-width:1.0;"/><text fill="#888888" font-family="sans-serif" font-size="10" lengthAdjust="spacing" textLength="182" x="89.5" y="211.1087">UMLDoclet 2.0.14, PlantUML 1.2021.9</text><!--MD5=[aef9e73d1fbba77d5c0a05ac4b17ccef]
@startuml
    set namespaceSeparator none
    hide empty fields
    hide empty methods

    class "<size:14>ReplaySerializer\n<size:10>nz.ac.wgtn.swen225.lc.persistency" as nz.ac.wgtn.swen225.lc.persistency.ReplaySerializer [[ReplaySerializer.html]] {
        +serialize(Replay, Type, JsonSerializationContext): JsonElement
    }

    interface "<size:14>JsonSerializer\n<size:10>com.google.gson" as com.google.gson.JsonSerializer<Replay> {
        {abstract} +serialize(Replay, Type, JsonSerializationContext): JsonElement
    }

    com.google.gson.JsonSerializer <|.. nz.ac.wgtn.swen225.lc.persistency.ReplaySerializer

    center footer UMLDoclet 2.0.14, PlantUML 1.2021.9
@enduml

PlantUML version 1.2021.9(Sun Jul 25 22:13:56 NZST 2021)
(APACHE source distribution)
Java Runtime: OpenJDK Runtime Environment
JVM: OpenJDK 64-Bit Server VM
Default Encoding: UTF-8
Language: en
Country: NZ
--></g></svg>