<?xml version="1.0" encoding="UTF-8" standalone="no"?><svg xmlns="http://www.w3.org/2000/svg" xmlns:xlink="http://www.w3.org/1999/xlink" contentScriptType="application/ecmascript" contentStyleType="text/css" height="219px" preserveAspectRatio="none" style="width:401px;height:219px;background:#FFFFFF;" version="1.1" viewBox="0 0 401 219" width="401px" zoomAndPan="magnify"><defs><filter height="300%" id="f3l0cjusom6jf" width="300%" x="-1" y="-1"><feGaussianBlur result="blurOut" stdDeviation="2.0"/><feColorMatrix in="blurOut" result="blurOut2" type="matrix" values="0 0 0 0 0 0 0 0 0 0 0 0 0 0 0 0 0 0 .4 0"/><feOffset dx="4.0" dy="4.0" in="blurOut2" result="blurOut3"/><feBlend in="SourceGraphic" in2="blurOut3" mode="normal"/></filter></defs><g><!--MD5=[e11f0d461f0887e8f9c365ffff304729]
class nz.ac.wgtn.swen225.lc.persistency.ReplayDeserializer--><a href="ReplayDeserializer.html" target="_top" title="ReplayDeserializer.html" xlink:actuate="onRequest" xlink:href="ReplayDeserializer.html" xlink:show="new" xlink:title="ReplayDeserializer.html" xlink:type="simple"><rect codeLine="5" fill="#FEFECE" filter="url(#f3l0cjusom6jf)" height="59.2207" id="nz.ac.wgtn.swen225.lc.persistency.ReplayDeserializer" style="stroke:#A80036;stroke-width:1.5;" width="380" x="7" y="129.22"/><ellipse cx="108.75" cy="148.3528" fill="#ADD1B2" rx="11" ry="11" style="stroke:#A80036;stroke-width:1.0;"/><path d="M111.2231,154.4959 Q110.6421,154.7947 110.0029,154.9441 Q109.3638,155.0935 108.6582,155.0935 Q106.1514,155.0935 104.8315,153.4417 Q103.5117,151.7898 103.5117,148.6687 Q103.5117,145.5393 104.8315,143.8875 Q106.1514,142.2356 108.6582,142.2356 Q109.3638,142.2356 110.0112,142.385 Q110.6587,142.5345 111.2231,142.8333 L111.2231,145.5559 Q110.5923,144.9749 109.9988,144.7051 Q109.4053,144.4353 108.7744,144.4353 Q107.4297,144.4353 106.7449,145.502 Q106.0601,146.5686 106.0601,148.6687 Q106.0601,150.7605 106.7449,151.8272 Q107.4297,152.8938 108.7744,152.8938 Q109.4053,152.8938 109.9988,152.6241 Q110.5923,152.3543 111.2231,151.7732 Z " fill="#000000"/><text fill="#000000" font-family="sans-serif" font-size="14" lengthAdjust="spacing" textLength="126" x="150.25" y="147.7552">ReplayDeserializer</text><text fill="#000000" font-family="sans-serif" font-size="10" lengthAdjust="spacing" textLength="168" x="129.25" y="160.3763">nz.ac.wgtn.swen225.lc.persistency</text><line style="stroke:#A80036;stroke-width:1.5;" x1="8" x2="386" y1="167.4856" y2="167.4856"/><ellipse cx="18" cy="178.4856" fill="#84BE84" rx="3" ry="3" style="stroke:#038048;stroke-width:1.0;"/><text fill="#000000" font-family="sans-serif" font-size="11" lengthAdjust="spacing" textLength="354" x="27" y="182.1204">deserialize(JsonElement, Type, JsonDeserializationContext): Replay</text></a><!--MD5=[158deb3feaef9513dff2170794b50c9a]
class com.google.gson.JsonDeserializer--><rect codeLine="9" fill="#FEFECE" filter="url(#f3l0cjusom6jf)" height="59.2207" id="com.google.gson.JsonDeserializer" style="stroke:#A80036;stroke-width:1.5;" width="380" x="7" y="10"/><ellipse cx="116.25" cy="29.1328" fill="#B4A7E5" rx="11" ry="11" style="stroke:#A80036;stroke-width:1.0;"/><path d="M112.6777,25.3979 L112.6777,23.2397 L120.0571,23.2397 L120.0571,25.3979 L117.5918,25.3979 L117.5918,33.4746 L120.0571,33.4746 L120.0571,35.6328 L112.6777,35.6328 L112.6777,33.4746 L115.1431,33.4746 L115.1431,25.3979 Z " fill="#000000"/><text fill="#000000" font-family="sans-serif" font-size="14" font-style="italic" lengthAdjust="spacing" textLength="110" x="136.75" y="28.5352">JsonDeserializer</text><text fill="#000000" font-family="sans-serif" font-size="10" font-style="italic" lengthAdjust="spacing" textLength="82" x="150.75" y="41.1563">com.google.gson</text><rect fill="#FFFFFF" height="16.1328" style="stroke:#000000;stroke-width:1.0;stroke-dasharray:2.0,2.0;" width="41" x="349" y="7"/><text fill="#000000" font-family="sans-serif" font-size="12" font-style="italic" lengthAdjust="spacing" textLength="39" x="350" y="19.6016">Replay</text><line style="stroke:#A80036;stroke-width:1.5;" x1="8" x2="386" y1="48.2656" y2="48.2656"/><ellipse cx="18" cy="59.2656" fill="#84BE84" rx="3" ry="3" style="stroke:#038048;stroke-width:1.0;"/><text fill="#000000" font-family="sans-serif" font-size="11" font-style="italic" lengthAdjust="spacing" textLength="354" x="27" y="62.9004">deserialize(JsonElement, Type, JsonDeserializationContext): Replay</text><!--MD5=[44b407e316a3695ee202ab0466a0d657]
reverse link com.google.gson.JsonDeserializer to nz.ac.wgtn.swen225.lc.persistency.ReplayDeserializer--><path codeLine="13" d="M197,91 C197,103.91 197,117.36 197,128.78 " fill="none" id="com.google.gson.JsonDeserializer-backto-nz.ac.wgtn.swen225.lc.persistency.ReplayDeserializer" style="stroke:#A80036;stroke-width:1.0;stroke-dasharray:7.0,7.0;"/><polygon fill="none" points="190,91.1,197,71.1,204,91.1,190,91.1" style="stroke:#A80036;stroke-width:1.0;"/><text fill="#888888" font-family="sans-serif" font-size="10" lengthAdjust="spacing" textLength="182" x="103" y="211.1087">UMLDoclet 2.0.14, PlantUML 1.2021.9</text><!--MD5=[e2967dd204823e98300a66776c9a3335]
@startuml
    set namespaceSeparator none
    hide empty fields
    hide empty methods

    class "<size:14>ReplayDeserializer\n<size:10>nz.ac.wgtn.swen225.lc.persistency" as nz.ac.wgtn.swen225.lc.persistency.ReplayDeserializer [[ReplayDeserializer.html]] {
        +deserialize(JsonElement, Type, JsonDeserializationContext): Replay
    }

    interface "<size:14>JsonDeserializer\n<size:10>com.google.gson" as com.google.gson.JsonDeserializer<Replay> {
        {abstract} +deserialize(JsonElement, Type, JsonDeserializationContext): Replay
    }

    com.google.gson.JsonDeserializer <|.. nz.ac.wgtn.swen225.lc.persistency.ReplayDeserializer

    center footer UMLDoclet 2.0.14, PlantUML 1.2021.9
@enduml

PlantUML version 1.2021.9(Sun Jul 25 22:13:56 NZST 2021)
(APACHE source distribution)
Java Runtime: OpenJDK Runtime Environment
JVM: OpenJDK 64-Bit Server VM
Default Encoding: UTF-8
Language: en
Country: NZ
--></g></svg>