<?xml version="1.0" encoding="UTF-8" standalone="no"?><svg xmlns="http://www.w3.org/2000/svg" xmlns:xlink="http://www.w3.org/1999/xlink" contentScriptType="application/ecmascript" contentStyleType="text/css" height="208px" preserveAspectRatio="none" style="width:389px;height:208px;background:#FFFFFF;" version="1.1" viewBox="0 0 389 208" width="389px" zoomAndPan="magnify"><defs><filter height="300%" id="f1cy738zbx6plh" width="300%" x="-1" y="-1"><feGaussianBlur result="blurOut" stdDeviation="2.0"/><feColorMatrix in="blurOut" result="blurOut2" type="matrix" values="0 0 0 0 0 0 0 0 0 0 0 0 0 0 0 0 0 0 .4 0"/><feOffset dx="4.0" dy="4.0" in="blurOut2" result="blurOut3"/><feBlend in="SourceGraphic" in2="blurOut3" mode="normal"/></filter></defs><g><!--MD5=[443c8bcea1670b39e9ad9ad9a1cafdff]
class nz.ac.wgtn.swen225.lc.domain.state.DirectionChangeEvent--><a href="DirectionChangeEvent.html" target="_top" title="DirectionChangeEvent.html" xlink:actuate="onRequest" xlink:href="DirectionChangeEvent.html" xlink:show="new" xlink:title="DirectionChangeEvent.html" xlink:type="simple"><rect codeLine="5" fill="#FEFECE" filter="url(#f1cy738zbx6plh)" height="72.1758" id="nz.ac.wgtn.swen225.lc.domain.state.DirectionChangeEvent" style="stroke:#A80036;stroke-width:1.5;" width="368" x="7" y="105.26"/><ellipse cx="98.25" cy="124.3928" fill="#ADD1B2" rx="11" ry="11" style="stroke:#A80036;stroke-width:1.0;"/><path d="M100.7231,130.5359 Q100.1421,130.8347 99.5029,130.9841 Q98.8638,131.1335 98.1582,131.1335 Q95.6514,131.1335 94.3315,129.4817 Q93.0117,127.8298 93.0117,124.7087 Q93.0117,121.5793 94.3315,119.9275 Q95.6514,118.2756 98.1582,118.2756 Q98.8638,118.2756 99.5112,118.425 Q100.1587,118.5745 100.7231,118.8733 L100.7231,121.5959 Q100.0923,121.0149 99.4988,120.7451 Q98.9053,120.4753 98.2744,120.4753 Q96.9297,120.4753 96.2449,121.542 Q95.5601,122.6086 95.5601,124.7087 Q95.5601,126.8005 96.2449,127.8672 Q96.9297,128.9338 98.2744,128.9338 Q98.9053,128.9338 99.4988,128.6641 Q100.0923,128.3943 100.7231,127.8132 Z " fill="#000000"/><text fill="#000000" font-family="sans-serif" font-size="14" lengthAdjust="spacing" textLength="152" x="131.25" y="123.7952">DirectionChangeEvent</text><text fill="#000000" font-family="sans-serif" font-size="10" lengthAdjust="spacing" textLength="177" x="118.75" y="136.4163">nz.ac.wgtn.swen225.lc.domain.state</text><line style="stroke:#A80036;stroke-width:1.5;" x1="8" x2="374" y1="143.5256" y2="143.5256"/><ellipse cx="18" cy="154.5256" fill="#84BE84" rx="3" ry="3" style="stroke:#038048;stroke-width:1.0;"/><text fill="#000000" font-family="sans-serif" font-size="11" lengthAdjust="spacing" textLength="342" x="27" y="158.1604">DirectionChangeEvent(GameModel, Position, Position, Direction)</text><ellipse cx="18" cy="167.4807" fill="#84BE84" rx="3" ry="3" style="stroke:#038048;stroke-width:1.0;"/><text fill="#000000" font-family="sans-serif" font-size="11" lengthAdjust="spacing" textLength="111" x="27" y="171.1155">direction(): Direction</text></a><!--MD5=[b3748cb94c5246e1c7bdcc60cb1ee89f]
class java.beans.PropertyChangeEvent--><rect codeLine="10" fill="#FEFECE" filter="url(#f1cy738zbx6plh)" height="38.2656" id="java.beans.PropertyChangeEvent" style="stroke:#A80036;stroke-width:1.5;" width="180" x="101" y="7"/><ellipse cx="116" cy="26.1328" fill="#ADD1B2" rx="11" ry="11" style="stroke:#A80036;stroke-width:1.0;"/><path d="M118.4731,32.2759 Q117.8921,32.5747 117.2529,32.7241 Q116.6138,32.8735 115.9082,32.8735 Q113.4014,32.8735 112.0815,31.2217 Q110.7617,29.5698 110.7617,26.4487 Q110.7617,23.3193 112.0815,21.6675 Q113.4014,20.0156 115.9082,20.0156 Q116.6138,20.0156 117.2612,20.165 Q117.9087,20.3145 118.4731,20.6133 L118.4731,23.3359 Q117.8423,22.7549 117.2488,22.4851 Q116.6553,22.2153 116.0244,22.2153 Q114.6797,22.2153 113.9949,23.282 Q113.3101,24.3486 113.3101,26.4487 Q113.3101,28.5405 113.9949,29.6072 Q114.6797,30.6738 116.0244,30.6738 Q116.6553,30.6738 117.2488,30.4041 Q117.8423,30.1343 118.4731,29.5532 Z " fill="#000000"/><text fill="#000000" font-family="sans-serif" font-size="14" lengthAdjust="spacing" textLength="148" x="130" y="25.5352">PropertyChangeEvent</text><text fill="#000000" font-family="sans-serif" font-size="10" lengthAdjust="spacing" textLength="52" x="178" y="38.1563">java.beans</text><!--MD5=[4864608e95ba502a7088c26d93d65c14]
reverse link java.beans.PropertyChangeEvent to nz.ac.wgtn.swen225.lc.domain.state.DirectionChangeEvent--><path codeLine="12" d="M191,66.71 C191,79.17 191,92.85 191,104.99 " fill="none" id="java.beans.PropertyChangeEvent-backto-nz.ac.wgtn.swen225.lc.domain.state.DirectionChangeEvent" style="stroke:#A80036;stroke-width:1.0;"/><polygon fill="none" points="184,67.09,191,47.09,198,67.09,184,67.09" style="stroke:#A80036;stroke-width:1.0;"/><text fill="#888888" font-family="sans-serif" font-size="10" lengthAdjust="spacing" textLength="182" x="97" y="200.1038">UMLDoclet 2.0.14, PlantUML 1.2021.9</text><!--MD5=[4e9ddfaedd4cfc203942be2f3f4f6951]
@startuml
    set namespaceSeparator none
    hide empty fields
    hide empty methods

    class "<size:14>DirectionChangeEvent\n<size:10>nz.ac.wgtn.swen225.lc.domain.state" as nz.ac.wgtn.swen225.lc.domain.state.DirectionChangeEvent [[DirectionChangeEvent.html]] {
        +DirectionChangeEvent(GameModel, Position, Position, Direction)
        +direction(): Direction
    }

    class "<size:14>PropertyChangeEvent\n<size:10>java.beans" as java.beans.PropertyChangeEvent

    java.beans.PropertyChangeEvent <|- - nz.ac.wgtn.swen225.lc.domain.state.DirectionChangeEvent

    center footer UMLDoclet 2.0.14, PlantUML 1.2021.9
@enduml

PlantUML version 1.2021.9(Sun Jul 25 22:13:56 NZST 2021)
(APACHE source distribution)
Java Runtime: OpenJDK Runtime Environment
JVM: OpenJDK 64-Bit Server VM
Default Encoding: UTF-8
Language: en
Country: NZ
--></g></svg>