<?xml version="1.0" encoding="UTF-8" standalone="no"?><svg xmlns="http://www.w3.org/2000/svg" xmlns:xlink="http://www.w3.org/1999/xlink" contentScriptType="application/ecmascript" contentStyleType="text/css" height="588px" preserveAspectRatio="none" style="width:1251px;height:588px;background:#FFFFFF;" version="1.1" viewBox="0 0 1251 588" width="1251px" zoomAndPan="magnify"><defs><filter height="300%" id="f1cl7a85tdalf9" width="300%" x="-1" y="-1"><feGaussianBlur result="blurOut" stdDeviation="2.0"/><feColorMatrix in="blurOut" result="blurOut2" type="matrix" values="0 0 0 0 0 0 0 0 0 0 0 0 0 0 0 0 0 0 .4 0"/><feOffset dx="4.0" dy="4.0" in="blurOut2" result="blurOut3"/><feBlend in="SourceGraphic" in2="blurOut3" mode="normal"/></filter></defs><g><!--MD5=[cbd6115e0ec04f1007ceccc4c85cfc71]
cluster nz.ac.wgtn.swen225.lc.domain.state--><polygon fill="#FFFFFF" filter="url(#f1cl7a85tdalf9)" points="16,129,274,129,281,151.4883,1234,151.4883,1234,564.83,16,564.83,16,129" style="stroke:#000000;stroke-width:1.5;"/><line style="stroke:#000000;stroke-width:1.5;" x1="16" x2="281" y1="151.4883" y2="151.4883"/><text fill="#000000" font-family="sans-serif" font-size="14" font-weight="bold" lengthAdjust="spacing" textLength="252" x="20" y="144.5352">nz.ac.wgtn.swen225.lc.domain.state</text><!--MD5=[6a39a39c47fb706f08052322cf4a8af1]
cluster java.beans--><polygon fill="#FFFFFF" filter="url(#f1cl7a85tdalf9)" points="543,6,623,6,630,28.4883,731,28.4883,731,105,543,105,543,6" style="stroke:#000000;stroke-width:1.5;"/><line style="stroke:#000000;stroke-width:1.5;" x1="543" x2="630" y1="28.4883" y2="28.4883"/><text fill="#000000" font-family="sans-serif" font-size="14" font-weight="bold" lengthAdjust="spacing" textLength="74" x="547" y="21.5352">java.beans</text><!--MD5=[827122b4c9fc2daa7a80925c0ccd7f8d]
class nz.ac.wgtn.swen225.lc.domain.state.TileChangeEvent--><a href="TileChangeEvent.html" target="_top" title="TileChangeEvent.html" xlink:actuate="onRequest" xlink:href="TileChangeEvent.html" xlink:show="new" xlink:title="TileChangeEvent.html" xlink:type="simple"><rect codeLine="3" fill="#FEFECE" filter="url(#f1cl7a85tdalf9)" height="112.7754" id="nz.ac.wgtn.swen225.lc.domain.state.TileChangeEvent" style="stroke:#A80036;stroke-width:1.5;" width="317" x="900.5" y="300.03"/><ellipse cx="1007.25" cy="316.03" fill="#ADD1B2" rx="11" ry="11" style="stroke:#A80036;stroke-width:1.0;"/><path d="M1009.7231,322.1731 Q1009.1421,322.4719 1008.5029,322.6213 Q1007.8638,322.7707 1007.1582,322.7707 Q1004.6514,322.7707 1003.3315,321.1189 Q1002.0117,319.467 1002.0117,316.3459 Q1002.0117,313.2165 1003.3315,311.5647 Q1004.6514,309.9128 1007.1582,309.9128 Q1007.8638,309.9128 1008.5112,310.0622 Q1009.1587,310.2116 1009.7231,310.5105 L1009.7231,313.2331 Q1009.0923,312.6521 1008.4988,312.3823 Q1007.9053,312.1125 1007.2744,312.1125 Q1005.9297,312.1125 1005.2449,313.1792 Q1004.5601,314.2458 1004.5601,316.3459 Q1004.5601,318.4377 1005.2449,319.5044 Q1005.9297,320.571 1007.2744,320.571 Q1007.9053,320.571 1008.4988,320.3012 Q1009.0923,320.0315 1009.7231,319.4504 Z " fill="#000000"/><text fill="#000000" font-family="sans-serif" font-size="12" lengthAdjust="spacing" textLength="95" x="1027.75" y="320.5652">TileChangeEvent</text><line style="stroke:#A80036;stroke-width:1.5;" x1="901.5" x2="1216.5" y1="332.03" y2="332.03"/><line style="stroke:#A80036;stroke-width:1.5;" x1="901.5" x2="1216.5" y1="340.03" y2="340.03"/><ellipse cx="911.5" cy="351.03" fill="#84BE84" rx="3" ry="3" style="stroke:#038048;stroke-width:1.0;"/><text fill="#000000" font-family="sans-serif" font-size="11" lengthAdjust="spacing" textLength="291" x="920.5" y="354.6648">TileChangeEvent(GameModel, Tile[], Position, Tile, Tile)</text><ellipse cx="911.5" cy="363.9851" fill="#84BE84" rx="3" ry="3" style="stroke:#038048;stroke-width:1.0;"/><text fill="#000000" font-family="sans-serif" font-size="11" lengthAdjust="spacing" textLength="63" x="920.5" y="367.6198">tiles(): Tile[]</text><ellipse cx="911.5" cy="376.9402" fill="#84BE84" rx="3" ry="3" style="stroke:#038048;stroke-width:1.0;"/><text fill="#000000" font-family="sans-serif" font-size="11" lengthAdjust="spacing" textLength="101" x="920.5" y="380.5749">position(): Position</text><ellipse cx="911.5" cy="389.8952" fill="#84BE84" rx="3" ry="3" style="stroke:#038048;stroke-width:1.0;"/><text fill="#000000" font-family="sans-serif" font-size="11" lengthAdjust="spacing" textLength="69" x="920.5" y="393.53">oldTile(): Tile</text><ellipse cx="911.5" cy="402.8503" fill="#84BE84" rx="3" ry="3" style="stroke:#038048;stroke-width:1.0;"/><text fill="#000000" font-family="sans-serif" font-size="11" lengthAdjust="spacing" textLength="73" x="920.5" y="406.4851">newTile(): Tile</text></a><!--MD5=[08eeacb1748ab16298a58d03226e9028]
class nz.ac.wgtn.swen225.lc.domain.state.GameModel--><a href="GameModel.html" target="_top" title="GameModel.html" xlink:actuate="onRequest" xlink:href="GameModel.html" xlink:show="new" xlink:title="GameModel.html" xlink:type="simple"><rect codeLine="11" fill="#FEFECE" filter="url(#f1cl7a85tdalf9)" height="384.832" id="nz.ac.wgtn.swen225.lc.domain.state.GameModel" style="stroke:#A80036;stroke-width:1.5;" width="431" x="434.5" y="164"/><ellipse cx="611.25" cy="180" fill="#ADD1B2" rx="11" ry="11" style="stroke:#A80036;stroke-width:1.0;"/><path d="M613.7231,186.1431 Q613.1421,186.4419 612.5029,186.5913 Q611.8638,186.7407 611.1582,186.7407 Q608.6514,186.7407 607.3315,185.0889 Q606.0117,183.437 606.0117,180.3159 Q606.0117,177.1865 607.3315,175.5347 Q608.6514,173.8828 611.1582,173.8828 Q611.8638,173.8828 612.5112,174.0322 Q613.1587,174.1816 613.7231,174.4805 L613.7231,177.2031 Q613.0923,176.6221 612.4988,176.3523 Q611.9053,176.0825 611.2744,176.0825 Q609.9297,176.0825 609.2449,177.1492 Q608.5601,178.2158 608.5601,180.3159 Q608.5601,182.4077 609.2449,183.4744 Q609.9297,184.541 611.2744,184.541 Q611.9053,184.541 612.4988,184.2712 Q613.0923,184.0015 613.7231,183.4204 Z " fill="#000000"/><text fill="#000000" font-family="sans-serif" font-size="12" lengthAdjust="spacing" textLength="69" x="631.75" y="184.5352">GameModel</text><line style="stroke:#A80036;stroke-width:1.5;" x1="435.5" x2="864.5" y1="196" y2="196"/><line style="stroke:#A80036;stroke-width:1.5;" x1="435.5" x2="864.5" y1="204" y2="204"/><ellipse cx="445.5" cy="215" fill="#84BE84" rx="3" ry="3" style="stroke:#038048;stroke-width:1.0;"/><text fill="#000000" font-family="sans-serif" font-size="11" lengthAdjust="spacing" textLength="80" x="454.5" y="218.6348">levelId(): String</text><ellipse cx="445.5" cy="227.9551" fill="#84BE84" rx="3" ry="3" style="stroke:#038048;stroke-width:1.0;"/><text fill="#000000" font-family="sans-serif" font-size="11" lengthAdjust="spacing" textLength="95" x="454.5" y="231.5898">levelNumber(): int</text><ellipse cx="445.5" cy="240.9102" fill="#84BE84" rx="3" ry="3" style="stroke:#038048;stroke-width:1.0;"/><text fill="#000000" font-family="sans-serif" font-size="11" lengthAdjust="spacing" textLength="155" x="454.5" y="244.5449">setHelpMessage(String): void</text><ellipse cx="445.5" cy="253.8652" fill="#84BE84" rx="3" ry="3" style="stroke:#038048;stroke-width:1.0;"/><text fill="#000000" font-family="sans-serif" font-size="11" lengthAdjust="spacing" textLength="115" x="454.5" y="257.5">helpMessage(): String</text><ellipse cx="445.5" cy="266.8203" fill="#84BE84" rx="3" ry="3" style="stroke:#038048;stroke-width:1.0;"/><text fill="#000000" font-family="sans-serif" font-size="11" lengthAdjust="spacing" textLength="118" x="454.5" y="270.4551">levelNumber(int): void</text><ellipse cx="445.5" cy="279.7754" fill="#84BE84" rx="3" ry="3" style="stroke:#038048;stroke-width:1.0;"/><text fill="#000000" font-family="sans-serif" font-size="11" lengthAdjust="spacing" textLength="119" x="454.5" y="283.4102">agents(): List&lt;Agent&gt;</text><ellipse cx="445.5" cy="292.7305" fill="#84BE84" rx="3" ry="3" style="stroke:#038048;stroke-width:1.0;"/><text fill="#000000" font-family="sans-serif" font-size="11" lengthAdjust="spacing" textLength="160" x="454.5" y="296.3652">setAgents(List&lt;Agent&gt;): void</text><ellipse cx="445.5" cy="305.6855" fill="#84BE84" rx="3" ry="3" style="stroke:#038048;stroke-width:1.0;"/><text fill="#000000" font-family="sans-serif" font-size="11" lengthAdjust="spacing" textLength="138" x="454.5" y="309.3203">notifyAgentUpdate(): void</text><ellipse cx="445.5" cy="318.6406" fill="#84BE84" rx="3" ry="3" style="stroke:#038048;stroke-width:1.0;"/><text fill="#000000" font-family="sans-serif" font-size="11" lengthAdjust="spacing" textLength="63" x="454.5" y="322.2754">tiles(): Tile[]</text><ellipse cx="445.5" cy="331.5957" fill="#84BE84" rx="3" ry="3" style="stroke:#038048;stroke-width:1.0;"/><text fill="#000000" font-family="sans-serif" font-size="11" lengthAdjust="spacing" textLength="158" x="454.5" y="335.2305">keys(): ImmutableSet&lt;Color&gt;</text><ellipse cx="445.5" cy="344.5508" fill="#84BE84" rx="3" ry="3" style="stroke:#038048;stroke-width:1.0;"/><text fill="#000000" font-family="sans-serif" font-size="11" lengthAdjust="spacing" textLength="136" x="454.5" y="348.1855">remainingTreasures(): int</text><ellipse cx="445.5" cy="357.5059" fill="#84BE84" rx="3" ry="3" style="stroke:#038048;stroke-width:1.0;"/><text fill="#000000" font-family="sans-serif" font-size="11" lengthAdjust="spacing" textLength="101" x="454.5" y="361.1406">position(): Position</text><ellipse cx="445.5" cy="370.4609" fill="#84BE84" rx="3" ry="3" style="stroke:#038048;stroke-width:1.0;"/><text fill="#000000" font-family="sans-serif" font-size="11" lengthAdjust="spacing" textLength="179" x="454.5" y="374.0957">position(Position, Direction): void</text><ellipse cx="445.5" cy="383.416" fill="#84BE84" rx="3" ry="3" style="stroke:#038048;stroke-width:1.0;"/><text fill="#000000" font-family="sans-serif" font-size="11" lengthAdjust="spacing" text-decoration="underline" textLength="127" x="454.5" y="387.0508">newGame(): GameModel</text><ellipse cx="445.5" cy="396.3711" fill="#84BE84" rx="3" ry="3" style="stroke:#038048;stroke-width:1.0;"/><text fill="#000000" font-family="sans-serif" font-size="11" lengthAdjust="spacing" text-decoration="underline" textLength="197" x="454.5" y="400.0059">newGameOnLevel(Level): GameModel</text><ellipse cx="445.5" cy="409.3262" fill="#84BE84" rx="3" ry="3" style="stroke:#038048;stroke-width:1.0;"/><text fill="#000000" font-family="sans-serif" font-size="11" lengthAdjust="spacing" textLength="114" x="454.5" y="412.9609">loadLevel(Level): void</text><ellipse cx="445.5" cy="422.2813" fill="#84BE84" rx="3" ry="3" style="stroke:#038048;stroke-width:1.0;"/><text fill="#000000" font-family="sans-serif" font-size="11" lengthAdjust="spacing" textLength="106" x="454.5" y="425.916">insertAgents(): void</text><ellipse cx="445.5" cy="435.2363" fill="#84BE84" rx="3" ry="3" style="stroke:#038048;stroke-width:1.0;"/><text fill="#000000" font-family="sans-serif" font-size="11" lengthAdjust="spacing" text-decoration="underline" textLength="405" x="454.5" y="438.8711">fromSave(String, Tile[], int, Position, Set&lt;Color&gt;, List&lt;Agent&gt;): GameModel</text><ellipse cx="445.5" cy="448.1914" fill="#84BE84" rx="3" ry="3" style="stroke:#038048;stroke-width:1.0;"/><text fill="#000000" font-family="sans-serif" font-size="11" lengthAdjust="spacing" textLength="204" x="454.5" y="451.8262">decrementRemainingTreasures(): void</text><ellipse cx="445.5" cy="461.1465" fill="#84BE84" rx="3" ry="3" style="stroke:#038048;stroke-width:1.0;"/><text fill="#000000" font-family="sans-serif" font-size="11" lengthAdjust="spacing" textLength="317" x="454.5" y="464.7813">addPropertyChangeListener(PropertyChangeListener): void</text><ellipse cx="445.5" cy="474.1016" fill="#84BE84" rx="3" ry="3" style="stroke:#038048;stroke-width:1.0;"/><text fill="#000000" font-family="sans-serif" font-size="11" lengthAdjust="spacing" textLength="125" x="454.5" y="477.7363">hasKey(Color): boolean</text><ellipse cx="445.5" cy="487.0566" fill="#84BE84" rx="3" ry="3" style="stroke:#038048;stroke-width:1.0;"/><text fill="#000000" font-family="sans-serif" font-size="11" lengthAdjust="spacing" textLength="114" x="454.5" y="490.6914">storeKey(Color): void</text><ellipse cx="445.5" cy="500.0117" fill="#84BE84" rx="3" ry="3" style="stroke:#038048;stroke-width:1.0;"/><text fill="#000000" font-family="sans-serif" font-size="11" lengthAdjust="spacing" textLength="142" x="454.5" y="503.6465">setKeys(Set&lt;Color&gt;): void</text><ellipse cx="445.5" cy="512.9668" fill="#84BE84" rx="3" ry="3" style="stroke:#038048;stroke-width:1.0;"/><text fill="#000000" font-family="sans-serif" font-size="11" lengthAdjust="spacing" textLength="89" x="454.5" y="516.6016">resetKeys(): void</text><ellipse cx="445.5" cy="525.9219" fill="#84BE84" rx="3" ry="3" style="stroke:#038048;stroke-width:1.0;"/><text fill="#000000" font-family="sans-serif" font-size="11" lengthAdjust="spacing" textLength="100" x="454.5" y="529.5566">read(Position): Tile</text><ellipse cx="445.5" cy="538.877" fill="#84BE84" rx="3" ry="3" style="stroke:#038048;stroke-width:1.0;"/><text fill="#000000" font-family="sans-serif" font-size="11" lengthAdjust="spacing" textLength="131" x="454.5" y="542.5117">write(Position, Tile): void</text></a><!--MD5=[443c8bcea1670b39e9ad9ad9a1cafdff]
class nz.ac.wgtn.swen225.lc.domain.state.DirectionChangeEvent--><a href="DirectionChangeEvent.html" target="_top" title="DirectionChangeEvent.html" xlink:actuate="onRequest" xlink:href="DirectionChangeEvent.html" xlink:show="new" xlink:title="DirectionChangeEvent.html" xlink:type="simple"><rect codeLine="40" fill="#FEFECE" filter="url(#f1cl7a85tdalf9)" height="73.9102" id="nz.ac.wgtn.swen225.lc.domain.state.DirectionChangeEvent" style="stroke:#A80036;stroke-width:1.5;" width="368" x="32" y="319.46"/><ellipse cx="149.25" cy="335.46" fill="#ADD1B2" rx="11" ry="11" style="stroke:#A80036;stroke-width:1.0;"/><path d="M151.7231,341.6031 Q151.1421,341.9019 150.5029,342.0513 Q149.8638,342.2007 149.1582,342.2007 Q146.6514,342.2007 145.3315,340.5489 Q144.0117,338.897 144.0117,335.7759 Q144.0117,332.6465 145.3315,330.9947 Q146.6514,329.3428 149.1582,329.3428 Q149.8638,329.3428 150.5112,329.4922 Q151.1587,329.6416 151.7231,329.9405 L151.7231,332.6631 Q151.0923,332.0821 150.4988,331.8123 Q149.9053,331.5425 149.2744,331.5425 Q147.9297,331.5425 147.2449,332.6092 Q146.5601,333.6758 146.5601,335.7759 Q146.5601,337.8677 147.2449,338.9344 Q147.9297,340.001 149.2744,340.001 Q149.9053,340.001 150.4988,339.7312 Q151.0923,339.4615 151.7231,338.8804 Z " fill="#000000"/><text fill="#000000" font-family="sans-serif" font-size="12" lengthAdjust="spacing" textLength="125" x="169.75" y="339.9952">DirectionChangeEvent</text><line style="stroke:#A80036;stroke-width:1.5;" x1="33" x2="399" y1="351.46" y2="351.46"/><line style="stroke:#A80036;stroke-width:1.5;" x1="33" x2="399" y1="359.46" y2="359.46"/><ellipse cx="43" cy="370.46" fill="#84BE84" rx="3" ry="3" style="stroke:#038048;stroke-width:1.0;"/><text fill="#000000" font-family="sans-serif" font-size="11" lengthAdjust="spacing" textLength="342" x="52" y="374.0948">DirectionChangeEvent(GameModel, Position, Position, Direction)</text><ellipse cx="43" cy="383.4151" fill="#84BE84" rx="3" ry="3" style="stroke:#038048;stroke-width:1.0;"/><text fill="#000000" font-family="sans-serif" font-size="11" lengthAdjust="spacing" textLength="111" x="52" y="387.0498">direction(): Direction</text></a><!--MD5=[b3748cb94c5246e1c7bdcc60cb1ee89f]
class java.beans.PropertyChangeEvent--><rect codeLine="50" fill="#FEFECE" filter="url(#f1cl7a85tdalf9)" height="48" id="java.beans.PropertyChangeEvent" style="stroke:#A80036;stroke-width:1.5;" width="155" x="559.5" y="41"/><ellipse cx="574.5" cy="57" fill="#ADD1B2" rx="11" ry="11" style="stroke:#A80036;stroke-width:1.0;"/><path d="M576.9731,63.1431 Q576.3921,63.4419 575.7529,63.5913 Q575.1138,63.7407 574.4082,63.7407 Q571.9014,63.7407 570.5815,62.0889 Q569.2617,60.437 569.2617,57.3159 Q569.2617,54.1865 570.5815,52.5347 Q571.9014,50.8828 574.4082,50.8828 Q575.1138,50.8828 575.7612,51.0322 Q576.4087,51.1816 576.9731,51.4805 L576.9731,54.2031 Q576.3423,53.6221 575.7488,53.3523 Q575.1553,53.0825 574.5244,53.0825 Q573.1797,53.0825 572.4949,54.1492 Q571.8101,55.2158 571.8101,57.3159 Q571.8101,59.4077 572.4949,60.4744 Q573.1797,61.541 574.5244,61.541 Q575.1553,61.541 575.7488,61.2712 Q576.3423,61.0015 576.9731,60.4204 Z " fill="#000000"/><text fill="#000000" font-family="sans-serif" font-size="12" lengthAdjust="spacing" textLength="123" x="588.5" y="61.5352">PropertyChangeEvent</text><line style="stroke:#A80036;stroke-width:1.5;" x1="560.5" x2="713.5" y1="73" y2="73"/><line style="stroke:#A80036;stroke-width:1.5;" x1="560.5" x2="713.5" y1="81" y2="81"/><!--MD5=[9017488b84ad06211bdab7ac141c9bc8]
reverse link java.beans.PropertyChangeEvent to nz.ac.wgtn.swen225.lc.domain.state.TileChangeEvent--><path codeLine="45" d="M736.12,72.23 C783.61,79.02 839.48,92.9 883,121 C951.3,165.1 1002.89,245.44 1032.03,299.62 " fill="none" id="java.beans.PropertyChangeEvent-backto-nz.ac.wgtn.swen225.lc.domain.state.TileChangeEvent" style="stroke:#A80036;stroke-width:1.0;"/><polygon fill="none" points="735.44,79.2,716.46,69.77,737.18,65.31,735.44,79.2" style="stroke:#A80036;stroke-width:1.0;"/><!--MD5=[4864608e95ba502a7088c26d93d65c14]
reverse link java.beans.PropertyChangeEvent to nz.ac.wgtn.swen225.lc.domain.state.DirectionChangeEvent--><path codeLine="46" d="M538.25,77.37 C498.39,85.24 453.34,98.54 417,121 C334.91,171.72 268.89,267.01 236.92,319.11 " fill="none" id="java.beans.PropertyChangeEvent-backto-nz.ac.wgtn.swen225.lc.domain.state.DirectionChangeEvent" style="stroke:#A80036;stroke-width:1.0;"/><polygon fill="none" points="536.74,70.53,557.66,73.9,539.21,84.31,536.74,70.53" style="stroke:#A80036;stroke-width:1.0;"/><text fill="#888888" font-family="sans-serif" font-size="10" lengthAdjust="spacing" textLength="182" x="528" y="580.498">UMLDoclet 2.0.14, PlantUML 1.2021.9</text><!--MD5=[c57e43316039176af96a1006d99c976e]
@startuml
    namespace nz.ac.wgtn.swen225.lc.domain.state {

        class TileChangeEvent [[TileChangeEvent.html]] {
            +TileChangeEvent(GameModel, Tile[], Position, Tile, Tile)
            +tiles(): Tile[]
            +position(): Position
            +oldTile(): Tile
            +newTile(): Tile
        }

        class GameModel [[GameModel.html]] {
            +levelId(): String
            +levelNumber(): int
            +setHelpMessage(String): void
            +helpMessage(): String
            +levelNumber(int): void
            +agents(): List<Agent>
            +setAgents(List<Agent>): void
            +notifyAgentUpdate(): void
            +tiles(): Tile[]
            +keys(): ImmutableSet<Color>
            +remainingTreasures(): int
            +position(): Position
            +position(Position, Direction): void
            {static} +newGame(): GameModel
            {static} +newGameOnLevel(Level): GameModel
            +loadLevel(Level): void
            +insertAgents(): void
            {static} +fromSave(String, Tile[], int, Position, Set<Color>, List<Agent>): GameModel
            +decrementRemainingTreasures(): void
            +addPropertyChangeListener(PropertyChangeListener): void
            +hasKey(Color): boolean
            +storeKey(Color): void
            +setKeys(Set<Color>): void
            +resetKeys(): void
            +read(Position): Tile
            +write(Position, Tile): void
        }

        class DirectionChangeEvent [[DirectionChangeEvent.html]] {
            +DirectionChangeEvent(GameModel, Position, Position, Direction)
            +direction(): Direction
        }

        java.beans.PropertyChangeEvent <|- - TileChangeEvent
        java.beans.PropertyChangeEvent <|- - DirectionChangeEvent
    }

    namespace java.beans {
        class PropertyChangeEvent {
        }
    }

    center footer UMLDoclet 2.0.14, PlantUML 1.2021.9
@enduml

PlantUML version 1.2021.9(Sun Jul 25 22:13:56 NZST 2021)
(APACHE source distribution)
Java Runtime: OpenJDK Runtime Environment
JVM: OpenJDK 64-Bit Server VM
Default Encoding: UTF-8
Language: en
Country: NZ
--></g></svg>