<?xml version="1.0" encoding="UTF-8" standalone="no"?><svg xmlns="http://www.w3.org/2000/svg" xmlns:xlink="http://www.w3.org/1999/xlink" contentScriptType="application/ecmascript" contentStyleType="text/css" height="208px" preserveAspectRatio="none" style="width:291px;height:208px;background:#FFFFFF;" version="1.1" viewBox="0 0 291 208" width="291px" zoomAndPan="magnify"><defs><filter height="300%" id="f1vd56t88n4e0u" width="300%" x="-1" y="-1"><feGaussianBlur result="blurOut" stdDeviation="2.0"/><feColorMatrix in="blurOut" result="blurOut2" type="matrix" values="0 0 0 0 0 0 0 0 0 0 0 0 0 0 0 0 0 0 .4 0"/><feOffset dx="4.0" dy="4.0" in="blurOut2" result="blurOut3"/><feBlend in="SourceGraphic" in2="blurOut3" mode="normal"/></filter></defs><g><!--MD5=[0508d5829ed89570bdcfe40dd083bcfe]
class nz.ac.wgtn.swen225.lc.app.ApplicationWindow--><a href="ApplicationWindow.html" target="_top" title="ApplicationWindow.html" xlink:actuate="onRequest" xlink:href="ApplicationWindow.html" xlink:show="new" xlink:title="ApplicationWindow.html" xlink:type="simple"><rect codeLine="5" fill="#FEFECE" filter="url(#f1vd56t88n4e0u)" height="72.1758" id="nz.ac.wgtn.swen225.lc.app.ApplicationWindow" style="stroke:#A80036;stroke-width:1.5;" width="270" x="7" y="105.26"/><ellipse cx="71.75" cy="124.3928" fill="#ADD1B2" rx="11" ry="11" style="stroke:#A80036;stroke-width:1.0;"/><path d="M74.2231,130.5359 Q73.6421,130.8347 73.0029,130.9841 Q72.3638,131.1335 71.6582,131.1335 Q69.1514,131.1335 67.8315,129.4817 Q66.5117,127.8298 66.5117,124.7087 Q66.5117,121.5793 67.8315,119.9275 Q69.1514,118.2756 71.6582,118.2756 Q72.3638,118.2756 73.0112,118.425 Q73.6587,118.5745 74.2231,118.8733 L74.2231,121.5959 Q73.5923,121.0149 72.9988,120.7451 Q72.4053,120.4753 71.7744,120.4753 Q70.4297,120.4753 69.7449,121.542 Q69.0601,122.6086 69.0601,124.7087 Q69.0601,126.8005 69.7449,127.8672 Q70.4297,128.9338 71.7744,128.9338 Q72.4053,128.9338 72.9988,128.6641 Q73.5923,128.3943 74.2231,127.8132 Z " fill="#000000"/><text fill="#000000" font-family="sans-serif" font-size="14" lengthAdjust="spacing" textLength="132" x="92.25" y="123.7952">ApplicationWindow</text><text fill="#000000" font-family="sans-serif" font-size="10" lengthAdjust="spacing" textLength="131" x="92.75" y="136.4163">nz.ac.wgtn.swen225.lc.app</text><line style="stroke:#A80036;stroke-width:1.5;" x1="8" x2="276" y1="143.5256" y2="143.5256"/><ellipse cx="18" cy="154.5256" fill="#84BE84" rx="3" ry="3" style="stroke:#038048;stroke-width:1.0;"/><text fill="#000000" font-family="sans-serif" font-size="11" lengthAdjust="spacing" textLength="244" x="27" y="158.1604">ApplicationWindow(GameModel, MainWindow)</text><ellipse cx="18" cy="167.4807" fill="#84BE84" rx="3" ry="3" style="stroke:#038048;stroke-width:1.0;"/><text fill="#000000" font-family="sans-serif" font-size="11" lengthAdjust="spacing" textLength="123" x="27" y="171.1155">getTimer(): GameTimer</text></a><!--MD5=[56a185cb33bdc7c23303e5865f20a19b]
class javax.swing.JPanel--><rect codeLine="10" fill="#FEFECE" filter="url(#f1vd56t88n4e0u)" height="38.2656" id="javax.swing.JPanel" style="stroke:#A80036;stroke-width:1.5;" width="89" x="97.5" y="7"/><ellipse cx="112.5" cy="26.1328" fill="#ADD1B2" rx="11" ry="11" style="stroke:#A80036;stroke-width:1.0;"/><path d="M114.9731,32.2759 Q114.3921,32.5747 113.7529,32.7241 Q113.1138,32.8735 112.4082,32.8735 Q109.9014,32.8735 108.5815,31.2217 Q107.2617,29.5698 107.2617,26.4487 Q107.2617,23.3193 108.5815,21.6675 Q109.9014,20.0156 112.4082,20.0156 Q113.1138,20.0156 113.7612,20.165 Q114.4087,20.3145 114.9731,20.6133 L114.9731,23.3359 Q114.3423,22.7549 113.7488,22.4851 Q113.1553,22.2153 112.5244,22.2153 Q111.1797,22.2153 110.4949,23.282 Q109.8101,24.3486 109.8101,26.4487 Q109.8101,28.5405 110.4949,29.6072 Q111.1797,30.6738 112.5244,30.6738 Q113.1553,30.6738 113.7488,30.4041 Q114.3423,30.1343 114.9731,29.5532 Z " fill="#000000"/><text fill="#000000" font-family="sans-serif" font-size="14" lengthAdjust="spacing" textLength="41" x="134.5" y="25.5352">JPanel</text><text fill="#000000" font-family="sans-serif" font-size="10" lengthAdjust="spacing" textLength="57" x="126.5" y="38.1563">javax.swing</text><!--MD5=[7ecfd75783fdb27472f81a2623777aa2]
reverse link javax.swing.JPanel to nz.ac.wgtn.swen225.lc.app.ApplicationWindow--><path codeLine="12" d="M142,66.71 C142,79.17 142,92.85 142,104.99 " fill="none" id="javax.swing.JPanel-backto-nz.ac.wgtn.swen225.lc.app.ApplicationWindow" style="stroke:#A80036;stroke-width:1.0;"/><polygon fill="none" points="135,67.09,142,47.09,149,67.09,135,67.09" style="stroke:#A80036;stroke-width:1.0;"/><text fill="#888888" font-family="sans-serif" font-size="10" lengthAdjust="spacing" textLength="182" x="48" y="200.1038">UMLDoclet 2.0.14, PlantUML 1.2021.9</text><!--MD5=[921b396a31dfdfef5dad8cf9b4e1e7f4]
@startuml
    set namespaceSeparator none
    hide empty fields
    hide empty methods

    class "<size:14>ApplicationWindow\n<size:10>nz.ac.wgtn.swen225.lc.app" as nz.ac.wgtn.swen225.lc.app.ApplicationWindow [[ApplicationWindow.html]] {
        +ApplicationWindow(GameModel, MainWindow)
        +getTimer(): GameTimer
    }

    class "<size:14>JPanel\n<size:10>javax.swing" as javax.swing.JPanel

    javax.swing.JPanel <|- - nz.ac.wgtn.swen225.lc.app.ApplicationWindow

    center footer UMLDoclet 2.0.14, PlantUML 1.2021.9
@enduml

PlantUML version 1.2021.9(Sun Jul 25 22:13:56 NZST 2021)
(APACHE source distribution)
Java Runtime: OpenJDK Runtime Environment
JVM: OpenJDK 64-Bit Server VM
Default Encoding: UTF-8
Language: en
Country: NZ
--></g></svg>