<?xml version="1.0" encoding="UTF-8" standalone="no"?><svg xmlns="http://www.w3.org/2000/svg" xmlns:xlink="http://www.w3.org/1999/xlink" contentScriptType="application/ecmascript" contentStyleType="text/css" height="195px" preserveAspectRatio="none" style="width:189px;height:195px;background:#FFFFFF;" version="1.1" viewBox="0 0 189 195" width="189px" zoomAndPan="magnify"><defs><filter height="300%" id="f137dbd2bs7uud" width="300%" x="-1" y="-1"><feGaussianBlur result="blurOut" stdDeviation="2.0"/><feColorMatrix in="blurOut" result="blurOut2" type="matrix" values="0 0 0 0 0 0 0 0 0 0 0 0 0 0 0 0 0 0 .4 0"/><feOffset dx="4.0" dy="4.0" in="blurOut2" result="blurOut3"/><feBlend in="SourceGraphic" in2="blurOut3" mode="normal"/></filter></defs><g><!--MD5=[d1c41000162441e4c72ebcf1029f8623]
class nz.ac.wgtn.swen225.lc.app.CustomButton--><a href="CustomButton.html" target="_top" title="CustomButton.html" xlink:actuate="onRequest" xlink:href="CustomButton.html" xlink:show="new" xlink:title="CustomButton.html" xlink:type="simple"><rect codeLine="5" fill="#FEFECE" filter="url(#f137dbd2bs7uud)" height="59.2207" id="nz.ac.wgtn.swen225.lc.app.CustomButton" style="stroke:#A80036;stroke-width:1.5;" width="163" x="12.5" y="105.27"/><ellipse cx="27.5" cy="124.4028" fill="#ADD1B2" rx="11" ry="11" style="stroke:#A80036;stroke-width:1.0;"/><path d="M29.9731,130.5459 Q29.3921,130.8447 28.7529,130.9941 Q28.1138,131.1435 27.4082,131.1435 Q24.9014,131.1435 23.5815,129.4917 Q22.2617,127.8398 22.2617,124.7187 Q22.2617,121.5893 23.5815,119.9375 Q24.9014,118.2856 27.4082,118.2856 Q28.1138,118.2856 28.7612,118.435 Q29.4087,118.5845 29.9731,118.8833 L29.9731,121.6059 Q29.3423,121.0249 28.7488,120.7551 Q28.1553,120.4853 27.5244,120.4853 Q26.1797,120.4853 25.4949,121.552 Q24.8101,122.6186 24.8101,124.7187 Q24.8101,126.8105 25.4949,127.8772 Q26.1797,128.9438 27.5244,128.9438 Q28.1553,128.9438 28.7488,128.6741 Q29.3423,128.4043 29.9731,127.8232 Z " fill="#000000"/><text fill="#000000" font-family="sans-serif" font-size="14" lengthAdjust="spacing" textLength="98" x="58" y="123.8052">CustomButton</text><text fill="#000000" font-family="sans-serif" font-size="10" lengthAdjust="spacing" textLength="131" x="41.5" y="136.4263">nz.ac.wgtn.swen225.lc.app</text><line style="stroke:#A80036;stroke-width:1.5;" x1="13.5" x2="174.5" y1="143.5356" y2="143.5356"/><ellipse cx="23.5" cy="154.5356" fill="#84BE84" rx="3" ry="3" style="stroke:#038048;stroke-width:1.0;"/><text fill="#000000" font-family="sans-serif" font-size="11" lengthAdjust="spacing" textLength="117" x="32.5" y="158.1704">CustomButton(String)</text></a><!--MD5=[7d319166b5dc6b8762d043b6fe35067f]
class javax.swing.JButton--><rect codeLine="9" fill="#FEFECE" filter="url(#f137dbd2bs7uud)" height="38.2656" id="javax.swing.JButton" style="stroke:#A80036;stroke-width:1.5;" width="89" x="49.5" y="7"/><ellipse cx="64.5" cy="26.1328" fill="#ADD1B2" rx="11" ry="11" style="stroke:#A80036;stroke-width:1.0;"/><path d="M66.9731,32.2759 Q66.3921,32.5747 65.7529,32.7241 Q65.1138,32.8735 64.4082,32.8735 Q61.9014,32.8735 60.5815,31.2217 Q59.2617,29.5698 59.2617,26.4487 Q59.2617,23.3193 60.5815,21.6675 Q61.9014,20.0156 64.4082,20.0156 Q65.1138,20.0156 65.7612,20.165 Q66.4087,20.3145 66.9731,20.6133 L66.9731,23.3359 Q66.3423,22.7549 65.7488,22.4851 Q65.1553,22.2153 64.5244,22.2153 Q63.1797,22.2153 62.4949,23.282 Q61.8101,24.3486 61.8101,26.4487 Q61.8101,28.5405 62.4949,29.6072 Q63.1797,30.6738 64.5244,30.6738 Q65.1553,30.6738 65.7488,30.4041 Q66.3423,30.1343 66.9731,29.5532 Z " fill="#000000"/><text fill="#000000" font-family="sans-serif" font-size="14" lengthAdjust="spacing" textLength="49" x="82.5" y="25.5352">JButton</text><text fill="#000000" font-family="sans-serif" font-size="10" lengthAdjust="spacing" textLength="57" x="78.5" y="38.1563">javax.swing</text><!--MD5=[4e08b9d8f309ee946950ac9e13ffcfe1]
reverse link javax.swing.JButton to nz.ac.wgtn.swen225.lc.app.CustomButton--><path codeLine="11" d="M94,67.2 C94,79.78 94,93.41 94,105.05 " fill="none" id="javax.swing.JButton-backto-nz.ac.wgtn.swen225.lc.app.CustomButton" style="stroke:#A80036;stroke-width:1.0;"/><polygon fill="none" points="87,67.24,94,47.24,101,67.24,87,67.24" style="stroke:#A80036;stroke-width:1.0;"/><text fill="#888888" font-family="sans-serif" font-size="10" lengthAdjust="spacing" textLength="182" x="0" y="187.1587">UMLDoclet 2.0.14, PlantUML 1.2021.9</text><!--MD5=[3e2dc4dd465bbfcbf78a9609d8c09fb2]
@startuml
    set namespaceSeparator none
    hide empty fields
    hide empty methods

    class "<size:14>CustomButton\n<size:10>nz.ac.wgtn.swen225.lc.app" as nz.ac.wgtn.swen225.lc.app.CustomButton [[CustomButton.html]] {
        +CustomButton(String)
    }

    class "<size:14>JButton\n<size:10>javax.swing" as javax.swing.JButton

    javax.swing.JButton <|- - nz.ac.wgtn.swen225.lc.app.CustomButton

    center footer UMLDoclet 2.0.14, PlantUML 1.2021.9
@enduml

PlantUML version 1.2021.9(Sun Jul 25 22:13:56 NZST 2021)
(APACHE source distribution)
Java Runtime: OpenJDK Runtime Environment
JVM: OpenJDK 64-Bit Server VM
Default Encoding: UTF-8
Language: en
Country: NZ
--></g></svg>