<?xml version="1.0" encoding="UTF-8" standalone="no"?><svg xmlns="http://www.w3.org/2000/svg" xmlns:xlink="http://www.w3.org/1999/xlink" contentScriptType="application/ecmascript" contentStyleType="text/css" height="117px" preserveAspectRatio="none" style="width:282px;height:117px;background:#FFFFFF;" version="1.1" viewBox="0 0 282 117" width="282px" zoomAndPan="magnify"><defs><filter height="300%" id="fy5gv0tokn7s6" width="300%" x="-1" y="-1"><feGaussianBlur result="blurOut" stdDeviation="2.0"/><feColorMatrix in="blurOut" result="blurOut2" type="matrix" values="0 0 0 0 0 0 0 0 0 0 0 0 0 0 0 0 0 0 .4 0"/><feOffset dx="4.0" dy="4.0" in="blurOut2" result="blurOut3"/><feBlend in="SourceGraphic" in2="blurOut3" mode="normal"/></filter></defs><g><!--MD5=[a1c7ad341ba8ad0ff172204a2a920a7c]
class nz.ac.wgtn.swen225.lc.app.LarryCroftsAdventures--><a href="LarryCroftsAdventures.html" target="_top" title="LarryCroftsAdventures.html" xlink:actuate="onRequest" xlink:href="LarryCroftsAdventures.html" xlink:show="new" xlink:title="LarryCroftsAdventures.html" xlink:type="simple"><rect codeLine="5" fill="#FEFECE" filter="url(#fy5gv0tokn7s6)" height="85.1309" id="nz.ac.wgtn.swen225.lc.app.LarryCroftsAdventures" style="stroke:#A80036;stroke-width:1.5;" width="261" x="7" y="7"/><ellipse cx="56.25" cy="26.1328" fill="#ADD1B2" rx="11" ry="11" style="stroke:#A80036;stroke-width:1.0;"/><path d="M58.7231,32.2759 Q58.1421,32.5747 57.5029,32.7241 Q56.8638,32.8735 56.1582,32.8735 Q53.6514,32.8735 52.3315,31.2217 Q51.0117,29.5698 51.0117,26.4487 Q51.0117,23.3193 52.3315,21.6675 Q53.6514,20.0156 56.1582,20.0156 Q56.8638,20.0156 57.5112,20.165 Q58.1587,20.3145 58.7231,20.6133 L58.7231,23.3359 Q58.0923,22.7549 57.4988,22.4851 Q56.9053,22.2153 56.2744,22.2153 Q54.9297,22.2153 54.2449,23.282 Q53.5601,24.3486 53.5601,26.4487 Q53.5601,28.5405 54.2449,29.6072 Q54.9297,30.6738 56.2744,30.6738 Q56.9053,30.6738 57.4988,30.4041 Q58.0923,30.1343 58.7231,29.5532 Z " fill="#000000"/><text fill="#000000" font-family="sans-serif" font-size="14" lengthAdjust="spacing" textLength="154" x="76.75" y="25.5352">LarryCroftsAdventures</text><text fill="#000000" font-family="sans-serif" font-size="10" lengthAdjust="spacing" textLength="131" x="88.25" y="38.1563">nz.ac.wgtn.swen225.lc.app</text><line style="stroke:#A80036;stroke-width:1.5;" x1="8" x2="267" y1="45.2656" y2="45.2656"/><ellipse cx="18" cy="56.2656" fill="#84BE84" rx="3" ry="3" style="stroke:#038048;stroke-width:1.0;"/><text fill="#000000" font-family="sans-serif" font-size="11" lengthAdjust="spacing" textLength="132" x="27" y="59.9004">LarryCroftsAdventures()</text><ellipse cx="18" cy="69.2207" fill="#84BE84" rx="3" ry="3" style="stroke:#038048;stroke-width:1.0;"/><text fill="#000000" font-family="sans-serif" font-size="11" lengthAdjust="spacing" textLength="194" x="27" y="72.8555">LarryCroftsAdventures(GameModel)</text><ellipse cx="18" cy="82.1758" fill="#84BE84" rx="3" ry="3" style="stroke:#038048;stroke-width:1.0;"/><text fill="#000000" font-family="sans-serif" font-size="11" lengthAdjust="spacing" textLength="235" x="27" y="85.8105">LarryCroftsAdventures(GameModel, Replay)</text></a><text fill="#888888" font-family="sans-serif" font-size="10" lengthAdjust="spacing" textLength="182" x="46.5" y="108.7988">UMLDoclet 2.0.14, PlantUML 1.2021.9</text><!--MD5=[3d7b5019e136c65c2a264f271c3750bd]
@startuml
    set namespaceSeparator none
    hide empty fields
    hide empty methods

    class "<size:14>LarryCroftsAdventures\n<size:10>nz.ac.wgtn.swen225.lc.app" as nz.ac.wgtn.swen225.lc.app.LarryCroftsAdventures [[LarryCroftsAdventures.html]] {
        +LarryCroftsAdventures()
        +LarryCroftsAdventures(GameModel)
        +LarryCroftsAdventures(GameModel, Replay)
    }

    center footer UMLDoclet 2.0.14, PlantUML 1.2021.9
@enduml

PlantUML version 1.2021.9(Sun Jul 25 22:13:56 NZST 2021)
(APACHE source distribution)
Java Runtime: OpenJDK Runtime Environment
JVM: OpenJDK 64-Bit Server VM
Default Encoding: UTF-8
Language: en
Country: NZ
--></g></svg>