<?xml version="1.0" encoding="UTF-8" standalone="no"?><svg xmlns="http://www.w3.org/2000/svg" xmlns:xlink="http://www.w3.org/1999/xlink" contentScriptType="application/ecmascript" contentStyleType="text/css" height="291px" preserveAspectRatio="none" style="width:750px;height:291px;background:#FFFFFF;" version="1.1" viewBox="0 0 750 291" width="750px" zoomAndPan="magnify"><defs><filter height="300%" id="flnmdwvnlzlvv" width="300%" x="-1" y="-1"><feGaussianBlur result="blurOut" stdDeviation="2.0"/><feColorMatrix in="blurOut" result="blurOut2" type="matrix" values="0 0 0 0 0 0 0 0 0 0 0 0 0 0 0 0 0 0 .4 0"/><feOffset dx="4.0" dy="4.0" in="blurOut2" result="blurOut3"/><feBlend in="SourceGraphic" in2="blurOut3" mode="normal"/></filter></defs><g><!--MD5=[248738fc5a140cde2865c68e3316b0c0]
cluster nz.ac.wgtn.swen225.lc.app--><polygon fill="#FFFFFF" filter="url(#flnmdwvnlzlvv)" points="16,129,207,129,214,151.4883,733,151.4883,733,266.87,16,266.87,16,129" style="stroke:#000000;stroke-width:1.5;"/><line style="stroke:#000000;stroke-width:1.5;" x1="16" x2="214" y1="151.4883" y2="151.4883"/><text fill="#000000" font-family="sans-serif" font-size="14" font-weight="bold" lengthAdjust="spacing" textLength="185" x="20" y="144.5352">nz.ac.wgtn.swen225.lc.app</text><!--MD5=[535aab4de90d4dfa371a9b40d5438fc3]
cluster javax.swing--><polygon fill="#FFFFFF" filter="url(#flnmdwvnlzlvv)" points="434,6,523,6,530,28.4883,645,28.4883,645,105,434,105,434,6" style="stroke:#000000;stroke-width:1.5;"/><line style="stroke:#000000;stroke-width:1.5;" x1="434" x2="530" y1="28.4883" y2="28.4883"/><text fill="#000000" font-family="sans-serif" font-size="14" font-weight="bold" lengthAdjust="spacing" textLength="83" x="438" y="21.5352">javax.swing</text><!--MD5=[d1c41000162441e4c72ebcf1029f8623]
class nz.ac.wgtn.swen225.lc.app.CustomButton--><a href="CustomButton.html" target="_top" title="CustomButton.html" xlink:actuate="onRequest" xlink:href="CustomButton.html" xlink:show="new" xlink:title="CustomButton.html" xlink:type="simple"><rect codeLine="3" fill="#FEFECE" filter="url(#flnmdwvnlzlvv)" height="60.9551" id="nz.ac.wgtn.swen225.lc.app.CustomButton" style="stroke:#A80036;stroke-width:1.5;" width="143" x="574.5" y="176.96"/><ellipse cx="603.9" cy="192.96" fill="#ADD1B2" rx="11" ry="11" style="stroke:#A80036;stroke-width:1.0;"/><path d="M606.3731,199.1031 Q605.7921,199.4019 605.1529,199.5513 Q604.5138,199.7007 603.8082,199.7007 Q601.3014,199.7007 599.9815,198.0489 Q598.6617,196.397 598.6617,193.2759 Q598.6617,190.1465 599.9815,188.4947 Q601.3014,186.8428 603.8082,186.8428 Q604.5138,186.8428 605.1612,186.9922 Q605.8087,187.1416 606.3731,187.4405 L606.3731,190.1631 Q605.7423,189.5821 605.1488,189.3123 Q604.5553,189.0425 603.9244,189.0425 Q602.5797,189.0425 601.8949,190.1092 Q601.2101,191.1758 601.2101,193.2759 Q601.2101,195.3677 601.8949,196.4344 Q602.5797,197.501 603.9244,197.501 Q604.5553,197.501 605.1488,197.2312 Q605.7423,196.9615 606.3731,196.3804 Z " fill="#000000"/><text fill="#000000" font-family="sans-serif" font-size="12" lengthAdjust="spacing" textLength="79" x="621.1" y="197.4952">CustomButton</text><line style="stroke:#A80036;stroke-width:1.5;" x1="575.5" x2="716.5" y1="208.96" y2="208.96"/><line style="stroke:#A80036;stroke-width:1.5;" x1="575.5" x2="716.5" y1="216.96" y2="216.96"/><ellipse cx="585.5" cy="227.96" fill="#84BE84" rx="3" ry="3" style="stroke:#038048;stroke-width:1.0;"/><text fill="#000000" font-family="sans-serif" font-size="11" lengthAdjust="spacing" textLength="117" x="594.5" y="231.5948">CustomButton(String)</text></a><!--MD5=[71491f4c692b0088ac6d03d43188cb91]
class nz.ac.wgtn.swen225.lc.app.FileSelector--><a href="FileSelector.html" target="_top" title="FileSelector.html" xlink:actuate="onRequest" xlink:href="FileSelector.html" xlink:show="new" xlink:title="FileSelector.html" xlink:type="simple"><rect codeLine="7" fill="#FEFECE" filter="url(#flnmdwvnlzlvv)" height="73.9102" id="nz.ac.wgtn.swen225.lc.app.FileSelector" style="stroke:#A80036;stroke-width:1.5;" width="210" x="329" y="170.48"/><ellipse cx="397.75" cy="186.48" fill="#ADD1B2" rx="11" ry="11" style="stroke:#A80036;stroke-width:1.0;"/><path d="M400.2231,192.6231 Q399.6421,192.9219 399.0029,193.0713 Q398.3638,193.2207 397.6582,193.2207 Q395.1514,193.2207 393.8315,191.5689 Q392.5117,189.917 392.5117,186.7959 Q392.5117,183.6665 393.8315,182.0147 Q395.1514,180.3628 397.6582,180.3628 Q398.3638,180.3628 399.0112,180.5122 Q399.6587,180.6616 400.2231,180.9605 L400.2231,183.6831 Q399.5923,183.1021 398.9988,182.8323 Q398.4053,182.5625 397.7744,182.5625 Q396.4297,182.5625 395.7449,183.6292 Q395.0601,184.6958 395.0601,186.7959 Q395.0601,188.8877 395.7449,189.9544 Q396.4297,191.021 397.7744,191.021 Q398.4053,191.021 398.9988,190.7512 Q399.5923,190.4815 400.2231,189.9004 Z " fill="#000000"/><text fill="#000000" font-family="sans-serif" font-size="12" lengthAdjust="spacing" textLength="64" x="418.25" y="191.0152">FileSelector</text><line style="stroke:#A80036;stroke-width:1.5;" x1="330" x2="538" y1="202.48" y2="202.48"/><line style="stroke:#A80036;stroke-width:1.5;" x1="330" x2="538" y1="210.48" y2="210.48"/><ellipse cx="340" cy="221.48" fill="#84BE84" rx="3" ry="3" style="stroke:#038048;stroke-width:1.0;"/><text fill="#000000" font-family="sans-serif" font-size="11" lengthAdjust="spacing" textLength="184" x="349" y="225.1148">FileSelector(MainWindow, boolean)</text><ellipse cx="340" cy="234.4351" fill="#84BE84" rx="3" ry="3" style="stroke:#038048;stroke-width:1.0;"/><text fill="#000000" font-family="sans-serif" font-size="11" lengthAdjust="spacing" textLength="162" x="349" y="238.0698">getFileChooser(): JFileChooser</text></a><!--MD5=[a1c7ad341ba8ad0ff172204a2a920a7c]
class nz.ac.wgtn.swen225.lc.app.LarryCroftsAdventures--><a href="LarryCroftsAdventures.html" target="_top" title="LarryCroftsAdventures.html" xlink:actuate="onRequest" xlink:href="LarryCroftsAdventures.html" xlink:show="new" xlink:title="LarryCroftsAdventures.html" xlink:type="simple"><rect codeLine="12" fill="#FEFECE" filter="url(#flnmdwvnlzlvv)" height="86.8652" id="nz.ac.wgtn.swen225.lc.app.LarryCroftsAdventures" style="stroke:#A80036;stroke-width:1.5;" width="261" x="32.5" y="164"/><ellipse cx="94.75" cy="180" fill="#ADD1B2" rx="11" ry="11" style="stroke:#A80036;stroke-width:1.0;"/><path d="M97.2231,186.1431 Q96.6421,186.4419 96.0029,186.5913 Q95.3638,186.7407 94.6582,186.7407 Q92.1514,186.7407 90.8315,185.0889 Q89.5117,183.437 89.5117,180.3159 Q89.5117,177.1865 90.8315,175.5347 Q92.1514,173.8828 94.6582,173.8828 Q95.3638,173.8828 96.0112,174.0322 Q96.6587,174.1816 97.2231,174.4805 L97.2231,177.2031 Q96.5923,176.6221 95.9988,176.3523 Q95.4053,176.0825 94.7744,176.0825 Q93.4297,176.0825 92.7449,177.1492 Q92.0601,178.2158 92.0601,180.3159 Q92.0601,182.4077 92.7449,183.4744 Q93.4297,184.541 94.7744,184.541 Q95.4053,184.541 95.9988,184.2712 Q96.5923,184.0015 97.2231,183.4204 Z " fill="#000000"/><text fill="#000000" font-family="sans-serif" font-size="12" lengthAdjust="spacing" textLength="128" x="115.25" y="184.5352">LarryCroftsAdventures</text><line style="stroke:#A80036;stroke-width:1.5;" x1="33.5" x2="292.5" y1="196" y2="196"/><line style="stroke:#A80036;stroke-width:1.5;" x1="33.5" x2="292.5" y1="204" y2="204"/><ellipse cx="43.5" cy="215" fill="#84BE84" rx="3" ry="3" style="stroke:#038048;stroke-width:1.0;"/><text fill="#000000" font-family="sans-serif" font-size="11" lengthAdjust="spacing" textLength="132" x="52.5" y="218.6348">LarryCroftsAdventures()</text><ellipse cx="43.5" cy="227.9551" fill="#84BE84" rx="3" ry="3" style="stroke:#038048;stroke-width:1.0;"/><text fill="#000000" font-family="sans-serif" font-size="11" lengthAdjust="spacing" textLength="194" x="52.5" y="231.5898">LarryCroftsAdventures(GameModel)</text><ellipse cx="43.5" cy="240.9102" fill="#84BE84" rx="3" ry="3" style="stroke:#038048;stroke-width:1.0;"/><text fill="#000000" font-family="sans-serif" font-size="11" lengthAdjust="spacing" textLength="235" x="52.5" y="244.5449">LarryCroftsAdventures(GameModel, Replay)</text></a><!--MD5=[7d319166b5dc6b8762d043b6fe35067f]
class javax.swing.JButton--><rect codeLine="23" fill="#FEFECE" filter="url(#flnmdwvnlzlvv)" height="48" id="javax.swing.JButton" style="stroke:#A80036;stroke-width:1.5;" width="72" x="557" y="41"/><ellipse cx="572" cy="57" fill="#ADD1B2" rx="11" ry="11" style="stroke:#A80036;stroke-width:1.0;"/><path d="M574.4731,63.1431 Q573.8921,63.4419 573.2529,63.5913 Q572.6138,63.7407 571.9082,63.7407 Q569.4014,63.7407 568.0815,62.0889 Q566.7617,60.437 566.7617,57.3159 Q566.7617,54.1865 568.0815,52.5347 Q569.4014,50.8828 571.9082,50.8828 Q572.6138,50.8828 573.2612,51.0322 Q573.9087,51.1816 574.4731,51.4805 L574.4731,54.2031 Q573.8423,53.6221 573.2488,53.3523 Q572.6553,53.0825 572.0244,53.0825 Q570.6797,53.0825 569.9949,54.1492 Q569.3101,55.2158 569.3101,57.3159 Q569.3101,59.4077 569.9949,60.4744 Q570.6797,61.541 572.0244,61.541 Q572.6553,61.541 573.2488,61.2712 Q573.8423,61.0015 574.4731,60.4204 Z " fill="#000000"/><text fill="#000000" font-family="sans-serif" font-size="12" lengthAdjust="spacing" textLength="40" x="586" y="61.5352">JButton</text><line style="stroke:#A80036;stroke-width:1.5;" x1="558" x2="628" y1="73" y2="73"/><line style="stroke:#A80036;stroke-width:1.5;" x1="558" x2="628" y1="81" y2="81"/><!--MD5=[18a7562403221f513ca44e0f82c4c17a]
class javax.swing.JFrame--><rect codeLine="25" fill="#FEFECE" filter="url(#flnmdwvnlzlvv)" height="48" id="javax.swing.JFrame" style="stroke:#A80036;stroke-width:1.5;" width="72" x="450" y="41"/><ellipse cx="465" cy="57" fill="#ADD1B2" rx="11" ry="11" style="stroke:#A80036;stroke-width:1.0;"/><path d="M467.4731,63.1431 Q466.8921,63.4419 466.2529,63.5913 Q465.6138,63.7407 464.9082,63.7407 Q462.4014,63.7407 461.0815,62.0889 Q459.7617,60.437 459.7617,57.3159 Q459.7617,54.1865 461.0815,52.5347 Q462.4014,50.8828 464.9082,50.8828 Q465.6138,50.8828 466.2612,51.0322 Q466.9087,51.1816 467.4731,51.4805 L467.4731,54.2031 Q466.8423,53.6221 466.2488,53.3523 Q465.6553,53.0825 465.0244,53.0825 Q463.6797,53.0825 462.9949,54.1492 Q462.3101,55.2158 462.3101,57.3159 Q462.3101,59.4077 462.9949,60.4744 Q463.6797,61.541 465.0244,61.541 Q465.6553,61.541 466.2488,61.2712 Q466.8423,61.0015 467.4731,60.4204 Z " fill="#000000"/><text fill="#000000" font-family="sans-serif" font-size="12" lengthAdjust="spacing" textLength="40" x="479" y="61.5352">JFrame</text><line style="stroke:#A80036;stroke-width:1.5;" x1="451" x2="521" y1="73" y2="73"/><line style="stroke:#A80036;stroke-width:1.5;" x1="451" x2="521" y1="81" y2="81"/><!--MD5=[4e08b9d8f309ee946950ac9e13ffcfe1]
reverse link javax.swing.JButton to nz.ac.wgtn.swen225.lc.app.CustomButton--><path codeLine="18" d="M609.33,109.27 C617.57,131.1 627.35,157.03 634.74,176.6 " fill="none" id="javax.swing.JButton-backto-nz.ac.wgtn.swen225.lc.app.CustomButton" style="stroke:#A80036;stroke-width:1.0;"/><polygon fill="none" points="602.8,111.79,602.29,90.61,615.9,106.85,602.8,111.79" style="stroke:#A80036;stroke-width:1.0;"/><!--MD5=[7fd8d82e2ac1af90b2309b4a6d17e05e]
reverse link javax.swing.JFrame to nz.ac.wgtn.swen225.lc.app.FileSelector--><path codeLine="19" d="M470.06,109.06 C462.83,128.57 454.39,151.38 447.49,170.02 " fill="none" id="javax.swing.JFrame-backto-nz.ac.wgtn.swen225.lc.app.FileSelector" style="stroke:#A80036;stroke-width:1.0;"/><polygon fill="none" points="463.38,106.94,476.89,90.61,476.51,111.8,463.38,106.94" style="stroke:#A80036;stroke-width:1.0;"/><text fill="#888888" font-family="sans-serif" font-size="10" lengthAdjust="spacing" textLength="182" x="277.5" y="282.538">UMLDoclet 2.0.14, PlantUML 1.2021.9</text><!--MD5=[b964a7ace090025fea6e82eb4eafd813]
@startuml
    namespace nz.ac.wgtn.swen225.lc.app {

        class CustomButton [[CustomButton.html]] {
            +CustomButton(String)
        }

        class FileSelector [[FileSelector.html]] {
            +FileSelector(MainWindow, boolean)
            +getFileChooser(): JFileChooser
        }

        class LarryCroftsAdventures [[LarryCroftsAdventures.html]] {
            +LarryCroftsAdventures()
            +LarryCroftsAdventures(GameModel)
            +LarryCroftsAdventures(GameModel, Replay)
        }

        javax.swing.JButton <|- - CustomButton
        javax.swing.JFrame <|- - FileSelector
    }

    namespace javax.swing {
        class JButton {
        }
        class JFrame {
        }
    }

    center footer UMLDoclet 2.0.14, PlantUML 1.2021.9
@enduml

PlantUML version 1.2021.9(Sun Jul 25 22:13:56 NZST 2021)
(APACHE source distribution)
Java Runtime: OpenJDK Runtime Environment
JVM: OpenJDK 64-Bit Server VM
Default Encoding: UTF-8
Language: en
Country: NZ
--></g></svg>