<?xml version="1.0" encoding="UTF-8" standalone="no"?><svg xmlns="http://www.w3.org/2000/svg" xmlns:xlink="http://www.w3.org/1999/xlink" contentScriptType="application/ecmascript" contentStyleType="text/css" height="174px" preserveAspectRatio="none" style="width:189px;height:174px;background:#FFFFFF;" version="1.1" viewBox="0 0 189 174" width="189px" zoomAndPan="magnify"><defs><filter height="300%" id="f8mzdykrx5uxx" width="300%" x="-1" y="-1"><feGaussianBlur result="blurOut" stdDeviation="2.0"/><feColorMatrix in="blurOut" result="blurOut2" type="matrix" values="0 0 0 0 0 0 0 0 0 0 0 0 0 0 0 0 0 0 .4 0"/><feOffset dx="4.0" dy="4.0" in="blurOut2" result="blurOut3"/><feBlend in="SourceGraphic" in2="blurOut3" mode="normal"/></filter></defs><g><!--MD5=[61365a7e9ed6ddb2e824efd7ea293fb1]
class nz.ac.wgtn.swen225.lc.app.WinView--><a href="WinView.html" target="_top" title="WinView.html" xlink:actuate="onRequest" xlink:href="WinView.html" xlink:show="new" xlink:title="WinView.html" xlink:type="simple"><rect codeLine="5" fill="#FEFECE" filter="url(#f8mzdykrx5uxx)" height="38.2656" id="nz.ac.wgtn.swen225.lc.app.WinView" style="stroke:#A80036;stroke-width:1.5;" width="163" x="12.5" y="105.26"/><ellipse cx="27.5" cy="124.3928" fill="#ADD1B2" rx="11" ry="11" style="stroke:#A80036;stroke-width:1.0;"/><path d="M29.9731,130.5359 Q29.3921,130.8347 28.7529,130.9841 Q28.1138,131.1335 27.4082,131.1335 Q24.9014,131.1335 23.5815,129.4817 Q22.2617,127.8298 22.2617,124.7087 Q22.2617,121.5793 23.5815,119.9275 Q24.9014,118.2756 27.4082,118.2756 Q28.1138,118.2756 28.7612,118.425 Q29.4087,118.5745 29.9731,118.8733 L29.9731,121.5959 Q29.3423,121.0149 28.7488,120.7451 Q28.1553,120.4753 27.5244,120.4753 Q26.1797,120.4753 25.4949,121.542 Q24.8101,122.6086 24.8101,124.7087 Q24.8101,126.8005 25.4949,127.8672 Q26.1797,128.9338 27.5244,128.9338 Q28.1553,128.9338 28.7488,128.6641 Q29.3423,128.3943 29.9731,127.8132 Z " fill="#000000"/><text fill="#000000" font-family="sans-serif" font-size="14" lengthAdjust="spacing" textLength="57" x="78.5" y="123.7952">WinView</text><text fill="#000000" font-family="sans-serif" font-size="10" lengthAdjust="spacing" textLength="131" x="41.5" y="136.4163">nz.ac.wgtn.swen225.lc.app</text></a><!--MD5=[56a185cb33bdc7c23303e5865f20a19b]
class javax.swing.JPanel--><rect codeLine="7" fill="#FEFECE" filter="url(#f8mzdykrx5uxx)" height="38.2656" id="javax.swing.JPanel" style="stroke:#A80036;stroke-width:1.5;" width="89" x="49.5" y="7"/><ellipse cx="64.5" cy="26.1328" fill="#ADD1B2" rx="11" ry="11" style="stroke:#A80036;stroke-width:1.0;"/><path d="M66.9731,32.2759 Q66.3921,32.5747 65.7529,32.7241 Q65.1138,32.8735 64.4082,32.8735 Q61.9014,32.8735 60.5815,31.2217 Q59.2617,29.5698 59.2617,26.4487 Q59.2617,23.3193 60.5815,21.6675 Q61.9014,20.0156 64.4082,20.0156 Q65.1138,20.0156 65.7612,20.165 Q66.4087,20.3145 66.9731,20.6133 L66.9731,23.3359 Q66.3423,22.7549 65.7488,22.4851 Q65.1553,22.2153 64.5244,22.2153 Q63.1797,22.2153 62.4949,23.282 Q61.8101,24.3486 61.8101,26.4487 Q61.8101,28.5405 62.4949,29.6072 Q63.1797,30.6738 64.5244,30.6738 Q65.1553,30.6738 65.7488,30.4041 Q66.3423,30.1343 66.9731,29.5532 Z " fill="#000000"/><text fill="#000000" font-family="sans-serif" font-size="14" lengthAdjust="spacing" textLength="41" x="86.5" y="25.5352">JPanel</text><text fill="#000000" font-family="sans-serif" font-size="10" lengthAdjust="spacing" textLength="57" x="78.5" y="38.1563">javax.swing</text><!--MD5=[bbfcd51b771ca924ba18c887980ef202]
reverse link javax.swing.JPanel to nz.ac.wgtn.swen225.lc.app.WinView--><path codeLine="9" d="M94,66.94 C94,80.1 94,94.12 94,104.89 " fill="none" id="javax.swing.JPanel-backto-nz.ac.wgtn.swen225.lc.app.WinView" style="stroke:#A80036;stroke-width:1.0;"/><polygon fill="none" points="87,67.21,94,47.21,101,67.21,87,67.21" style="stroke:#A80036;stroke-width:1.0;"/><text fill="#888888" font-family="sans-serif" font-size="10" lengthAdjust="spacing" textLength="182" x="0" y="166.1936">UMLDoclet 2.0.14, PlantUML 1.2021.9</text><!--MD5=[2875fc55eac2b90223f37b978e63c3b0]
@startuml
    set namespaceSeparator none
    hide empty fields
    hide empty methods

    class "<size:14>WinView\n<size:10>nz.ac.wgtn.swen225.lc.app" as nz.ac.wgtn.swen225.lc.app.WinView [[WinView.html]]

    class "<size:14>JPanel\n<size:10>javax.swing" as javax.swing.JPanel

    javax.swing.JPanel <|- - nz.ac.wgtn.swen225.lc.app.WinView

    center footer UMLDoclet 2.0.14, PlantUML 1.2021.9
@enduml

PlantUML version 1.2021.9(Sun Jul 25 22:13:56 NZST 2021)
(APACHE source distribution)
Java Runtime: OpenJDK Runtime Environment
JVM: OpenJDK 64-Bit Server VM
Default Encoding: UTF-8
Language: en
Country: NZ
--></g></svg>